%TF.GenerationSoftware,KiCad,Pcbnew,7.0.1-3b83917a11~172~ubuntu22.10.1*%
%TF.CreationDate,2023-04-03T16:10:19+02:00*%
%TF.ProjectId,Model-M-RP2040-USB,4d6f6465-6c2d-44d2-9d52-50323034302d,rev?*%
%TF.SameCoordinates,Original*%
%TF.FileFunction,Legend,Top*%
%TF.FilePolarity,Positive*%
%FSLAX46Y46*%
G04 Gerber Fmt 4.6, Leading zero omitted, Abs format (unit mm)*
G04 Created by KiCad (PCBNEW 7.0.1-3b83917a11~172~ubuntu22.10.1) date 2023-04-03 16:10:19*
%MOMM*%
%LPD*%
G01*
G04 APERTURE LIST*
G04 Aperture macros list*
%AMRoundRect*
0 Rectangle with rounded corners*
0 $1 Rounding radius*
0 $2 $3 $4 $5 $6 $7 $8 $9 X,Y pos of 4 corners*
0 Add a 4 corners polygon primitive as box body*
4,1,4,$2,$3,$4,$5,$6,$7,$8,$9,$2,$3,0*
0 Add four circle primitives for the rounded corners*
1,1,$1+$1,$2,$3*
1,1,$1+$1,$4,$5*
1,1,$1+$1,$6,$7*
1,1,$1+$1,$8,$9*
0 Add four rect primitives between the rounded corners*
20,1,$1+$1,$2,$3,$4,$5,0*
20,1,$1+$1,$4,$5,$6,$7,0*
20,1,$1+$1,$6,$7,$8,$9,0*
20,1,$1+$1,$8,$9,$2,$3,0*%
%AMFreePoly0*
4,1,58,1.881242,0.792533,1.914585,0.788777,1.924216,0.782725,1.935306,0.780194,1.961541,0.759271,1.989950,0.741421,2.341421,0.389950,2.359271,0.361541,2.380194,0.335306,2.382725,0.324216,2.388777,0.314585,2.392533,0.281242,2.400000,0.248529,2.400000,-0.248529,2.392533,-0.281242,2.388777,-0.314585,2.382725,-0.324216,2.380194,-0.335306,2.359271,-0.361541,2.341421,-0.389950,
1.989950,-0.741421,1.961541,-0.759271,1.935306,-0.780194,1.924216,-0.782725,1.914585,-0.788777,1.881242,-0.792533,1.848529,-0.800000,0.000000,-0.800000,-0.248529,-0.800000,-0.281242,-0.792533,-0.314585,-0.788777,-0.324216,-0.782725,-0.335306,-0.780194,-0.361541,-0.759271,-0.389950,-0.741421,-0.741421,-0.389950,-0.759271,-0.361541,-0.780194,-0.335306,-0.782725,-0.324216,-0.788777,-0.314585,
-0.792533,-0.281242,-0.800000,-0.248529,-0.800000,0.248529,-0.792533,0.281242,-0.788777,0.314585,-0.782725,0.324216,-0.780194,0.335306,-0.759271,0.361541,-0.741421,0.389950,-0.389950,0.741421,-0.361541,0.759271,-0.335306,0.780194,-0.324216,0.782725,-0.314585,0.788777,-0.281242,0.792533,-0.248529,0.800000,1.848529,0.800000,1.881242,0.792533,1.881242,0.792533,$1*%
%AMFreePoly1*
4,1,58,0.281242,0.792533,0.314585,0.788777,0.324216,0.782725,0.335306,0.780194,0.361541,0.759271,0.389950,0.741421,0.741421,0.389950,0.759271,0.361541,0.780194,0.335306,0.782725,0.324216,0.788777,0.314585,0.792533,0.281242,0.800000,0.248529,0.800000,-0.248529,0.792533,-0.281242,0.788777,-0.314585,0.782725,-0.324216,0.780194,-0.335306,0.759271,-0.361541,0.741421,-0.389950,
0.389950,-0.741421,0.361541,-0.759271,0.335306,-0.780194,0.324216,-0.782725,0.314585,-0.788777,0.281242,-0.792533,0.248529,-0.800000,0.000000,-0.800000,-0.248529,-0.800000,-0.281242,-0.792533,-0.314585,-0.788777,-0.324216,-0.782725,-0.335306,-0.780194,-0.361541,-0.759271,-0.389950,-0.741421,-0.741421,-0.389950,-0.759271,-0.361541,-0.780194,-0.335306,-0.782725,-0.324216,-0.788777,-0.314585,
-0.792533,-0.281242,-0.800000,-0.248529,-0.800000,0.248529,-0.792533,0.281242,-0.788777,0.314585,-0.782725,0.324216,-0.780194,0.335306,-0.759271,0.361541,-0.741421,0.389950,-0.389950,0.741421,-0.361541,0.759271,-0.335306,0.780194,-0.324216,0.782725,-0.314585,0.788777,-0.281242,0.792533,-0.248529,0.800000,0.248529,0.800000,0.281242,0.792533,0.281242,0.792533,$1*%
%AMFreePoly2*
4,1,58,0.281242,2.392533,0.314585,2.388777,0.324216,2.382725,0.335306,2.380194,0.361541,2.359271,0.389950,2.341421,0.741421,1.989950,0.759271,1.961541,0.780194,1.935306,0.782725,1.924216,0.788777,1.914585,0.792533,1.881242,0.800000,1.848529,0.800000,-0.248529,0.792533,-0.281242,0.788777,-0.314585,0.782725,-0.324216,0.780194,-0.335306,0.759271,-0.361541,0.741421,-0.389950,
0.389950,-0.741421,0.361541,-0.759271,0.335306,-0.780194,0.324216,-0.782725,0.314585,-0.788777,0.281242,-0.792533,0.248529,-0.800000,0.000000,-0.800000,-0.248529,-0.800000,-0.281242,-0.792533,-0.314585,-0.788777,-0.324216,-0.782725,-0.335306,-0.780194,-0.361541,-0.759271,-0.389950,-0.741421,-0.741421,-0.389950,-0.759271,-0.361541,-0.780194,-0.335306,-0.782725,-0.324216,-0.788777,-0.314585,
-0.792533,-0.281242,-0.800000,-0.248529,-0.800000,1.848529,-0.792533,1.881242,-0.788777,1.914585,-0.782725,1.924216,-0.780194,1.935306,-0.759271,1.961541,-0.741421,1.989950,-0.389950,2.341421,-0.361541,2.359271,-0.335306,2.380194,-0.324216,2.382725,-0.314585,2.388777,-0.281242,2.392533,-0.248529,2.400000,0.248529,2.400000,0.281242,2.392533,0.281242,2.392533,$1*%
G04 Aperture macros list end*
%ADD10C,0.200000*%
%ADD11C,0.300000*%
%ADD12C,0.010000*%
%ADD13C,0.120000*%
%ADD14C,0.650000*%
%ADD15R,0.570000X2.450000*%
%ADD16R,0.300000X2.450000*%
%ADD17RoundRect,0.525000X0.525000X0.725000X-0.525000X0.725000X-0.525000X-0.725000X0.525000X-0.725000X0*%
%ADD18RoundRect,0.500000X0.550000X0.500000X-0.550000X0.500000X-0.550000X-0.500000X0.550000X-0.500000X0*%
%ADD19O,1.000000X2.100000*%
%ADD20O,1.000000X1.600000*%
%ADD21FreePoly0,90.000000*%
%ADD22FreePoly1,90.000000*%
%ADD23O,1.600000X3.200000*%
%ADD24C,1.600000*%
%ADD25RoundRect,0.200000X0.600000X-1.400000X0.600000X1.400000X-0.600000X1.400000X-0.600000X-1.400000X0*%
%ADD26RoundRect,0.200000X0.600000X-0.600000X0.600000X0.600000X-0.600000X0.600000X-0.600000X-0.600000X0*%
%ADD27FreePoly2,90.000000*%
%ADD28RoundRect,0.200000X1.400000X-0.600000X1.400000X0.600000X-1.400000X0.600000X-1.400000X-0.600000X0*%
%ADD29O,3.200000X1.600000*%
%ADD30RoundRect,0.300000X0.450000X-0.450000X0.450000X0.450000X-0.450000X0.450000X-0.450000X-0.450000X0*%
%ADD31C,3.500000*%
%ADD32C,1.500000*%
%ADD33R,1.700000X1.700000*%
%ADD34O,1.700000X1.700000*%
%ADD35RoundRect,0.200000X0.275000X-0.200000X0.275000X0.200000X-0.275000X0.200000X-0.275000X-0.200000X0*%
%ADD36RoundRect,0.150000X0.150000X-0.825000X0.150000X0.825000X-0.150000X0.825000X-0.150000X-0.825000X0*%
%ADD37RoundRect,0.225000X-0.250000X0.225000X-0.250000X-0.225000X0.250000X-0.225000X0.250000X0.225000X0*%
%ADD38RoundRect,0.150000X-0.150000X0.512500X-0.150000X-0.512500X0.150000X-0.512500X0.150000X0.512500X0*%
%ADD39RoundRect,0.150000X0.150000X-0.587500X0.150000X0.587500X-0.150000X0.587500X-0.150000X-0.587500X0*%
G04 APERTURE END LIST*
D10*
X171374619Y-56868904D02*
X171336523Y-56907000D01*
X171336523Y-56907000D02*
X171222238Y-56945095D01*
X171222238Y-56945095D02*
X171146047Y-56945095D01*
X171146047Y-56945095D02*
X171031761Y-56907000D01*
X171031761Y-56907000D02*
X170955571Y-56830809D01*
X170955571Y-56830809D02*
X170917476Y-56754619D01*
X170917476Y-56754619D02*
X170879380Y-56602238D01*
X170879380Y-56602238D02*
X170879380Y-56487952D01*
X170879380Y-56487952D02*
X170917476Y-56335571D01*
X170917476Y-56335571D02*
X170955571Y-56259380D01*
X170955571Y-56259380D02*
X171031761Y-56183190D01*
X171031761Y-56183190D02*
X171146047Y-56145095D01*
X171146047Y-56145095D02*
X171222238Y-56145095D01*
X171222238Y-56145095D02*
X171336523Y-56183190D01*
X171336523Y-56183190D02*
X171374619Y-56221285D01*
X172098428Y-56945095D02*
X171717476Y-56945095D01*
X171717476Y-56945095D02*
X171717476Y-56145095D01*
X172365095Y-56945095D02*
X172365095Y-56145095D01*
X172822238Y-56945095D02*
X172479380Y-56487952D01*
X172822238Y-56145095D02*
X172365095Y-56602238D01*
X170917476Y-51865095D02*
X170917476Y-51065095D01*
X171450809Y-51065095D02*
X171603190Y-51065095D01*
X171603190Y-51065095D02*
X171679380Y-51103190D01*
X171679380Y-51103190D02*
X171755571Y-51179380D01*
X171755571Y-51179380D02*
X171793666Y-51331761D01*
X171793666Y-51331761D02*
X171793666Y-51598428D01*
X171793666Y-51598428D02*
X171755571Y-51750809D01*
X171755571Y-51750809D02*
X171679380Y-51827000D01*
X171679380Y-51827000D02*
X171603190Y-51865095D01*
X171603190Y-51865095D02*
X171450809Y-51865095D01*
X171450809Y-51865095D02*
X171374618Y-51827000D01*
X171374618Y-51827000D02*
X171298428Y-51750809D01*
X171298428Y-51750809D02*
X171260332Y-51598428D01*
X171260332Y-51598428D02*
X171260332Y-51331761D01*
X171260332Y-51331761D02*
X171298428Y-51179380D01*
X171298428Y-51179380D02*
X171374618Y-51103190D01*
X171374618Y-51103190D02*
X171450809Y-51065095D01*
D11*
X33797142Y-65241428D02*
X33797142Y-63741428D01*
X35011428Y-64455714D02*
X35225714Y-64527142D01*
X35225714Y-64527142D02*
X35297143Y-64598571D01*
X35297143Y-64598571D02*
X35368571Y-64741428D01*
X35368571Y-64741428D02*
X35368571Y-64955714D01*
X35368571Y-64955714D02*
X35297143Y-65098571D01*
X35297143Y-65098571D02*
X35225714Y-65170000D01*
X35225714Y-65170000D02*
X35082857Y-65241428D01*
X35082857Y-65241428D02*
X34511428Y-65241428D01*
X34511428Y-65241428D02*
X34511428Y-63741428D01*
X34511428Y-63741428D02*
X35011428Y-63741428D01*
X35011428Y-63741428D02*
X35154286Y-63812857D01*
X35154286Y-63812857D02*
X35225714Y-63884285D01*
X35225714Y-63884285D02*
X35297143Y-64027142D01*
X35297143Y-64027142D02*
X35297143Y-64170000D01*
X35297143Y-64170000D02*
X35225714Y-64312857D01*
X35225714Y-64312857D02*
X35154286Y-64384285D01*
X35154286Y-64384285D02*
X35011428Y-64455714D01*
X35011428Y-64455714D02*
X34511428Y-64455714D01*
X36011428Y-65241428D02*
X36011428Y-63741428D01*
X36011428Y-63741428D02*
X36511428Y-64812857D01*
X36511428Y-64812857D02*
X37011428Y-63741428D01*
X37011428Y-63741428D02*
X37011428Y-65241428D01*
X38868571Y-65241428D02*
X38868571Y-63741428D01*
X38868571Y-63741428D02*
X39368571Y-64812857D01*
X39368571Y-64812857D02*
X39868571Y-63741428D01*
X39868571Y-63741428D02*
X39868571Y-65241428D01*
X40797143Y-65241428D02*
X40654286Y-65170000D01*
X40654286Y-65170000D02*
X40582857Y-65098571D01*
X40582857Y-65098571D02*
X40511429Y-64955714D01*
X40511429Y-64955714D02*
X40511429Y-64527142D01*
X40511429Y-64527142D02*
X40582857Y-64384285D01*
X40582857Y-64384285D02*
X40654286Y-64312857D01*
X40654286Y-64312857D02*
X40797143Y-64241428D01*
X40797143Y-64241428D02*
X41011429Y-64241428D01*
X41011429Y-64241428D02*
X41154286Y-64312857D01*
X41154286Y-64312857D02*
X41225715Y-64384285D01*
X41225715Y-64384285D02*
X41297143Y-64527142D01*
X41297143Y-64527142D02*
X41297143Y-64955714D01*
X41297143Y-64955714D02*
X41225715Y-65098571D01*
X41225715Y-65098571D02*
X41154286Y-65170000D01*
X41154286Y-65170000D02*
X41011429Y-65241428D01*
X41011429Y-65241428D02*
X40797143Y-65241428D01*
X42582858Y-65241428D02*
X42582858Y-63741428D01*
X42582858Y-65170000D02*
X42440000Y-65241428D01*
X42440000Y-65241428D02*
X42154286Y-65241428D01*
X42154286Y-65241428D02*
X42011429Y-65170000D01*
X42011429Y-65170000D02*
X41940000Y-65098571D01*
X41940000Y-65098571D02*
X41868572Y-64955714D01*
X41868572Y-64955714D02*
X41868572Y-64527142D01*
X41868572Y-64527142D02*
X41940000Y-64384285D01*
X41940000Y-64384285D02*
X42011429Y-64312857D01*
X42011429Y-64312857D02*
X42154286Y-64241428D01*
X42154286Y-64241428D02*
X42440000Y-64241428D01*
X42440000Y-64241428D02*
X42582858Y-64312857D01*
X43868572Y-65170000D02*
X43725715Y-65241428D01*
X43725715Y-65241428D02*
X43440001Y-65241428D01*
X43440001Y-65241428D02*
X43297143Y-65170000D01*
X43297143Y-65170000D02*
X43225715Y-65027142D01*
X43225715Y-65027142D02*
X43225715Y-64455714D01*
X43225715Y-64455714D02*
X43297143Y-64312857D01*
X43297143Y-64312857D02*
X43440001Y-64241428D01*
X43440001Y-64241428D02*
X43725715Y-64241428D01*
X43725715Y-64241428D02*
X43868572Y-64312857D01*
X43868572Y-64312857D02*
X43940001Y-64455714D01*
X43940001Y-64455714D02*
X43940001Y-64598571D01*
X43940001Y-64598571D02*
X43225715Y-64741428D01*
X44797143Y-65241428D02*
X44654286Y-65170000D01*
X44654286Y-65170000D02*
X44582857Y-65027142D01*
X44582857Y-65027142D02*
X44582857Y-63741428D01*
X46511428Y-65241428D02*
X46511428Y-63741428D01*
X46511428Y-63741428D02*
X47011428Y-64812857D01*
X47011428Y-64812857D02*
X47511428Y-63741428D01*
X47511428Y-63741428D02*
X47511428Y-65241428D01*
X50225714Y-65241428D02*
X49725714Y-64527142D01*
X49368571Y-65241428D02*
X49368571Y-63741428D01*
X49368571Y-63741428D02*
X49940000Y-63741428D01*
X49940000Y-63741428D02*
X50082857Y-63812857D01*
X50082857Y-63812857D02*
X50154286Y-63884285D01*
X50154286Y-63884285D02*
X50225714Y-64027142D01*
X50225714Y-64027142D02*
X50225714Y-64241428D01*
X50225714Y-64241428D02*
X50154286Y-64384285D01*
X50154286Y-64384285D02*
X50082857Y-64455714D01*
X50082857Y-64455714D02*
X49940000Y-64527142D01*
X49940000Y-64527142D02*
X49368571Y-64527142D01*
X50868571Y-65241428D02*
X50868571Y-63741428D01*
X50868571Y-63741428D02*
X51440000Y-63741428D01*
X51440000Y-63741428D02*
X51582857Y-63812857D01*
X51582857Y-63812857D02*
X51654286Y-63884285D01*
X51654286Y-63884285D02*
X51725714Y-64027142D01*
X51725714Y-64027142D02*
X51725714Y-64241428D01*
X51725714Y-64241428D02*
X51654286Y-64384285D01*
X51654286Y-64384285D02*
X51582857Y-64455714D01*
X51582857Y-64455714D02*
X51440000Y-64527142D01*
X51440000Y-64527142D02*
X50868571Y-64527142D01*
X52297143Y-63884285D02*
X52368571Y-63812857D01*
X52368571Y-63812857D02*
X52511429Y-63741428D01*
X52511429Y-63741428D02*
X52868571Y-63741428D01*
X52868571Y-63741428D02*
X53011429Y-63812857D01*
X53011429Y-63812857D02*
X53082857Y-63884285D01*
X53082857Y-63884285D02*
X53154286Y-64027142D01*
X53154286Y-64027142D02*
X53154286Y-64170000D01*
X53154286Y-64170000D02*
X53082857Y-64384285D01*
X53082857Y-64384285D02*
X52225714Y-65241428D01*
X52225714Y-65241428D02*
X53154286Y-65241428D01*
X54082857Y-63741428D02*
X54225714Y-63741428D01*
X54225714Y-63741428D02*
X54368571Y-63812857D01*
X54368571Y-63812857D02*
X54440000Y-63884285D01*
X54440000Y-63884285D02*
X54511428Y-64027142D01*
X54511428Y-64027142D02*
X54582857Y-64312857D01*
X54582857Y-64312857D02*
X54582857Y-64670000D01*
X54582857Y-64670000D02*
X54511428Y-64955714D01*
X54511428Y-64955714D02*
X54440000Y-65098571D01*
X54440000Y-65098571D02*
X54368571Y-65170000D01*
X54368571Y-65170000D02*
X54225714Y-65241428D01*
X54225714Y-65241428D02*
X54082857Y-65241428D01*
X54082857Y-65241428D02*
X53940000Y-65170000D01*
X53940000Y-65170000D02*
X53868571Y-65098571D01*
X53868571Y-65098571D02*
X53797142Y-64955714D01*
X53797142Y-64955714D02*
X53725714Y-64670000D01*
X53725714Y-64670000D02*
X53725714Y-64312857D01*
X53725714Y-64312857D02*
X53797142Y-64027142D01*
X53797142Y-64027142D02*
X53868571Y-63884285D01*
X53868571Y-63884285D02*
X53940000Y-63812857D01*
X53940000Y-63812857D02*
X54082857Y-63741428D01*
X55868571Y-64241428D02*
X55868571Y-65241428D01*
X55511428Y-63670000D02*
X55154285Y-64741428D01*
X55154285Y-64741428D02*
X56082856Y-64741428D01*
X56939999Y-63741428D02*
X57082856Y-63741428D01*
X57082856Y-63741428D02*
X57225713Y-63812857D01*
X57225713Y-63812857D02*
X57297142Y-63884285D01*
X57297142Y-63884285D02*
X57368570Y-64027142D01*
X57368570Y-64027142D02*
X57439999Y-64312857D01*
X57439999Y-64312857D02*
X57439999Y-64670000D01*
X57439999Y-64670000D02*
X57368570Y-64955714D01*
X57368570Y-64955714D02*
X57297142Y-65098571D01*
X57297142Y-65098571D02*
X57225713Y-65170000D01*
X57225713Y-65170000D02*
X57082856Y-65241428D01*
X57082856Y-65241428D02*
X56939999Y-65241428D01*
X56939999Y-65241428D02*
X56797142Y-65170000D01*
X56797142Y-65170000D02*
X56725713Y-65098571D01*
X56725713Y-65098571D02*
X56654284Y-64955714D01*
X56654284Y-64955714D02*
X56582856Y-64670000D01*
X56582856Y-64670000D02*
X56582856Y-64312857D01*
X56582856Y-64312857D02*
X56654284Y-64027142D01*
X56654284Y-64027142D02*
X56725713Y-63884285D01*
X56725713Y-63884285D02*
X56797142Y-63812857D01*
X56797142Y-63812857D02*
X56939999Y-63741428D01*
X60082855Y-65098571D02*
X60011427Y-65170000D01*
X60011427Y-65170000D02*
X59797141Y-65241428D01*
X59797141Y-65241428D02*
X59654284Y-65241428D01*
X59654284Y-65241428D02*
X59439998Y-65170000D01*
X59439998Y-65170000D02*
X59297141Y-65027142D01*
X59297141Y-65027142D02*
X59225712Y-64884285D01*
X59225712Y-64884285D02*
X59154284Y-64598571D01*
X59154284Y-64598571D02*
X59154284Y-64384285D01*
X59154284Y-64384285D02*
X59225712Y-64098571D01*
X59225712Y-64098571D02*
X59297141Y-63955714D01*
X59297141Y-63955714D02*
X59439998Y-63812857D01*
X59439998Y-63812857D02*
X59654284Y-63741428D01*
X59654284Y-63741428D02*
X59797141Y-63741428D01*
X59797141Y-63741428D02*
X60011427Y-63812857D01*
X60011427Y-63812857D02*
X60082855Y-63884285D01*
X60939998Y-65241428D02*
X60797141Y-65170000D01*
X60797141Y-65170000D02*
X60725712Y-65098571D01*
X60725712Y-65098571D02*
X60654284Y-64955714D01*
X60654284Y-64955714D02*
X60654284Y-64527142D01*
X60654284Y-64527142D02*
X60725712Y-64384285D01*
X60725712Y-64384285D02*
X60797141Y-64312857D01*
X60797141Y-64312857D02*
X60939998Y-64241428D01*
X60939998Y-64241428D02*
X61154284Y-64241428D01*
X61154284Y-64241428D02*
X61297141Y-64312857D01*
X61297141Y-64312857D02*
X61368570Y-64384285D01*
X61368570Y-64384285D02*
X61439998Y-64527142D01*
X61439998Y-64527142D02*
X61439998Y-64955714D01*
X61439998Y-64955714D02*
X61368570Y-65098571D01*
X61368570Y-65098571D02*
X61297141Y-65170000D01*
X61297141Y-65170000D02*
X61154284Y-65241428D01*
X61154284Y-65241428D02*
X60939998Y-65241428D01*
X62082855Y-64241428D02*
X62082855Y-65241428D01*
X62082855Y-64384285D02*
X62154284Y-64312857D01*
X62154284Y-64312857D02*
X62297141Y-64241428D01*
X62297141Y-64241428D02*
X62511427Y-64241428D01*
X62511427Y-64241428D02*
X62654284Y-64312857D01*
X62654284Y-64312857D02*
X62725713Y-64455714D01*
X62725713Y-64455714D02*
X62725713Y-65241428D01*
X63225713Y-64241428D02*
X63797141Y-64241428D01*
X63439998Y-63741428D02*
X63439998Y-65027142D01*
X63439998Y-65027142D02*
X63511427Y-65170000D01*
X63511427Y-65170000D02*
X63654284Y-65241428D01*
X63654284Y-65241428D02*
X63797141Y-65241428D01*
X64297141Y-65241428D02*
X64297141Y-64241428D01*
X64297141Y-64527142D02*
X64368570Y-64384285D01*
X64368570Y-64384285D02*
X64439999Y-64312857D01*
X64439999Y-64312857D02*
X64582856Y-64241428D01*
X64582856Y-64241428D02*
X64725713Y-64241428D01*
X65439998Y-65241428D02*
X65297141Y-65170000D01*
X65297141Y-65170000D02*
X65225712Y-65098571D01*
X65225712Y-65098571D02*
X65154284Y-64955714D01*
X65154284Y-64955714D02*
X65154284Y-64527142D01*
X65154284Y-64527142D02*
X65225712Y-64384285D01*
X65225712Y-64384285D02*
X65297141Y-64312857D01*
X65297141Y-64312857D02*
X65439998Y-64241428D01*
X65439998Y-64241428D02*
X65654284Y-64241428D01*
X65654284Y-64241428D02*
X65797141Y-64312857D01*
X65797141Y-64312857D02*
X65868570Y-64384285D01*
X65868570Y-64384285D02*
X65939998Y-64527142D01*
X65939998Y-64527142D02*
X65939998Y-64955714D01*
X65939998Y-64955714D02*
X65868570Y-65098571D01*
X65868570Y-65098571D02*
X65797141Y-65170000D01*
X65797141Y-65170000D02*
X65654284Y-65241428D01*
X65654284Y-65241428D02*
X65439998Y-65241428D01*
X66797141Y-65241428D02*
X66654284Y-65170000D01*
X66654284Y-65170000D02*
X66582855Y-65027142D01*
X66582855Y-65027142D02*
X66582855Y-63741428D01*
X67582855Y-65241428D02*
X67439998Y-65170000D01*
X67439998Y-65170000D02*
X67368569Y-65027142D01*
X67368569Y-65027142D02*
X67368569Y-63741428D01*
X68725712Y-65170000D02*
X68582855Y-65241428D01*
X68582855Y-65241428D02*
X68297141Y-65241428D01*
X68297141Y-65241428D02*
X68154283Y-65170000D01*
X68154283Y-65170000D02*
X68082855Y-65027142D01*
X68082855Y-65027142D02*
X68082855Y-64455714D01*
X68082855Y-64455714D02*
X68154283Y-64312857D01*
X68154283Y-64312857D02*
X68297141Y-64241428D01*
X68297141Y-64241428D02*
X68582855Y-64241428D01*
X68582855Y-64241428D02*
X68725712Y-64312857D01*
X68725712Y-64312857D02*
X68797141Y-64455714D01*
X68797141Y-64455714D02*
X68797141Y-64598571D01*
X68797141Y-64598571D02*
X68082855Y-64741428D01*
X69439997Y-65241428D02*
X69439997Y-64241428D01*
X69439997Y-64527142D02*
X69511426Y-64384285D01*
X69511426Y-64384285D02*
X69582855Y-64312857D01*
X69582855Y-64312857D02*
X69725712Y-64241428D01*
X69725712Y-64241428D02*
X69868569Y-64241428D01*
X71368568Y-64241428D02*
X71725711Y-65241428D01*
X71725711Y-65241428D02*
X72082854Y-64241428D01*
X72939997Y-63741428D02*
X73082854Y-63741428D01*
X73082854Y-63741428D02*
X73225711Y-63812857D01*
X73225711Y-63812857D02*
X73297140Y-63884285D01*
X73297140Y-63884285D02*
X73368568Y-64027142D01*
X73368568Y-64027142D02*
X73439997Y-64312857D01*
X73439997Y-64312857D02*
X73439997Y-64670000D01*
X73439997Y-64670000D02*
X73368568Y-64955714D01*
X73368568Y-64955714D02*
X73297140Y-65098571D01*
X73297140Y-65098571D02*
X73225711Y-65170000D01*
X73225711Y-65170000D02*
X73082854Y-65241428D01*
X73082854Y-65241428D02*
X72939997Y-65241428D01*
X72939997Y-65241428D02*
X72797140Y-65170000D01*
X72797140Y-65170000D02*
X72725711Y-65098571D01*
X72725711Y-65098571D02*
X72654282Y-64955714D01*
X72654282Y-64955714D02*
X72582854Y-64670000D01*
X72582854Y-64670000D02*
X72582854Y-64312857D01*
X72582854Y-64312857D02*
X72654282Y-64027142D01*
X72654282Y-64027142D02*
X72725711Y-63884285D01*
X72725711Y-63884285D02*
X72797140Y-63812857D01*
X72797140Y-63812857D02*
X72939997Y-63741428D01*
X74082853Y-65098571D02*
X74154282Y-65170000D01*
X74154282Y-65170000D02*
X74082853Y-65241428D01*
X74082853Y-65241428D02*
X74011425Y-65170000D01*
X74011425Y-65170000D02*
X74082853Y-65098571D01*
X74082853Y-65098571D02*
X74082853Y-65241428D01*
X75582854Y-65241428D02*
X74725711Y-65241428D01*
X75154282Y-65241428D02*
X75154282Y-63741428D01*
X75154282Y-63741428D02*
X75011425Y-63955714D01*
X75011425Y-63955714D02*
X74868568Y-64098571D01*
X74868568Y-64098571D02*
X74725711Y-64170000D01*
X77368567Y-65241428D02*
X77368567Y-63741428D01*
X77368567Y-64312857D02*
X77511425Y-64241428D01*
X77511425Y-64241428D02*
X77797139Y-64241428D01*
X77797139Y-64241428D02*
X77939996Y-64312857D01*
X77939996Y-64312857D02*
X78011425Y-64384285D01*
X78011425Y-64384285D02*
X78082853Y-64527142D01*
X78082853Y-64527142D02*
X78082853Y-64955714D01*
X78082853Y-64955714D02*
X78011425Y-65098571D01*
X78011425Y-65098571D02*
X77939996Y-65170000D01*
X77939996Y-65170000D02*
X77797139Y-65241428D01*
X77797139Y-65241428D02*
X77511425Y-65241428D01*
X77511425Y-65241428D02*
X77368567Y-65170000D01*
X78582853Y-64241428D02*
X78939996Y-65241428D01*
X79297139Y-64241428D02*
X78939996Y-65241428D01*
X78939996Y-65241428D02*
X78797139Y-65598571D01*
X78797139Y-65598571D02*
X78725710Y-65670000D01*
X78725710Y-65670000D02*
X78582853Y-65741428D01*
X80939996Y-65170000D02*
X81154282Y-65241428D01*
X81154282Y-65241428D02*
X81511424Y-65241428D01*
X81511424Y-65241428D02*
X81654282Y-65170000D01*
X81654282Y-65170000D02*
X81725710Y-65098571D01*
X81725710Y-65098571D02*
X81797139Y-64955714D01*
X81797139Y-64955714D02*
X81797139Y-64812857D01*
X81797139Y-64812857D02*
X81725710Y-64670000D01*
X81725710Y-64670000D02*
X81654282Y-64598571D01*
X81654282Y-64598571D02*
X81511424Y-64527142D01*
X81511424Y-64527142D02*
X81225710Y-64455714D01*
X81225710Y-64455714D02*
X81082853Y-64384285D01*
X81082853Y-64384285D02*
X81011424Y-64312857D01*
X81011424Y-64312857D02*
X80939996Y-64170000D01*
X80939996Y-64170000D02*
X80939996Y-64027142D01*
X80939996Y-64027142D02*
X81011424Y-63884285D01*
X81011424Y-63884285D02*
X81082853Y-63812857D01*
X81082853Y-63812857D02*
X81225710Y-63741428D01*
X81225710Y-63741428D02*
X81582853Y-63741428D01*
X81582853Y-63741428D02*
X81797139Y-63812857D01*
X82225710Y-64241428D02*
X82797138Y-64241428D01*
X82439995Y-63741428D02*
X82439995Y-65027142D01*
X82439995Y-65027142D02*
X82511424Y-65170000D01*
X82511424Y-65170000D02*
X82654281Y-65241428D01*
X82654281Y-65241428D02*
X82797138Y-65241428D01*
X83868567Y-65170000D02*
X83725710Y-65241428D01*
X83725710Y-65241428D02*
X83439996Y-65241428D01*
X83439996Y-65241428D02*
X83297138Y-65170000D01*
X83297138Y-65170000D02*
X83225710Y-65027142D01*
X83225710Y-65027142D02*
X83225710Y-64455714D01*
X83225710Y-64455714D02*
X83297138Y-64312857D01*
X83297138Y-64312857D02*
X83439996Y-64241428D01*
X83439996Y-64241428D02*
X83725710Y-64241428D01*
X83725710Y-64241428D02*
X83868567Y-64312857D01*
X83868567Y-64312857D02*
X83939996Y-64455714D01*
X83939996Y-64455714D02*
X83939996Y-64598571D01*
X83939996Y-64598571D02*
X83225710Y-64741428D01*
X84368567Y-64241428D02*
X84939995Y-64241428D01*
X84582852Y-65241428D02*
X84582852Y-63955714D01*
X84582852Y-63955714D02*
X84654281Y-63812857D01*
X84654281Y-63812857D02*
X84797138Y-63741428D01*
X84797138Y-63741428D02*
X84939995Y-63741428D01*
X86082853Y-65241428D02*
X86082853Y-64455714D01*
X86082853Y-64455714D02*
X86011424Y-64312857D01*
X86011424Y-64312857D02*
X85868567Y-64241428D01*
X85868567Y-64241428D02*
X85582853Y-64241428D01*
X85582853Y-64241428D02*
X85439995Y-64312857D01*
X86082853Y-65170000D02*
X85939995Y-65241428D01*
X85939995Y-65241428D02*
X85582853Y-65241428D01*
X85582853Y-65241428D02*
X85439995Y-65170000D01*
X85439995Y-65170000D02*
X85368567Y-65027142D01*
X85368567Y-65027142D02*
X85368567Y-64884285D01*
X85368567Y-64884285D02*
X85439995Y-64741428D01*
X85439995Y-64741428D02*
X85582853Y-64670000D01*
X85582853Y-64670000D02*
X85939995Y-64670000D01*
X85939995Y-64670000D02*
X86082853Y-64598571D01*
X86797138Y-64241428D02*
X86797138Y-65241428D01*
X86797138Y-64384285D02*
X86868567Y-64312857D01*
X86868567Y-64312857D02*
X87011424Y-64241428D01*
X87011424Y-64241428D02*
X87225710Y-64241428D01*
X87225710Y-64241428D02*
X87368567Y-64312857D01*
X87368567Y-64312857D02*
X87439996Y-64455714D01*
X87439996Y-64455714D02*
X87439996Y-65241428D01*
X89297138Y-65241428D02*
X89297138Y-63741428D01*
X90154281Y-65241428D02*
X89511424Y-64384285D01*
X90154281Y-63741428D02*
X89297138Y-64598571D01*
X91368567Y-65170000D02*
X91225710Y-65241428D01*
X91225710Y-65241428D02*
X90939996Y-65241428D01*
X90939996Y-65241428D02*
X90797138Y-65170000D01*
X90797138Y-65170000D02*
X90725710Y-65027142D01*
X90725710Y-65027142D02*
X90725710Y-64455714D01*
X90725710Y-64455714D02*
X90797138Y-64312857D01*
X90797138Y-64312857D02*
X90939996Y-64241428D01*
X90939996Y-64241428D02*
X91225710Y-64241428D01*
X91225710Y-64241428D02*
X91368567Y-64312857D01*
X91368567Y-64312857D02*
X91439996Y-64455714D01*
X91439996Y-64455714D02*
X91439996Y-64598571D01*
X91439996Y-64598571D02*
X90725710Y-64741428D01*
X92082852Y-65241428D02*
X92082852Y-64241428D01*
X92082852Y-64527142D02*
X92154281Y-64384285D01*
X92154281Y-64384285D02*
X92225710Y-64312857D01*
X92225710Y-64312857D02*
X92368567Y-64241428D01*
X92368567Y-64241428D02*
X92511424Y-64241428D01*
X93011423Y-65241428D02*
X93011423Y-63741428D01*
X93154281Y-64670000D02*
X93582852Y-65241428D01*
X93582852Y-64241428D02*
X93011423Y-64812857D01*
X94225709Y-65241428D02*
X94225709Y-64241428D01*
X94225709Y-64384285D02*
X94297138Y-64312857D01*
X94297138Y-64312857D02*
X94439995Y-64241428D01*
X94439995Y-64241428D02*
X94654281Y-64241428D01*
X94654281Y-64241428D02*
X94797138Y-64312857D01*
X94797138Y-64312857D02*
X94868567Y-64455714D01*
X94868567Y-64455714D02*
X94868567Y-65241428D01*
X94868567Y-64455714D02*
X94939995Y-64312857D01*
X94939995Y-64312857D02*
X95082852Y-64241428D01*
X95082852Y-64241428D02*
X95297138Y-64241428D01*
X95297138Y-64241428D02*
X95439995Y-64312857D01*
X95439995Y-64312857D02*
X95511424Y-64455714D01*
X95511424Y-64455714D02*
X95511424Y-65241428D01*
X96868567Y-65241428D02*
X96868567Y-64455714D01*
X96868567Y-64455714D02*
X96797138Y-64312857D01*
X96797138Y-64312857D02*
X96654281Y-64241428D01*
X96654281Y-64241428D02*
X96368567Y-64241428D01*
X96368567Y-64241428D02*
X96225709Y-64312857D01*
X96868567Y-65170000D02*
X96725709Y-65241428D01*
X96725709Y-65241428D02*
X96368567Y-65241428D01*
X96368567Y-65241428D02*
X96225709Y-65170000D01*
X96225709Y-65170000D02*
X96154281Y-65027142D01*
X96154281Y-65027142D02*
X96154281Y-64884285D01*
X96154281Y-64884285D02*
X96225709Y-64741428D01*
X96225709Y-64741428D02*
X96368567Y-64670000D01*
X96368567Y-64670000D02*
X96725709Y-64670000D01*
X96725709Y-64670000D02*
X96868567Y-64598571D01*
X97582852Y-64241428D02*
X97582852Y-65241428D01*
X97582852Y-64384285D02*
X97654281Y-64312857D01*
X97654281Y-64312857D02*
X97797138Y-64241428D01*
X97797138Y-64241428D02*
X98011424Y-64241428D01*
X98011424Y-64241428D02*
X98154281Y-64312857D01*
X98154281Y-64312857D02*
X98225710Y-64455714D01*
X98225710Y-64455714D02*
X98225710Y-65241428D01*
X98939995Y-64241428D02*
X98939995Y-65241428D01*
X98939995Y-64384285D02*
X99011424Y-64312857D01*
X99011424Y-64312857D02*
X99154281Y-64241428D01*
X99154281Y-64241428D02*
X99368567Y-64241428D01*
X99368567Y-64241428D02*
X99511424Y-64312857D01*
X99511424Y-64312857D02*
X99582853Y-64455714D01*
X99582853Y-64455714D02*
X99582853Y-65241428D01*
X101868567Y-65812857D02*
X101797138Y-65741428D01*
X101797138Y-65741428D02*
X101654281Y-65527142D01*
X101654281Y-65527142D02*
X101582853Y-65384285D01*
X101582853Y-65384285D02*
X101511424Y-65170000D01*
X101511424Y-65170000D02*
X101439995Y-64812857D01*
X101439995Y-64812857D02*
X101439995Y-64527142D01*
X101439995Y-64527142D02*
X101511424Y-64170000D01*
X101511424Y-64170000D02*
X101582853Y-63955714D01*
X101582853Y-63955714D02*
X101654281Y-63812857D01*
X101654281Y-63812857D02*
X101797138Y-63598571D01*
X101797138Y-63598571D02*
X101868567Y-63527142D01*
X102439995Y-65241428D02*
X102439995Y-63741428D01*
X103297138Y-65241428D02*
X102654281Y-64384285D01*
X103297138Y-63741428D02*
X102439995Y-64598571D01*
X104582853Y-65241428D02*
X104582853Y-64455714D01*
X104582853Y-64455714D02*
X104511424Y-64312857D01*
X104511424Y-64312857D02*
X104368567Y-64241428D01*
X104368567Y-64241428D02*
X104082853Y-64241428D01*
X104082853Y-64241428D02*
X103939995Y-64312857D01*
X104582853Y-65170000D02*
X104439995Y-65241428D01*
X104439995Y-65241428D02*
X104082853Y-65241428D01*
X104082853Y-65241428D02*
X103939995Y-65170000D01*
X103939995Y-65170000D02*
X103868567Y-65027142D01*
X103868567Y-65027142D02*
X103868567Y-64884285D01*
X103868567Y-64884285D02*
X103939995Y-64741428D01*
X103939995Y-64741428D02*
X104082853Y-64670000D01*
X104082853Y-64670000D02*
X104439995Y-64670000D01*
X104439995Y-64670000D02*
X104582853Y-64598571D01*
X105297138Y-65241428D02*
X105297138Y-64241428D01*
X105297138Y-64527142D02*
X105368567Y-64384285D01*
X105368567Y-64384285D02*
X105439996Y-64312857D01*
X105439996Y-64312857D02*
X105582853Y-64241428D01*
X105582853Y-64241428D02*
X105725710Y-64241428D01*
X106439995Y-65241428D02*
X106297138Y-65170000D01*
X106297138Y-65170000D02*
X106225709Y-65027142D01*
X106225709Y-65027142D02*
X106225709Y-63741428D01*
X107011423Y-65241428D02*
X107011423Y-63741428D01*
X107868566Y-65241428D02*
X107225709Y-64384285D01*
X107868566Y-63741428D02*
X107011423Y-64598571D01*
X108582852Y-65241428D02*
X108868566Y-65241428D01*
X108868566Y-65241428D02*
X109011423Y-65170000D01*
X109011423Y-65170000D02*
X109082852Y-65098571D01*
X109082852Y-65098571D02*
X109225709Y-64884285D01*
X109225709Y-64884285D02*
X109297138Y-64598571D01*
X109297138Y-64598571D02*
X109297138Y-64027142D01*
X109297138Y-64027142D02*
X109225709Y-63884285D01*
X109225709Y-63884285D02*
X109154281Y-63812857D01*
X109154281Y-63812857D02*
X109011423Y-63741428D01*
X109011423Y-63741428D02*
X108725709Y-63741428D01*
X108725709Y-63741428D02*
X108582852Y-63812857D01*
X108582852Y-63812857D02*
X108511423Y-63884285D01*
X108511423Y-63884285D02*
X108439995Y-64027142D01*
X108439995Y-64027142D02*
X108439995Y-64384285D01*
X108439995Y-64384285D02*
X108511423Y-64527142D01*
X108511423Y-64527142D02*
X108582852Y-64598571D01*
X108582852Y-64598571D02*
X108725709Y-64670000D01*
X108725709Y-64670000D02*
X109011423Y-64670000D01*
X109011423Y-64670000D02*
X109154281Y-64598571D01*
X109154281Y-64598571D02*
X109225709Y-64527142D01*
X109225709Y-64527142D02*
X109297138Y-64384285D01*
X110225709Y-63741428D02*
X110368566Y-63741428D01*
X110368566Y-63741428D02*
X110511423Y-63812857D01*
X110511423Y-63812857D02*
X110582852Y-63884285D01*
X110582852Y-63884285D02*
X110654280Y-64027142D01*
X110654280Y-64027142D02*
X110725709Y-64312857D01*
X110725709Y-64312857D02*
X110725709Y-64670000D01*
X110725709Y-64670000D02*
X110654280Y-64955714D01*
X110654280Y-64955714D02*
X110582852Y-65098571D01*
X110582852Y-65098571D02*
X110511423Y-65170000D01*
X110511423Y-65170000D02*
X110368566Y-65241428D01*
X110368566Y-65241428D02*
X110225709Y-65241428D01*
X110225709Y-65241428D02*
X110082852Y-65170000D01*
X110082852Y-65170000D02*
X110011423Y-65098571D01*
X110011423Y-65098571D02*
X109939994Y-64955714D01*
X109939994Y-64955714D02*
X109868566Y-64670000D01*
X109868566Y-64670000D02*
X109868566Y-64312857D01*
X109868566Y-64312857D02*
X109939994Y-64027142D01*
X109939994Y-64027142D02*
X110011423Y-63884285D01*
X110011423Y-63884285D02*
X110082852Y-63812857D01*
X110082852Y-63812857D02*
X110225709Y-63741428D01*
X111225708Y-65812857D02*
X111297137Y-65741428D01*
X111297137Y-65741428D02*
X111439994Y-65527142D01*
X111439994Y-65527142D02*
X111511423Y-65384285D01*
X111511423Y-65384285D02*
X111582851Y-65170000D01*
X111582851Y-65170000D02*
X111654280Y-64812857D01*
X111654280Y-64812857D02*
X111654280Y-64527142D01*
X111654280Y-64527142D02*
X111582851Y-64170000D01*
X111582851Y-64170000D02*
X111511423Y-63955714D01*
X111511423Y-63955714D02*
X111439994Y-63812857D01*
X111439994Y-63812857D02*
X111297137Y-63598571D01*
X111297137Y-63598571D02*
X111225708Y-63527142D01*
D12*
X68476536Y-53770427D02*
X68589118Y-54367618D01*
X69004531Y-54538865D01*
X69419945Y-54710112D01*
X69918302Y-54371233D01*
X70057869Y-54276877D01*
X70184029Y-54192630D01*
X70290896Y-54122338D01*
X70372583Y-54069847D01*
X70423202Y-54039004D01*
X70436987Y-54032353D01*
X70461821Y-54049458D01*
X70514889Y-54096744D01*
X70590241Y-54168172D01*
X70681930Y-54257700D01*
X70784008Y-54359289D01*
X70890527Y-54466898D01*
X70995537Y-54574487D01*
X71093092Y-54676015D01*
X71177243Y-54765441D01*
X71242041Y-54836726D01*
X71281538Y-54883828D01*
X71290981Y-54899592D01*
X71277392Y-54928653D01*
X71239294Y-54992321D01*
X71180694Y-55084367D01*
X71105598Y-55198564D01*
X71018009Y-55328684D01*
X70967255Y-55402901D01*
X70874746Y-55538422D01*
X70792541Y-55660716D01*
X70724631Y-55763695D01*
X70675001Y-55841273D01*
X70647641Y-55887361D01*
X70643530Y-55897047D01*
X70652850Y-55924574D01*
X70678255Y-55988728D01*
X70715912Y-56080490D01*
X70761987Y-56190839D01*
X70812647Y-56310755D01*
X70864060Y-56431219D01*
X70912390Y-56543209D01*
X70953807Y-56637707D01*
X70984475Y-56705692D01*
X71000562Y-56738143D01*
X71001512Y-56739420D01*
X71026773Y-56745617D01*
X71094046Y-56759440D01*
X71196361Y-56779532D01*
X71326742Y-56804534D01*
X71478217Y-56833086D01*
X71566594Y-56849551D01*
X71728453Y-56880369D01*
X71874650Y-56909694D01*
X71997788Y-56935921D01*
X72090470Y-56957446D01*
X72145302Y-56972665D01*
X72156324Y-56977493D01*
X72167119Y-57010174D01*
X72175830Y-57083985D01*
X72182461Y-57190292D01*
X72187019Y-57320467D01*
X72189510Y-57465876D01*
X72189939Y-57617890D01*
X72188312Y-57767877D01*
X72184636Y-57907206D01*
X72178916Y-58027245D01*
X72171158Y-58119365D01*
X72161369Y-58174932D01*
X72155497Y-58186500D01*
X72120400Y-58200365D01*
X72046029Y-58220188D01*
X71942224Y-58243639D01*
X71818820Y-58268391D01*
X71775742Y-58276398D01*
X71568048Y-58314441D01*
X71403985Y-58345079D01*
X71278131Y-58369529D01*
X71185066Y-58389009D01*
X71119368Y-58404736D01*
X71075618Y-58417928D01*
X71048393Y-58429804D01*
X71032273Y-58441580D01*
X71030018Y-58443908D01*
X71007504Y-58481400D01*
X70973159Y-58554365D01*
X70930412Y-58653867D01*
X70882693Y-58770973D01*
X70833431Y-58896748D01*
X70786056Y-59022257D01*
X70743996Y-59138565D01*
X70710681Y-59236739D01*
X70689542Y-59307843D01*
X70684006Y-59342942D01*
X70684467Y-59344172D01*
X70703224Y-59372861D01*
X70745777Y-59435985D01*
X70807654Y-59526973D01*
X70884383Y-59639255D01*
X70971492Y-59766260D01*
X70996299Y-59802353D01*
X71084753Y-59933203D01*
X71162589Y-60052591D01*
X71225567Y-60153662D01*
X71269446Y-60229559D01*
X71289986Y-60273427D01*
X71290981Y-60278817D01*
X71273723Y-60307144D01*
X71226036Y-60363261D01*
X71154051Y-60441137D01*
X71063898Y-60534740D01*
X70961706Y-60638041D01*
X70853606Y-60745006D01*
X70745729Y-60849606D01*
X70644205Y-60945809D01*
X70555163Y-61027584D01*
X70484734Y-61088900D01*
X70439048Y-61123726D01*
X70426410Y-61129412D01*
X70396992Y-61116020D01*
X70336762Y-61079899D01*
X70255530Y-61027136D01*
X70193031Y-60984667D01*
X70079786Y-60906740D01*
X69945675Y-60814984D01*
X69811156Y-60723375D01*
X69738834Y-60674346D01*
X69494039Y-60508770D01*
X69288551Y-60619875D01*
X69194937Y-60668548D01*
X69115331Y-60706381D01*
X69061468Y-60727958D01*
X69047758Y-60730961D01*
X69031271Y-60708793D01*
X68998746Y-60646149D01*
X68952609Y-60548809D01*
X68895291Y-60422549D01*
X68829217Y-60273150D01*
X68756816Y-60106388D01*
X68680517Y-59928042D01*
X68602747Y-59743891D01*
X68525935Y-59559712D01*
X68452507Y-59381285D01*
X68384893Y-59214387D01*
X68325521Y-59064797D01*
X68276817Y-58938293D01*
X68241211Y-58840654D01*
X68221131Y-58777657D01*
X68217901Y-58756021D01*
X68243497Y-58728424D01*
X68299539Y-58683625D01*
X68374312Y-58630934D01*
X68380588Y-58626765D01*
X68573846Y-58472069D01*
X68729675Y-58291591D01*
X68846725Y-58091102D01*
X68923646Y-57876374D01*
X68959087Y-57653177D01*
X68951698Y-57427281D01*
X68900128Y-57204459D01*
X68803027Y-56990479D01*
X68774459Y-56943664D01*
X68625869Y-56754618D01*
X68450328Y-56602812D01*
X68253911Y-56489034D01*
X68042694Y-56414075D01*
X67822754Y-56378722D01*
X67600164Y-56383767D01*
X67381002Y-56429999D01*
X67171343Y-56518206D01*
X66977262Y-56649179D01*
X66917227Y-56702337D01*
X66764436Y-56868739D01*
X66653098Y-57043912D01*
X66576724Y-57240266D01*
X66534188Y-57434717D01*
X66523687Y-57653342D01*
X66558701Y-57873052D01*
X66635674Y-58086420D01*
X66751048Y-58286022D01*
X66901266Y-58464429D01*
X67082774Y-58614217D01*
X67106628Y-58630006D01*
X67182202Y-58681712D01*
X67239652Y-58726512D01*
X67267118Y-58755117D01*
X67267518Y-58756021D01*
X67261621Y-58786964D01*
X67238246Y-58857191D01*
X67199822Y-58960925D01*
X67148778Y-59092390D01*
X67087543Y-59245807D01*
X67018545Y-59415401D01*
X66944214Y-59595393D01*
X66866979Y-59780008D01*
X66789269Y-59963468D01*
X66713512Y-60139996D01*
X66642138Y-60303814D01*
X66577575Y-60449147D01*
X66522253Y-60570217D01*
X66478601Y-60661247D01*
X66449047Y-60716460D01*
X66437145Y-60730961D01*
X66400778Y-60719669D01*
X66332731Y-60689385D01*
X66244737Y-60645520D01*
X66196351Y-60619875D01*
X65990864Y-60508770D01*
X65746069Y-60674346D01*
X65621107Y-60759170D01*
X65484296Y-60852516D01*
X65356089Y-60940408D01*
X65291872Y-60984667D01*
X65201552Y-61045318D01*
X65125072Y-61093381D01*
X65072408Y-61122770D01*
X65055303Y-61128982D01*
X65030406Y-61112223D01*
X64975306Y-61065436D01*
X64895344Y-60993480D01*
X64795861Y-60901212D01*
X64682201Y-60793490D01*
X64610316Y-60724326D01*
X64484552Y-60600757D01*
X64375864Y-60490234D01*
X64288646Y-60397485D01*
X64227290Y-60327237D01*
X64196192Y-60284220D01*
X64193209Y-60275490D01*
X64207054Y-60242284D01*
X64245313Y-60175142D01*
X64303742Y-60080863D01*
X64378098Y-59966245D01*
X64464136Y-59838083D01*
X64488603Y-59802353D01*
X64577755Y-59672489D01*
X64657739Y-59555569D01*
X64724081Y-59458162D01*
X64772312Y-59386839D01*
X64797958Y-59348170D01*
X64800436Y-59344172D01*
X64796730Y-59313355D01*
X64777062Y-59245599D01*
X64744861Y-59149839D01*
X64703556Y-59035009D01*
X64656576Y-58910044D01*
X64607350Y-58783879D01*
X64559309Y-58665448D01*
X64515882Y-58563685D01*
X64480497Y-58487526D01*
X64456585Y-58445904D01*
X64454885Y-58443908D01*
X64440263Y-58432013D01*
X64415566Y-58420250D01*
X64375373Y-58407401D01*
X64314264Y-58392249D01*
X64226818Y-58373576D01*
X64107613Y-58350165D01*
X63951228Y-58320797D01*
X63752244Y-58284255D01*
X63709161Y-58276398D01*
X63581471Y-58251727D01*
X63470154Y-58227593D01*
X63385046Y-58206324D01*
X63335984Y-58190248D01*
X63329406Y-58186500D01*
X63318565Y-58153273D01*
X63309754Y-58079021D01*
X63302977Y-57972376D01*
X63298241Y-57841967D01*
X63295551Y-57696427D01*
X63294914Y-57544386D01*
X63296335Y-57394476D01*
X63299821Y-57255328D01*
X63305377Y-57135572D01*
X63313009Y-57043841D01*
X63322723Y-56988766D01*
X63328579Y-56977493D01*
X63361181Y-56966123D01*
X63435419Y-56947624D01*
X63543897Y-56923602D01*
X63679218Y-56895662D01*
X63833986Y-56865408D01*
X63918308Y-56849551D01*
X64078297Y-56819644D01*
X64220968Y-56792550D01*
X64339349Y-56769631D01*
X64426466Y-56752243D01*
X64475346Y-56741747D01*
X64483391Y-56739420D01*
X64496988Y-56713186D01*
X64525730Y-56649995D01*
X64565786Y-56558877D01*
X64613325Y-56448857D01*
X64664516Y-56328965D01*
X64715527Y-56208227D01*
X64762527Y-56095671D01*
X64801685Y-56000326D01*
X64829170Y-55931217D01*
X64841150Y-55897374D01*
X64841373Y-55895895D01*
X64827792Y-55869197D01*
X64789716Y-55807760D01*
X64731148Y-55717689D01*
X64656089Y-55605090D01*
X64568541Y-55476070D01*
X64517648Y-55401961D01*
X64424910Y-55266077D01*
X64342542Y-55142709D01*
X64274562Y-55038097D01*
X64224989Y-54958483D01*
X64197843Y-54910107D01*
X64193922Y-54899262D01*
X64210776Y-54874020D01*
X64257369Y-54820124D01*
X64327749Y-54743613D01*
X64415966Y-54650523D01*
X64516066Y-54546895D01*
X64622099Y-54438764D01*
X64728112Y-54332170D01*
X64828153Y-54233150D01*
X64916271Y-54147742D01*
X64986514Y-54081985D01*
X65032929Y-54041916D01*
X65048457Y-54032353D01*
X65073740Y-54045800D01*
X65134212Y-54083575D01*
X65223993Y-54141835D01*
X65337204Y-54216734D01*
X65467964Y-54304425D01*
X65566600Y-54371233D01*
X66064958Y-54710112D01*
X66480371Y-54538865D01*
X66895785Y-54367618D01*
X67008367Y-53770427D01*
X67120950Y-53173235D01*
X68363953Y-53173235D01*
X68476536Y-53770427D01*
G36*
X68476536Y-53770427D02*
G01*
X68589118Y-54367618D01*
X69004531Y-54538865D01*
X69419945Y-54710112D01*
X69918302Y-54371233D01*
X70057869Y-54276877D01*
X70184029Y-54192630D01*
X70290896Y-54122338D01*
X70372583Y-54069847D01*
X70423202Y-54039004D01*
X70436987Y-54032353D01*
X70461821Y-54049458D01*
X70514889Y-54096744D01*
X70590241Y-54168172D01*
X70681930Y-54257700D01*
X70784008Y-54359289D01*
X70890527Y-54466898D01*
X70995537Y-54574487D01*
X71093092Y-54676015D01*
X71177243Y-54765441D01*
X71242041Y-54836726D01*
X71281538Y-54883828D01*
X71290981Y-54899592D01*
X71277392Y-54928653D01*
X71239294Y-54992321D01*
X71180694Y-55084367D01*
X71105598Y-55198564D01*
X71018009Y-55328684D01*
X70967255Y-55402901D01*
X70874746Y-55538422D01*
X70792541Y-55660716D01*
X70724631Y-55763695D01*
X70675001Y-55841273D01*
X70647641Y-55887361D01*
X70643530Y-55897047D01*
X70652850Y-55924574D01*
X70678255Y-55988728D01*
X70715912Y-56080490D01*
X70761987Y-56190839D01*
X70812647Y-56310755D01*
X70864060Y-56431219D01*
X70912390Y-56543209D01*
X70953807Y-56637707D01*
X70984475Y-56705692D01*
X71000562Y-56738143D01*
X71001512Y-56739420D01*
X71026773Y-56745617D01*
X71094046Y-56759440D01*
X71196361Y-56779532D01*
X71326742Y-56804534D01*
X71478217Y-56833086D01*
X71566594Y-56849551D01*
X71728453Y-56880369D01*
X71874650Y-56909694D01*
X71997788Y-56935921D01*
X72090470Y-56957446D01*
X72145302Y-56972665D01*
X72156324Y-56977493D01*
X72167119Y-57010174D01*
X72175830Y-57083985D01*
X72182461Y-57190292D01*
X72187019Y-57320467D01*
X72189510Y-57465876D01*
X72189939Y-57617890D01*
X72188312Y-57767877D01*
X72184636Y-57907206D01*
X72178916Y-58027245D01*
X72171158Y-58119365D01*
X72161369Y-58174932D01*
X72155497Y-58186500D01*
X72120400Y-58200365D01*
X72046029Y-58220188D01*
X71942224Y-58243639D01*
X71818820Y-58268391D01*
X71775742Y-58276398D01*
X71568048Y-58314441D01*
X71403985Y-58345079D01*
X71278131Y-58369529D01*
X71185066Y-58389009D01*
X71119368Y-58404736D01*
X71075618Y-58417928D01*
X71048393Y-58429804D01*
X71032273Y-58441580D01*
X71030018Y-58443908D01*
X71007504Y-58481400D01*
X70973159Y-58554365D01*
X70930412Y-58653867D01*
X70882693Y-58770973D01*
X70833431Y-58896748D01*
X70786056Y-59022257D01*
X70743996Y-59138565D01*
X70710681Y-59236739D01*
X70689542Y-59307843D01*
X70684006Y-59342942D01*
X70684467Y-59344172D01*
X70703224Y-59372861D01*
X70745777Y-59435985D01*
X70807654Y-59526973D01*
X70884383Y-59639255D01*
X70971492Y-59766260D01*
X70996299Y-59802353D01*
X71084753Y-59933203D01*
X71162589Y-60052591D01*
X71225567Y-60153662D01*
X71269446Y-60229559D01*
X71289986Y-60273427D01*
X71290981Y-60278817D01*
X71273723Y-60307144D01*
X71226036Y-60363261D01*
X71154051Y-60441137D01*
X71063898Y-60534740D01*
X70961706Y-60638041D01*
X70853606Y-60745006D01*
X70745729Y-60849606D01*
X70644205Y-60945809D01*
X70555163Y-61027584D01*
X70484734Y-61088900D01*
X70439048Y-61123726D01*
X70426410Y-61129412D01*
X70396992Y-61116020D01*
X70336762Y-61079899D01*
X70255530Y-61027136D01*
X70193031Y-60984667D01*
X70079786Y-60906740D01*
X69945675Y-60814984D01*
X69811156Y-60723375D01*
X69738834Y-60674346D01*
X69494039Y-60508770D01*
X69288551Y-60619875D01*
X69194937Y-60668548D01*
X69115331Y-60706381D01*
X69061468Y-60727958D01*
X69047758Y-60730961D01*
X69031271Y-60708793D01*
X68998746Y-60646149D01*
X68952609Y-60548809D01*
X68895291Y-60422549D01*
X68829217Y-60273150D01*
X68756816Y-60106388D01*
X68680517Y-59928042D01*
X68602747Y-59743891D01*
X68525935Y-59559712D01*
X68452507Y-59381285D01*
X68384893Y-59214387D01*
X68325521Y-59064797D01*
X68276817Y-58938293D01*
X68241211Y-58840654D01*
X68221131Y-58777657D01*
X68217901Y-58756021D01*
X68243497Y-58728424D01*
X68299539Y-58683625D01*
X68374312Y-58630934D01*
X68380588Y-58626765D01*
X68573846Y-58472069D01*
X68729675Y-58291591D01*
X68846725Y-58091102D01*
X68923646Y-57876374D01*
X68959087Y-57653177D01*
X68951698Y-57427281D01*
X68900128Y-57204459D01*
X68803027Y-56990479D01*
X68774459Y-56943664D01*
X68625869Y-56754618D01*
X68450328Y-56602812D01*
X68253911Y-56489034D01*
X68042694Y-56414075D01*
X67822754Y-56378722D01*
X67600164Y-56383767D01*
X67381002Y-56429999D01*
X67171343Y-56518206D01*
X66977262Y-56649179D01*
X66917227Y-56702337D01*
X66764436Y-56868739D01*
X66653098Y-57043912D01*
X66576724Y-57240266D01*
X66534188Y-57434717D01*
X66523687Y-57653342D01*
X66558701Y-57873052D01*
X66635674Y-58086420D01*
X66751048Y-58286022D01*
X66901266Y-58464429D01*
X67082774Y-58614217D01*
X67106628Y-58630006D01*
X67182202Y-58681712D01*
X67239652Y-58726512D01*
X67267118Y-58755117D01*
X67267518Y-58756021D01*
X67261621Y-58786964D01*
X67238246Y-58857191D01*
X67199822Y-58960925D01*
X67148778Y-59092390D01*
X67087543Y-59245807D01*
X67018545Y-59415401D01*
X66944214Y-59595393D01*
X66866979Y-59780008D01*
X66789269Y-59963468D01*
X66713512Y-60139996D01*
X66642138Y-60303814D01*
X66577575Y-60449147D01*
X66522253Y-60570217D01*
X66478601Y-60661247D01*
X66449047Y-60716460D01*
X66437145Y-60730961D01*
X66400778Y-60719669D01*
X66332731Y-60689385D01*
X66244737Y-60645520D01*
X66196351Y-60619875D01*
X65990864Y-60508770D01*
X65746069Y-60674346D01*
X65621107Y-60759170D01*
X65484296Y-60852516D01*
X65356089Y-60940408D01*
X65291872Y-60984667D01*
X65201552Y-61045318D01*
X65125072Y-61093381D01*
X65072408Y-61122770D01*
X65055303Y-61128982D01*
X65030406Y-61112223D01*
X64975306Y-61065436D01*
X64895344Y-60993480D01*
X64795861Y-60901212D01*
X64682201Y-60793490D01*
X64610316Y-60724326D01*
X64484552Y-60600757D01*
X64375864Y-60490234D01*
X64288646Y-60397485D01*
X64227290Y-60327237D01*
X64196192Y-60284220D01*
X64193209Y-60275490D01*
X64207054Y-60242284D01*
X64245313Y-60175142D01*
X64303742Y-60080863D01*
X64378098Y-59966245D01*
X64464136Y-59838083D01*
X64488603Y-59802353D01*
X64577755Y-59672489D01*
X64657739Y-59555569D01*
X64724081Y-59458162D01*
X64772312Y-59386839D01*
X64797958Y-59348170D01*
X64800436Y-59344172D01*
X64796730Y-59313355D01*
X64777062Y-59245599D01*
X64744861Y-59149839D01*
X64703556Y-59035009D01*
X64656576Y-58910044D01*
X64607350Y-58783879D01*
X64559309Y-58665448D01*
X64515882Y-58563685D01*
X64480497Y-58487526D01*
X64456585Y-58445904D01*
X64454885Y-58443908D01*
X64440263Y-58432013D01*
X64415566Y-58420250D01*
X64375373Y-58407401D01*
X64314264Y-58392249D01*
X64226818Y-58373576D01*
X64107613Y-58350165D01*
X63951228Y-58320797D01*
X63752244Y-58284255D01*
X63709161Y-58276398D01*
X63581471Y-58251727D01*
X63470154Y-58227593D01*
X63385046Y-58206324D01*
X63335984Y-58190248D01*
X63329406Y-58186500D01*
X63318565Y-58153273D01*
X63309754Y-58079021D01*
X63302977Y-57972376D01*
X63298241Y-57841967D01*
X63295551Y-57696427D01*
X63294914Y-57544386D01*
X63296335Y-57394476D01*
X63299821Y-57255328D01*
X63305377Y-57135572D01*
X63313009Y-57043841D01*
X63322723Y-56988766D01*
X63328579Y-56977493D01*
X63361181Y-56966123D01*
X63435419Y-56947624D01*
X63543897Y-56923602D01*
X63679218Y-56895662D01*
X63833986Y-56865408D01*
X63918308Y-56849551D01*
X64078297Y-56819644D01*
X64220968Y-56792550D01*
X64339349Y-56769631D01*
X64426466Y-56752243D01*
X64475346Y-56741747D01*
X64483391Y-56739420D01*
X64496988Y-56713186D01*
X64525730Y-56649995D01*
X64565786Y-56558877D01*
X64613325Y-56448857D01*
X64664516Y-56328965D01*
X64715527Y-56208227D01*
X64762527Y-56095671D01*
X64801685Y-56000326D01*
X64829170Y-55931217D01*
X64841150Y-55897374D01*
X64841373Y-55895895D01*
X64827792Y-55869197D01*
X64789716Y-55807760D01*
X64731148Y-55717689D01*
X64656089Y-55605090D01*
X64568541Y-55476070D01*
X64517648Y-55401961D01*
X64424910Y-55266077D01*
X64342542Y-55142709D01*
X64274562Y-55038097D01*
X64224989Y-54958483D01*
X64197843Y-54910107D01*
X64193922Y-54899262D01*
X64210776Y-54874020D01*
X64257369Y-54820124D01*
X64327749Y-54743613D01*
X64415966Y-54650523D01*
X64516066Y-54546895D01*
X64622099Y-54438764D01*
X64728112Y-54332170D01*
X64828153Y-54233150D01*
X64916271Y-54147742D01*
X64986514Y-54081985D01*
X65032929Y-54041916D01*
X65048457Y-54032353D01*
X65073740Y-54045800D01*
X65134212Y-54083575D01*
X65223993Y-54141835D01*
X65337204Y-54216734D01*
X65467964Y-54304425D01*
X65566600Y-54371233D01*
X66064958Y-54710112D01*
X66480371Y-54538865D01*
X66895785Y-54367618D01*
X67008367Y-53770427D01*
X67120950Y-53173235D01*
X68363953Y-53173235D01*
X68476536Y-53770427D01*
G37*
X50115203Y-55560043D02*
X50190183Y-55614511D01*
X50236801Y-55682109D01*
X50264736Y-55773891D01*
X50276846Y-55888426D01*
X50273385Y-56009309D01*
X50254613Y-56120133D01*
X50228842Y-56190334D01*
X50180725Y-56265310D01*
X50125351Y-56306575D01*
X50049500Y-56322328D01*
X50014418Y-56323333D01*
X49957468Y-56317977D01*
X49908381Y-56296959D01*
X49851758Y-56252861D01*
X49833110Y-56235971D01*
X49738333Y-56148608D01*
X49738333Y-55948829D01*
X49740665Y-55856472D01*
X49746913Y-55776580D01*
X49755951Y-55721166D01*
X49761005Y-55706688D01*
X49797456Y-55664924D01*
X49858126Y-55618381D01*
X49928328Y-55576175D01*
X49993376Y-55547422D01*
X50029278Y-55540167D01*
X50115203Y-55560043D01*
G36*
X50115203Y-55560043D02*
G01*
X50190183Y-55614511D01*
X50236801Y-55682109D01*
X50264736Y-55773891D01*
X50276846Y-55888426D01*
X50273385Y-56009309D01*
X50254613Y-56120133D01*
X50228842Y-56190334D01*
X50180725Y-56265310D01*
X50125351Y-56306575D01*
X50049500Y-56322328D01*
X50014418Y-56323333D01*
X49957468Y-56317977D01*
X49908381Y-56296959D01*
X49851758Y-56252861D01*
X49833110Y-56235971D01*
X49738333Y-56148608D01*
X49738333Y-55948829D01*
X49740665Y-55856472D01*
X49746913Y-55776580D01*
X49755951Y-55721166D01*
X49761005Y-55706688D01*
X49797456Y-55664924D01*
X49858126Y-55618381D01*
X49928328Y-55576175D01*
X49993376Y-55547422D01*
X50029278Y-55540167D01*
X50115203Y-55560043D01*
G37*
X48302153Y-55579035D02*
X48384929Y-55639076D01*
X48468333Y-55714426D01*
X48467660Y-55928921D01*
X48465844Y-56037291D01*
X48458653Y-56113535D01*
X48442267Y-56167830D01*
X48412867Y-56210355D01*
X48366634Y-56251289D01*
X48338827Y-56272265D01*
X48261630Y-56309349D01*
X48172349Y-56323370D01*
X48089142Y-56312571D01*
X48058865Y-56299347D01*
X48009474Y-56248603D01*
X47972106Y-56167083D01*
X47947959Y-56064936D01*
X47938228Y-55952313D01*
X47944108Y-55839360D01*
X47966795Y-55736229D01*
X47986791Y-55687526D01*
X48048094Y-55601669D01*
X48123528Y-55554671D01*
X48209434Y-55546978D01*
X48302153Y-55579035D01*
G36*
X48302153Y-55579035D02*
G01*
X48384929Y-55639076D01*
X48468333Y-55714426D01*
X48467660Y-55928921D01*
X48465844Y-56037291D01*
X48458653Y-56113535D01*
X48442267Y-56167830D01*
X48412867Y-56210355D01*
X48366634Y-56251289D01*
X48338827Y-56272265D01*
X48261630Y-56309349D01*
X48172349Y-56323370D01*
X48089142Y-56312571D01*
X48058865Y-56299347D01*
X48009474Y-56248603D01*
X47972106Y-56167083D01*
X47947959Y-56064936D01*
X47938228Y-55952313D01*
X47944108Y-55839360D01*
X47966795Y-55736229D01*
X47986791Y-55687526D01*
X48048094Y-55601669D01*
X48123528Y-55554671D01*
X48209434Y-55546978D01*
X48302153Y-55579035D01*
G37*
X47138569Y-55541174D02*
X47139514Y-55541427D01*
X47218281Y-55580333D01*
X47272341Y-55649865D01*
X47304324Y-55752696D01*
X47319649Y-55836500D01*
X47047324Y-55836500D01*
X46932567Y-55835705D01*
X46854039Y-55832869D01*
X46805660Y-55827313D01*
X46781346Y-55818359D01*
X46775000Y-55806128D01*
X46788477Y-55741224D01*
X46822562Y-55667496D01*
X46864796Y-55608926D01*
X46941328Y-55556073D01*
X47037332Y-55532323D01*
X47138569Y-55541174D01*
G36*
X47138569Y-55541174D02*
G01*
X47139514Y-55541427D01*
X47218281Y-55580333D01*
X47272341Y-55649865D01*
X47304324Y-55752696D01*
X47319649Y-55836500D01*
X47047324Y-55836500D01*
X46932567Y-55835705D01*
X46854039Y-55832869D01*
X46805660Y-55827313D01*
X46781346Y-55818359D01*
X46775000Y-55806128D01*
X46788477Y-55741224D01*
X46822562Y-55667496D01*
X46864796Y-55608926D01*
X46941328Y-55556073D01*
X47037332Y-55532323D01*
X47138569Y-55541174D01*
G37*
X45217617Y-55550441D02*
X45297417Y-55601423D01*
X45348017Y-55678716D01*
X45372267Y-55739726D01*
X45382200Y-55782551D01*
X45372809Y-55810408D01*
X45339083Y-55826516D01*
X45276017Y-55834093D01*
X45178600Y-55836355D01*
X45102430Y-55836500D01*
X44826860Y-55836500D01*
X44840817Y-55778292D01*
X44883139Y-55663899D01*
X44947061Y-55585625D01*
X45033483Y-55542656D01*
X45113416Y-55533111D01*
X45217617Y-55550441D01*
G36*
X45217617Y-55550441D02*
G01*
X45297417Y-55601423D01*
X45348017Y-55678716D01*
X45372267Y-55739726D01*
X45382200Y-55782551D01*
X45372809Y-55810408D01*
X45339083Y-55826516D01*
X45276017Y-55834093D01*
X45178600Y-55836355D01*
X45102430Y-55836500D01*
X44826860Y-55836500D01*
X44840817Y-55778292D01*
X44883139Y-55663899D01*
X44947061Y-55585625D01*
X45033483Y-55542656D01*
X45113416Y-55533111D01*
X45217617Y-55550441D01*
G37*
X42393631Y-55555714D02*
X42478028Y-55602969D01*
X42537334Y-55682962D01*
X42572265Y-55796645D01*
X42583535Y-55939134D01*
X42573995Y-56075299D01*
X42543289Y-56178633D01*
X42489670Y-56253923D01*
X42459682Y-56278484D01*
X42377490Y-56316854D01*
X42282893Y-56333023D01*
X42201763Y-56324379D01*
X42112094Y-56288292D01*
X42049240Y-56238626D01*
X42009269Y-56168538D01*
X41988248Y-56071182D01*
X41982242Y-55942333D01*
X41993846Y-55794758D01*
X42029154Y-55681755D01*
X42088909Y-55602332D01*
X42173858Y-55555493D01*
X42283426Y-55540246D01*
X42393631Y-55555714D01*
G36*
X42393631Y-55555714D02*
G01*
X42478028Y-55602969D01*
X42537334Y-55682962D01*
X42572265Y-55796645D01*
X42583535Y-55939134D01*
X42573995Y-56075299D01*
X42543289Y-56178633D01*
X42489670Y-56253923D01*
X42459682Y-56278484D01*
X42377490Y-56316854D01*
X42282893Y-56333023D01*
X42201763Y-56324379D01*
X42112094Y-56288292D01*
X42049240Y-56238626D01*
X42009269Y-56168538D01*
X41988248Y-56071182D01*
X41982242Y-55942333D01*
X41993846Y-55794758D01*
X42029154Y-55681755D01*
X42088909Y-55602332D01*
X42173858Y-55555493D01*
X42283426Y-55540246D01*
X42393631Y-55555714D01*
G37*
X41193538Y-55191834D02*
X41291806Y-55227179D01*
X41357441Y-55287633D01*
X41392032Y-55374462D01*
X41398633Y-55449157D01*
X41381452Y-55562447D01*
X41330915Y-55650348D01*
X41248383Y-55711699D01*
X41135214Y-55745340D01*
X41044125Y-55751800D01*
X40911833Y-55751833D01*
X40911833Y-55180333D01*
X41061051Y-55180333D01*
X41193538Y-55191834D01*
G36*
X41193538Y-55191834D02*
G01*
X41291806Y-55227179D01*
X41357441Y-55287633D01*
X41392032Y-55374462D01*
X41398633Y-55449157D01*
X41381452Y-55562447D01*
X41330915Y-55650348D01*
X41248383Y-55711699D01*
X41135214Y-55745340D01*
X41044125Y-55751800D01*
X40911833Y-55751833D01*
X40911833Y-55180333D01*
X41061051Y-55180333D01*
X41193538Y-55191834D01*
G37*
X58430385Y-57950122D02*
X58525457Y-58002921D01*
X58594917Y-58088048D01*
X58636218Y-58203153D01*
X58641822Y-58236169D01*
X58655254Y-58334167D01*
X58292543Y-58334167D01*
X58153191Y-58333408D01*
X58051718Y-58330916D01*
X57983694Y-58326368D01*
X57944690Y-58319440D01*
X57930276Y-58309809D01*
X57929951Y-58307708D01*
X57942943Y-58231987D01*
X57975772Y-58145651D01*
X58020068Y-58069650D01*
X58030200Y-58056779D01*
X58121277Y-57980058D01*
X58234116Y-57938976D01*
X58312246Y-57932000D01*
X58430385Y-57950122D01*
G36*
X58430385Y-57950122D02*
G01*
X58525457Y-58002921D01*
X58594917Y-58088048D01*
X58636218Y-58203153D01*
X58641822Y-58236169D01*
X58655254Y-58334167D01*
X58292543Y-58334167D01*
X58153191Y-58333408D01*
X58051718Y-58330916D01*
X57983694Y-58326368D01*
X57944690Y-58319440D01*
X57930276Y-58309809D01*
X57929951Y-58307708D01*
X57942943Y-58231987D01*
X57975772Y-58145651D01*
X58020068Y-58069650D01*
X58030200Y-58056779D01*
X58121277Y-57980058D01*
X58234116Y-57938976D01*
X58312246Y-57932000D01*
X58430385Y-57950122D01*
G37*
X56046000Y-58667782D02*
X56044721Y-58747469D01*
X56038098Y-58797820D01*
X56021949Y-58831816D01*
X55992094Y-58862438D01*
X55979962Y-58872804D01*
X55857129Y-58955575D01*
X55734857Y-58996377D01*
X55619013Y-58996677D01*
X55541719Y-58964839D01*
X55484395Y-58902588D01*
X55455319Y-58820198D01*
X55453333Y-58791073D01*
X55464089Y-58705813D01*
X55498965Y-58640376D01*
X55561872Y-58592238D01*
X55656721Y-58558878D01*
X55787423Y-58537775D01*
X55855346Y-58531860D01*
X56046000Y-58518327D01*
X56046000Y-58667782D01*
G36*
X56046000Y-58667782D02*
G01*
X56044721Y-58747469D01*
X56038098Y-58797820D01*
X56021949Y-58831816D01*
X55992094Y-58862438D01*
X55979962Y-58872804D01*
X55857129Y-58955575D01*
X55734857Y-58996377D01*
X55619013Y-58996677D01*
X55541719Y-58964839D01*
X55484395Y-58902588D01*
X55455319Y-58820198D01*
X55453333Y-58791073D01*
X55464089Y-58705813D01*
X55498965Y-58640376D01*
X55561872Y-58592238D01*
X55656721Y-58558878D01*
X55787423Y-58537775D01*
X55855346Y-58531860D01*
X56046000Y-58518327D01*
X56046000Y-58667782D01*
G37*
X41541926Y-57459887D02*
X41663579Y-57489401D01*
X41698375Y-57504336D01*
X41801611Y-57578120D01*
X41885483Y-57685581D01*
X41948372Y-57821957D01*
X41988661Y-57982492D01*
X42004730Y-58162427D01*
X41994963Y-58357001D01*
X41993221Y-58371437D01*
X41976648Y-58470332D01*
X41953337Y-58568526D01*
X41928044Y-58646297D01*
X41925479Y-58652446D01*
X41865240Y-58753422D01*
X41780562Y-58844535D01*
X41683818Y-58914177D01*
X41614421Y-58944274D01*
X41528345Y-58960397D01*
X41422796Y-58966627D01*
X41315370Y-58963107D01*
X41223662Y-58949975D01*
X41192056Y-58940912D01*
X41073711Y-58878455D01*
X40980342Y-58785341D01*
X40911394Y-58660405D01*
X40866312Y-58502483D01*
X40844538Y-58310410D01*
X40842199Y-58207832D01*
X40855894Y-58003726D01*
X40895978Y-57829890D01*
X40961960Y-57687417D01*
X41053345Y-57577402D01*
X41158746Y-57506132D01*
X41273136Y-57468307D01*
X41406321Y-57452874D01*
X41541926Y-57459887D01*
G36*
X41541926Y-57459887D02*
G01*
X41663579Y-57489401D01*
X41698375Y-57504336D01*
X41801611Y-57578120D01*
X41885483Y-57685581D01*
X41948372Y-57821957D01*
X41988661Y-57982492D01*
X42004730Y-58162427D01*
X41994963Y-58357001D01*
X41993221Y-58371437D01*
X41976648Y-58470332D01*
X41953337Y-58568526D01*
X41928044Y-58646297D01*
X41925479Y-58652446D01*
X41865240Y-58753422D01*
X41780562Y-58844535D01*
X41683818Y-58914177D01*
X41614421Y-58944274D01*
X41528345Y-58960397D01*
X41422796Y-58966627D01*
X41315370Y-58963107D01*
X41223662Y-58949975D01*
X41192056Y-58940912D01*
X41073711Y-58878455D01*
X40980342Y-58785341D01*
X40911394Y-58660405D01*
X40866312Y-58502483D01*
X40844538Y-58310410D01*
X40842199Y-58207832D01*
X40855894Y-58003726D01*
X40895978Y-57829890D01*
X40961960Y-57687417D01*
X41053345Y-57577402D01*
X41158746Y-57506132D01*
X41273136Y-57468307D01*
X41406321Y-57452874D01*
X41541926Y-57459887D01*
G37*
X37989972Y-56005833D02*
X38068852Y-56013441D01*
X38115458Y-56034995D01*
X38117932Y-56037702D01*
X38126913Y-56070184D01*
X38133225Y-56138097D01*
X38137033Y-56234637D01*
X38138505Y-56352998D01*
X38137807Y-56486373D01*
X38135104Y-56627956D01*
X38130564Y-56770942D01*
X38124352Y-56908526D01*
X38116634Y-57033899D01*
X38107577Y-57140258D01*
X38097348Y-57220796D01*
X38087987Y-57263462D01*
X38019177Y-57428473D01*
X37927321Y-57565271D01*
X37809300Y-57676136D01*
X37661992Y-57763346D01*
X37482278Y-57829182D01*
X37267037Y-57875923D01*
X37244708Y-57879440D01*
X37165333Y-57891585D01*
X37165333Y-58121194D01*
X37164336Y-58225622D01*
X37160675Y-58295026D01*
X37153346Y-58336685D01*
X37141344Y-58357875D01*
X37131852Y-58363652D01*
X37085995Y-58371796D01*
X37018627Y-58374518D01*
X36949921Y-58371917D01*
X36900051Y-58364093D01*
X36895458Y-58362482D01*
X36882500Y-58342041D01*
X36874099Y-58290401D01*
X36869804Y-58203462D01*
X36869000Y-58121695D01*
X36869000Y-57891585D01*
X36789625Y-57879927D01*
X36609344Y-57849056D01*
X36463793Y-57813245D01*
X36345415Y-57769507D01*
X36246649Y-57714857D01*
X36159939Y-57646309D01*
X36133086Y-57620533D01*
X36033300Y-57493240D01*
X35958032Y-57339099D01*
X35915967Y-57187393D01*
X35910121Y-57133169D01*
X35905380Y-57043954D01*
X35901922Y-56927081D01*
X35899926Y-56789882D01*
X35899572Y-56639691D01*
X35900247Y-56544050D01*
X35905916Y-56016417D01*
X36029410Y-56010015D01*
X36108443Y-56010556D01*
X36165516Y-56020039D01*
X36182869Y-56028482D01*
X36192372Y-56043444D01*
X36199725Y-56073707D01*
X36205172Y-56123878D01*
X36208959Y-56198564D01*
X36211334Y-56302374D01*
X36212541Y-56439915D01*
X36212833Y-56589769D01*
X36213486Y-56777178D01*
X36216049Y-56927925D01*
X36221424Y-57047667D01*
X36230514Y-57142063D01*
X36244222Y-57216771D01*
X36263452Y-57277449D01*
X36289106Y-57329757D01*
X36322088Y-57379352D01*
X36343269Y-57407004D01*
X36424930Y-57482871D01*
X36534824Y-57546614D01*
X36659182Y-57591421D01*
X36749853Y-57608125D01*
X36868485Y-57620369D01*
X36879583Y-56016417D01*
X37154750Y-56016417D01*
X37160296Y-56815458D01*
X37165842Y-57614500D01*
X37235829Y-57614500D01*
X37379879Y-57594347D01*
X37515038Y-57537694D01*
X37633264Y-57450248D01*
X37726513Y-57337718D01*
X37779395Y-57228737D01*
X37792534Y-57187250D01*
X37802647Y-57143828D01*
X37810122Y-57092407D01*
X37815345Y-57026921D01*
X37818705Y-56941306D01*
X37820589Y-56829499D01*
X37821384Y-56685433D01*
X37821500Y-56569543D01*
X37821333Y-56400307D01*
X37821771Y-56268692D01*
X37824220Y-56169992D01*
X37830086Y-56099504D01*
X37840775Y-56052521D01*
X37857693Y-56024338D01*
X37882246Y-56010252D01*
X37915841Y-56005556D01*
X37959884Y-56005546D01*
X37989972Y-56005833D01*
G36*
X37989972Y-56005833D02*
G01*
X38068852Y-56013441D01*
X38115458Y-56034995D01*
X38117932Y-56037702D01*
X38126913Y-56070184D01*
X38133225Y-56138097D01*
X38137033Y-56234637D01*
X38138505Y-56352998D01*
X38137807Y-56486373D01*
X38135104Y-56627956D01*
X38130564Y-56770942D01*
X38124352Y-56908526D01*
X38116634Y-57033899D01*
X38107577Y-57140258D01*
X38097348Y-57220796D01*
X38087987Y-57263462D01*
X38019177Y-57428473D01*
X37927321Y-57565271D01*
X37809300Y-57676136D01*
X37661992Y-57763346D01*
X37482278Y-57829182D01*
X37267037Y-57875923D01*
X37244708Y-57879440D01*
X37165333Y-57891585D01*
X37165333Y-58121194D01*
X37164336Y-58225622D01*
X37160675Y-58295026D01*
X37153346Y-58336685D01*
X37141344Y-58357875D01*
X37131852Y-58363652D01*
X37085995Y-58371796D01*
X37018627Y-58374518D01*
X36949921Y-58371917D01*
X36900051Y-58364093D01*
X36895458Y-58362482D01*
X36882500Y-58342041D01*
X36874099Y-58290401D01*
X36869804Y-58203462D01*
X36869000Y-58121695D01*
X36869000Y-57891585D01*
X36789625Y-57879927D01*
X36609344Y-57849056D01*
X36463793Y-57813245D01*
X36345415Y-57769507D01*
X36246649Y-57714857D01*
X36159939Y-57646309D01*
X36133086Y-57620533D01*
X36033300Y-57493240D01*
X35958032Y-57339099D01*
X35915967Y-57187393D01*
X35910121Y-57133169D01*
X35905380Y-57043954D01*
X35901922Y-56927081D01*
X35899926Y-56789882D01*
X35899572Y-56639691D01*
X35900247Y-56544050D01*
X35905916Y-56016417D01*
X36029410Y-56010015D01*
X36108443Y-56010556D01*
X36165516Y-56020039D01*
X36182869Y-56028482D01*
X36192372Y-56043444D01*
X36199725Y-56073707D01*
X36205172Y-56123878D01*
X36208959Y-56198564D01*
X36211334Y-56302374D01*
X36212541Y-56439915D01*
X36212833Y-56589769D01*
X36213486Y-56777178D01*
X36216049Y-56927925D01*
X36221424Y-57047667D01*
X36230514Y-57142063D01*
X36244222Y-57216771D01*
X36263452Y-57277449D01*
X36289106Y-57329757D01*
X36322088Y-57379352D01*
X36343269Y-57407004D01*
X36424930Y-57482871D01*
X36534824Y-57546614D01*
X36659182Y-57591421D01*
X36749853Y-57608125D01*
X36868485Y-57620369D01*
X36879583Y-56016417D01*
X37154750Y-56016417D01*
X37160296Y-56815458D01*
X37165842Y-57614500D01*
X37235829Y-57614500D01*
X37379879Y-57594347D01*
X37515038Y-57537694D01*
X37633264Y-57450248D01*
X37726513Y-57337718D01*
X37779395Y-57228737D01*
X37792534Y-57187250D01*
X37802647Y-57143828D01*
X37810122Y-57092407D01*
X37815345Y-57026921D01*
X37818705Y-56941306D01*
X37820589Y-56829499D01*
X37821384Y-56685433D01*
X37821500Y-56569543D01*
X37821333Y-56400307D01*
X37821771Y-56268692D01*
X37824220Y-56169992D01*
X37830086Y-56099504D01*
X37840775Y-56052521D01*
X37857693Y-56024338D01*
X37882246Y-56010252D01*
X37915841Y-56005556D01*
X37959884Y-56005546D01*
X37989972Y-56005833D01*
G37*
X33450583Y-56078143D02*
X33450583Y-53793917D01*
X33506631Y-53674368D01*
X33596889Y-53530025D01*
X33718488Y-53408960D01*
X33860201Y-53320798D01*
X33979750Y-53264750D01*
X59570250Y-53264750D01*
X59689798Y-53320798D01*
X59834141Y-53411056D01*
X59955206Y-53532655D01*
X60043368Y-53674368D01*
X60099416Y-53793917D01*
X60099416Y-57170000D01*
X60099404Y-57612617D01*
X60099353Y-58014896D01*
X60099240Y-58378833D01*
X60099041Y-58706424D01*
X60098733Y-58999664D01*
X60098292Y-59260548D01*
X60097697Y-59491074D01*
X60096922Y-59693236D01*
X60095946Y-59869029D01*
X60094744Y-60020450D01*
X60093293Y-60149494D01*
X60091571Y-60258157D01*
X60089554Y-60348435D01*
X60087218Y-60422322D01*
X60084541Y-60481816D01*
X60081499Y-60528911D01*
X60078069Y-60565602D01*
X60074227Y-60593887D01*
X60069951Y-60615760D01*
X60065216Y-60633217D01*
X60060001Y-60648253D01*
X60058831Y-60651320D01*
X60000825Y-60758491D01*
X59914124Y-60865438D01*
X59810479Y-60959444D01*
X59718835Y-61019154D01*
X59612583Y-61075250D01*
X46806750Y-61078758D01*
X46071878Y-61078933D01*
X45347407Y-61079052D01*
X44634493Y-61079118D01*
X43934295Y-61079131D01*
X43247972Y-61079093D01*
X42576683Y-61079004D01*
X41921585Y-61078866D01*
X41283838Y-61078680D01*
X40664599Y-61078446D01*
X40065027Y-61078167D01*
X39486281Y-61077843D01*
X38929519Y-61077476D01*
X38395900Y-61077066D01*
X37886581Y-61076614D01*
X37402722Y-61076123D01*
X36945481Y-61075593D01*
X36516017Y-61075024D01*
X36115487Y-61074419D01*
X35745050Y-61073779D01*
X35405865Y-61073104D01*
X35099091Y-61072395D01*
X34825885Y-61071655D01*
X34587407Y-61070883D01*
X34384814Y-61070082D01*
X34219265Y-61069252D01*
X34091919Y-61068394D01*
X34003933Y-61067510D01*
X33956468Y-61066601D01*
X33948000Y-61066075D01*
X33813773Y-61006472D01*
X33688330Y-60916620D01*
X33581970Y-60805869D01*
X33504989Y-60683569D01*
X33491168Y-60651320D01*
X33485848Y-60636541D01*
X33481013Y-60619764D01*
X33476642Y-60598994D01*
X33472710Y-60572236D01*
X33469194Y-60537494D01*
X33466072Y-60492772D01*
X33463319Y-60436075D01*
X33460913Y-60365407D01*
X33458830Y-60278772D01*
X33457047Y-60174175D01*
X33455541Y-60049620D01*
X33454289Y-59903112D01*
X33453266Y-59732654D01*
X33452451Y-59536251D01*
X33451819Y-59311908D01*
X33451348Y-59057629D01*
X33451014Y-58771417D01*
X33450793Y-58451279D01*
X33450761Y-58364143D01*
X34543033Y-58364143D01*
X34551980Y-58409162D01*
X34577930Y-58437600D01*
X34627245Y-58453231D01*
X34706285Y-58459828D01*
X34818425Y-58461167D01*
X35048666Y-58461167D01*
X35048666Y-58555622D01*
X35067725Y-58690882D01*
X35120517Y-58823737D01*
X35200465Y-58938852D01*
X35223089Y-58962259D01*
X35324277Y-59046988D01*
X35424348Y-59099777D01*
X35538591Y-59127712D01*
X35592751Y-59133600D01*
X35726000Y-59144296D01*
X35726000Y-59369998D01*
X35728634Y-59493979D01*
X35736596Y-59576777D01*
X35749971Y-59619213D01*
X35752327Y-59622027D01*
X35791806Y-59637994D01*
X35860521Y-59643015D01*
X35884618Y-59642135D01*
X35990583Y-59635917D01*
X35996546Y-59387208D01*
X36002510Y-59138500D01*
X36297500Y-59138500D01*
X36297500Y-59368741D01*
X36298913Y-59482998D01*
X36305670Y-59561311D01*
X36321543Y-59610040D01*
X36350307Y-59635545D01*
X36395736Y-59644187D01*
X36459897Y-59642435D01*
X36562083Y-59635917D01*
X36568046Y-59387208D01*
X36574010Y-59138500D01*
X36869000Y-59138500D01*
X36869000Y-59368741D01*
X36870413Y-59482998D01*
X36877170Y-59561311D01*
X36893043Y-59610040D01*
X36921807Y-59635545D01*
X36967236Y-59644187D01*
X37031397Y-59642435D01*
X37133583Y-59635917D01*
X37139546Y-59387208D01*
X37145510Y-59138500D01*
X37440500Y-59138500D01*
X37440500Y-59368741D01*
X37441913Y-59482998D01*
X37448670Y-59561311D01*
X37464543Y-59610040D01*
X37493307Y-59635545D01*
X37538736Y-59644187D01*
X37602897Y-59642435D01*
X37705083Y-59635917D01*
X37711046Y-59387208D01*
X37717010Y-59138500D01*
X38012000Y-59138500D01*
X38012000Y-59368741D01*
X38013413Y-59482998D01*
X38020170Y-59561311D01*
X38036043Y-59610040D01*
X38064807Y-59635545D01*
X38110236Y-59644187D01*
X38174397Y-59642435D01*
X38276583Y-59635917D01*
X38282525Y-59389633D01*
X38288468Y-59143349D01*
X38420109Y-59134745D01*
X38577997Y-59105413D01*
X38713727Y-59041137D01*
X38824661Y-58944537D01*
X38908161Y-58818232D01*
X38961592Y-58664841D01*
X38975721Y-58582875D01*
X38990544Y-58461167D01*
X39220194Y-58461167D01*
X39332391Y-58459567D01*
X39409003Y-58452521D01*
X39456724Y-58436661D01*
X39482252Y-58408618D01*
X39492281Y-58365022D01*
X39493666Y-58323583D01*
X39490557Y-58267674D01*
X40561714Y-58267674D01*
X40576029Y-58458327D01*
X40609990Y-58635126D01*
X40639041Y-58727238D01*
X40718220Y-58885155D01*
X40825381Y-59011580D01*
X40959713Y-59106053D01*
X41120404Y-59168116D01*
X41306642Y-59197310D01*
X41469524Y-59196944D01*
X41604391Y-59181239D01*
X41715080Y-59153642D01*
X41745243Y-59141863D01*
X41844936Y-59097764D01*
X41973356Y-59201246D01*
X42062797Y-59266960D01*
X42161480Y-59329159D01*
X42260298Y-59383142D01*
X42350148Y-59424206D01*
X42421925Y-59447649D01*
X42457000Y-59451010D01*
X42498138Y-59435990D01*
X42515526Y-59394559D01*
X42516861Y-59384651D01*
X42519226Y-59318890D01*
X42504571Y-59268960D01*
X42466517Y-59226223D01*
X42398685Y-59182045D01*
X42346535Y-59154088D01*
X42262781Y-59107956D01*
X42184336Y-59059916D01*
X42126628Y-59019479D01*
X42121486Y-59015304D01*
X42050556Y-58956183D01*
X42104684Y-58876419D01*
X42180913Y-58732548D01*
X42236816Y-58560159D01*
X42261127Y-58422551D01*
X42710398Y-58422551D01*
X42710605Y-58588981D01*
X42711434Y-58744218D01*
X42712909Y-58882959D01*
X42715050Y-58999905D01*
X42717880Y-59089754D01*
X42721420Y-59147205D01*
X42725111Y-59166722D01*
X42759016Y-59178264D01*
X42817012Y-59181288D01*
X42881945Y-59176823D01*
X42936663Y-59165897D01*
X42962150Y-59152517D01*
X42969236Y-59125262D01*
X42975332Y-59061119D01*
X42980472Y-58959073D01*
X42984693Y-58818108D01*
X42988030Y-58637207D01*
X42990519Y-58415354D01*
X42991200Y-58327328D01*
X42996750Y-57530455D01*
X43291520Y-58297436D01*
X43358050Y-58470128D01*
X43420830Y-58632290D01*
X43478018Y-58779225D01*
X43527771Y-58906233D01*
X43568249Y-59008617D01*
X43597609Y-59081677D01*
X43614010Y-59120716D01*
X43615408Y-59123693D01*
X43636149Y-59158408D01*
X43662811Y-59174964D01*
X43709158Y-59178595D01*
X43754554Y-59176610D01*
X43864583Y-59170250D01*
X44207740Y-58323583D01*
X44550897Y-57476917D01*
X44556990Y-58323583D01*
X44563083Y-59170250D01*
X44795916Y-59170250D01*
X44801432Y-58241356D01*
X44801549Y-58214967D01*
X45314500Y-58214967D01*
X45314808Y-58410239D01*
X45315692Y-58592368D01*
X45317086Y-58757010D01*
X45318926Y-58899821D01*
X45321148Y-59016459D01*
X45323687Y-59102579D01*
X45326479Y-59153839D01*
X45328611Y-59166722D01*
X45362438Y-59178213D01*
X45420373Y-59181253D01*
X45485266Y-59176855D01*
X45539962Y-59166034D01*
X45565485Y-59152716D01*
X45574424Y-59120347D01*
X45581984Y-59047704D01*
X45588044Y-58936831D01*
X45592480Y-58789769D01*
X45594535Y-58667976D01*
X45600250Y-58211354D01*
X45928333Y-58658532D01*
X46018293Y-58780666D01*
X46101695Y-58892987D01*
X46174777Y-58990501D01*
X46233778Y-59068213D01*
X46274934Y-59121129D01*
X46293458Y-59143272D01*
X46332691Y-59163507D01*
X46394419Y-59176807D01*
X46463941Y-59182289D01*
X46526554Y-59179069D01*
X46567555Y-59166265D01*
X46573646Y-59160104D01*
X46577949Y-59147668D01*
X46575556Y-59130033D01*
X46564027Y-59103524D01*
X46540918Y-59064467D01*
X46503787Y-59009186D01*
X46450194Y-58934006D01*
X46377696Y-58835252D01*
X46283850Y-58709249D01*
X46197547Y-58594065D01*
X46095735Y-58457946D01*
X46017092Y-58351419D01*
X45959075Y-58270443D01*
X45919141Y-58210980D01*
X45894746Y-58168989D01*
X45883347Y-58140433D01*
X45882470Y-58122663D01*
X47578033Y-58122663D01*
X47578358Y-58295430D01*
X47579498Y-58466202D01*
X47581437Y-58629603D01*
X47584158Y-58780258D01*
X47587645Y-58912792D01*
X47591881Y-59021828D01*
X47596850Y-59101991D01*
X47602535Y-59147906D01*
X47605660Y-59156360D01*
X47645140Y-59172327D01*
X47713855Y-59177348D01*
X47737952Y-59176469D01*
X47843916Y-59170250D01*
X47849655Y-58752208D01*
X47853560Y-58467768D01*
X48955166Y-58467768D01*
X48955616Y-58634050D01*
X48956890Y-58786685D01*
X48958880Y-58920544D01*
X48961474Y-59030499D01*
X48964562Y-59111419D01*
X48968034Y-59158176D01*
X48970228Y-59167673D01*
X48998463Y-59175196D01*
X49053833Y-59177719D01*
X49091936Y-59176492D01*
X49198583Y-59170250D01*
X49201760Y-58769819D01*
X49657281Y-58769819D01*
X49657626Y-58904442D01*
X49658609Y-59015457D01*
X49660190Y-59097574D01*
X49662333Y-59145504D01*
X49663709Y-59155306D01*
X49689006Y-59172790D01*
X49749303Y-59177963D01*
X49785721Y-59176656D01*
X49897083Y-59170250D01*
X49906144Y-58769819D01*
X50715614Y-58769819D01*
X50715960Y-58904442D01*
X50716942Y-59015457D01*
X50718523Y-59097574D01*
X50720666Y-59145504D01*
X50722042Y-59155306D01*
X50747339Y-59172790D01*
X50807636Y-59177963D01*
X50844054Y-59176656D01*
X50955416Y-59170250D01*
X50966000Y-58679779D01*
X50969478Y-58523457D01*
X50972733Y-58403782D01*
X50976422Y-58315077D01*
X50981204Y-58251665D01*
X50987737Y-58207870D01*
X50996677Y-58178015D01*
X51008684Y-58156423D01*
X51024415Y-58137417D01*
X51029500Y-58131869D01*
X51134073Y-58035977D01*
X51235665Y-57976286D01*
X51330867Y-57953075D01*
X51416272Y-57966625D01*
X51488474Y-58017216D01*
X51537187Y-58090105D01*
X51551159Y-58122188D01*
X51561727Y-58157167D01*
X51569365Y-58201245D01*
X51574546Y-58260623D01*
X51577745Y-58341504D01*
X51579433Y-58450090D01*
X51580085Y-58592584D01*
X51580157Y-58653058D01*
X51581008Y-58791773D01*
X51583212Y-58917006D01*
X51586538Y-59022299D01*
X51590756Y-59101195D01*
X51595636Y-59147235D01*
X51598080Y-59155667D01*
X51634223Y-59174188D01*
X51708816Y-59177428D01*
X51719464Y-59176834D01*
X51823250Y-59170250D01*
X51834610Y-58213878D01*
X51910579Y-58125126D01*
X52003966Y-58036540D01*
X52101100Y-57980489D01*
X52196333Y-57957394D01*
X52284018Y-57967675D01*
X52358506Y-58011752D01*
X52413062Y-58087725D01*
X52424571Y-58118216D01*
X52433298Y-58158636D01*
X52439597Y-58214710D01*
X52443823Y-58292162D01*
X52446333Y-58396719D01*
X52447482Y-58534104D01*
X52447666Y-58645340D01*
X52448424Y-58818414D01*
X52450801Y-58952262D01*
X52454950Y-59049964D01*
X52461024Y-59114604D01*
X52469177Y-59149262D01*
X52473066Y-59155433D01*
X52508221Y-59170558D01*
X52568010Y-59179650D01*
X52599663Y-59180833D01*
X52661925Y-59178380D01*
X52694638Y-59167012D01*
X52710488Y-59140723D01*
X52714515Y-59126426D01*
X52719647Y-59081064D01*
X52722331Y-59001484D01*
X52722819Y-58895471D01*
X52721363Y-58770810D01*
X52718214Y-58635285D01*
X52713623Y-58496683D01*
X52707843Y-58362787D01*
X52701124Y-58241383D01*
X52693718Y-58140257D01*
X52685877Y-58067192D01*
X52679194Y-58033361D01*
X52617947Y-57911838D01*
X52527935Y-57820160D01*
X52476812Y-57793836D01*
X52997776Y-57793836D01*
X52998213Y-57820058D01*
X53005013Y-57860813D01*
X53019195Y-57920302D01*
X53041774Y-58002724D01*
X53073768Y-58112279D01*
X53116194Y-58253167D01*
X53170071Y-58429589D01*
X53179823Y-58461399D01*
X53229642Y-58622597D01*
X53276351Y-58771350D01*
X53318326Y-58902675D01*
X53353947Y-59011589D01*
X53381591Y-59093109D01*
X53399637Y-59142251D01*
X53405371Y-59154375D01*
X53439856Y-59170134D01*
X53507901Y-59179198D01*
X53562588Y-59180833D01*
X53636500Y-59179826D01*
X53679737Y-59173539D01*
X53703953Y-59157075D01*
X53720805Y-59125536D01*
X53726313Y-59112042D01*
X53739979Y-59071037D01*
X53762126Y-58996378D01*
X53790685Y-58895408D01*
X53823588Y-58775471D01*
X53858766Y-58643910D01*
X53866729Y-58613664D01*
X53900699Y-58487951D01*
X53931930Y-58379325D01*
X53958680Y-58293291D01*
X53979206Y-58235357D01*
X53991766Y-58211030D01*
X53993970Y-58211497D01*
X54003859Y-58239097D01*
X54023511Y-58301162D01*
X54051038Y-58391459D01*
X54084550Y-58503756D01*
X54122158Y-58631819D01*
X54140219Y-58693984D01*
X54179423Y-58826411D01*
X54216186Y-58945072D01*
X54248503Y-59043925D01*
X54274367Y-59116927D01*
X54291773Y-59158037D01*
X54296453Y-59164618D01*
X54337539Y-59176383D01*
X54401502Y-59180858D01*
X54473044Y-59178678D01*
X54536867Y-59170474D01*
X54577673Y-59156881D01*
X54582432Y-59152779D01*
X54593889Y-59126700D01*
X54615722Y-59066024D01*
X54646062Y-58976680D01*
X54683045Y-58864598D01*
X54718670Y-58754634D01*
X55187624Y-58754634D01*
X55192217Y-58872854D01*
X55232641Y-58986192D01*
X55290565Y-59067001D01*
X55352583Y-59120207D01*
X55423870Y-59162469D01*
X55442750Y-59170204D01*
X55546799Y-59193676D01*
X55664200Y-59199916D01*
X55773921Y-59188512D01*
X55815299Y-59177476D01*
X55877463Y-59150052D01*
X55949295Y-59109871D01*
X55975860Y-59092720D01*
X56064471Y-59032487D01*
X56071110Y-59101369D01*
X56077979Y-59143260D01*
X56095981Y-59164493D01*
X56137124Y-59173560D01*
X56177604Y-59176673D01*
X56238873Y-59178470D01*
X56270850Y-59169944D01*
X56286287Y-59145688D01*
X56291149Y-59128546D01*
X56294690Y-59092403D01*
X56297189Y-59020625D01*
X56298581Y-58919901D01*
X56298801Y-58796918D01*
X56298436Y-58747080D01*
X56726618Y-58747080D01*
X56727111Y-58882092D01*
X56728328Y-58993914D01*
X56730222Y-59076939D01*
X56732745Y-59125560D01*
X56733961Y-59134291D01*
X56745138Y-59162679D01*
X56768320Y-59176065D01*
X56815256Y-59178515D01*
X56856300Y-59176624D01*
X56966750Y-59170250D01*
X56977333Y-58713535D01*
X56980942Y-58563241D01*
X56983408Y-58481647D01*
X57686416Y-58481647D01*
X57687334Y-58597872D01*
X57690988Y-58682081D01*
X57698732Y-58744570D01*
X57711918Y-58795633D01*
X57731899Y-58845567D01*
X57735176Y-58852750D01*
X57818416Y-58987622D01*
X57930089Y-59091528D01*
X58071421Y-59165519D01*
X58120333Y-59182206D01*
X58192625Y-59194709D01*
X58291999Y-59199546D01*
X58403975Y-59197094D01*
X58514072Y-59187734D01*
X58607811Y-59171843D01*
X58618594Y-59169173D01*
X58719358Y-59139397D01*
X58784944Y-59109151D01*
X58822204Y-59072887D01*
X58837987Y-59025056D01*
X58840000Y-58989845D01*
X58836761Y-58940780D01*
X58822289Y-58913959D01*
X58789452Y-58907816D01*
X58731117Y-58920785D01*
X58649500Y-58948000D01*
X58555241Y-58971786D01*
X58444130Y-58985865D01*
X58331166Y-58989621D01*
X58231351Y-58982435D01*
X58169336Y-58967757D01*
X58068429Y-58908220D01*
X57995067Y-58816670D01*
X57949474Y-58693431D01*
X57938857Y-58633810D01*
X57924379Y-58524667D01*
X58380677Y-58524667D01*
X58542540Y-58524378D01*
X58666987Y-58522513D01*
X58758935Y-58517575D01*
X58823303Y-58508066D01*
X58865008Y-58492489D01*
X58888967Y-58469345D01*
X58900098Y-58437138D01*
X58903319Y-58394369D01*
X58903500Y-58365446D01*
X58888053Y-58206028D01*
X58844287Y-58058047D01*
X58798001Y-57967687D01*
X58711394Y-57868347D01*
X58599793Y-57796051D01*
X58470904Y-57750960D01*
X58332434Y-57733233D01*
X58192090Y-57743030D01*
X58057578Y-57780512D01*
X57936606Y-57845838D01*
X57836879Y-57939168D01*
X57830245Y-57947595D01*
X57772796Y-58029231D01*
X57732549Y-58106892D01*
X57706685Y-58191050D01*
X57692383Y-58292174D01*
X57686823Y-58420734D01*
X57686416Y-58481647D01*
X56983408Y-58481647D01*
X56984396Y-58449000D01*
X56988478Y-58364540D01*
X56993974Y-58303590D01*
X57001666Y-58259881D01*
X57012340Y-58227140D01*
X57026780Y-58199098D01*
X57045292Y-58170206D01*
X57097641Y-58103426D01*
X57158575Y-58042031D01*
X57176502Y-58027275D01*
X57223612Y-57995666D01*
X57268902Y-57979875D01*
X57328896Y-57975965D01*
X57383710Y-57977937D01*
X57517083Y-57984917D01*
X57517083Y-57879083D01*
X57515520Y-57815939D01*
X57504772Y-57781309D01*
X57475749Y-57761374D01*
X57429173Y-57745424D01*
X57322293Y-57728773D01*
X57221386Y-57750247D01*
X57122179Y-57811306D01*
X57056708Y-57872781D01*
X56956166Y-57979145D01*
X56956166Y-57871309D01*
X56954125Y-57806825D01*
X56944249Y-57772338D01*
X56920904Y-57755568D01*
X56900277Y-57749446D01*
X56836226Y-57745781D01*
X56789152Y-57754836D01*
X56733916Y-57774254D01*
X56727994Y-58429919D01*
X56726896Y-58594487D01*
X56726618Y-58747080D01*
X56298436Y-58747080D01*
X56297784Y-58658364D01*
X56296573Y-58571790D01*
X56293724Y-58411799D01*
X56290722Y-58288035D01*
X56286989Y-58194395D01*
X56281945Y-58124776D01*
X56275011Y-58073072D01*
X56265610Y-58033181D01*
X56253161Y-57998998D01*
X56239419Y-57969189D01*
X56174975Y-57871452D01*
X56088282Y-57801614D01*
X55975179Y-57757699D01*
X55831505Y-57737726D01*
X55749284Y-57736073D01*
X55615037Y-57746297D01*
X55494613Y-57772191D01*
X55392623Y-57810809D01*
X55313679Y-57859204D01*
X55262391Y-57914431D01*
X55243371Y-57973542D01*
X55261229Y-58033593D01*
X55268125Y-58043498D01*
X55285109Y-58059979D01*
X55308584Y-58063557D01*
X55348212Y-58052598D01*
X55413658Y-58025462D01*
X55437933Y-58014740D01*
X55596760Y-57957903D01*
X55735509Y-57937631D01*
X55855193Y-57953787D01*
X55864061Y-57956679D01*
X55943320Y-57997004D01*
X55994492Y-58057905D01*
X56022036Y-58146433D01*
X56029177Y-58217750D01*
X56035416Y-58344750D01*
X55802583Y-58358182D01*
X55661017Y-58368949D01*
X55553175Y-58383870D01*
X55470510Y-58404785D01*
X55404474Y-58433534D01*
X55377682Y-58449664D01*
X55281471Y-58535142D01*
X55217747Y-58639431D01*
X55187624Y-58754634D01*
X54718670Y-58754634D01*
X54724803Y-58735704D01*
X54769470Y-58595928D01*
X54815180Y-58451199D01*
X54860066Y-58307445D01*
X54902261Y-58170594D01*
X54939900Y-58046575D01*
X54971116Y-57941316D01*
X54994043Y-57860747D01*
X55006813Y-57810795D01*
X55008833Y-57798366D01*
X54990445Y-57766441D01*
X54944183Y-57746480D01*
X54883405Y-57740841D01*
X54821465Y-57751881D01*
X54799484Y-57761426D01*
X54782578Y-57783257D01*
X54759269Y-57835347D01*
X54728755Y-57920018D01*
X54690236Y-58039597D01*
X54642910Y-58196408D01*
X54606185Y-58322386D01*
X54564334Y-58465075D01*
X54525633Y-58592484D01*
X54491736Y-58699523D01*
X54464300Y-58781103D01*
X54444980Y-58832134D01*
X54435430Y-58847527D01*
X54435405Y-58847501D01*
X54425817Y-58823633D01*
X54406369Y-58764575D01*
X54378759Y-58675864D01*
X54344683Y-58563038D01*
X54305837Y-58431631D01*
X54266872Y-58297448D01*
X54113053Y-57763313D01*
X54044200Y-57750396D01*
X53958969Y-57746880D01*
X53896061Y-57770000D01*
X53869342Y-57801142D01*
X53859240Y-57830803D01*
X53840121Y-57895429D01*
X53813663Y-57989026D01*
X53781540Y-58105597D01*
X53745430Y-58239147D01*
X53715906Y-58349988D01*
X53678412Y-58490139D01*
X53644042Y-58615709D01*
X53614361Y-58721218D01*
X53590932Y-58801187D01*
X53575317Y-58850134D01*
X53569455Y-58863280D01*
X53560972Y-58843827D01*
X53542469Y-58788960D01*
X53515587Y-58703961D01*
X53481966Y-58594111D01*
X53443246Y-58464693D01*
X53401417Y-58322189D01*
X53346889Y-58137888D01*
X53301805Y-57992624D01*
X53265453Y-57884339D01*
X53237118Y-57810972D01*
X53216087Y-57770465D01*
X53207061Y-57761272D01*
X53142626Y-57743615D01*
X53069756Y-57746244D01*
X53011922Y-57768191D01*
X53002684Y-57777947D01*
X52997776Y-57793836D01*
X52476812Y-57793836D01*
X52412712Y-57760831D01*
X52275833Y-57736355D01*
X52256889Y-57735866D01*
X52146220Y-57748450D01*
X52037500Y-57790724D01*
X51922979Y-57866248D01*
X51861214Y-57917509D01*
X51810990Y-57955598D01*
X51781251Y-57964946D01*
X51775978Y-57959519D01*
X51729249Y-57880992D01*
X51650655Y-57813909D01*
X51550299Y-57764143D01*
X51438281Y-57737566D01*
X51389333Y-57734730D01*
X51289952Y-57743775D01*
X51198286Y-57774407D01*
X51102245Y-57831689D01*
X51034791Y-57883136D01*
X50944833Y-57956001D01*
X50944833Y-57859737D01*
X50942112Y-57799318D01*
X50929511Y-57767968D01*
X50900371Y-57752548D01*
X50888944Y-57749446D01*
X50824893Y-57745781D01*
X50777819Y-57754837D01*
X50722583Y-57774255D01*
X50716987Y-58450903D01*
X50715944Y-58616876D01*
X50715614Y-58769819D01*
X49906144Y-58769819D01*
X49907666Y-58702575D01*
X49918250Y-58234899D01*
X49999821Y-58135415D01*
X50068753Y-58056518D01*
X50125907Y-58007709D01*
X50182415Y-57983476D01*
X50249411Y-57978308D01*
X50307735Y-57982996D01*
X50377160Y-57989858D01*
X50415721Y-57988126D01*
X50434569Y-57974382D01*
X50444856Y-57945212D01*
X50446013Y-57940636D01*
X50452097Y-57875860D01*
X50446904Y-57823836D01*
X50428346Y-57780035D01*
X50388450Y-57753245D01*
X50350569Y-57741070D01*
X50241089Y-57729828D01*
X50136571Y-57757820D01*
X50033612Y-57826254D01*
X49987041Y-57870402D01*
X49886500Y-57974193D01*
X49886500Y-57868833D01*
X49884336Y-57805211D01*
X49873957Y-57771403D01*
X49849536Y-57754956D01*
X49830610Y-57749446D01*
X49766559Y-57745781D01*
X49719485Y-57754837D01*
X49664250Y-57774255D01*
X49658654Y-58450903D01*
X49657611Y-58616876D01*
X49657281Y-58769819D01*
X49201760Y-58769819D01*
X49204159Y-58467471D01*
X49209734Y-57764691D01*
X49133747Y-57750436D01*
X49064417Y-57747046D01*
X49006463Y-57759553D01*
X48955166Y-57782926D01*
X48955166Y-58467768D01*
X47853560Y-58467768D01*
X47855394Y-58334167D01*
X48189380Y-58334167D01*
X48326115Y-58333383D01*
X48426178Y-58330075D01*
X48495214Y-58322808D01*
X48538871Y-58310148D01*
X48562796Y-58290661D01*
X48572634Y-58262912D01*
X48574166Y-58236414D01*
X48573215Y-58195566D01*
X48566479Y-58165877D01*
X48548133Y-58145566D01*
X48512352Y-58132854D01*
X48453312Y-58125961D01*
X48365188Y-58123104D01*
X48242155Y-58122506D01*
X48201485Y-58122500D01*
X47854500Y-58122500D01*
X47854500Y-57782926D01*
X47854500Y-57466333D01*
X48214857Y-57466333D01*
X48346049Y-57466169D01*
X48441140Y-57465143D01*
X48506362Y-57462453D01*
X48547946Y-57457299D01*
X48572125Y-57448879D01*
X48585130Y-57436393D01*
X48593193Y-57419040D01*
X48593728Y-57417637D01*
X48604041Y-57358679D01*
X48602548Y-57332953D01*
X48935221Y-57332953D01*
X48937287Y-57396926D01*
X48950032Y-57447159D01*
X48960458Y-57461464D01*
X49024581Y-57490154D01*
X49103723Y-57495185D01*
X49177832Y-57476612D01*
X49203875Y-57460823D01*
X49220212Y-57428156D01*
X49229514Y-57371179D01*
X49230333Y-57347813D01*
X49225189Y-57283218D01*
X49205106Y-57243528D01*
X49177169Y-57220808D01*
X49109733Y-57198615D01*
X49032060Y-57203548D01*
X48965096Y-57234102D01*
X48962475Y-57236217D01*
X48943671Y-57273348D01*
X48935221Y-57332953D01*
X48602548Y-57332953D01*
X48601320Y-57311803D01*
X48590398Y-57254667D01*
X47620618Y-57254667D01*
X47599976Y-57308961D01*
X47594130Y-57345183D01*
X47589216Y-57417037D01*
X47585217Y-57519149D01*
X47582115Y-57646143D01*
X47579895Y-57792644D01*
X47578539Y-57953275D01*
X47578033Y-58122663D01*
X45882470Y-58122663D01*
X45882401Y-58121271D01*
X45889364Y-58107465D01*
X45890399Y-58106222D01*
X45993733Y-57984782D01*
X46097844Y-57860878D01*
X46198884Y-57739238D01*
X46293005Y-57624592D01*
X46376360Y-57521666D01*
X46445099Y-57435190D01*
X46495376Y-57369892D01*
X46523342Y-57330500D01*
X46527061Y-57323900D01*
X46539484Y-57281389D01*
X46524151Y-57256408D01*
X46519796Y-57253475D01*
X46473659Y-57239890D01*
X46406744Y-57235886D01*
X46339567Y-57241711D01*
X46305539Y-57250863D01*
X46283120Y-57270862D01*
X46238620Y-57319611D01*
X46175975Y-57392466D01*
X46099120Y-57484780D01*
X46011989Y-57591908D01*
X45935122Y-57688194D01*
X45600250Y-58111137D01*
X45594705Y-57698777D01*
X45592353Y-57554256D01*
X45589369Y-57446338D01*
X45585216Y-57369294D01*
X45579358Y-57317393D01*
X45571258Y-57284906D01*
X45560380Y-57266103D01*
X45553618Y-57259958D01*
X45495467Y-57237868D01*
X45422050Y-57236178D01*
X45355470Y-57255396D01*
X45355441Y-57255411D01*
X45345674Y-57262034D01*
X45337596Y-57272988D01*
X45331048Y-57292030D01*
X45325869Y-57322915D01*
X45321899Y-57369398D01*
X45318979Y-57435235D01*
X45316946Y-57524180D01*
X45315643Y-57639990D01*
X45314907Y-57786419D01*
X45314580Y-57967224D01*
X45314500Y-58186159D01*
X45314500Y-58214967D01*
X44801549Y-58214967D01*
X44801677Y-58186159D01*
X44802523Y-57995760D01*
X44802602Y-57790355D01*
X44801630Y-57623009D01*
X44799565Y-57491590D01*
X44796365Y-57393967D01*
X44791990Y-57328008D01*
X44786399Y-57291582D01*
X44782966Y-57283564D01*
X44746757Y-57265802D01*
X44673132Y-57256439D01*
X44601223Y-57254667D01*
X44517023Y-57256268D01*
X44463304Y-57262991D01*
X44428272Y-57277714D01*
X44400133Y-57303314D01*
X44399650Y-57303855D01*
X44381582Y-57334451D01*
X44349780Y-57399479D01*
X44306377Y-57494125D01*
X44253508Y-57613574D01*
X44193306Y-57753012D01*
X44127907Y-57907625D01*
X44066895Y-58054489D01*
X43999966Y-58216496D01*
X43937841Y-58365968D01*
X43882413Y-58498419D01*
X43835575Y-58609364D01*
X43799220Y-58694319D01*
X43775240Y-58748798D01*
X43765676Y-58768212D01*
X43752525Y-58756516D01*
X43729643Y-58714128D01*
X43701886Y-58650095D01*
X43700773Y-58647287D01*
X43679324Y-58592957D01*
X43644889Y-58505689D01*
X43600011Y-58391925D01*
X43547230Y-58258109D01*
X43489089Y-58110686D01*
X43428129Y-57956098D01*
X43418627Y-57932000D01*
X43355274Y-57773790D01*
X43295995Y-57630455D01*
X43242935Y-57506870D01*
X43198239Y-57407910D01*
X43164054Y-57338450D01*
X43142525Y-57303365D01*
X43141516Y-57302292D01*
X43111793Y-57277916D01*
X43075380Y-57263524D01*
X43020866Y-57256614D01*
X42936840Y-57254683D01*
X42924373Y-57254667D01*
X42837498Y-57256018D01*
X42783301Y-57261442D01*
X42752174Y-57272992D01*
X42734512Y-57292723D01*
X42732911Y-57295608D01*
X42728508Y-57324241D01*
X42724529Y-57389389D01*
X42720996Y-57485750D01*
X42717931Y-57608024D01*
X42715356Y-57750910D01*
X42713293Y-57909106D01*
X42711764Y-58077313D01*
X42710792Y-58250228D01*
X42710398Y-58422551D01*
X42261127Y-58422551D01*
X42270627Y-58368783D01*
X42280577Y-58167953D01*
X42268496Y-57993330D01*
X42226296Y-57785835D01*
X42157115Y-57610945D01*
X42060982Y-57468686D01*
X41937925Y-57359086D01*
X41787974Y-57282170D01*
X41611157Y-57237965D01*
X41430416Y-57226160D01*
X41228743Y-57244706D01*
X41051842Y-57297253D01*
X40900270Y-57383440D01*
X40774581Y-57502909D01*
X40675331Y-57655297D01*
X40636929Y-57740833D01*
X40592137Y-57896104D01*
X40567075Y-58075992D01*
X40561714Y-58267674D01*
X39490557Y-58267674D01*
X39490539Y-58267354D01*
X39476711Y-58228884D01*
X39445510Y-58204846D01*
X39390264Y-58191914D01*
X39304303Y-58186761D01*
X39217755Y-58186000D01*
X38985666Y-58186000D01*
X38985666Y-57889667D01*
X39217755Y-57889667D01*
X39330517Y-57888107D01*
X39407666Y-57881212D01*
X39455871Y-57865653D01*
X39481806Y-57838105D01*
X39492140Y-57795241D01*
X39493666Y-57752083D01*
X39490539Y-57695854D01*
X39476711Y-57657384D01*
X39445510Y-57633346D01*
X39390264Y-57620414D01*
X39304303Y-57615261D01*
X39217755Y-57614500D01*
X38985666Y-57614500D01*
X38985666Y-57318167D01*
X39217755Y-57318167D01*
X39330517Y-57316607D01*
X39407666Y-57309712D01*
X39455871Y-57294153D01*
X39481806Y-57266605D01*
X39492140Y-57223741D01*
X39493666Y-57180583D01*
X39490539Y-57124354D01*
X39476711Y-57085884D01*
X39445510Y-57061846D01*
X39390264Y-57048914D01*
X39304303Y-57043761D01*
X39217755Y-57043000D01*
X38985666Y-57043000D01*
X38985666Y-56746667D01*
X39217755Y-56746667D01*
X39330517Y-56745107D01*
X39407666Y-56738212D01*
X39455871Y-56722653D01*
X39481806Y-56695105D01*
X39492140Y-56652241D01*
X39493666Y-56609083D01*
X39490539Y-56552854D01*
X39476711Y-56514384D01*
X39445510Y-56490346D01*
X39390264Y-56477414D01*
X39304303Y-56472261D01*
X39217755Y-56471500D01*
X38985666Y-56471500D01*
X38985666Y-56175167D01*
X39217755Y-56175167D01*
X39330517Y-56173607D01*
X39407666Y-56166712D01*
X39455871Y-56151153D01*
X39481806Y-56123605D01*
X39492140Y-56080741D01*
X39493666Y-56037583D01*
X39490480Y-55981110D01*
X39476454Y-55942558D01*
X39444889Y-55918553D01*
X39389087Y-55905722D01*
X39302349Y-55900689D01*
X39220489Y-55900000D01*
X38991134Y-55900000D01*
X38977362Y-55778292D01*
X38975242Y-55768889D01*
X40698026Y-55768889D01*
X40698736Y-55919790D01*
X40700594Y-56064216D01*
X40703595Y-56196152D01*
X40707734Y-56309587D01*
X40713009Y-56398506D01*
X40719413Y-56456896D01*
X40726625Y-56478648D01*
X40789397Y-56490238D01*
X40858348Y-56485550D01*
X40878352Y-56479819D01*
X40892458Y-56468279D01*
X40902060Y-56441919D01*
X40907957Y-56393988D01*
X40910948Y-56317735D01*
X40911829Y-56206412D01*
X40911833Y-56196723D01*
X40911833Y-55926475D01*
X41089726Y-55917138D01*
X41256713Y-55894560D01*
X41313009Y-55874068D01*
X41772444Y-55874068D01*
X41773301Y-56023571D01*
X41800887Y-56162358D01*
X41852916Y-56284124D01*
X41927102Y-56382564D01*
X42021159Y-56451372D01*
X42073244Y-56472189D01*
X42166535Y-56488853D01*
X42277511Y-56491846D01*
X42388969Y-56482097D01*
X42483706Y-56460533D01*
X42513842Y-56448433D01*
X42626809Y-56371243D01*
X42711836Y-56264387D01*
X42767248Y-56131404D01*
X42791366Y-55975831D01*
X42789659Y-55866776D01*
X42760607Y-55707380D01*
X42701412Y-55576618D01*
X42614742Y-55476376D01*
X42519568Y-55418458D01*
X42943535Y-55418458D01*
X42949655Y-55453587D01*
X42966958Y-55520703D01*
X42993285Y-55613058D01*
X43026478Y-55723903D01*
X43064377Y-55846489D01*
X43104825Y-55974067D01*
X43145662Y-56099889D01*
X43184730Y-56217205D01*
X43219870Y-56319267D01*
X43248924Y-56399326D01*
X43269733Y-56450633D01*
X43278658Y-56466208D01*
X43325451Y-56485518D01*
X43388716Y-56491843D01*
X43449761Y-56485299D01*
X43489898Y-56466003D01*
X43490872Y-56464885D01*
X43503968Y-56435670D01*
X43525106Y-56373107D01*
X43551911Y-56284881D01*
X43582009Y-56178677D01*
X43600443Y-56110344D01*
X43630677Y-55996834D01*
X43657784Y-55896334D01*
X43679641Y-55816623D01*
X43694122Y-55765478D01*
X43698354Y-55751833D01*
X43707527Y-55760632D01*
X43726055Y-55804447D01*
X43751895Y-55877528D01*
X43783005Y-55974121D01*
X43814848Y-56079917D01*
X43852211Y-56202767D01*
X43887543Y-56309564D01*
X43918443Y-56393671D01*
X43942512Y-56448451D01*
X43954518Y-56466208D01*
X44000213Y-56485384D01*
X44055083Y-56492667D01*
X44112714Y-56484461D01*
X44153217Y-56466208D01*
X44166737Y-56440604D01*
X44190165Y-56381214D01*
X44221314Y-56294819D01*
X44257999Y-56188203D01*
X44298031Y-56068148D01*
X44336691Y-55949224D01*
X44639142Y-55949224D01*
X44643719Y-56065638D01*
X44659783Y-56165683D01*
X44666914Y-56190304D01*
X44726581Y-56306205D01*
X44817966Y-56402355D01*
X44912333Y-56460185D01*
X44977310Y-56477076D01*
X45070203Y-56486221D01*
X45177360Y-56487901D01*
X45285131Y-56482398D01*
X45379867Y-56469994D01*
X45447917Y-56450972D01*
X45452083Y-56449034D01*
X45497073Y-56418667D01*
X45514001Y-56376205D01*
X45515583Y-56344215D01*
X45510457Y-56293277D01*
X45492853Y-56276658D01*
X45483833Y-56277487D01*
X45447135Y-56286322D01*
X45384562Y-56301972D01*
X45326171Y-56316830D01*
X45180244Y-56340398D01*
X45058881Y-56330420D01*
X44962880Y-56287312D01*
X44893040Y-56211492D01*
X44850158Y-56103377D01*
X44842566Y-56064042D01*
X44830328Y-55984667D01*
X45175655Y-55984667D01*
X45315183Y-55984354D01*
X45417811Y-55981548D01*
X45488974Y-55973450D01*
X45534104Y-55957259D01*
X45558634Y-55930175D01*
X45567998Y-55889399D01*
X45567717Y-55845641D01*
X45843096Y-55845641D01*
X45843585Y-55976378D01*
X45845391Y-56105191D01*
X45848466Y-56224828D01*
X45852761Y-56328039D01*
X45858227Y-56407572D01*
X45864818Y-56456175D01*
X45869066Y-56467267D01*
X45915887Y-56488865D01*
X45980589Y-56490236D01*
X46021852Y-56479819D01*
X46034351Y-56469793D01*
X46043363Y-56446838D01*
X46049428Y-56405036D01*
X46053085Y-56338470D01*
X46054874Y-56241221D01*
X46055333Y-56112382D01*
X46055333Y-55957035D01*
X46565921Y-55957035D01*
X46578764Y-56087762D01*
X46613969Y-56210585D01*
X46671342Y-56318703D01*
X46750687Y-56405314D01*
X46851808Y-56463617D01*
X46874165Y-56471143D01*
X46955921Y-56485341D01*
X47062367Y-56489921D01*
X47177099Y-56485442D01*
X47283717Y-56472463D01*
X47357083Y-56454698D01*
X47420951Y-56429606D01*
X47454343Y-56404586D01*
X47468067Y-56370351D01*
X47469863Y-56357796D01*
X47468884Y-56301841D01*
X47445956Y-56276537D01*
X47395855Y-56278978D01*
X47351845Y-56292113D01*
X47203865Y-56330047D01*
X47072191Y-56337766D01*
X46960824Y-56316140D01*
X46873767Y-56266043D01*
X46815022Y-56188346D01*
X46808663Y-56173776D01*
X46787064Y-56107489D01*
X46775573Y-56048236D01*
X46775000Y-56037155D01*
X46775000Y-55984667D01*
X47104474Y-55984667D01*
X47226035Y-55983280D01*
X47331798Y-55979427D01*
X47413994Y-55973567D01*
X47464850Y-55966161D01*
X47474891Y-55962755D01*
X47490807Y-55942333D01*
X47738139Y-55942333D01*
X47743431Y-56084528D01*
X47760896Y-56195106D01*
X47793051Y-56283668D01*
X47842410Y-56359813D01*
X47849977Y-56369010D01*
X47926177Y-56437481D01*
X48019390Y-56477081D01*
X48139016Y-56491609D01*
X48153997Y-56491838D01*
X48231607Y-56488208D01*
X48292640Y-56471605D01*
X48358248Y-56435393D01*
X48380349Y-56420816D01*
X48487118Y-56348965D01*
X48493601Y-56402806D01*
X48517354Y-56461251D01*
X48567452Y-56488280D01*
X48624067Y-56484731D01*
X48680520Y-56470563D01*
X48674968Y-55693156D01*
X48674911Y-55685209D01*
X49547833Y-55685209D01*
X49548204Y-55862821D01*
X49549259Y-56026974D01*
X49550914Y-56172884D01*
X49553083Y-56295766D01*
X49555681Y-56390837D01*
X49558624Y-56453313D01*
X49561826Y-56478411D01*
X49561944Y-56478555D01*
X49598831Y-56491411D01*
X49653812Y-56488280D01*
X49683685Y-56479819D01*
X49709579Y-56449402D01*
X49717166Y-56404738D01*
X49717166Y-56342505D01*
X49802841Y-56411355D01*
X49861431Y-56452588D01*
X49918816Y-56475454D01*
X49993985Y-56486664D01*
X50021544Y-56488676D01*
X50158383Y-56480450D01*
X50271728Y-56437332D01*
X50361022Y-56360009D01*
X50425709Y-56249168D01*
X50465233Y-56105498D01*
X50479038Y-55929684D01*
X50479048Y-55923094D01*
X50468650Y-55758791D01*
X50436478Y-55627783D01*
X50380661Y-55526004D01*
X50299329Y-55449385D01*
X50246969Y-55418458D01*
X50220977Y-55408923D01*
X50619372Y-55408923D01*
X50623757Y-55432447D01*
X50641424Y-55490211D01*
X50670544Y-55576907D01*
X50709289Y-55687229D01*
X50755829Y-55815873D01*
X50808337Y-55957531D01*
X50809565Y-55960804D01*
X51010216Y-56495762D01*
X50944508Y-56666149D01*
X50915863Y-56746826D01*
X50896373Y-56814428D01*
X50889042Y-56857955D01*
X50889985Y-56865684D01*
X50919165Y-56890350D01*
X50969572Y-56896463D01*
X51025184Y-56885583D01*
X51069979Y-56859268D01*
X51079819Y-56847208D01*
X51096158Y-56812932D01*
X51123412Y-56746117D01*
X51159625Y-56652273D01*
X51202841Y-56536912D01*
X51251102Y-56405545D01*
X51302453Y-56263684D01*
X51354936Y-56116839D01*
X51406595Y-55970522D01*
X51455475Y-55830244D01*
X51499617Y-55701517D01*
X51537065Y-55589851D01*
X51565864Y-55500759D01*
X51584056Y-55439750D01*
X51589685Y-55412336D01*
X51589465Y-55411628D01*
X51562324Y-55398997D01*
X51510266Y-55392316D01*
X51495438Y-55392000D01*
X51469239Y-55391457D01*
X51448304Y-55392810D01*
X51430366Y-55400532D01*
X51413156Y-55419098D01*
X51394406Y-55452979D01*
X51371851Y-55506649D01*
X51343220Y-55584582D01*
X51306247Y-55691251D01*
X51258665Y-55831128D01*
X51229860Y-55915875D01*
X51193411Y-56020777D01*
X51161061Y-56109785D01*
X51135443Y-56175963D01*
X51119193Y-56212377D01*
X51115393Y-56217256D01*
X51105078Y-56198179D01*
X51083322Y-56145177D01*
X51052453Y-56064356D01*
X51014796Y-55961825D01*
X50972680Y-55843690D01*
X50968211Y-55830964D01*
X50925017Y-55709408D01*
X50885336Y-55600770D01*
X50851694Y-55511723D01*
X50826613Y-55448939D01*
X50812618Y-55419089D01*
X50812161Y-55418458D01*
X50780297Y-55402334D01*
X50727150Y-55393544D01*
X50670684Y-55392976D01*
X50628857Y-55401519D01*
X50619372Y-55408923D01*
X50220977Y-55408923D01*
X50137278Y-55378220D01*
X50032944Y-55374565D01*
X49924678Y-55408091D01*
X49858796Y-55443372D01*
X49738333Y-55515911D01*
X49738333Y-55211965D01*
X49738009Y-55092719D01*
X49736419Y-55009063D01*
X49732631Y-54954258D01*
X49725717Y-54921563D01*
X49714744Y-54904236D01*
X49698785Y-54895536D01*
X49694472Y-54894098D01*
X49638753Y-54888143D01*
X49599222Y-54893075D01*
X49547833Y-54905973D01*
X49547833Y-55685209D01*
X48674911Y-55685209D01*
X48669416Y-54915750D01*
X48586904Y-54908993D01*
X48521382Y-54911467D01*
X48486686Y-54930160D01*
X48479948Y-54961043D01*
X48474336Y-55025194D01*
X48470399Y-55113553D01*
X48468685Y-55217060D01*
X48468657Y-55228258D01*
X48468333Y-55498434D01*
X48379920Y-55439925D01*
X48269836Y-55391097D01*
X48148489Y-55377422D01*
X48028154Y-55398866D01*
X47941035Y-55441167D01*
X47852245Y-55519803D01*
X47789927Y-55622591D01*
X47752491Y-55753453D01*
X47738350Y-55916313D01*
X47738139Y-55942333D01*
X47490807Y-55942333D01*
X47505918Y-55922946D01*
X47515667Y-55851285D01*
X47503983Y-55752607D01*
X47484136Y-55673947D01*
X47429414Y-55557425D01*
X47346027Y-55467083D01*
X47240415Y-55405450D01*
X47119019Y-55375051D01*
X46988282Y-55378413D01*
X46854644Y-55418061D01*
X46844006Y-55422884D01*
X46742097Y-55491112D01*
X46663530Y-55585442D01*
X46608109Y-55699074D01*
X46575638Y-55825205D01*
X46565921Y-55957035D01*
X46055333Y-55957035D01*
X46055333Y-55757793D01*
X46143954Y-55657114D01*
X46232576Y-55556434D01*
X46457500Y-55582870D01*
X46457500Y-55498763D01*
X46445020Y-55427931D01*
X46405604Y-55386842D01*
X46336290Y-55373443D01*
X46282406Y-55377388D01*
X46201196Y-55403368D01*
X46122303Y-55462741D01*
X46117673Y-55467216D01*
X46037264Y-55545733D01*
X46030423Y-55474158D01*
X46020808Y-55424712D01*
X45995350Y-55403003D01*
X45951719Y-55395721D01*
X45893138Y-55398818D01*
X45862085Y-55416888D01*
X45855268Y-55448477D01*
X45850009Y-55514397D01*
X45846259Y-55607399D01*
X45843971Y-55720231D01*
X45843096Y-55845641D01*
X45567717Y-55845641D01*
X45567629Y-55832129D01*
X45564707Y-55784160D01*
X45538140Y-55645344D01*
X45479129Y-55532638D01*
X45389841Y-55448339D01*
X45272446Y-55394745D01*
X45180682Y-55377315D01*
X45034901Y-55381696D01*
X44904168Y-55424769D01*
X44792453Y-55504364D01*
X44703725Y-55618316D01*
X44688593Y-55646000D01*
X44662154Y-55724982D01*
X44645478Y-55830864D01*
X44639142Y-55949224D01*
X44336691Y-55949224D01*
X44339223Y-55941436D01*
X44379390Y-55814849D01*
X44416342Y-55695170D01*
X44447894Y-55589180D01*
X44471859Y-55503663D01*
X44486049Y-55445400D01*
X44489000Y-55424897D01*
X44471392Y-55401389D01*
X44428627Y-55390685D01*
X44375790Y-55392450D01*
X44327968Y-55406352D01*
X44301641Y-55429042D01*
X44289994Y-55460306D01*
X44269139Y-55525391D01*
X44241191Y-55617326D01*
X44208267Y-55729143D01*
X44172481Y-55853869D01*
X44169548Y-55864232D01*
X44056969Y-56262381D01*
X43975506Y-55980649D01*
X43940767Y-55861470D01*
X43905392Y-55741759D01*
X43873390Y-55634979D01*
X43848767Y-55554595D01*
X43847563Y-55550750D01*
X43801083Y-55402583D01*
X43711825Y-55396109D01*
X43654714Y-55394620D01*
X43625719Y-55405840D01*
X43611006Y-55436805D01*
X43607796Y-55449025D01*
X43573163Y-55584758D01*
X43536914Y-55720695D01*
X43500750Y-55851083D01*
X43466377Y-55970169D01*
X43435498Y-56072203D01*
X43409818Y-56151431D01*
X43391040Y-56202100D01*
X43380869Y-56218460D01*
X43380151Y-56217500D01*
X43369356Y-56184948D01*
X43349836Y-56121600D01*
X43324596Y-56037337D01*
X43302886Y-55963500D01*
X43268978Y-55847817D01*
X43232414Y-55723979D01*
X43198992Y-55611590D01*
X43185515Y-55566625D01*
X43132972Y-55392000D01*
X43038402Y-55392000D01*
X42972492Y-55397644D01*
X42944373Y-55414051D01*
X42943535Y-55418458D01*
X42519568Y-55418458D01*
X42503268Y-55408539D01*
X42369657Y-55374995D01*
X42216579Y-55377629D01*
X42123000Y-55395698D01*
X42020680Y-55440763D01*
X41925634Y-55517182D01*
X41848632Y-55614117D01*
X41800603Y-55720154D01*
X41772444Y-55874068D01*
X41313009Y-55874068D01*
X41390578Y-55845833D01*
X41491815Y-55770542D01*
X41560914Y-55668274D01*
X41598370Y-55538614D01*
X41604292Y-55483834D01*
X41598582Y-55339515D01*
X41559888Y-55221519D01*
X41487712Y-55129022D01*
X41381556Y-55061203D01*
X41337497Y-55043572D01*
X41277046Y-55029529D01*
X41192113Y-55019167D01*
X41092600Y-55012601D01*
X40988413Y-55009947D01*
X40889457Y-55011322D01*
X40805637Y-55016842D01*
X40746856Y-55026622D01*
X40725566Y-55036400D01*
X40718118Y-55064253D01*
X40711849Y-55127724D01*
X40706753Y-55220800D01*
X40702828Y-55337468D01*
X40700068Y-55471715D01*
X40698469Y-55617526D01*
X40698026Y-55768889D01*
X38975242Y-55768889D01*
X38939906Y-55612199D01*
X38869226Y-55471552D01*
X38767385Y-55358405D01*
X38636444Y-55274815D01*
X38478465Y-55222838D01*
X38408875Y-55211445D01*
X38287166Y-55196622D01*
X38287166Y-54966972D01*
X38286805Y-54905973D01*
X38286563Y-54865090D01*
X38283775Y-54797309D01*
X38277336Y-54755401D01*
X38265782Y-54731142D01*
X38247645Y-54716304D01*
X38241930Y-54713113D01*
X38189249Y-54699797D01*
X38124185Y-54701585D01*
X38064871Y-54716145D01*
X38029911Y-54740375D01*
X38022623Y-54772046D01*
X38016787Y-54835655D01*
X38013153Y-54920809D01*
X38012324Y-54984542D01*
X38012000Y-55201500D01*
X37715666Y-55201500D01*
X37715666Y-54969411D01*
X37715076Y-54866919D01*
X37712343Y-54798579D01*
X37706026Y-54756217D01*
X37694680Y-54731659D01*
X37676864Y-54716729D01*
X37670430Y-54713113D01*
X37617749Y-54699797D01*
X37552685Y-54701585D01*
X37493371Y-54716145D01*
X37458411Y-54740375D01*
X37451123Y-54772046D01*
X37445287Y-54835655D01*
X37441653Y-54920809D01*
X37440824Y-54984542D01*
X37440500Y-55201500D01*
X37144166Y-55201500D01*
X37144166Y-54969411D01*
X37143576Y-54866919D01*
X37140843Y-54798579D01*
X37134526Y-54756217D01*
X37123180Y-54731659D01*
X37105364Y-54716729D01*
X37098930Y-54713113D01*
X37046249Y-54699797D01*
X36981185Y-54701585D01*
X36921871Y-54716145D01*
X36886911Y-54740375D01*
X36879623Y-54772046D01*
X36873787Y-54835655D01*
X36870153Y-54920809D01*
X36869324Y-54984542D01*
X36869000Y-55201500D01*
X36572666Y-55201500D01*
X36572666Y-54969411D01*
X36572076Y-54866919D01*
X36569343Y-54798579D01*
X36563026Y-54756217D01*
X36551680Y-54731659D01*
X36533864Y-54716729D01*
X36527430Y-54713113D01*
X36474749Y-54699797D01*
X36409685Y-54701585D01*
X36350371Y-54716145D01*
X36315411Y-54740375D01*
X36308123Y-54772046D01*
X36302287Y-54835655D01*
X36298653Y-54920809D01*
X36297824Y-54984542D01*
X36297500Y-55201500D01*
X36001166Y-55201500D01*
X36001166Y-54969411D01*
X36000576Y-54866919D01*
X35997843Y-54798579D01*
X35991526Y-54756217D01*
X35980180Y-54731659D01*
X35962364Y-54716729D01*
X35955930Y-54713113D01*
X35903249Y-54699797D01*
X35838185Y-54701585D01*
X35778871Y-54716145D01*
X35743911Y-54740375D01*
X35736598Y-54772083D01*
X35730752Y-54835679D01*
X35727129Y-54920726D01*
X35726324Y-54983018D01*
X35726000Y-55198454D01*
X35604291Y-55213116D01*
X35522306Y-55226647D01*
X35445832Y-55245204D01*
X35411924Y-55256673D01*
X35291512Y-55326798D01*
X35188623Y-55427017D01*
X35109709Y-55547926D01*
X35061219Y-55680120D01*
X35048666Y-55786292D01*
X35048666Y-55898656D01*
X34799958Y-55904620D01*
X34551250Y-55910583D01*
X34544731Y-56012769D01*
X34543033Y-56078143D01*
X34551980Y-56123162D01*
X34577930Y-56151600D01*
X34627245Y-56167231D01*
X34706285Y-56173828D01*
X34818425Y-56175167D01*
X35048666Y-56175167D01*
X35048666Y-56470156D01*
X34799958Y-56476120D01*
X34551250Y-56482083D01*
X34544731Y-56584269D01*
X34543033Y-56649643D01*
X34551980Y-56694662D01*
X34577930Y-56723100D01*
X34627245Y-56738731D01*
X34706285Y-56745328D01*
X34818425Y-56746667D01*
X35048666Y-56746667D01*
X35048666Y-57041656D01*
X34799958Y-57047620D01*
X34551250Y-57053583D01*
X34544731Y-57155769D01*
X34543033Y-57221143D01*
X34551980Y-57266162D01*
X34577930Y-57294600D01*
X34627245Y-57310231D01*
X34706285Y-57316828D01*
X34818425Y-57318167D01*
X35048666Y-57318167D01*
X35048666Y-57613156D01*
X34799958Y-57619120D01*
X34551250Y-57625083D01*
X34544731Y-57727269D01*
X34543033Y-57792643D01*
X34551980Y-57837662D01*
X34577930Y-57866100D01*
X34627245Y-57881731D01*
X34706285Y-57888328D01*
X34818425Y-57889667D01*
X35048666Y-57889667D01*
X35048666Y-58184656D01*
X34799958Y-58190620D01*
X34551250Y-58196583D01*
X34544731Y-58298769D01*
X34543033Y-58364143D01*
X33450761Y-58364143D01*
X33450664Y-58095217D01*
X33450601Y-57701236D01*
X33450583Y-57267341D01*
X33450583Y-56078143D01*
G36*
X33450583Y-56078143D02*
G01*
X33450583Y-53793917D01*
X33506631Y-53674368D01*
X33596889Y-53530025D01*
X33718488Y-53408960D01*
X33860201Y-53320798D01*
X33979750Y-53264750D01*
X59570250Y-53264750D01*
X59689798Y-53320798D01*
X59834141Y-53411056D01*
X59955206Y-53532655D01*
X60043368Y-53674368D01*
X60099416Y-53793917D01*
X60099416Y-57170000D01*
X60099404Y-57612617D01*
X60099353Y-58014896D01*
X60099240Y-58378833D01*
X60099041Y-58706424D01*
X60098733Y-58999664D01*
X60098292Y-59260548D01*
X60097697Y-59491074D01*
X60096922Y-59693236D01*
X60095946Y-59869029D01*
X60094744Y-60020450D01*
X60093293Y-60149494D01*
X60091571Y-60258157D01*
X60089554Y-60348435D01*
X60087218Y-60422322D01*
X60084541Y-60481816D01*
X60081499Y-60528911D01*
X60078069Y-60565602D01*
X60074227Y-60593887D01*
X60069951Y-60615760D01*
X60065216Y-60633217D01*
X60060001Y-60648253D01*
X60058831Y-60651320D01*
X60000825Y-60758491D01*
X59914124Y-60865438D01*
X59810479Y-60959444D01*
X59718835Y-61019154D01*
X59612583Y-61075250D01*
X46806750Y-61078758D01*
X46071878Y-61078933D01*
X45347407Y-61079052D01*
X44634493Y-61079118D01*
X43934295Y-61079131D01*
X43247972Y-61079093D01*
X42576683Y-61079004D01*
X41921585Y-61078866D01*
X41283838Y-61078680D01*
X40664599Y-61078446D01*
X40065027Y-61078167D01*
X39486281Y-61077843D01*
X38929519Y-61077476D01*
X38395900Y-61077066D01*
X37886581Y-61076614D01*
X37402722Y-61076123D01*
X36945481Y-61075593D01*
X36516017Y-61075024D01*
X36115487Y-61074419D01*
X35745050Y-61073779D01*
X35405865Y-61073104D01*
X35099091Y-61072395D01*
X34825885Y-61071655D01*
X34587407Y-61070883D01*
X34384814Y-61070082D01*
X34219265Y-61069252D01*
X34091919Y-61068394D01*
X34003933Y-61067510D01*
X33956468Y-61066601D01*
X33948000Y-61066075D01*
X33813773Y-61006472D01*
X33688330Y-60916620D01*
X33581970Y-60805869D01*
X33504989Y-60683569D01*
X33491168Y-60651320D01*
X33485848Y-60636541D01*
X33481013Y-60619764D01*
X33476642Y-60598994D01*
X33472710Y-60572236D01*
X33469194Y-60537494D01*
X33466072Y-60492772D01*
X33463319Y-60436075D01*
X33460913Y-60365407D01*
X33458830Y-60278772D01*
X33457047Y-60174175D01*
X33455541Y-60049620D01*
X33454289Y-59903112D01*
X33453266Y-59732654D01*
X33452451Y-59536251D01*
X33451819Y-59311908D01*
X33451348Y-59057629D01*
X33451014Y-58771417D01*
X33450793Y-58451279D01*
X33450761Y-58364143D01*
X34543033Y-58364143D01*
X34551980Y-58409162D01*
X34577930Y-58437600D01*
X34627245Y-58453231D01*
X34706285Y-58459828D01*
X34818425Y-58461167D01*
X35048666Y-58461167D01*
X35048666Y-58555622D01*
X35067725Y-58690882D01*
X35120517Y-58823737D01*
X35200465Y-58938852D01*
X35223089Y-58962259D01*
X35324277Y-59046988D01*
X35424348Y-59099777D01*
X35538591Y-59127712D01*
X35592751Y-59133600D01*
X35726000Y-59144296D01*
X35726000Y-59369998D01*
X35728634Y-59493979D01*
X35736596Y-59576777D01*
X35749971Y-59619213D01*
X35752327Y-59622027D01*
X35791806Y-59637994D01*
X35860521Y-59643015D01*
X35884618Y-59642135D01*
X35990583Y-59635917D01*
X35996546Y-59387208D01*
X36002510Y-59138500D01*
X36297500Y-59138500D01*
X36297500Y-59368741D01*
X36298913Y-59482998D01*
X36305670Y-59561311D01*
X36321543Y-59610040D01*
X36350307Y-59635545D01*
X36395736Y-59644187D01*
X36459897Y-59642435D01*
X36562083Y-59635917D01*
X36568046Y-59387208D01*
X36574010Y-59138500D01*
X36869000Y-59138500D01*
X36869000Y-59368741D01*
X36870413Y-59482998D01*
X36877170Y-59561311D01*
X36893043Y-59610040D01*
X36921807Y-59635545D01*
X36967236Y-59644187D01*
X37031397Y-59642435D01*
X37133583Y-59635917D01*
X37139546Y-59387208D01*
X37145510Y-59138500D01*
X37440500Y-59138500D01*
X37440500Y-59368741D01*
X37441913Y-59482998D01*
X37448670Y-59561311D01*
X37464543Y-59610040D01*
X37493307Y-59635545D01*
X37538736Y-59644187D01*
X37602897Y-59642435D01*
X37705083Y-59635917D01*
X37711046Y-59387208D01*
X37717010Y-59138500D01*
X38012000Y-59138500D01*
X38012000Y-59368741D01*
X38013413Y-59482998D01*
X38020170Y-59561311D01*
X38036043Y-59610040D01*
X38064807Y-59635545D01*
X38110236Y-59644187D01*
X38174397Y-59642435D01*
X38276583Y-59635917D01*
X38282525Y-59389633D01*
X38288468Y-59143349D01*
X38420109Y-59134745D01*
X38577997Y-59105413D01*
X38713727Y-59041137D01*
X38824661Y-58944537D01*
X38908161Y-58818232D01*
X38961592Y-58664841D01*
X38975721Y-58582875D01*
X38990544Y-58461167D01*
X39220194Y-58461167D01*
X39332391Y-58459567D01*
X39409003Y-58452521D01*
X39456724Y-58436661D01*
X39482252Y-58408618D01*
X39492281Y-58365022D01*
X39493666Y-58323583D01*
X39490557Y-58267674D01*
X40561714Y-58267674D01*
X40576029Y-58458327D01*
X40609990Y-58635126D01*
X40639041Y-58727238D01*
X40718220Y-58885155D01*
X40825381Y-59011580D01*
X40959713Y-59106053D01*
X41120404Y-59168116D01*
X41306642Y-59197310D01*
X41469524Y-59196944D01*
X41604391Y-59181239D01*
X41715080Y-59153642D01*
X41745243Y-59141863D01*
X41844936Y-59097764D01*
X41973356Y-59201246D01*
X42062797Y-59266960D01*
X42161480Y-59329159D01*
X42260298Y-59383142D01*
X42350148Y-59424206D01*
X42421925Y-59447649D01*
X42457000Y-59451010D01*
X42498138Y-59435990D01*
X42515526Y-59394559D01*
X42516861Y-59384651D01*
X42519226Y-59318890D01*
X42504571Y-59268960D01*
X42466517Y-59226223D01*
X42398685Y-59182045D01*
X42346535Y-59154088D01*
X42262781Y-59107956D01*
X42184336Y-59059916D01*
X42126628Y-59019479D01*
X42121486Y-59015304D01*
X42050556Y-58956183D01*
X42104684Y-58876419D01*
X42180913Y-58732548D01*
X42236816Y-58560159D01*
X42261127Y-58422551D01*
X42710398Y-58422551D01*
X42710605Y-58588981D01*
X42711434Y-58744218D01*
X42712909Y-58882959D01*
X42715050Y-58999905D01*
X42717880Y-59089754D01*
X42721420Y-59147205D01*
X42725111Y-59166722D01*
X42759016Y-59178264D01*
X42817012Y-59181288D01*
X42881945Y-59176823D01*
X42936663Y-59165897D01*
X42962150Y-59152517D01*
X42969236Y-59125262D01*
X42975332Y-59061119D01*
X42980472Y-58959073D01*
X42984693Y-58818108D01*
X42988030Y-58637207D01*
X42990519Y-58415354D01*
X42991200Y-58327328D01*
X42996750Y-57530455D01*
X43291520Y-58297436D01*
X43358050Y-58470128D01*
X43420830Y-58632290D01*
X43478018Y-58779225D01*
X43527771Y-58906233D01*
X43568249Y-59008617D01*
X43597609Y-59081677D01*
X43614010Y-59120716D01*
X43615408Y-59123693D01*
X43636149Y-59158408D01*
X43662811Y-59174964D01*
X43709158Y-59178595D01*
X43754554Y-59176610D01*
X43864583Y-59170250D01*
X44207740Y-58323583D01*
X44550897Y-57476917D01*
X44556990Y-58323583D01*
X44563083Y-59170250D01*
X44795916Y-59170250D01*
X44801432Y-58241356D01*
X44801549Y-58214967D01*
X45314500Y-58214967D01*
X45314808Y-58410239D01*
X45315692Y-58592368D01*
X45317086Y-58757010D01*
X45318926Y-58899821D01*
X45321148Y-59016459D01*
X45323687Y-59102579D01*
X45326479Y-59153839D01*
X45328611Y-59166722D01*
X45362438Y-59178213D01*
X45420373Y-59181253D01*
X45485266Y-59176855D01*
X45539962Y-59166034D01*
X45565485Y-59152716D01*
X45574424Y-59120347D01*
X45581984Y-59047704D01*
X45588044Y-58936831D01*
X45592480Y-58789769D01*
X45594535Y-58667976D01*
X45600250Y-58211354D01*
X45928333Y-58658532D01*
X46018293Y-58780666D01*
X46101695Y-58892987D01*
X46174777Y-58990501D01*
X46233778Y-59068213D01*
X46274934Y-59121129D01*
X46293458Y-59143272D01*
X46332691Y-59163507D01*
X46394419Y-59176807D01*
X46463941Y-59182289D01*
X46526554Y-59179069D01*
X46567555Y-59166265D01*
X46573646Y-59160104D01*
X46577949Y-59147668D01*
X46575556Y-59130033D01*
X46564027Y-59103524D01*
X46540918Y-59064467D01*
X46503787Y-59009186D01*
X46450194Y-58934006D01*
X46377696Y-58835252D01*
X46283850Y-58709249D01*
X46197547Y-58594065D01*
X46095735Y-58457946D01*
X46017092Y-58351419D01*
X45959075Y-58270443D01*
X45919141Y-58210980D01*
X45894746Y-58168989D01*
X45883347Y-58140433D01*
X45882470Y-58122663D01*
X47578033Y-58122663D01*
X47578358Y-58295430D01*
X47579498Y-58466202D01*
X47581437Y-58629603D01*
X47584158Y-58780258D01*
X47587645Y-58912792D01*
X47591881Y-59021828D01*
X47596850Y-59101991D01*
X47602535Y-59147906D01*
X47605660Y-59156360D01*
X47645140Y-59172327D01*
X47713855Y-59177348D01*
X47737952Y-59176469D01*
X47843916Y-59170250D01*
X47849655Y-58752208D01*
X47853560Y-58467768D01*
X48955166Y-58467768D01*
X48955616Y-58634050D01*
X48956890Y-58786685D01*
X48958880Y-58920544D01*
X48961474Y-59030499D01*
X48964562Y-59111419D01*
X48968034Y-59158176D01*
X48970228Y-59167673D01*
X48998463Y-59175196D01*
X49053833Y-59177719D01*
X49091936Y-59176492D01*
X49198583Y-59170250D01*
X49201760Y-58769819D01*
X49657281Y-58769819D01*
X49657626Y-58904442D01*
X49658609Y-59015457D01*
X49660190Y-59097574D01*
X49662333Y-59145504D01*
X49663709Y-59155306D01*
X49689006Y-59172790D01*
X49749303Y-59177963D01*
X49785721Y-59176656D01*
X49897083Y-59170250D01*
X49906144Y-58769819D01*
X50715614Y-58769819D01*
X50715960Y-58904442D01*
X50716942Y-59015457D01*
X50718523Y-59097574D01*
X50720666Y-59145504D01*
X50722042Y-59155306D01*
X50747339Y-59172790D01*
X50807636Y-59177963D01*
X50844054Y-59176656D01*
X50955416Y-59170250D01*
X50966000Y-58679779D01*
X50969478Y-58523457D01*
X50972733Y-58403782D01*
X50976422Y-58315077D01*
X50981204Y-58251665D01*
X50987737Y-58207870D01*
X50996677Y-58178015D01*
X51008684Y-58156423D01*
X51024415Y-58137417D01*
X51029500Y-58131869D01*
X51134073Y-58035977D01*
X51235665Y-57976286D01*
X51330867Y-57953075D01*
X51416272Y-57966625D01*
X51488474Y-58017216D01*
X51537187Y-58090105D01*
X51551159Y-58122188D01*
X51561727Y-58157167D01*
X51569365Y-58201245D01*
X51574546Y-58260623D01*
X51577745Y-58341504D01*
X51579433Y-58450090D01*
X51580085Y-58592584D01*
X51580157Y-58653058D01*
X51581008Y-58791773D01*
X51583212Y-58917006D01*
X51586538Y-59022299D01*
X51590756Y-59101195D01*
X51595636Y-59147235D01*
X51598080Y-59155667D01*
X51634223Y-59174188D01*
X51708816Y-59177428D01*
X51719464Y-59176834D01*
X51823250Y-59170250D01*
X51834610Y-58213878D01*
X51910579Y-58125126D01*
X52003966Y-58036540D01*
X52101100Y-57980489D01*
X52196333Y-57957394D01*
X52284018Y-57967675D01*
X52358506Y-58011752D01*
X52413062Y-58087725D01*
X52424571Y-58118216D01*
X52433298Y-58158636D01*
X52439597Y-58214710D01*
X52443823Y-58292162D01*
X52446333Y-58396719D01*
X52447482Y-58534104D01*
X52447666Y-58645340D01*
X52448424Y-58818414D01*
X52450801Y-58952262D01*
X52454950Y-59049964D01*
X52461024Y-59114604D01*
X52469177Y-59149262D01*
X52473066Y-59155433D01*
X52508221Y-59170558D01*
X52568010Y-59179650D01*
X52599663Y-59180833D01*
X52661925Y-59178380D01*
X52694638Y-59167012D01*
X52710488Y-59140723D01*
X52714515Y-59126426D01*
X52719647Y-59081064D01*
X52722331Y-59001484D01*
X52722819Y-58895471D01*
X52721363Y-58770810D01*
X52718214Y-58635285D01*
X52713623Y-58496683D01*
X52707843Y-58362787D01*
X52701124Y-58241383D01*
X52693718Y-58140257D01*
X52685877Y-58067192D01*
X52679194Y-58033361D01*
X52617947Y-57911838D01*
X52527935Y-57820160D01*
X52476812Y-57793836D01*
X52997776Y-57793836D01*
X52998213Y-57820058D01*
X53005013Y-57860813D01*
X53019195Y-57920302D01*
X53041774Y-58002724D01*
X53073768Y-58112279D01*
X53116194Y-58253167D01*
X53170071Y-58429589D01*
X53179823Y-58461399D01*
X53229642Y-58622597D01*
X53276351Y-58771350D01*
X53318326Y-58902675D01*
X53353947Y-59011589D01*
X53381591Y-59093109D01*
X53399637Y-59142251D01*
X53405371Y-59154375D01*
X53439856Y-59170134D01*
X53507901Y-59179198D01*
X53562588Y-59180833D01*
X53636500Y-59179826D01*
X53679737Y-59173539D01*
X53703953Y-59157075D01*
X53720805Y-59125536D01*
X53726313Y-59112042D01*
X53739979Y-59071037D01*
X53762126Y-58996378D01*
X53790685Y-58895408D01*
X53823588Y-58775471D01*
X53858766Y-58643910D01*
X53866729Y-58613664D01*
X53900699Y-58487951D01*
X53931930Y-58379325D01*
X53958680Y-58293291D01*
X53979206Y-58235357D01*
X53991766Y-58211030D01*
X53993970Y-58211497D01*
X54003859Y-58239097D01*
X54023511Y-58301162D01*
X54051038Y-58391459D01*
X54084550Y-58503756D01*
X54122158Y-58631819D01*
X54140219Y-58693984D01*
X54179423Y-58826411D01*
X54216186Y-58945072D01*
X54248503Y-59043925D01*
X54274367Y-59116927D01*
X54291773Y-59158037D01*
X54296453Y-59164618D01*
X54337539Y-59176383D01*
X54401502Y-59180858D01*
X54473044Y-59178678D01*
X54536867Y-59170474D01*
X54577673Y-59156881D01*
X54582432Y-59152779D01*
X54593889Y-59126700D01*
X54615722Y-59066024D01*
X54646062Y-58976680D01*
X54683045Y-58864598D01*
X54718670Y-58754634D01*
X55187624Y-58754634D01*
X55192217Y-58872854D01*
X55232641Y-58986192D01*
X55290565Y-59067001D01*
X55352583Y-59120207D01*
X55423870Y-59162469D01*
X55442750Y-59170204D01*
X55546799Y-59193676D01*
X55664200Y-59199916D01*
X55773921Y-59188512D01*
X55815299Y-59177476D01*
X55877463Y-59150052D01*
X55949295Y-59109871D01*
X55975860Y-59092720D01*
X56064471Y-59032487D01*
X56071110Y-59101369D01*
X56077979Y-59143260D01*
X56095981Y-59164493D01*
X56137124Y-59173560D01*
X56177604Y-59176673D01*
X56238873Y-59178470D01*
X56270850Y-59169944D01*
X56286287Y-59145688D01*
X56291149Y-59128546D01*
X56294690Y-59092403D01*
X56297189Y-59020625D01*
X56298581Y-58919901D01*
X56298801Y-58796918D01*
X56298436Y-58747080D01*
X56726618Y-58747080D01*
X56727111Y-58882092D01*
X56728328Y-58993914D01*
X56730222Y-59076939D01*
X56732745Y-59125560D01*
X56733961Y-59134291D01*
X56745138Y-59162679D01*
X56768320Y-59176065D01*
X56815256Y-59178515D01*
X56856300Y-59176624D01*
X56966750Y-59170250D01*
X56977333Y-58713535D01*
X56980942Y-58563241D01*
X56983408Y-58481647D01*
X57686416Y-58481647D01*
X57687334Y-58597872D01*
X57690988Y-58682081D01*
X57698732Y-58744570D01*
X57711918Y-58795633D01*
X57731899Y-58845567D01*
X57735176Y-58852750D01*
X57818416Y-58987622D01*
X57930089Y-59091528D01*
X58071421Y-59165519D01*
X58120333Y-59182206D01*
X58192625Y-59194709D01*
X58291999Y-59199546D01*
X58403975Y-59197094D01*
X58514072Y-59187734D01*
X58607811Y-59171843D01*
X58618594Y-59169173D01*
X58719358Y-59139397D01*
X58784944Y-59109151D01*
X58822204Y-59072887D01*
X58837987Y-59025056D01*
X58840000Y-58989845D01*
X58836761Y-58940780D01*
X58822289Y-58913959D01*
X58789452Y-58907816D01*
X58731117Y-58920785D01*
X58649500Y-58948000D01*
X58555241Y-58971786D01*
X58444130Y-58985865D01*
X58331166Y-58989621D01*
X58231351Y-58982435D01*
X58169336Y-58967757D01*
X58068429Y-58908220D01*
X57995067Y-58816670D01*
X57949474Y-58693431D01*
X57938857Y-58633810D01*
X57924379Y-58524667D01*
X58380677Y-58524667D01*
X58542540Y-58524378D01*
X58666987Y-58522513D01*
X58758935Y-58517575D01*
X58823303Y-58508066D01*
X58865008Y-58492489D01*
X58888967Y-58469345D01*
X58900098Y-58437138D01*
X58903319Y-58394369D01*
X58903500Y-58365446D01*
X58888053Y-58206028D01*
X58844287Y-58058047D01*
X58798001Y-57967687D01*
X58711394Y-57868347D01*
X58599793Y-57796051D01*
X58470904Y-57750960D01*
X58332434Y-57733233D01*
X58192090Y-57743030D01*
X58057578Y-57780512D01*
X57936606Y-57845838D01*
X57836879Y-57939168D01*
X57830245Y-57947595D01*
X57772796Y-58029231D01*
X57732549Y-58106892D01*
X57706685Y-58191050D01*
X57692383Y-58292174D01*
X57686823Y-58420734D01*
X57686416Y-58481647D01*
X56983408Y-58481647D01*
X56984396Y-58449000D01*
X56988478Y-58364540D01*
X56993974Y-58303590D01*
X57001666Y-58259881D01*
X57012340Y-58227140D01*
X57026780Y-58199098D01*
X57045292Y-58170206D01*
X57097641Y-58103426D01*
X57158575Y-58042031D01*
X57176502Y-58027275D01*
X57223612Y-57995666D01*
X57268902Y-57979875D01*
X57328896Y-57975965D01*
X57383710Y-57977937D01*
X57517083Y-57984917D01*
X57517083Y-57879083D01*
X57515520Y-57815939D01*
X57504772Y-57781309D01*
X57475749Y-57761374D01*
X57429173Y-57745424D01*
X57322293Y-57728773D01*
X57221386Y-57750247D01*
X57122179Y-57811306D01*
X57056708Y-57872781D01*
X56956166Y-57979145D01*
X56956166Y-57871309D01*
X56954125Y-57806825D01*
X56944249Y-57772338D01*
X56920904Y-57755568D01*
X56900277Y-57749446D01*
X56836226Y-57745781D01*
X56789152Y-57754836D01*
X56733916Y-57774254D01*
X56727994Y-58429919D01*
X56726896Y-58594487D01*
X56726618Y-58747080D01*
X56298436Y-58747080D01*
X56297784Y-58658364D01*
X56296573Y-58571790D01*
X56293724Y-58411799D01*
X56290722Y-58288035D01*
X56286989Y-58194395D01*
X56281945Y-58124776D01*
X56275011Y-58073072D01*
X56265610Y-58033181D01*
X56253161Y-57998998D01*
X56239419Y-57969189D01*
X56174975Y-57871452D01*
X56088282Y-57801614D01*
X55975179Y-57757699D01*
X55831505Y-57737726D01*
X55749284Y-57736073D01*
X55615037Y-57746297D01*
X55494613Y-57772191D01*
X55392623Y-57810809D01*
X55313679Y-57859204D01*
X55262391Y-57914431D01*
X55243371Y-57973542D01*
X55261229Y-58033593D01*
X55268125Y-58043498D01*
X55285109Y-58059979D01*
X55308584Y-58063557D01*
X55348212Y-58052598D01*
X55413658Y-58025462D01*
X55437933Y-58014740D01*
X55596760Y-57957903D01*
X55735509Y-57937631D01*
X55855193Y-57953787D01*
X55864061Y-57956679D01*
X55943320Y-57997004D01*
X55994492Y-58057905D01*
X56022036Y-58146433D01*
X56029177Y-58217750D01*
X56035416Y-58344750D01*
X55802583Y-58358182D01*
X55661017Y-58368949D01*
X55553175Y-58383870D01*
X55470510Y-58404785D01*
X55404474Y-58433534D01*
X55377682Y-58449664D01*
X55281471Y-58535142D01*
X55217747Y-58639431D01*
X55187624Y-58754634D01*
X54718670Y-58754634D01*
X54724803Y-58735704D01*
X54769470Y-58595928D01*
X54815180Y-58451199D01*
X54860066Y-58307445D01*
X54902261Y-58170594D01*
X54939900Y-58046575D01*
X54971116Y-57941316D01*
X54994043Y-57860747D01*
X55006813Y-57810795D01*
X55008833Y-57798366D01*
X54990445Y-57766441D01*
X54944183Y-57746480D01*
X54883405Y-57740841D01*
X54821465Y-57751881D01*
X54799484Y-57761426D01*
X54782578Y-57783257D01*
X54759269Y-57835347D01*
X54728755Y-57920018D01*
X54690236Y-58039597D01*
X54642910Y-58196408D01*
X54606185Y-58322386D01*
X54564334Y-58465075D01*
X54525633Y-58592484D01*
X54491736Y-58699523D01*
X54464300Y-58781103D01*
X54444980Y-58832134D01*
X54435430Y-58847527D01*
X54435405Y-58847501D01*
X54425817Y-58823633D01*
X54406369Y-58764575D01*
X54378759Y-58675864D01*
X54344683Y-58563038D01*
X54305837Y-58431631D01*
X54266872Y-58297448D01*
X54113053Y-57763313D01*
X54044200Y-57750396D01*
X53958969Y-57746880D01*
X53896061Y-57770000D01*
X53869342Y-57801142D01*
X53859240Y-57830803D01*
X53840121Y-57895429D01*
X53813663Y-57989026D01*
X53781540Y-58105597D01*
X53745430Y-58239147D01*
X53715906Y-58349988D01*
X53678412Y-58490139D01*
X53644042Y-58615709D01*
X53614361Y-58721218D01*
X53590932Y-58801187D01*
X53575317Y-58850134D01*
X53569455Y-58863280D01*
X53560972Y-58843827D01*
X53542469Y-58788960D01*
X53515587Y-58703961D01*
X53481966Y-58594111D01*
X53443246Y-58464693D01*
X53401417Y-58322189D01*
X53346889Y-58137888D01*
X53301805Y-57992624D01*
X53265453Y-57884339D01*
X53237118Y-57810972D01*
X53216087Y-57770465D01*
X53207061Y-57761272D01*
X53142626Y-57743615D01*
X53069756Y-57746244D01*
X53011922Y-57768191D01*
X53002684Y-57777947D01*
X52997776Y-57793836D01*
X52476812Y-57793836D01*
X52412712Y-57760831D01*
X52275833Y-57736355D01*
X52256889Y-57735866D01*
X52146220Y-57748450D01*
X52037500Y-57790724D01*
X51922979Y-57866248D01*
X51861214Y-57917509D01*
X51810990Y-57955598D01*
X51781251Y-57964946D01*
X51775978Y-57959519D01*
X51729249Y-57880992D01*
X51650655Y-57813909D01*
X51550299Y-57764143D01*
X51438281Y-57737566D01*
X51389333Y-57734730D01*
X51289952Y-57743775D01*
X51198286Y-57774407D01*
X51102245Y-57831689D01*
X51034791Y-57883136D01*
X50944833Y-57956001D01*
X50944833Y-57859737D01*
X50942112Y-57799318D01*
X50929511Y-57767968D01*
X50900371Y-57752548D01*
X50888944Y-57749446D01*
X50824893Y-57745781D01*
X50777819Y-57754837D01*
X50722583Y-57774255D01*
X50716987Y-58450903D01*
X50715944Y-58616876D01*
X50715614Y-58769819D01*
X49906144Y-58769819D01*
X49907666Y-58702575D01*
X49918250Y-58234899D01*
X49999821Y-58135415D01*
X50068753Y-58056518D01*
X50125907Y-58007709D01*
X50182415Y-57983476D01*
X50249411Y-57978308D01*
X50307735Y-57982996D01*
X50377160Y-57989858D01*
X50415721Y-57988126D01*
X50434569Y-57974382D01*
X50444856Y-57945212D01*
X50446013Y-57940636D01*
X50452097Y-57875860D01*
X50446904Y-57823836D01*
X50428346Y-57780035D01*
X50388450Y-57753245D01*
X50350569Y-57741070D01*
X50241089Y-57729828D01*
X50136571Y-57757820D01*
X50033612Y-57826254D01*
X49987041Y-57870402D01*
X49886500Y-57974193D01*
X49886500Y-57868833D01*
X49884336Y-57805211D01*
X49873957Y-57771403D01*
X49849536Y-57754956D01*
X49830610Y-57749446D01*
X49766559Y-57745781D01*
X49719485Y-57754837D01*
X49664250Y-57774255D01*
X49658654Y-58450903D01*
X49657611Y-58616876D01*
X49657281Y-58769819D01*
X49201760Y-58769819D01*
X49204159Y-58467471D01*
X49209734Y-57764691D01*
X49133747Y-57750436D01*
X49064417Y-57747046D01*
X49006463Y-57759553D01*
X48955166Y-57782926D01*
X48955166Y-58467768D01*
X47853560Y-58467768D01*
X47855394Y-58334167D01*
X48189380Y-58334167D01*
X48326115Y-58333383D01*
X48426178Y-58330075D01*
X48495214Y-58322808D01*
X48538871Y-58310148D01*
X48562796Y-58290661D01*
X48572634Y-58262912D01*
X48574166Y-58236414D01*
X48573215Y-58195566D01*
X48566479Y-58165877D01*
X48548133Y-58145566D01*
X48512352Y-58132854D01*
X48453312Y-58125961D01*
X48365188Y-58123104D01*
X48242155Y-58122506D01*
X48201485Y-58122500D01*
X47854500Y-58122500D01*
X47854500Y-57782926D01*
X47854500Y-57466333D01*
X48214857Y-57466333D01*
X48346049Y-57466169D01*
X48441140Y-57465143D01*
X48506362Y-57462453D01*
X48547946Y-57457299D01*
X48572125Y-57448879D01*
X48585130Y-57436393D01*
X48593193Y-57419040D01*
X48593728Y-57417637D01*
X48604041Y-57358679D01*
X48602548Y-57332953D01*
X48935221Y-57332953D01*
X48937287Y-57396926D01*
X48950032Y-57447159D01*
X48960458Y-57461464D01*
X49024581Y-57490154D01*
X49103723Y-57495185D01*
X49177832Y-57476612D01*
X49203875Y-57460823D01*
X49220212Y-57428156D01*
X49229514Y-57371179D01*
X49230333Y-57347813D01*
X49225189Y-57283218D01*
X49205106Y-57243528D01*
X49177169Y-57220808D01*
X49109733Y-57198615D01*
X49032060Y-57203548D01*
X48965096Y-57234102D01*
X48962475Y-57236217D01*
X48943671Y-57273348D01*
X48935221Y-57332953D01*
X48602548Y-57332953D01*
X48601320Y-57311803D01*
X48590398Y-57254667D01*
X47620618Y-57254667D01*
X47599976Y-57308961D01*
X47594130Y-57345183D01*
X47589216Y-57417037D01*
X47585217Y-57519149D01*
X47582115Y-57646143D01*
X47579895Y-57792644D01*
X47578539Y-57953275D01*
X47578033Y-58122663D01*
X45882470Y-58122663D01*
X45882401Y-58121271D01*
X45889364Y-58107465D01*
X45890399Y-58106222D01*
X45993733Y-57984782D01*
X46097844Y-57860878D01*
X46198884Y-57739238D01*
X46293005Y-57624592D01*
X46376360Y-57521666D01*
X46445099Y-57435190D01*
X46495376Y-57369892D01*
X46523342Y-57330500D01*
X46527061Y-57323900D01*
X46539484Y-57281389D01*
X46524151Y-57256408D01*
X46519796Y-57253475D01*
X46473659Y-57239890D01*
X46406744Y-57235886D01*
X46339567Y-57241711D01*
X46305539Y-57250863D01*
X46283120Y-57270862D01*
X46238620Y-57319611D01*
X46175975Y-57392466D01*
X46099120Y-57484780D01*
X46011989Y-57591908D01*
X45935122Y-57688194D01*
X45600250Y-58111137D01*
X45594705Y-57698777D01*
X45592353Y-57554256D01*
X45589369Y-57446338D01*
X45585216Y-57369294D01*
X45579358Y-57317393D01*
X45571258Y-57284906D01*
X45560380Y-57266103D01*
X45553618Y-57259958D01*
X45495467Y-57237868D01*
X45422050Y-57236178D01*
X45355470Y-57255396D01*
X45355441Y-57255411D01*
X45345674Y-57262034D01*
X45337596Y-57272988D01*
X45331048Y-57292030D01*
X45325869Y-57322915D01*
X45321899Y-57369398D01*
X45318979Y-57435235D01*
X45316946Y-57524180D01*
X45315643Y-57639990D01*
X45314907Y-57786419D01*
X45314580Y-57967224D01*
X45314500Y-58186159D01*
X45314500Y-58214967D01*
X44801549Y-58214967D01*
X44801677Y-58186159D01*
X44802523Y-57995760D01*
X44802602Y-57790355D01*
X44801630Y-57623009D01*
X44799565Y-57491590D01*
X44796365Y-57393967D01*
X44791990Y-57328008D01*
X44786399Y-57291582D01*
X44782966Y-57283564D01*
X44746757Y-57265802D01*
X44673132Y-57256439D01*
X44601223Y-57254667D01*
X44517023Y-57256268D01*
X44463304Y-57262991D01*
X44428272Y-57277714D01*
X44400133Y-57303314D01*
X44399650Y-57303855D01*
X44381582Y-57334451D01*
X44349780Y-57399479D01*
X44306377Y-57494125D01*
X44253508Y-57613574D01*
X44193306Y-57753012D01*
X44127907Y-57907625D01*
X44066895Y-58054489D01*
X43999966Y-58216496D01*
X43937841Y-58365968D01*
X43882413Y-58498419D01*
X43835575Y-58609364D01*
X43799220Y-58694319D01*
X43775240Y-58748798D01*
X43765676Y-58768212D01*
X43752525Y-58756516D01*
X43729643Y-58714128D01*
X43701886Y-58650095D01*
X43700773Y-58647287D01*
X43679324Y-58592957D01*
X43644889Y-58505689D01*
X43600011Y-58391925D01*
X43547230Y-58258109D01*
X43489089Y-58110686D01*
X43428129Y-57956098D01*
X43418627Y-57932000D01*
X43355274Y-57773790D01*
X43295995Y-57630455D01*
X43242935Y-57506870D01*
X43198239Y-57407910D01*
X43164054Y-57338450D01*
X43142525Y-57303365D01*
X43141516Y-57302292D01*
X43111793Y-57277916D01*
X43075380Y-57263524D01*
X43020866Y-57256614D01*
X42936840Y-57254683D01*
X42924373Y-57254667D01*
X42837498Y-57256018D01*
X42783301Y-57261442D01*
X42752174Y-57272992D01*
X42734512Y-57292723D01*
X42732911Y-57295608D01*
X42728508Y-57324241D01*
X42724529Y-57389389D01*
X42720996Y-57485750D01*
X42717931Y-57608024D01*
X42715356Y-57750910D01*
X42713293Y-57909106D01*
X42711764Y-58077313D01*
X42710792Y-58250228D01*
X42710398Y-58422551D01*
X42261127Y-58422551D01*
X42270627Y-58368783D01*
X42280577Y-58167953D01*
X42268496Y-57993330D01*
X42226296Y-57785835D01*
X42157115Y-57610945D01*
X42060982Y-57468686D01*
X41937925Y-57359086D01*
X41787974Y-57282170D01*
X41611157Y-57237965D01*
X41430416Y-57226160D01*
X41228743Y-57244706D01*
X41051842Y-57297253D01*
X40900270Y-57383440D01*
X40774581Y-57502909D01*
X40675331Y-57655297D01*
X40636929Y-57740833D01*
X40592137Y-57896104D01*
X40567075Y-58075992D01*
X40561714Y-58267674D01*
X39490557Y-58267674D01*
X39490539Y-58267354D01*
X39476711Y-58228884D01*
X39445510Y-58204846D01*
X39390264Y-58191914D01*
X39304303Y-58186761D01*
X39217755Y-58186000D01*
X38985666Y-58186000D01*
X38985666Y-57889667D01*
X39217755Y-57889667D01*
X39330517Y-57888107D01*
X39407666Y-57881212D01*
X39455871Y-57865653D01*
X39481806Y-57838105D01*
X39492140Y-57795241D01*
X39493666Y-57752083D01*
X39490539Y-57695854D01*
X39476711Y-57657384D01*
X39445510Y-57633346D01*
X39390264Y-57620414D01*
X39304303Y-57615261D01*
X39217755Y-57614500D01*
X38985666Y-57614500D01*
X38985666Y-57318167D01*
X39217755Y-57318167D01*
X39330517Y-57316607D01*
X39407666Y-57309712D01*
X39455871Y-57294153D01*
X39481806Y-57266605D01*
X39492140Y-57223741D01*
X39493666Y-57180583D01*
X39490539Y-57124354D01*
X39476711Y-57085884D01*
X39445510Y-57061846D01*
X39390264Y-57048914D01*
X39304303Y-57043761D01*
X39217755Y-57043000D01*
X38985666Y-57043000D01*
X38985666Y-56746667D01*
X39217755Y-56746667D01*
X39330517Y-56745107D01*
X39407666Y-56738212D01*
X39455871Y-56722653D01*
X39481806Y-56695105D01*
X39492140Y-56652241D01*
X39493666Y-56609083D01*
X39490539Y-56552854D01*
X39476711Y-56514384D01*
X39445510Y-56490346D01*
X39390264Y-56477414D01*
X39304303Y-56472261D01*
X39217755Y-56471500D01*
X38985666Y-56471500D01*
X38985666Y-56175167D01*
X39217755Y-56175167D01*
X39330517Y-56173607D01*
X39407666Y-56166712D01*
X39455871Y-56151153D01*
X39481806Y-56123605D01*
X39492140Y-56080741D01*
X39493666Y-56037583D01*
X39490480Y-55981110D01*
X39476454Y-55942558D01*
X39444889Y-55918553D01*
X39389087Y-55905722D01*
X39302349Y-55900689D01*
X39220489Y-55900000D01*
X38991134Y-55900000D01*
X38977362Y-55778292D01*
X38975242Y-55768889D01*
X40698026Y-55768889D01*
X40698736Y-55919790D01*
X40700594Y-56064216D01*
X40703595Y-56196152D01*
X40707734Y-56309587D01*
X40713009Y-56398506D01*
X40719413Y-56456896D01*
X40726625Y-56478648D01*
X40789397Y-56490238D01*
X40858348Y-56485550D01*
X40878352Y-56479819D01*
X40892458Y-56468279D01*
X40902060Y-56441919D01*
X40907957Y-56393988D01*
X40910948Y-56317735D01*
X40911829Y-56206412D01*
X40911833Y-56196723D01*
X40911833Y-55926475D01*
X41089726Y-55917138D01*
X41256713Y-55894560D01*
X41313009Y-55874068D01*
X41772444Y-55874068D01*
X41773301Y-56023571D01*
X41800887Y-56162358D01*
X41852916Y-56284124D01*
X41927102Y-56382564D01*
X42021159Y-56451372D01*
X42073244Y-56472189D01*
X42166535Y-56488853D01*
X42277511Y-56491846D01*
X42388969Y-56482097D01*
X42483706Y-56460533D01*
X42513842Y-56448433D01*
X42626809Y-56371243D01*
X42711836Y-56264387D01*
X42767248Y-56131404D01*
X42791366Y-55975831D01*
X42789659Y-55866776D01*
X42760607Y-55707380D01*
X42701412Y-55576618D01*
X42614742Y-55476376D01*
X42519568Y-55418458D01*
X42943535Y-55418458D01*
X42949655Y-55453587D01*
X42966958Y-55520703D01*
X42993285Y-55613058D01*
X43026478Y-55723903D01*
X43064377Y-55846489D01*
X43104825Y-55974067D01*
X43145662Y-56099889D01*
X43184730Y-56217205D01*
X43219870Y-56319267D01*
X43248924Y-56399326D01*
X43269733Y-56450633D01*
X43278658Y-56466208D01*
X43325451Y-56485518D01*
X43388716Y-56491843D01*
X43449761Y-56485299D01*
X43489898Y-56466003D01*
X43490872Y-56464885D01*
X43503968Y-56435670D01*
X43525106Y-56373107D01*
X43551911Y-56284881D01*
X43582009Y-56178677D01*
X43600443Y-56110344D01*
X43630677Y-55996834D01*
X43657784Y-55896334D01*
X43679641Y-55816623D01*
X43694122Y-55765478D01*
X43698354Y-55751833D01*
X43707527Y-55760632D01*
X43726055Y-55804447D01*
X43751895Y-55877528D01*
X43783005Y-55974121D01*
X43814848Y-56079917D01*
X43852211Y-56202767D01*
X43887543Y-56309564D01*
X43918443Y-56393671D01*
X43942512Y-56448451D01*
X43954518Y-56466208D01*
X44000213Y-56485384D01*
X44055083Y-56492667D01*
X44112714Y-56484461D01*
X44153217Y-56466208D01*
X44166737Y-56440604D01*
X44190165Y-56381214D01*
X44221314Y-56294819D01*
X44257999Y-56188203D01*
X44298031Y-56068148D01*
X44336691Y-55949224D01*
X44639142Y-55949224D01*
X44643719Y-56065638D01*
X44659783Y-56165683D01*
X44666914Y-56190304D01*
X44726581Y-56306205D01*
X44817966Y-56402355D01*
X44912333Y-56460185D01*
X44977310Y-56477076D01*
X45070203Y-56486221D01*
X45177360Y-56487901D01*
X45285131Y-56482398D01*
X45379867Y-56469994D01*
X45447917Y-56450972D01*
X45452083Y-56449034D01*
X45497073Y-56418667D01*
X45514001Y-56376205D01*
X45515583Y-56344215D01*
X45510457Y-56293277D01*
X45492853Y-56276658D01*
X45483833Y-56277487D01*
X45447135Y-56286322D01*
X45384562Y-56301972D01*
X45326171Y-56316830D01*
X45180244Y-56340398D01*
X45058881Y-56330420D01*
X44962880Y-56287312D01*
X44893040Y-56211492D01*
X44850158Y-56103377D01*
X44842566Y-56064042D01*
X44830328Y-55984667D01*
X45175655Y-55984667D01*
X45315183Y-55984354D01*
X45417811Y-55981548D01*
X45488974Y-55973450D01*
X45534104Y-55957259D01*
X45558634Y-55930175D01*
X45567998Y-55889399D01*
X45567717Y-55845641D01*
X45843096Y-55845641D01*
X45843585Y-55976378D01*
X45845391Y-56105191D01*
X45848466Y-56224828D01*
X45852761Y-56328039D01*
X45858227Y-56407572D01*
X45864818Y-56456175D01*
X45869066Y-56467267D01*
X45915887Y-56488865D01*
X45980589Y-56490236D01*
X46021852Y-56479819D01*
X46034351Y-56469793D01*
X46043363Y-56446838D01*
X46049428Y-56405036D01*
X46053085Y-56338470D01*
X46054874Y-56241221D01*
X46055333Y-56112382D01*
X46055333Y-55957035D01*
X46565921Y-55957035D01*
X46578764Y-56087762D01*
X46613969Y-56210585D01*
X46671342Y-56318703D01*
X46750687Y-56405314D01*
X46851808Y-56463617D01*
X46874165Y-56471143D01*
X46955921Y-56485341D01*
X47062367Y-56489921D01*
X47177099Y-56485442D01*
X47283717Y-56472463D01*
X47357083Y-56454698D01*
X47420951Y-56429606D01*
X47454343Y-56404586D01*
X47468067Y-56370351D01*
X47469863Y-56357796D01*
X47468884Y-56301841D01*
X47445956Y-56276537D01*
X47395855Y-56278978D01*
X47351845Y-56292113D01*
X47203865Y-56330047D01*
X47072191Y-56337766D01*
X46960824Y-56316140D01*
X46873767Y-56266043D01*
X46815022Y-56188346D01*
X46808663Y-56173776D01*
X46787064Y-56107489D01*
X46775573Y-56048236D01*
X46775000Y-56037155D01*
X46775000Y-55984667D01*
X47104474Y-55984667D01*
X47226035Y-55983280D01*
X47331798Y-55979427D01*
X47413994Y-55973567D01*
X47464850Y-55966161D01*
X47474891Y-55962755D01*
X47490807Y-55942333D01*
X47738139Y-55942333D01*
X47743431Y-56084528D01*
X47760896Y-56195106D01*
X47793051Y-56283668D01*
X47842410Y-56359813D01*
X47849977Y-56369010D01*
X47926177Y-56437481D01*
X48019390Y-56477081D01*
X48139016Y-56491609D01*
X48153997Y-56491838D01*
X48231607Y-56488208D01*
X48292640Y-56471605D01*
X48358248Y-56435393D01*
X48380349Y-56420816D01*
X48487118Y-56348965D01*
X48493601Y-56402806D01*
X48517354Y-56461251D01*
X48567452Y-56488280D01*
X48624067Y-56484731D01*
X48680520Y-56470563D01*
X48674968Y-55693156D01*
X48674911Y-55685209D01*
X49547833Y-55685209D01*
X49548204Y-55862821D01*
X49549259Y-56026974D01*
X49550914Y-56172884D01*
X49553083Y-56295766D01*
X49555681Y-56390837D01*
X49558624Y-56453313D01*
X49561826Y-56478411D01*
X49561944Y-56478555D01*
X49598831Y-56491411D01*
X49653812Y-56488280D01*
X49683685Y-56479819D01*
X49709579Y-56449402D01*
X49717166Y-56404738D01*
X49717166Y-56342505D01*
X49802841Y-56411355D01*
X49861431Y-56452588D01*
X49918816Y-56475454D01*
X49993985Y-56486664D01*
X50021544Y-56488676D01*
X50158383Y-56480450D01*
X50271728Y-56437332D01*
X50361022Y-56360009D01*
X50425709Y-56249168D01*
X50465233Y-56105498D01*
X50479038Y-55929684D01*
X50479048Y-55923094D01*
X50468650Y-55758791D01*
X50436478Y-55627783D01*
X50380661Y-55526004D01*
X50299329Y-55449385D01*
X50246969Y-55418458D01*
X50220977Y-55408923D01*
X50619372Y-55408923D01*
X50623757Y-55432447D01*
X50641424Y-55490211D01*
X50670544Y-55576907D01*
X50709289Y-55687229D01*
X50755829Y-55815873D01*
X50808337Y-55957531D01*
X50809565Y-55960804D01*
X51010216Y-56495762D01*
X50944508Y-56666149D01*
X50915863Y-56746826D01*
X50896373Y-56814428D01*
X50889042Y-56857955D01*
X50889985Y-56865684D01*
X50919165Y-56890350D01*
X50969572Y-56896463D01*
X51025184Y-56885583D01*
X51069979Y-56859268D01*
X51079819Y-56847208D01*
X51096158Y-56812932D01*
X51123412Y-56746117D01*
X51159625Y-56652273D01*
X51202841Y-56536912D01*
X51251102Y-56405545D01*
X51302453Y-56263684D01*
X51354936Y-56116839D01*
X51406595Y-55970522D01*
X51455475Y-55830244D01*
X51499617Y-55701517D01*
X51537065Y-55589851D01*
X51565864Y-55500759D01*
X51584056Y-55439750D01*
X51589685Y-55412336D01*
X51589465Y-55411628D01*
X51562324Y-55398997D01*
X51510266Y-55392316D01*
X51495438Y-55392000D01*
X51469239Y-55391457D01*
X51448304Y-55392810D01*
X51430366Y-55400532D01*
X51413156Y-55419098D01*
X51394406Y-55452979D01*
X51371851Y-55506649D01*
X51343220Y-55584582D01*
X51306247Y-55691251D01*
X51258665Y-55831128D01*
X51229860Y-55915875D01*
X51193411Y-56020777D01*
X51161061Y-56109785D01*
X51135443Y-56175963D01*
X51119193Y-56212377D01*
X51115393Y-56217256D01*
X51105078Y-56198179D01*
X51083322Y-56145177D01*
X51052453Y-56064356D01*
X51014796Y-55961825D01*
X50972680Y-55843690D01*
X50968211Y-55830964D01*
X50925017Y-55709408D01*
X50885336Y-55600770D01*
X50851694Y-55511723D01*
X50826613Y-55448939D01*
X50812618Y-55419089D01*
X50812161Y-55418458D01*
X50780297Y-55402334D01*
X50727150Y-55393544D01*
X50670684Y-55392976D01*
X50628857Y-55401519D01*
X50619372Y-55408923D01*
X50220977Y-55408923D01*
X50137278Y-55378220D01*
X50032944Y-55374565D01*
X49924678Y-55408091D01*
X49858796Y-55443372D01*
X49738333Y-55515911D01*
X49738333Y-55211965D01*
X49738009Y-55092719D01*
X49736419Y-55009063D01*
X49732631Y-54954258D01*
X49725717Y-54921563D01*
X49714744Y-54904236D01*
X49698785Y-54895536D01*
X49694472Y-54894098D01*
X49638753Y-54888143D01*
X49599222Y-54893075D01*
X49547833Y-54905973D01*
X49547833Y-55685209D01*
X48674911Y-55685209D01*
X48669416Y-54915750D01*
X48586904Y-54908993D01*
X48521382Y-54911467D01*
X48486686Y-54930160D01*
X48479948Y-54961043D01*
X48474336Y-55025194D01*
X48470399Y-55113553D01*
X48468685Y-55217060D01*
X48468657Y-55228258D01*
X48468333Y-55498434D01*
X48379920Y-55439925D01*
X48269836Y-55391097D01*
X48148489Y-55377422D01*
X48028154Y-55398866D01*
X47941035Y-55441167D01*
X47852245Y-55519803D01*
X47789927Y-55622591D01*
X47752491Y-55753453D01*
X47738350Y-55916313D01*
X47738139Y-55942333D01*
X47490807Y-55942333D01*
X47505918Y-55922946D01*
X47515667Y-55851285D01*
X47503983Y-55752607D01*
X47484136Y-55673947D01*
X47429414Y-55557425D01*
X47346027Y-55467083D01*
X47240415Y-55405450D01*
X47119019Y-55375051D01*
X46988282Y-55378413D01*
X46854644Y-55418061D01*
X46844006Y-55422884D01*
X46742097Y-55491112D01*
X46663530Y-55585442D01*
X46608109Y-55699074D01*
X46575638Y-55825205D01*
X46565921Y-55957035D01*
X46055333Y-55957035D01*
X46055333Y-55757793D01*
X46143954Y-55657114D01*
X46232576Y-55556434D01*
X46457500Y-55582870D01*
X46457500Y-55498763D01*
X46445020Y-55427931D01*
X46405604Y-55386842D01*
X46336290Y-55373443D01*
X46282406Y-55377388D01*
X46201196Y-55403368D01*
X46122303Y-55462741D01*
X46117673Y-55467216D01*
X46037264Y-55545733D01*
X46030423Y-55474158D01*
X46020808Y-55424712D01*
X45995350Y-55403003D01*
X45951719Y-55395721D01*
X45893138Y-55398818D01*
X45862085Y-55416888D01*
X45855268Y-55448477D01*
X45850009Y-55514397D01*
X45846259Y-55607399D01*
X45843971Y-55720231D01*
X45843096Y-55845641D01*
X45567717Y-55845641D01*
X45567629Y-55832129D01*
X45564707Y-55784160D01*
X45538140Y-55645344D01*
X45479129Y-55532638D01*
X45389841Y-55448339D01*
X45272446Y-55394745D01*
X45180682Y-55377315D01*
X45034901Y-55381696D01*
X44904168Y-55424769D01*
X44792453Y-55504364D01*
X44703725Y-55618316D01*
X44688593Y-55646000D01*
X44662154Y-55724982D01*
X44645478Y-55830864D01*
X44639142Y-55949224D01*
X44336691Y-55949224D01*
X44339223Y-55941436D01*
X44379390Y-55814849D01*
X44416342Y-55695170D01*
X44447894Y-55589180D01*
X44471859Y-55503663D01*
X44486049Y-55445400D01*
X44489000Y-55424897D01*
X44471392Y-55401389D01*
X44428627Y-55390685D01*
X44375790Y-55392450D01*
X44327968Y-55406352D01*
X44301641Y-55429042D01*
X44289994Y-55460306D01*
X44269139Y-55525391D01*
X44241191Y-55617326D01*
X44208267Y-55729143D01*
X44172481Y-55853869D01*
X44169548Y-55864232D01*
X44056969Y-56262381D01*
X43975506Y-55980649D01*
X43940767Y-55861470D01*
X43905392Y-55741759D01*
X43873390Y-55634979D01*
X43848767Y-55554595D01*
X43847563Y-55550750D01*
X43801083Y-55402583D01*
X43711825Y-55396109D01*
X43654714Y-55394620D01*
X43625719Y-55405840D01*
X43611006Y-55436805D01*
X43607796Y-55449025D01*
X43573163Y-55584758D01*
X43536914Y-55720695D01*
X43500750Y-55851083D01*
X43466377Y-55970169D01*
X43435498Y-56072203D01*
X43409818Y-56151431D01*
X43391040Y-56202100D01*
X43380869Y-56218460D01*
X43380151Y-56217500D01*
X43369356Y-56184948D01*
X43349836Y-56121600D01*
X43324596Y-56037337D01*
X43302886Y-55963500D01*
X43268978Y-55847817D01*
X43232414Y-55723979D01*
X43198992Y-55611590D01*
X43185515Y-55566625D01*
X43132972Y-55392000D01*
X43038402Y-55392000D01*
X42972492Y-55397644D01*
X42944373Y-55414051D01*
X42943535Y-55418458D01*
X42519568Y-55418458D01*
X42503268Y-55408539D01*
X42369657Y-55374995D01*
X42216579Y-55377629D01*
X42123000Y-55395698D01*
X42020680Y-55440763D01*
X41925634Y-55517182D01*
X41848632Y-55614117D01*
X41800603Y-55720154D01*
X41772444Y-55874068D01*
X41313009Y-55874068D01*
X41390578Y-55845833D01*
X41491815Y-55770542D01*
X41560914Y-55668274D01*
X41598370Y-55538614D01*
X41604292Y-55483834D01*
X41598582Y-55339515D01*
X41559888Y-55221519D01*
X41487712Y-55129022D01*
X41381556Y-55061203D01*
X41337497Y-55043572D01*
X41277046Y-55029529D01*
X41192113Y-55019167D01*
X41092600Y-55012601D01*
X40988413Y-55009947D01*
X40889457Y-55011322D01*
X40805637Y-55016842D01*
X40746856Y-55026622D01*
X40725566Y-55036400D01*
X40718118Y-55064253D01*
X40711849Y-55127724D01*
X40706753Y-55220800D01*
X40702828Y-55337468D01*
X40700068Y-55471715D01*
X40698469Y-55617526D01*
X40698026Y-55768889D01*
X38975242Y-55768889D01*
X38939906Y-55612199D01*
X38869226Y-55471552D01*
X38767385Y-55358405D01*
X38636444Y-55274815D01*
X38478465Y-55222838D01*
X38408875Y-55211445D01*
X38287166Y-55196622D01*
X38287166Y-54966972D01*
X38286805Y-54905973D01*
X38286563Y-54865090D01*
X38283775Y-54797309D01*
X38277336Y-54755401D01*
X38265782Y-54731142D01*
X38247645Y-54716304D01*
X38241930Y-54713113D01*
X38189249Y-54699797D01*
X38124185Y-54701585D01*
X38064871Y-54716145D01*
X38029911Y-54740375D01*
X38022623Y-54772046D01*
X38016787Y-54835655D01*
X38013153Y-54920809D01*
X38012324Y-54984542D01*
X38012000Y-55201500D01*
X37715666Y-55201500D01*
X37715666Y-54969411D01*
X37715076Y-54866919D01*
X37712343Y-54798579D01*
X37706026Y-54756217D01*
X37694680Y-54731659D01*
X37676864Y-54716729D01*
X37670430Y-54713113D01*
X37617749Y-54699797D01*
X37552685Y-54701585D01*
X37493371Y-54716145D01*
X37458411Y-54740375D01*
X37451123Y-54772046D01*
X37445287Y-54835655D01*
X37441653Y-54920809D01*
X37440824Y-54984542D01*
X37440500Y-55201500D01*
X37144166Y-55201500D01*
X37144166Y-54969411D01*
X37143576Y-54866919D01*
X37140843Y-54798579D01*
X37134526Y-54756217D01*
X37123180Y-54731659D01*
X37105364Y-54716729D01*
X37098930Y-54713113D01*
X37046249Y-54699797D01*
X36981185Y-54701585D01*
X36921871Y-54716145D01*
X36886911Y-54740375D01*
X36879623Y-54772046D01*
X36873787Y-54835655D01*
X36870153Y-54920809D01*
X36869324Y-54984542D01*
X36869000Y-55201500D01*
X36572666Y-55201500D01*
X36572666Y-54969411D01*
X36572076Y-54866919D01*
X36569343Y-54798579D01*
X36563026Y-54756217D01*
X36551680Y-54731659D01*
X36533864Y-54716729D01*
X36527430Y-54713113D01*
X36474749Y-54699797D01*
X36409685Y-54701585D01*
X36350371Y-54716145D01*
X36315411Y-54740375D01*
X36308123Y-54772046D01*
X36302287Y-54835655D01*
X36298653Y-54920809D01*
X36297824Y-54984542D01*
X36297500Y-55201500D01*
X36001166Y-55201500D01*
X36001166Y-54969411D01*
X36000576Y-54866919D01*
X35997843Y-54798579D01*
X35991526Y-54756217D01*
X35980180Y-54731659D01*
X35962364Y-54716729D01*
X35955930Y-54713113D01*
X35903249Y-54699797D01*
X35838185Y-54701585D01*
X35778871Y-54716145D01*
X35743911Y-54740375D01*
X35736598Y-54772083D01*
X35730752Y-54835679D01*
X35727129Y-54920726D01*
X35726324Y-54983018D01*
X35726000Y-55198454D01*
X35604291Y-55213116D01*
X35522306Y-55226647D01*
X35445832Y-55245204D01*
X35411924Y-55256673D01*
X35291512Y-55326798D01*
X35188623Y-55427017D01*
X35109709Y-55547926D01*
X35061219Y-55680120D01*
X35048666Y-55786292D01*
X35048666Y-55898656D01*
X34799958Y-55904620D01*
X34551250Y-55910583D01*
X34544731Y-56012769D01*
X34543033Y-56078143D01*
X34551980Y-56123162D01*
X34577930Y-56151600D01*
X34627245Y-56167231D01*
X34706285Y-56173828D01*
X34818425Y-56175167D01*
X35048666Y-56175167D01*
X35048666Y-56470156D01*
X34799958Y-56476120D01*
X34551250Y-56482083D01*
X34544731Y-56584269D01*
X34543033Y-56649643D01*
X34551980Y-56694662D01*
X34577930Y-56723100D01*
X34627245Y-56738731D01*
X34706285Y-56745328D01*
X34818425Y-56746667D01*
X35048666Y-56746667D01*
X35048666Y-57041656D01*
X34799958Y-57047620D01*
X34551250Y-57053583D01*
X34544731Y-57155769D01*
X34543033Y-57221143D01*
X34551980Y-57266162D01*
X34577930Y-57294600D01*
X34627245Y-57310231D01*
X34706285Y-57316828D01*
X34818425Y-57318167D01*
X35048666Y-57318167D01*
X35048666Y-57613156D01*
X34799958Y-57619120D01*
X34551250Y-57625083D01*
X34544731Y-57727269D01*
X34543033Y-57792643D01*
X34551980Y-57837662D01*
X34577930Y-57866100D01*
X34627245Y-57881731D01*
X34706285Y-57888328D01*
X34818425Y-57889667D01*
X35048666Y-57889667D01*
X35048666Y-58184656D01*
X34799958Y-58190620D01*
X34551250Y-58196583D01*
X34544731Y-58298769D01*
X34543033Y-58364143D01*
X33450761Y-58364143D01*
X33450664Y-58095217D01*
X33450601Y-57701236D01*
X33450583Y-57267341D01*
X33450583Y-56078143D01*
G37*
D13*
X120860000Y-64555000D02*
X121280000Y-64555000D01*
X123400000Y-64555000D02*
X123820000Y-64555000D01*
X125940000Y-64555000D02*
X126360000Y-64555000D01*
X128480000Y-64555000D02*
X128900000Y-64555000D01*
X131020000Y-64555000D02*
X131440000Y-64555000D01*
X133560000Y-64555000D02*
X133980000Y-64555000D01*
X136100000Y-64555000D02*
X136520000Y-64555000D01*
X138640000Y-64555000D02*
X139060000Y-64555000D01*
X141180000Y-64555000D02*
X141600000Y-64555000D01*
X143720000Y-64555000D02*
X144140000Y-64555000D01*
X146260000Y-64555000D02*
X146680000Y-64555000D01*
X148800000Y-64555000D02*
X149220000Y-64555000D01*
X151340000Y-64555000D02*
X151760000Y-64555000D01*
X153880000Y-64555000D02*
X154300000Y-64555000D01*
X156420000Y-64555000D02*
X156840000Y-64555000D01*
X158960000Y-64555000D02*
X159380000Y-64555000D01*
X161500000Y-64555000D02*
X161920000Y-64555000D01*
X164040000Y-64555000D02*
X164460000Y-64555000D01*
X166580000Y-64555000D02*
X167000000Y-64555000D01*
X118370000Y-63995000D02*
X118370000Y-57805000D01*
X169490000Y-63995000D02*
X169490000Y-57595000D01*
X117240000Y-58095000D02*
X117050000Y-57765000D01*
X117740000Y-57805000D02*
X117240000Y-58095000D01*
X118370000Y-57805000D02*
X118370000Y-63995000D01*
X118370000Y-57805000D02*
X117740000Y-57805000D01*
X117050000Y-57765000D02*
X117050000Y-50225000D01*
X169490000Y-55475000D02*
X169490000Y-55055000D01*
X169490000Y-52935000D02*
X169490000Y-52515000D01*
X169490000Y-50395000D02*
X169490000Y-43995000D01*
X117050000Y-50225000D02*
X117240000Y-49895000D01*
X117740000Y-50185000D02*
X118370000Y-50185000D01*
X117240000Y-49895000D02*
X117740000Y-50185000D01*
X118370000Y-43995000D02*
X118370000Y-50185000D01*
X120860000Y-43435000D02*
X121280000Y-43435000D01*
X123400000Y-43435000D02*
X123820000Y-43435000D01*
X125940000Y-43435000D02*
X126360000Y-43435000D01*
X128480000Y-43435000D02*
X128900000Y-43435000D01*
X131020000Y-43435000D02*
X131440000Y-43435000D01*
X133560000Y-43435000D02*
X133980000Y-43435000D01*
X136100000Y-43435000D02*
X136520000Y-43435000D01*
X138640000Y-43435000D02*
X139060000Y-43435000D01*
X141180000Y-43435000D02*
X141600000Y-43435000D01*
X143720000Y-43435000D02*
X144140000Y-43435000D01*
X146260000Y-43435000D02*
X146680000Y-43435000D01*
X148800000Y-43435000D02*
X149220000Y-43435000D01*
X151340000Y-43435000D02*
X151760000Y-43435000D01*
X153880000Y-43435000D02*
X154300000Y-43435000D01*
X156420000Y-43435000D02*
X156840000Y-43435000D01*
X158960000Y-43435000D02*
X159380000Y-43435000D01*
X161500000Y-43435000D02*
X161920000Y-43435000D01*
X164040000Y-43435000D02*
X164460000Y-43435000D01*
X166580000Y-43435000D02*
X167000000Y-43435000D01*
X118370001Y-63995000D02*
G75*
G03*
X118740000Y-64524999I562057J-1771D01*
G01*
X169120000Y-64524999D02*
G75*
G03*
X169489999Y-63995000I-192055J528226D01*
G01*
X118740026Y-43465073D02*
G75*
G03*
X118370001Y-43995000I191874J-528127D01*
G01*
X169489972Y-43995000D02*
G75*
G03*
X169120000Y-43465001I-562172J1700D01*
G01*
X85070000Y-35830000D02*
X123230000Y-35830000D01*
X85070000Y-35830000D02*
X85070000Y-33170000D01*
X123230000Y-35830000D02*
X123230000Y-33170000D01*
X82470000Y-34500000D02*
X82470000Y-33170000D01*
X82470000Y-33170000D02*
X83800000Y-33170000D01*
X85070000Y-33170000D02*
X123230000Y-33170000D01*
X95147500Y-44834258D02*
X95147500Y-44359742D01*
X96192500Y-44834258D02*
X96192500Y-44359742D01*
X103564000Y-41865000D02*
X103564000Y-45315000D01*
X103564000Y-41865000D02*
X103564000Y-39915000D01*
X113684000Y-41865000D02*
X113684000Y-43815000D01*
X113684000Y-41865000D02*
X113684000Y-39915000D01*
X102530000Y-39503420D02*
X102530000Y-39784580D01*
X101510000Y-39503420D02*
X101510000Y-39784580D01*
X81194000Y-39503420D02*
X81194000Y-39784580D01*
X80174000Y-39503420D02*
X80174000Y-39784580D01*
X141470000Y-38430000D02*
X169470000Y-38430000D01*
X141470000Y-38430000D02*
X141470000Y-35770000D01*
X169470000Y-38430000D02*
X169470000Y-35770000D01*
X138870000Y-37100000D02*
X138870000Y-35770000D01*
X138870000Y-35770000D02*
X140200000Y-35770000D01*
X141470000Y-35770000D02*
X169470000Y-35770000D01*
X173570000Y-38770000D02*
X173570000Y-46450000D01*
X173570000Y-38770000D02*
X176230000Y-38770000D01*
X173570000Y-46450000D02*
X176230000Y-46450000D01*
X174900000Y-36170000D02*
X176230000Y-36170000D01*
X176230000Y-36170000D02*
X176230000Y-37500000D01*
X176230000Y-38770000D02*
X176230000Y-46450000D01*
X82355000Y-41865000D02*
X82355000Y-45315000D01*
X82355000Y-41865000D02*
X82355000Y-39915000D01*
X92475000Y-41865000D02*
X92475000Y-43815000D01*
X92475000Y-41865000D02*
X92475000Y-39915000D01*
X60383101Y-42343000D02*
X60383101Y-40543000D01*
X60383101Y-42343000D02*
X60383101Y-43143000D01*
X57263101Y-42343000D02*
X57263101Y-41543000D01*
X57263101Y-42343000D02*
X57263101Y-43143000D01*
X97412000Y-44518500D02*
X97412000Y-46193500D01*
X97412000Y-44518500D02*
X97412000Y-43868500D01*
X100532000Y-44518500D02*
X100532000Y-45168500D01*
X100532000Y-44518500D02*
X100532000Y-43868500D01*
X62618601Y-40929258D02*
X62618601Y-40454742D01*
X63663601Y-40929258D02*
X63663601Y-40454742D01*
X53982601Y-40929258D02*
X53982601Y-40454742D01*
X55027601Y-40929258D02*
X55027601Y-40454742D01*
%LPC*%
D14*
X61800101Y-35450000D03*
X56020101Y-35450000D03*
D15*
X62135101Y-37395000D03*
X61360101Y-37395000D03*
D16*
X60160101Y-37395000D03*
X59160101Y-37395000D03*
X58660101Y-37395000D03*
D15*
X55685101Y-37395000D03*
X56460101Y-37395000D03*
D16*
X57160101Y-37395000D03*
X58160101Y-37395000D03*
X59660101Y-37395000D03*
D17*
X63760101Y-35980000D03*
D18*
X63760101Y-31800000D03*
D19*
X63230101Y-35980000D03*
D20*
X63230101Y-31800000D03*
D19*
X54590101Y-35980000D03*
D20*
X54590101Y-31800000D03*
D17*
X54060101Y-35980000D03*
D18*
X54060101Y-31800000D03*
D16*
X60660101Y-37395000D03*
X57660101Y-37395000D03*
D21*
X119800000Y-64485000D03*
D22*
X119800000Y-62885000D03*
D23*
X122340000Y-63685000D03*
D24*
X122340000Y-62885000D03*
D25*
X124880000Y-63685000D03*
D26*
X124880000Y-62885000D03*
D23*
X127420000Y-63685000D03*
D24*
X127420000Y-62885000D03*
D23*
X129960000Y-63685000D03*
D24*
X129960000Y-62885000D03*
D23*
X132500000Y-63685000D03*
D24*
X132500000Y-62885000D03*
D23*
X135040000Y-63685000D03*
D24*
X135040000Y-62885000D03*
D25*
X137580000Y-63685000D03*
D26*
X137580000Y-62885000D03*
D23*
X140120000Y-63685000D03*
D24*
X140120000Y-62885000D03*
D23*
X142660000Y-63685000D03*
D24*
X142660000Y-62885000D03*
D23*
X145200000Y-63685000D03*
D24*
X145200000Y-62885000D03*
D23*
X147740000Y-63685000D03*
D24*
X147740000Y-62885000D03*
D25*
X150280000Y-63685000D03*
D26*
X150280000Y-62885000D03*
D23*
X152820000Y-63685000D03*
D24*
X152820000Y-62885000D03*
D23*
X155360000Y-63685000D03*
D24*
X155360000Y-62885000D03*
D23*
X157900000Y-63685000D03*
D24*
X157900000Y-62885000D03*
D23*
X160440000Y-63685000D03*
D24*
X160440000Y-62885000D03*
D25*
X162980000Y-63685000D03*
D26*
X162980000Y-62885000D03*
D23*
X165520000Y-63685000D03*
D24*
X165520000Y-62885000D03*
D23*
X168060000Y-63685000D03*
D24*
X168060000Y-62885000D03*
X168060000Y-45105000D03*
D23*
X168060000Y-44305000D03*
D24*
X165520000Y-45105000D03*
D23*
X165520000Y-44305000D03*
D26*
X162980000Y-45105000D03*
D25*
X162980000Y-44305000D03*
D24*
X160440000Y-45105000D03*
D23*
X160440000Y-44305000D03*
D24*
X157900000Y-45105000D03*
D23*
X157900000Y-44305000D03*
D24*
X155360000Y-45105000D03*
D23*
X155360000Y-44305000D03*
D24*
X152820000Y-45105000D03*
D23*
X152820000Y-44305000D03*
D26*
X150280000Y-45105000D03*
D25*
X150280000Y-44305000D03*
D24*
X147740000Y-45105000D03*
D23*
X147740000Y-44305000D03*
D24*
X145200000Y-45105000D03*
D23*
X145200000Y-44305000D03*
D24*
X142660000Y-45105000D03*
D23*
X142660000Y-44305000D03*
D24*
X140120000Y-45105000D03*
D23*
X140120000Y-44305000D03*
D26*
X137580000Y-45105000D03*
D25*
X137580000Y-44305000D03*
D24*
X135040000Y-45105000D03*
D23*
X135040000Y-44305000D03*
D24*
X132500000Y-45105000D03*
D23*
X132500000Y-44305000D03*
D24*
X129960000Y-45105000D03*
D23*
X129960000Y-44305000D03*
D24*
X127420000Y-45105000D03*
D23*
X127420000Y-44305000D03*
D26*
X124880000Y-45105000D03*
D25*
X124880000Y-44305000D03*
D24*
X122340000Y-45105000D03*
D23*
X122340000Y-44305000D03*
D24*
X119800000Y-45105000D03*
D23*
X119800000Y-44305000D03*
D22*
X167830000Y-56535000D03*
D27*
X169430000Y-56535000D03*
D26*
X167830000Y-53995000D03*
D28*
X168630000Y-53995000D03*
D24*
X167830000Y-51455000D03*
D29*
X168630000Y-51455000D03*
D30*
X122930000Y-53995000D03*
X119630000Y-52995000D03*
X119630000Y-54995000D03*
D31*
X42900000Y-35500000D03*
D32*
X50900000Y-33475000D03*
X47900000Y-33475000D03*
X49400000Y-31625000D03*
D33*
X83800000Y-34500000D03*
D34*
X86340000Y-34500000D03*
X88880000Y-34500000D03*
X91420000Y-34500000D03*
X93960000Y-34500000D03*
X96500000Y-34500000D03*
X99040000Y-34500000D03*
X101580000Y-34500000D03*
X104120000Y-34500000D03*
X106660000Y-34500000D03*
X109200000Y-34500000D03*
X111740000Y-34500000D03*
X114280000Y-34500000D03*
X116820000Y-34500000D03*
X119360000Y-34500000D03*
X121900000Y-34500000D03*
D35*
X95670000Y-45422000D03*
X95670000Y-43772000D03*
D36*
X104179000Y-44340000D03*
X105449000Y-44340000D03*
X106719000Y-44340000D03*
X107989000Y-44340000D03*
X109259000Y-44340000D03*
X110529000Y-44340000D03*
X111799000Y-44340000D03*
X113069000Y-44340000D03*
X113069000Y-39390000D03*
X111799000Y-39390000D03*
X110529000Y-39390000D03*
X109259000Y-39390000D03*
X107989000Y-39390000D03*
X106719000Y-39390000D03*
X105449000Y-39390000D03*
X104179000Y-39390000D03*
D37*
X102020000Y-38869000D03*
X102020000Y-40419000D03*
X80684000Y-38869000D03*
X80684000Y-40419000D03*
D33*
X140200000Y-37100000D03*
D34*
X142740000Y-37100000D03*
X145280000Y-37100000D03*
X147820000Y-37100000D03*
X150360000Y-37100000D03*
X152900000Y-37100000D03*
X155440000Y-37100000D03*
X157980000Y-37100000D03*
X160520000Y-37100000D03*
X163060000Y-37100000D03*
X165600000Y-37100000D03*
X168140000Y-37100000D03*
D33*
X174900000Y-37500000D03*
D34*
X174900000Y-40040000D03*
X174900000Y-42580000D03*
X174900000Y-45120000D03*
D36*
X82970000Y-44340000D03*
X84240000Y-44340000D03*
X85510000Y-44340000D03*
X86780000Y-44340000D03*
X88050000Y-44340000D03*
X89320000Y-44340000D03*
X90590000Y-44340000D03*
X91860000Y-44340000D03*
X91860000Y-39390000D03*
X90590000Y-39390000D03*
X89320000Y-39390000D03*
X88050000Y-39390000D03*
X86780000Y-39390000D03*
X85510000Y-39390000D03*
X84240000Y-39390000D03*
X82970000Y-39390000D03*
D31*
X66900000Y-35500000D03*
D38*
X59773101Y-41205500D03*
X58823101Y-41205500D03*
X57873101Y-41205500D03*
X57873101Y-43480500D03*
X58823101Y-43480500D03*
X59773101Y-43480500D03*
D39*
X98022000Y-45456000D03*
X99922000Y-45456000D03*
X98972000Y-43581000D03*
D35*
X63141101Y-41517000D03*
X63141101Y-39867000D03*
X54505101Y-41517000D03*
X54505101Y-39867000D03*
M02*
