%TF.GenerationSoftware,KiCad,Pcbnew,7.0.1-3b83917a11~172~ubuntu22.10.1*%
%TF.CreationDate,2023-04-03T16:10:54+02:00*%
%TF.ProjectId,Model-M-RP2040-USB,4d6f6465-6c2d-44d2-9d52-50323034302d,rev?*%
%TF.SameCoordinates,Original*%
%TF.FileFunction,Drillmap*%
%TF.FilePolarity,Positive*%
%FSLAX45Y45*%
G04 Gerber Fmt 4.5, Leading zero omitted, Abs format (unit mm)*
G04 Created by KiCad (PCBNEW 7.0.1-3b83917a11~172~ubuntu22.10.1) date 2023-04-03 16:10:54*
%MOMM*%
%LPD*%
G01*
G04 APERTURE LIST*
%ADD10C,0.100000*%
%ADD11C,0.200000*%
%ADD12C,0.065000*%
%ADD13C,0.350000*%
G04 APERTURE END LIST*
D10*
X13840000Y-6900000D02*
G75*
G03*
X13840000Y-6800000I0J50000D01*
G01*
X4440000Y-6900000D02*
X5440000Y-6900000D01*
X4440000Y-6800000D02*
G75*
G03*
X4440000Y-6900000I0J-50000D01*
G01*
X5640000Y-6800000D02*
G75*
G03*
X5640000Y-6900000I0J-50000D01*
G01*
X7840000Y-6900000D02*
G75*
G03*
X7840000Y-6800000I0J50000D01*
G01*
X17640000Y-6900000D02*
X18190000Y-6900000D01*
X14040000Y-6800000D02*
G75*
G03*
X14040000Y-6900000I0J-50000D01*
G01*
X6840000Y-6800000D02*
G75*
G03*
X6840000Y-6900000I0J-50000D01*
G01*
X13840000Y-6800000D02*
X12840000Y-6800000D01*
X18190000Y-6900000D02*
X18190000Y-6350000D01*
X12840000Y-6800000D02*
G75*
G03*
X12840000Y-6900000I0J-50000D01*
G01*
X16440000Y-6800000D02*
G75*
G03*
X16440000Y-6900000I0J-50000D01*
G01*
X10240000Y-6800000D02*
X9240000Y-6800000D01*
X18190000Y-4950000D02*
X18190000Y-3950000D01*
X15240000Y-6800000D02*
G75*
G03*
X15240000Y-6900000I0J-50000D01*
G01*
X9240000Y-6900000D02*
X10240000Y-6900000D01*
X15040000Y-6900000D02*
G75*
G03*
X15040000Y-6800000I0J50000D01*
G01*
X12640000Y-6800000D02*
X11640000Y-6800000D01*
X12840000Y-6900000D02*
X13840000Y-6900000D01*
X14040000Y-6900000D02*
X15040000Y-6900000D01*
X18190000Y-6350000D02*
G75*
G03*
X18090000Y-6350000I-50000J0D01*
G01*
X18090000Y-6150000D02*
G75*
G03*
X18190000Y-6150000I50000J0D01*
G01*
X18090000Y-3950000D02*
X18090000Y-4950000D01*
X17440000Y-6800000D02*
X16440000Y-6800000D01*
X5440000Y-6800000D02*
X4440000Y-6800000D01*
X10440000Y-6800000D02*
G75*
G03*
X10440000Y-6900000I0J-50000D01*
G01*
X9240000Y-6800000D02*
G75*
G03*
X9240000Y-6900000I0J-50000D01*
G01*
X18090000Y-3050000D02*
X3090000Y-3050000D01*
X11440000Y-6900000D02*
G75*
G03*
X11440000Y-6800000I0J50000D01*
G01*
X18090000Y-5150000D02*
X18090000Y-6150000D01*
X16240000Y-6800000D02*
X15240000Y-6800000D01*
X16240000Y-6900000D02*
G75*
G03*
X16240000Y-6800000I0J50000D01*
G01*
X18090000Y-4950000D02*
G75*
G03*
X18190000Y-4950000I50000J0D01*
G01*
X6640000Y-6800000D02*
X5640000Y-6800000D01*
X11640000Y-6900000D02*
X12640000Y-6900000D01*
X20090000Y-8050000D02*
X20090000Y-3050000D01*
X3090000Y-6900000D02*
X4240000Y-6900000D01*
X20090000Y-3050000D02*
X18190000Y-3050000D01*
X11440000Y-6800000D02*
X10440000Y-6800000D01*
X3090000Y-6900000D02*
X3090000Y-8050000D01*
X18090000Y-3750000D02*
G75*
G03*
X18190000Y-3750000I50000J0D01*
G01*
X5440000Y-6900000D02*
G75*
G03*
X5440000Y-6800000I0J50000D01*
G01*
X4240000Y-6800000D02*
X3090000Y-6800000D01*
X18190000Y-6150000D02*
X18190000Y-5150000D01*
X11640000Y-6800000D02*
G75*
G03*
X11640000Y-6900000I0J-50000D01*
G01*
X10240000Y-6900000D02*
G75*
G03*
X10240000Y-6800000I0J50000D01*
G01*
X4240000Y-6900000D02*
G75*
G03*
X4240000Y-6800000I0J50000D01*
G01*
X10440000Y-6900000D02*
X11440000Y-6900000D01*
X3090000Y-3050000D02*
X3090000Y-6800000D01*
X9040000Y-6900000D02*
G75*
G03*
X9040000Y-6800000I0J50000D01*
G01*
X15240000Y-6900000D02*
X16240000Y-6900000D01*
X12640000Y-6900000D02*
G75*
G03*
X12640000Y-6800000I0J50000D01*
G01*
X18090000Y-6800000D02*
X17640000Y-6800000D01*
X7840000Y-6800000D02*
X6840000Y-6800000D01*
X5640000Y-6900000D02*
X6640000Y-6900000D01*
X17640000Y-6800000D02*
G75*
G03*
X17640000Y-6900000I0J-50000D01*
G01*
X17440000Y-6900000D02*
G75*
G03*
X17440000Y-6800000I0J50000D01*
G01*
X3090000Y-8050000D02*
X20090000Y-8050000D01*
X8040000Y-6800000D02*
G75*
G03*
X8040000Y-6900000I0J-50000D01*
G01*
X6640000Y-6900000D02*
G75*
G03*
X6640000Y-6800000I0J50000D01*
G01*
X18190000Y-5150000D02*
G75*
G03*
X18090000Y-5150000I-50000J0D01*
G01*
X8040000Y-6900000D02*
X9040000Y-6900000D01*
X9040000Y-6800000D02*
X8040000Y-6800000D01*
X15040000Y-6800000D02*
X14040000Y-6800000D01*
X16440000Y-6900000D02*
X17440000Y-6900000D01*
X18090000Y-6350000D02*
X18090000Y-6800000D01*
X18190000Y-3950000D02*
G75*
G03*
X18090000Y-3950000I-50000J0D01*
G01*
X6840000Y-6900000D02*
X7840000Y-6900000D01*
X18190000Y-3750000D02*
X18190000Y-3050000D01*
X18090000Y-3050000D02*
X18090000Y-3750000D01*
D11*
D12*
X5569510Y-3512500D02*
X5634510Y-3577500D01*
X5634510Y-3512500D02*
X5569510Y-3577500D01*
X6147510Y-3512500D02*
X6212510Y-3577500D01*
X6212510Y-3512500D02*
X6147510Y-3577500D01*
D13*
X4465000Y-3550000D02*
G75*
G03*
X4465000Y-3550000I-175000J0D01*
G01*
X6865000Y-3550000D02*
G75*
G03*
X6865000Y-3550000I-175000J0D01*
G01*
D11*
X3332619Y-8367524D02*
X3332619Y-8167524D01*
X3332619Y-8167524D02*
X3380238Y-8167524D01*
X3380238Y-8167524D02*
X3408809Y-8177048D01*
X3408809Y-8177048D02*
X3427857Y-8196095D01*
X3427857Y-8196095D02*
X3437381Y-8215143D01*
X3437381Y-8215143D02*
X3446905Y-8253238D01*
X3446905Y-8253238D02*
X3446905Y-8281809D01*
X3446905Y-8281809D02*
X3437381Y-8319905D01*
X3437381Y-8319905D02*
X3427857Y-8338952D01*
X3427857Y-8338952D02*
X3408809Y-8358000D01*
X3408809Y-8358000D02*
X3380238Y-8367524D01*
X3380238Y-8367524D02*
X3332619Y-8367524D01*
X3532619Y-8367524D02*
X3532619Y-8234190D01*
X3532619Y-8272286D02*
X3542143Y-8253238D01*
X3542143Y-8253238D02*
X3551667Y-8243714D01*
X3551667Y-8243714D02*
X3570714Y-8234190D01*
X3570714Y-8234190D02*
X3589762Y-8234190D01*
X3656428Y-8367524D02*
X3656428Y-8234190D01*
X3656428Y-8167524D02*
X3646905Y-8177048D01*
X3646905Y-8177048D02*
X3656428Y-8186571D01*
X3656428Y-8186571D02*
X3665952Y-8177048D01*
X3665952Y-8177048D02*
X3656428Y-8167524D01*
X3656428Y-8167524D02*
X3656428Y-8186571D01*
X3780238Y-8367524D02*
X3761190Y-8358000D01*
X3761190Y-8358000D02*
X3751667Y-8338952D01*
X3751667Y-8338952D02*
X3751667Y-8167524D01*
X3885000Y-8367524D02*
X3865952Y-8358000D01*
X3865952Y-8358000D02*
X3856428Y-8338952D01*
X3856428Y-8338952D02*
X3856428Y-8167524D01*
X4113571Y-8367524D02*
X4113571Y-8167524D01*
X4113571Y-8167524D02*
X4180238Y-8310381D01*
X4180238Y-8310381D02*
X4246905Y-8167524D01*
X4246905Y-8167524D02*
X4246905Y-8367524D01*
X4427857Y-8367524D02*
X4427857Y-8262762D01*
X4427857Y-8262762D02*
X4418333Y-8243714D01*
X4418333Y-8243714D02*
X4399286Y-8234190D01*
X4399286Y-8234190D02*
X4361190Y-8234190D01*
X4361190Y-8234190D02*
X4342143Y-8243714D01*
X4427857Y-8358000D02*
X4408810Y-8367524D01*
X4408810Y-8367524D02*
X4361190Y-8367524D01*
X4361190Y-8367524D02*
X4342143Y-8358000D01*
X4342143Y-8358000D02*
X4332619Y-8338952D01*
X4332619Y-8338952D02*
X4332619Y-8319905D01*
X4332619Y-8319905D02*
X4342143Y-8300857D01*
X4342143Y-8300857D02*
X4361190Y-8291333D01*
X4361190Y-8291333D02*
X4408810Y-8291333D01*
X4408810Y-8291333D02*
X4427857Y-8281809D01*
X4523095Y-8234190D02*
X4523095Y-8434190D01*
X4523095Y-8243714D02*
X4542143Y-8234190D01*
X4542143Y-8234190D02*
X4580238Y-8234190D01*
X4580238Y-8234190D02*
X4599286Y-8243714D01*
X4599286Y-8243714D02*
X4608810Y-8253238D01*
X4608810Y-8253238D02*
X4618333Y-8272286D01*
X4618333Y-8272286D02*
X4618333Y-8329428D01*
X4618333Y-8329428D02*
X4608810Y-8348476D01*
X4608810Y-8348476D02*
X4599286Y-8358000D01*
X4599286Y-8358000D02*
X4580238Y-8367524D01*
X4580238Y-8367524D02*
X4542143Y-8367524D01*
X4542143Y-8367524D02*
X4523095Y-8358000D01*
X4704048Y-8348476D02*
X4713571Y-8358000D01*
X4713571Y-8358000D02*
X4704048Y-8367524D01*
X4704048Y-8367524D02*
X4694524Y-8358000D01*
X4694524Y-8358000D02*
X4704048Y-8348476D01*
X4704048Y-8348476D02*
X4704048Y-8367524D01*
X4704048Y-8243714D02*
X4713571Y-8253238D01*
X4713571Y-8253238D02*
X4704048Y-8262762D01*
X4704048Y-8262762D02*
X4694524Y-8253238D01*
X4694524Y-8253238D02*
X4704048Y-8243714D01*
X4704048Y-8243714D02*
X4704048Y-8262762D01*
D12*
X3020000Y-8662500D02*
X3085000Y-8727500D01*
X3085000Y-8662500D02*
X3020000Y-8727500D01*
D11*
X3370714Y-8587524D02*
X3389762Y-8587524D01*
X3389762Y-8587524D02*
X3408809Y-8597048D01*
X3408809Y-8597048D02*
X3418333Y-8606571D01*
X3418333Y-8606571D02*
X3427857Y-8625619D01*
X3427857Y-8625619D02*
X3437381Y-8663714D01*
X3437381Y-8663714D02*
X3437381Y-8711333D01*
X3437381Y-8711333D02*
X3427857Y-8749429D01*
X3427857Y-8749429D02*
X3418333Y-8768476D01*
X3418333Y-8768476D02*
X3408809Y-8778000D01*
X3408809Y-8778000D02*
X3389762Y-8787524D01*
X3389762Y-8787524D02*
X3370714Y-8787524D01*
X3370714Y-8787524D02*
X3351667Y-8778000D01*
X3351667Y-8778000D02*
X3342143Y-8768476D01*
X3342143Y-8768476D02*
X3332619Y-8749429D01*
X3332619Y-8749429D02*
X3323095Y-8711333D01*
X3323095Y-8711333D02*
X3323095Y-8663714D01*
X3323095Y-8663714D02*
X3332619Y-8625619D01*
X3332619Y-8625619D02*
X3342143Y-8606571D01*
X3342143Y-8606571D02*
X3351667Y-8597048D01*
X3351667Y-8597048D02*
X3370714Y-8587524D01*
X3523095Y-8768476D02*
X3532619Y-8778000D01*
X3532619Y-8778000D02*
X3523095Y-8787524D01*
X3523095Y-8787524D02*
X3513571Y-8778000D01*
X3513571Y-8778000D02*
X3523095Y-8768476D01*
X3523095Y-8768476D02*
X3523095Y-8787524D01*
X3704048Y-8587524D02*
X3665952Y-8587524D01*
X3665952Y-8587524D02*
X3646905Y-8597048D01*
X3646905Y-8597048D02*
X3637381Y-8606571D01*
X3637381Y-8606571D02*
X3618333Y-8635143D01*
X3618333Y-8635143D02*
X3608809Y-8673238D01*
X3608809Y-8673238D02*
X3608809Y-8749429D01*
X3608809Y-8749429D02*
X3618333Y-8768476D01*
X3618333Y-8768476D02*
X3627857Y-8778000D01*
X3627857Y-8778000D02*
X3646905Y-8787524D01*
X3646905Y-8787524D02*
X3685000Y-8787524D01*
X3685000Y-8787524D02*
X3704048Y-8778000D01*
X3704048Y-8778000D02*
X3713571Y-8768476D01*
X3713571Y-8768476D02*
X3723095Y-8749429D01*
X3723095Y-8749429D02*
X3723095Y-8701810D01*
X3723095Y-8701810D02*
X3713571Y-8682762D01*
X3713571Y-8682762D02*
X3704048Y-8673238D01*
X3704048Y-8673238D02*
X3685000Y-8663714D01*
X3685000Y-8663714D02*
X3646905Y-8663714D01*
X3646905Y-8663714D02*
X3627857Y-8673238D01*
X3627857Y-8673238D02*
X3618333Y-8682762D01*
X3618333Y-8682762D02*
X3608809Y-8701810D01*
X3904048Y-8587524D02*
X3808809Y-8587524D01*
X3808809Y-8587524D02*
X3799286Y-8682762D01*
X3799286Y-8682762D02*
X3808809Y-8673238D01*
X3808809Y-8673238D02*
X3827857Y-8663714D01*
X3827857Y-8663714D02*
X3875476Y-8663714D01*
X3875476Y-8663714D02*
X3894524Y-8673238D01*
X3894524Y-8673238D02*
X3904048Y-8682762D01*
X3904048Y-8682762D02*
X3913571Y-8701810D01*
X3913571Y-8701810D02*
X3913571Y-8749429D01*
X3913571Y-8749429D02*
X3904048Y-8768476D01*
X3904048Y-8768476D02*
X3894524Y-8778000D01*
X3894524Y-8778000D02*
X3875476Y-8787524D01*
X3875476Y-8787524D02*
X3827857Y-8787524D01*
X3827857Y-8787524D02*
X3808809Y-8778000D01*
X3808809Y-8778000D02*
X3799286Y-8768476D01*
X4037381Y-8587524D02*
X4056429Y-8587524D01*
X4056429Y-8587524D02*
X4075476Y-8597048D01*
X4075476Y-8597048D02*
X4085000Y-8606571D01*
X4085000Y-8606571D02*
X4094524Y-8625619D01*
X4094524Y-8625619D02*
X4104048Y-8663714D01*
X4104048Y-8663714D02*
X4104048Y-8711333D01*
X4104048Y-8711333D02*
X4094524Y-8749429D01*
X4094524Y-8749429D02*
X4085000Y-8768476D01*
X4085000Y-8768476D02*
X4075476Y-8778000D01*
X4075476Y-8778000D02*
X4056429Y-8787524D01*
X4056429Y-8787524D02*
X4037381Y-8787524D01*
X4037381Y-8787524D02*
X4018333Y-8778000D01*
X4018333Y-8778000D02*
X4008809Y-8768476D01*
X4008809Y-8768476D02*
X3999286Y-8749429D01*
X3999286Y-8749429D02*
X3989762Y-8711333D01*
X3989762Y-8711333D02*
X3989762Y-8663714D01*
X3989762Y-8663714D02*
X3999286Y-8625619D01*
X3999286Y-8625619D02*
X4008809Y-8606571D01*
X4008809Y-8606571D02*
X4018333Y-8597048D01*
X4018333Y-8597048D02*
X4037381Y-8587524D01*
X4189762Y-8787524D02*
X4189762Y-8654190D01*
X4189762Y-8673238D02*
X4199286Y-8663714D01*
X4199286Y-8663714D02*
X4218333Y-8654190D01*
X4218333Y-8654190D02*
X4246905Y-8654190D01*
X4246905Y-8654190D02*
X4265952Y-8663714D01*
X4265952Y-8663714D02*
X4275476Y-8682762D01*
X4275476Y-8682762D02*
X4275476Y-8787524D01*
X4275476Y-8682762D02*
X4285000Y-8663714D01*
X4285000Y-8663714D02*
X4304048Y-8654190D01*
X4304048Y-8654190D02*
X4332619Y-8654190D01*
X4332619Y-8654190D02*
X4351667Y-8663714D01*
X4351667Y-8663714D02*
X4361191Y-8682762D01*
X4361191Y-8682762D02*
X4361191Y-8787524D01*
X4456429Y-8787524D02*
X4456429Y-8654190D01*
X4456429Y-8673238D02*
X4465952Y-8663714D01*
X4465952Y-8663714D02*
X4485000Y-8654190D01*
X4485000Y-8654190D02*
X4513572Y-8654190D01*
X4513572Y-8654190D02*
X4532619Y-8663714D01*
X4532619Y-8663714D02*
X4542143Y-8682762D01*
X4542143Y-8682762D02*
X4542143Y-8787524D01*
X4542143Y-8682762D02*
X4551667Y-8663714D01*
X4551667Y-8663714D02*
X4570714Y-8654190D01*
X4570714Y-8654190D02*
X4599286Y-8654190D01*
X4599286Y-8654190D02*
X4618333Y-8663714D01*
X4618333Y-8663714D02*
X4627857Y-8682762D01*
X4627857Y-8682762D02*
X4627857Y-8787524D01*
X5018333Y-8578000D02*
X4846905Y-8835143D01*
X5275476Y-8587524D02*
X5294524Y-8587524D01*
X5294524Y-8587524D02*
X5313572Y-8597048D01*
X5313572Y-8597048D02*
X5323095Y-8606571D01*
X5323095Y-8606571D02*
X5332619Y-8625619D01*
X5332619Y-8625619D02*
X5342143Y-8663714D01*
X5342143Y-8663714D02*
X5342143Y-8711333D01*
X5342143Y-8711333D02*
X5332619Y-8749429D01*
X5332619Y-8749429D02*
X5323095Y-8768476D01*
X5323095Y-8768476D02*
X5313572Y-8778000D01*
X5313572Y-8778000D02*
X5294524Y-8787524D01*
X5294524Y-8787524D02*
X5275476Y-8787524D01*
X5275476Y-8787524D02*
X5256429Y-8778000D01*
X5256429Y-8778000D02*
X5246905Y-8768476D01*
X5246905Y-8768476D02*
X5237381Y-8749429D01*
X5237381Y-8749429D02*
X5227857Y-8711333D01*
X5227857Y-8711333D02*
X5227857Y-8663714D01*
X5227857Y-8663714D02*
X5237381Y-8625619D01*
X5237381Y-8625619D02*
X5246905Y-8606571D01*
X5246905Y-8606571D02*
X5256429Y-8597048D01*
X5256429Y-8597048D02*
X5275476Y-8587524D01*
X5427857Y-8768476D02*
X5437381Y-8778000D01*
X5437381Y-8778000D02*
X5427857Y-8787524D01*
X5427857Y-8787524D02*
X5418334Y-8778000D01*
X5418334Y-8778000D02*
X5427857Y-8768476D01*
X5427857Y-8768476D02*
X5427857Y-8787524D01*
X5561191Y-8587524D02*
X5580238Y-8587524D01*
X5580238Y-8587524D02*
X5599286Y-8597048D01*
X5599286Y-8597048D02*
X5608810Y-8606571D01*
X5608810Y-8606571D02*
X5618333Y-8625619D01*
X5618333Y-8625619D02*
X5627857Y-8663714D01*
X5627857Y-8663714D02*
X5627857Y-8711333D01*
X5627857Y-8711333D02*
X5618333Y-8749429D01*
X5618333Y-8749429D02*
X5608810Y-8768476D01*
X5608810Y-8768476D02*
X5599286Y-8778000D01*
X5599286Y-8778000D02*
X5580238Y-8787524D01*
X5580238Y-8787524D02*
X5561191Y-8787524D01*
X5561191Y-8787524D02*
X5542143Y-8778000D01*
X5542143Y-8778000D02*
X5532619Y-8768476D01*
X5532619Y-8768476D02*
X5523095Y-8749429D01*
X5523095Y-8749429D02*
X5513572Y-8711333D01*
X5513572Y-8711333D02*
X5513572Y-8663714D01*
X5513572Y-8663714D02*
X5523095Y-8625619D01*
X5523095Y-8625619D02*
X5532619Y-8606571D01*
X5532619Y-8606571D02*
X5542143Y-8597048D01*
X5542143Y-8597048D02*
X5561191Y-8587524D01*
X5704048Y-8606571D02*
X5713572Y-8597048D01*
X5713572Y-8597048D02*
X5732619Y-8587524D01*
X5732619Y-8587524D02*
X5780238Y-8587524D01*
X5780238Y-8587524D02*
X5799286Y-8597048D01*
X5799286Y-8597048D02*
X5808810Y-8606571D01*
X5808810Y-8606571D02*
X5818333Y-8625619D01*
X5818333Y-8625619D02*
X5818333Y-8644667D01*
X5818333Y-8644667D02*
X5808810Y-8673238D01*
X5808810Y-8673238D02*
X5694524Y-8787524D01*
X5694524Y-8787524D02*
X5818333Y-8787524D01*
X5999286Y-8587524D02*
X5904048Y-8587524D01*
X5904048Y-8587524D02*
X5894524Y-8682762D01*
X5894524Y-8682762D02*
X5904048Y-8673238D01*
X5904048Y-8673238D02*
X5923095Y-8663714D01*
X5923095Y-8663714D02*
X5970714Y-8663714D01*
X5970714Y-8663714D02*
X5989762Y-8673238D01*
X5989762Y-8673238D02*
X5999286Y-8682762D01*
X5999286Y-8682762D02*
X6008810Y-8701810D01*
X6008810Y-8701810D02*
X6008810Y-8749429D01*
X6008810Y-8749429D02*
X5999286Y-8768476D01*
X5999286Y-8768476D02*
X5989762Y-8778000D01*
X5989762Y-8778000D02*
X5970714Y-8787524D01*
X5970714Y-8787524D02*
X5923095Y-8787524D01*
X5923095Y-8787524D02*
X5904048Y-8778000D01*
X5904048Y-8778000D02*
X5894524Y-8768476D01*
X6180238Y-8587524D02*
X6142143Y-8587524D01*
X6142143Y-8587524D02*
X6123095Y-8597048D01*
X6123095Y-8597048D02*
X6113572Y-8606571D01*
X6113572Y-8606571D02*
X6094524Y-8635143D01*
X6094524Y-8635143D02*
X6085000Y-8673238D01*
X6085000Y-8673238D02*
X6085000Y-8749429D01*
X6085000Y-8749429D02*
X6094524Y-8768476D01*
X6094524Y-8768476D02*
X6104048Y-8778000D01*
X6104048Y-8778000D02*
X6123095Y-8787524D01*
X6123095Y-8787524D02*
X6161191Y-8787524D01*
X6161191Y-8787524D02*
X6180238Y-8778000D01*
X6180238Y-8778000D02*
X6189762Y-8768476D01*
X6189762Y-8768476D02*
X6199286Y-8749429D01*
X6199286Y-8749429D02*
X6199286Y-8701810D01*
X6199286Y-8701810D02*
X6189762Y-8682762D01*
X6189762Y-8682762D02*
X6180238Y-8673238D01*
X6180238Y-8673238D02*
X6161191Y-8663714D01*
X6161191Y-8663714D02*
X6123095Y-8663714D01*
X6123095Y-8663714D02*
X6104048Y-8673238D01*
X6104048Y-8673238D02*
X6094524Y-8682762D01*
X6094524Y-8682762D02*
X6085000Y-8701810D01*
X6275476Y-8587524D02*
X6275476Y-8625619D01*
X6351667Y-8587524D02*
X6351667Y-8625619D01*
X6646905Y-8863714D02*
X6637381Y-8854190D01*
X6637381Y-8854190D02*
X6618334Y-8825619D01*
X6618334Y-8825619D02*
X6608810Y-8806571D01*
X6608810Y-8806571D02*
X6599286Y-8778000D01*
X6599286Y-8778000D02*
X6589762Y-8730381D01*
X6589762Y-8730381D02*
X6589762Y-8692286D01*
X6589762Y-8692286D02*
X6599286Y-8644667D01*
X6599286Y-8644667D02*
X6608810Y-8616095D01*
X6608810Y-8616095D02*
X6618334Y-8597048D01*
X6618334Y-8597048D02*
X6637381Y-8568476D01*
X6637381Y-8568476D02*
X6646905Y-8558952D01*
X6713572Y-8606571D02*
X6723095Y-8597048D01*
X6723095Y-8597048D02*
X6742143Y-8587524D01*
X6742143Y-8587524D02*
X6789762Y-8587524D01*
X6789762Y-8587524D02*
X6808810Y-8597048D01*
X6808810Y-8597048D02*
X6818334Y-8606571D01*
X6818334Y-8606571D02*
X6827857Y-8625619D01*
X6827857Y-8625619D02*
X6827857Y-8644667D01*
X6827857Y-8644667D02*
X6818334Y-8673238D01*
X6818334Y-8673238D02*
X6704048Y-8787524D01*
X6704048Y-8787524D02*
X6827857Y-8787524D01*
X7065953Y-8787524D02*
X7065953Y-8587524D01*
X7151667Y-8787524D02*
X7151667Y-8682762D01*
X7151667Y-8682762D02*
X7142143Y-8663714D01*
X7142143Y-8663714D02*
X7123096Y-8654190D01*
X7123096Y-8654190D02*
X7094524Y-8654190D01*
X7094524Y-8654190D02*
X7075476Y-8663714D01*
X7075476Y-8663714D02*
X7065953Y-8673238D01*
X7275476Y-8787524D02*
X7256429Y-8778000D01*
X7256429Y-8778000D02*
X7246905Y-8768476D01*
X7246905Y-8768476D02*
X7237381Y-8749429D01*
X7237381Y-8749429D02*
X7237381Y-8692286D01*
X7237381Y-8692286D02*
X7246905Y-8673238D01*
X7246905Y-8673238D02*
X7256429Y-8663714D01*
X7256429Y-8663714D02*
X7275476Y-8654190D01*
X7275476Y-8654190D02*
X7304048Y-8654190D01*
X7304048Y-8654190D02*
X7323096Y-8663714D01*
X7323096Y-8663714D02*
X7332619Y-8673238D01*
X7332619Y-8673238D02*
X7342143Y-8692286D01*
X7342143Y-8692286D02*
X7342143Y-8749429D01*
X7342143Y-8749429D02*
X7332619Y-8768476D01*
X7332619Y-8768476D02*
X7323096Y-8778000D01*
X7323096Y-8778000D02*
X7304048Y-8787524D01*
X7304048Y-8787524D02*
X7275476Y-8787524D01*
X7456429Y-8787524D02*
X7437381Y-8778000D01*
X7437381Y-8778000D02*
X7427857Y-8758952D01*
X7427857Y-8758952D02*
X7427857Y-8587524D01*
X7608810Y-8778000D02*
X7589762Y-8787524D01*
X7589762Y-8787524D02*
X7551667Y-8787524D01*
X7551667Y-8787524D02*
X7532619Y-8778000D01*
X7532619Y-8778000D02*
X7523096Y-8758952D01*
X7523096Y-8758952D02*
X7523096Y-8682762D01*
X7523096Y-8682762D02*
X7532619Y-8663714D01*
X7532619Y-8663714D02*
X7551667Y-8654190D01*
X7551667Y-8654190D02*
X7589762Y-8654190D01*
X7589762Y-8654190D02*
X7608810Y-8663714D01*
X7608810Y-8663714D02*
X7618334Y-8682762D01*
X7618334Y-8682762D02*
X7618334Y-8701810D01*
X7618334Y-8701810D02*
X7523096Y-8720857D01*
X7694524Y-8778000D02*
X7713572Y-8787524D01*
X7713572Y-8787524D02*
X7751667Y-8787524D01*
X7751667Y-8787524D02*
X7770715Y-8778000D01*
X7770715Y-8778000D02*
X7780238Y-8758952D01*
X7780238Y-8758952D02*
X7780238Y-8749429D01*
X7780238Y-8749429D02*
X7770715Y-8730381D01*
X7770715Y-8730381D02*
X7751667Y-8720857D01*
X7751667Y-8720857D02*
X7723096Y-8720857D01*
X7723096Y-8720857D02*
X7704048Y-8711333D01*
X7704048Y-8711333D02*
X7694524Y-8692286D01*
X7694524Y-8692286D02*
X7694524Y-8682762D01*
X7694524Y-8682762D02*
X7704048Y-8663714D01*
X7704048Y-8663714D02*
X7723096Y-8654190D01*
X7723096Y-8654190D02*
X7751667Y-8654190D01*
X7751667Y-8654190D02*
X7770715Y-8663714D01*
X7846905Y-8863714D02*
X7856429Y-8854190D01*
X7856429Y-8854190D02*
X7875477Y-8825619D01*
X7875477Y-8825619D02*
X7885000Y-8806571D01*
X7885000Y-8806571D02*
X7894524Y-8778000D01*
X7894524Y-8778000D02*
X7904048Y-8730381D01*
X7904048Y-8730381D02*
X7904048Y-8692286D01*
X7904048Y-8692286D02*
X7894524Y-8644667D01*
X7894524Y-8644667D02*
X7885000Y-8616095D01*
X7885000Y-8616095D02*
X7875477Y-8597048D01*
X7875477Y-8597048D02*
X7856429Y-8568476D01*
X7856429Y-8568476D02*
X7846905Y-8558952D01*
X8208810Y-8863714D02*
X8199286Y-8854190D01*
X8199286Y-8854190D02*
X8180238Y-8825619D01*
X8180238Y-8825619D02*
X8170715Y-8806571D01*
X8170715Y-8806571D02*
X8161191Y-8778000D01*
X8161191Y-8778000D02*
X8151667Y-8730381D01*
X8151667Y-8730381D02*
X8151667Y-8692286D01*
X8151667Y-8692286D02*
X8161191Y-8644667D01*
X8161191Y-8644667D02*
X8170715Y-8616095D01*
X8170715Y-8616095D02*
X8180238Y-8597048D01*
X8180238Y-8597048D02*
X8199286Y-8568476D01*
X8199286Y-8568476D02*
X8208810Y-8558952D01*
X8285000Y-8654190D02*
X8285000Y-8787524D01*
X8285000Y-8673238D02*
X8294524Y-8663714D01*
X8294524Y-8663714D02*
X8313572Y-8654190D01*
X8313572Y-8654190D02*
X8342143Y-8654190D01*
X8342143Y-8654190D02*
X8361191Y-8663714D01*
X8361191Y-8663714D02*
X8370715Y-8682762D01*
X8370715Y-8682762D02*
X8370715Y-8787524D01*
X8494524Y-8787524D02*
X8475477Y-8778000D01*
X8475477Y-8778000D02*
X8465953Y-8768476D01*
X8465953Y-8768476D02*
X8456429Y-8749429D01*
X8456429Y-8749429D02*
X8456429Y-8692286D01*
X8456429Y-8692286D02*
X8465953Y-8673238D01*
X8465953Y-8673238D02*
X8475477Y-8663714D01*
X8475477Y-8663714D02*
X8494524Y-8654190D01*
X8494524Y-8654190D02*
X8523096Y-8654190D01*
X8523096Y-8654190D02*
X8542143Y-8663714D01*
X8542143Y-8663714D02*
X8551667Y-8673238D01*
X8551667Y-8673238D02*
X8561191Y-8692286D01*
X8561191Y-8692286D02*
X8561191Y-8749429D01*
X8561191Y-8749429D02*
X8551667Y-8768476D01*
X8551667Y-8768476D02*
X8542143Y-8778000D01*
X8542143Y-8778000D02*
X8523096Y-8787524D01*
X8523096Y-8787524D02*
X8494524Y-8787524D01*
X8618334Y-8654190D02*
X8694524Y-8654190D01*
X8646905Y-8587524D02*
X8646905Y-8758952D01*
X8646905Y-8758952D02*
X8656429Y-8778000D01*
X8656429Y-8778000D02*
X8675477Y-8787524D01*
X8675477Y-8787524D02*
X8694524Y-8787524D01*
X8913572Y-8654190D02*
X8913572Y-8854190D01*
X8913572Y-8663714D02*
X8932620Y-8654190D01*
X8932620Y-8654190D02*
X8970715Y-8654190D01*
X8970715Y-8654190D02*
X8989762Y-8663714D01*
X8989762Y-8663714D02*
X8999286Y-8673238D01*
X8999286Y-8673238D02*
X9008810Y-8692286D01*
X9008810Y-8692286D02*
X9008810Y-8749429D01*
X9008810Y-8749429D02*
X8999286Y-8768476D01*
X8999286Y-8768476D02*
X8989762Y-8778000D01*
X8989762Y-8778000D02*
X8970715Y-8787524D01*
X8970715Y-8787524D02*
X8932620Y-8787524D01*
X8932620Y-8787524D02*
X8913572Y-8778000D01*
X9123096Y-8787524D02*
X9104048Y-8778000D01*
X9104048Y-8778000D02*
X9094524Y-8758952D01*
X9094524Y-8758952D02*
X9094524Y-8587524D01*
X9285001Y-8787524D02*
X9285001Y-8682762D01*
X9285001Y-8682762D02*
X9275477Y-8663714D01*
X9275477Y-8663714D02*
X9256429Y-8654190D01*
X9256429Y-8654190D02*
X9218334Y-8654190D01*
X9218334Y-8654190D02*
X9199286Y-8663714D01*
X9285001Y-8778000D02*
X9265953Y-8787524D01*
X9265953Y-8787524D02*
X9218334Y-8787524D01*
X9218334Y-8787524D02*
X9199286Y-8778000D01*
X9199286Y-8778000D02*
X9189762Y-8758952D01*
X9189762Y-8758952D02*
X9189762Y-8739905D01*
X9189762Y-8739905D02*
X9199286Y-8720857D01*
X9199286Y-8720857D02*
X9218334Y-8711333D01*
X9218334Y-8711333D02*
X9265953Y-8711333D01*
X9265953Y-8711333D02*
X9285001Y-8701810D01*
X9351667Y-8654190D02*
X9427858Y-8654190D01*
X9380239Y-8587524D02*
X9380239Y-8758952D01*
X9380239Y-8758952D02*
X9389762Y-8778000D01*
X9389762Y-8778000D02*
X9408810Y-8787524D01*
X9408810Y-8787524D02*
X9427858Y-8787524D01*
X9570715Y-8778000D02*
X9551667Y-8787524D01*
X9551667Y-8787524D02*
X9513572Y-8787524D01*
X9513572Y-8787524D02*
X9494524Y-8778000D01*
X9494524Y-8778000D02*
X9485001Y-8758952D01*
X9485001Y-8758952D02*
X9485001Y-8682762D01*
X9485001Y-8682762D02*
X9494524Y-8663714D01*
X9494524Y-8663714D02*
X9513572Y-8654190D01*
X9513572Y-8654190D02*
X9551667Y-8654190D01*
X9551667Y-8654190D02*
X9570715Y-8663714D01*
X9570715Y-8663714D02*
X9580239Y-8682762D01*
X9580239Y-8682762D02*
X9580239Y-8701810D01*
X9580239Y-8701810D02*
X9485001Y-8720857D01*
X9751667Y-8787524D02*
X9751667Y-8587524D01*
X9751667Y-8778000D02*
X9732620Y-8787524D01*
X9732620Y-8787524D02*
X9694524Y-8787524D01*
X9694524Y-8787524D02*
X9675477Y-8778000D01*
X9675477Y-8778000D02*
X9665953Y-8768476D01*
X9665953Y-8768476D02*
X9656429Y-8749429D01*
X9656429Y-8749429D02*
X9656429Y-8692286D01*
X9656429Y-8692286D02*
X9665953Y-8673238D01*
X9665953Y-8673238D02*
X9675477Y-8663714D01*
X9675477Y-8663714D02*
X9694524Y-8654190D01*
X9694524Y-8654190D02*
X9732620Y-8654190D01*
X9732620Y-8654190D02*
X9751667Y-8663714D01*
X9827858Y-8863714D02*
X9837382Y-8854190D01*
X9837382Y-8854190D02*
X9856429Y-8825619D01*
X9856429Y-8825619D02*
X9865953Y-8806571D01*
X9865953Y-8806571D02*
X9875477Y-8778000D01*
X9875477Y-8778000D02*
X9885001Y-8730381D01*
X9885001Y-8730381D02*
X9885001Y-8692286D01*
X9885001Y-8692286D02*
X9875477Y-8644667D01*
X9875477Y-8644667D02*
X9865953Y-8616095D01*
X9865953Y-8616095D02*
X9856429Y-8597048D01*
X9856429Y-8597048D02*
X9837382Y-8568476D01*
X9837382Y-8568476D02*
X9827858Y-8558952D01*
X3085000Y-8959000D02*
G75*
G03*
X3085000Y-8959000I-100000J0D01*
G01*
X3313571Y-8851524D02*
X3437381Y-8851524D01*
X3437381Y-8851524D02*
X3370714Y-8927714D01*
X3370714Y-8927714D02*
X3399286Y-8927714D01*
X3399286Y-8927714D02*
X3418333Y-8937238D01*
X3418333Y-8937238D02*
X3427857Y-8946762D01*
X3427857Y-8946762D02*
X3437381Y-8965810D01*
X3437381Y-8965810D02*
X3437381Y-9013429D01*
X3437381Y-9013429D02*
X3427857Y-9032476D01*
X3427857Y-9032476D02*
X3418333Y-9042000D01*
X3418333Y-9042000D02*
X3399286Y-9051524D01*
X3399286Y-9051524D02*
X3342143Y-9051524D01*
X3342143Y-9051524D02*
X3323095Y-9042000D01*
X3323095Y-9042000D02*
X3313571Y-9032476D01*
X3523095Y-9032476D02*
X3532619Y-9042000D01*
X3532619Y-9042000D02*
X3523095Y-9051524D01*
X3523095Y-9051524D02*
X3513571Y-9042000D01*
X3513571Y-9042000D02*
X3523095Y-9032476D01*
X3523095Y-9032476D02*
X3523095Y-9051524D01*
X3713571Y-8851524D02*
X3618333Y-8851524D01*
X3618333Y-8851524D02*
X3608809Y-8946762D01*
X3608809Y-8946762D02*
X3618333Y-8937238D01*
X3618333Y-8937238D02*
X3637381Y-8927714D01*
X3637381Y-8927714D02*
X3685000Y-8927714D01*
X3685000Y-8927714D02*
X3704048Y-8937238D01*
X3704048Y-8937238D02*
X3713571Y-8946762D01*
X3713571Y-8946762D02*
X3723095Y-8965810D01*
X3723095Y-8965810D02*
X3723095Y-9013429D01*
X3723095Y-9013429D02*
X3713571Y-9032476D01*
X3713571Y-9032476D02*
X3704048Y-9042000D01*
X3704048Y-9042000D02*
X3685000Y-9051524D01*
X3685000Y-9051524D02*
X3637381Y-9051524D01*
X3637381Y-9051524D02*
X3618333Y-9042000D01*
X3618333Y-9042000D02*
X3608809Y-9032476D01*
X3846905Y-8851524D02*
X3865952Y-8851524D01*
X3865952Y-8851524D02*
X3885000Y-8861048D01*
X3885000Y-8861048D02*
X3894524Y-8870571D01*
X3894524Y-8870571D02*
X3904048Y-8889619D01*
X3904048Y-8889619D02*
X3913571Y-8927714D01*
X3913571Y-8927714D02*
X3913571Y-8975333D01*
X3913571Y-8975333D02*
X3904048Y-9013429D01*
X3904048Y-9013429D02*
X3894524Y-9032476D01*
X3894524Y-9032476D02*
X3885000Y-9042000D01*
X3885000Y-9042000D02*
X3865952Y-9051524D01*
X3865952Y-9051524D02*
X3846905Y-9051524D01*
X3846905Y-9051524D02*
X3827857Y-9042000D01*
X3827857Y-9042000D02*
X3818333Y-9032476D01*
X3818333Y-9032476D02*
X3808809Y-9013429D01*
X3808809Y-9013429D02*
X3799286Y-8975333D01*
X3799286Y-8975333D02*
X3799286Y-8927714D01*
X3799286Y-8927714D02*
X3808809Y-8889619D01*
X3808809Y-8889619D02*
X3818333Y-8870571D01*
X3818333Y-8870571D02*
X3827857Y-8861048D01*
X3827857Y-8861048D02*
X3846905Y-8851524D01*
X4037381Y-8851524D02*
X4056429Y-8851524D01*
X4056429Y-8851524D02*
X4075476Y-8861048D01*
X4075476Y-8861048D02*
X4085000Y-8870571D01*
X4085000Y-8870571D02*
X4094524Y-8889619D01*
X4094524Y-8889619D02*
X4104048Y-8927714D01*
X4104048Y-8927714D02*
X4104048Y-8975333D01*
X4104048Y-8975333D02*
X4094524Y-9013429D01*
X4094524Y-9013429D02*
X4085000Y-9032476D01*
X4085000Y-9032476D02*
X4075476Y-9042000D01*
X4075476Y-9042000D02*
X4056429Y-9051524D01*
X4056429Y-9051524D02*
X4037381Y-9051524D01*
X4037381Y-9051524D02*
X4018333Y-9042000D01*
X4018333Y-9042000D02*
X4008809Y-9032476D01*
X4008809Y-9032476D02*
X3999286Y-9013429D01*
X3999286Y-9013429D02*
X3989762Y-8975333D01*
X3989762Y-8975333D02*
X3989762Y-8927714D01*
X3989762Y-8927714D02*
X3999286Y-8889619D01*
X3999286Y-8889619D02*
X4008809Y-8870571D01*
X4008809Y-8870571D02*
X4018333Y-8861048D01*
X4018333Y-8861048D02*
X4037381Y-8851524D01*
X4189762Y-9051524D02*
X4189762Y-8918190D01*
X4189762Y-8937238D02*
X4199286Y-8927714D01*
X4199286Y-8927714D02*
X4218333Y-8918190D01*
X4218333Y-8918190D02*
X4246905Y-8918190D01*
X4246905Y-8918190D02*
X4265952Y-8927714D01*
X4265952Y-8927714D02*
X4275476Y-8946762D01*
X4275476Y-8946762D02*
X4275476Y-9051524D01*
X4275476Y-8946762D02*
X4285000Y-8927714D01*
X4285000Y-8927714D02*
X4304048Y-8918190D01*
X4304048Y-8918190D02*
X4332619Y-8918190D01*
X4332619Y-8918190D02*
X4351667Y-8927714D01*
X4351667Y-8927714D02*
X4361191Y-8946762D01*
X4361191Y-8946762D02*
X4361191Y-9051524D01*
X4456429Y-9051524D02*
X4456429Y-8918190D01*
X4456429Y-8937238D02*
X4465952Y-8927714D01*
X4465952Y-8927714D02*
X4485000Y-8918190D01*
X4485000Y-8918190D02*
X4513572Y-8918190D01*
X4513572Y-8918190D02*
X4532619Y-8927714D01*
X4532619Y-8927714D02*
X4542143Y-8946762D01*
X4542143Y-8946762D02*
X4542143Y-9051524D01*
X4542143Y-8946762D02*
X4551667Y-8927714D01*
X4551667Y-8927714D02*
X4570714Y-8918190D01*
X4570714Y-8918190D02*
X4599286Y-8918190D01*
X4599286Y-8918190D02*
X4618333Y-8927714D01*
X4618333Y-8927714D02*
X4627857Y-8946762D01*
X4627857Y-8946762D02*
X4627857Y-9051524D01*
X5018333Y-8842000D02*
X4846905Y-9099143D01*
X5275476Y-8851524D02*
X5294524Y-8851524D01*
X5294524Y-8851524D02*
X5313572Y-8861048D01*
X5313572Y-8861048D02*
X5323095Y-8870571D01*
X5323095Y-8870571D02*
X5332619Y-8889619D01*
X5332619Y-8889619D02*
X5342143Y-8927714D01*
X5342143Y-8927714D02*
X5342143Y-8975333D01*
X5342143Y-8975333D02*
X5332619Y-9013429D01*
X5332619Y-9013429D02*
X5323095Y-9032476D01*
X5323095Y-9032476D02*
X5313572Y-9042000D01*
X5313572Y-9042000D02*
X5294524Y-9051524D01*
X5294524Y-9051524D02*
X5275476Y-9051524D01*
X5275476Y-9051524D02*
X5256429Y-9042000D01*
X5256429Y-9042000D02*
X5246905Y-9032476D01*
X5246905Y-9032476D02*
X5237381Y-9013429D01*
X5237381Y-9013429D02*
X5227857Y-8975333D01*
X5227857Y-8975333D02*
X5227857Y-8927714D01*
X5227857Y-8927714D02*
X5237381Y-8889619D01*
X5237381Y-8889619D02*
X5246905Y-8870571D01*
X5246905Y-8870571D02*
X5256429Y-8861048D01*
X5256429Y-8861048D02*
X5275476Y-8851524D01*
X5427857Y-9032476D02*
X5437381Y-9042000D01*
X5437381Y-9042000D02*
X5427857Y-9051524D01*
X5427857Y-9051524D02*
X5418334Y-9042000D01*
X5418334Y-9042000D02*
X5427857Y-9032476D01*
X5427857Y-9032476D02*
X5427857Y-9051524D01*
X5627857Y-9051524D02*
X5513572Y-9051524D01*
X5570714Y-9051524D02*
X5570714Y-8851524D01*
X5570714Y-8851524D02*
X5551667Y-8880095D01*
X5551667Y-8880095D02*
X5532619Y-8899143D01*
X5532619Y-8899143D02*
X5513572Y-8908667D01*
X5694524Y-8851524D02*
X5818333Y-8851524D01*
X5818333Y-8851524D02*
X5751667Y-8927714D01*
X5751667Y-8927714D02*
X5780238Y-8927714D01*
X5780238Y-8927714D02*
X5799286Y-8937238D01*
X5799286Y-8937238D02*
X5808810Y-8946762D01*
X5808810Y-8946762D02*
X5818333Y-8965810D01*
X5818333Y-8965810D02*
X5818333Y-9013429D01*
X5818333Y-9013429D02*
X5808810Y-9032476D01*
X5808810Y-9032476D02*
X5799286Y-9042000D01*
X5799286Y-9042000D02*
X5780238Y-9051524D01*
X5780238Y-9051524D02*
X5723095Y-9051524D01*
X5723095Y-9051524D02*
X5704048Y-9042000D01*
X5704048Y-9042000D02*
X5694524Y-9032476D01*
X5885000Y-8851524D02*
X6018333Y-8851524D01*
X6018333Y-8851524D02*
X5932619Y-9051524D01*
X6123095Y-8937238D02*
X6104048Y-8927714D01*
X6104048Y-8927714D02*
X6094524Y-8918190D01*
X6094524Y-8918190D02*
X6085000Y-8899143D01*
X6085000Y-8899143D02*
X6085000Y-8889619D01*
X6085000Y-8889619D02*
X6094524Y-8870571D01*
X6094524Y-8870571D02*
X6104048Y-8861048D01*
X6104048Y-8861048D02*
X6123095Y-8851524D01*
X6123095Y-8851524D02*
X6161191Y-8851524D01*
X6161191Y-8851524D02*
X6180238Y-8861048D01*
X6180238Y-8861048D02*
X6189762Y-8870571D01*
X6189762Y-8870571D02*
X6199286Y-8889619D01*
X6199286Y-8889619D02*
X6199286Y-8899143D01*
X6199286Y-8899143D02*
X6189762Y-8918190D01*
X6189762Y-8918190D02*
X6180238Y-8927714D01*
X6180238Y-8927714D02*
X6161191Y-8937238D01*
X6161191Y-8937238D02*
X6123095Y-8937238D01*
X6123095Y-8937238D02*
X6104048Y-8946762D01*
X6104048Y-8946762D02*
X6094524Y-8956286D01*
X6094524Y-8956286D02*
X6085000Y-8975333D01*
X6085000Y-8975333D02*
X6085000Y-9013429D01*
X6085000Y-9013429D02*
X6094524Y-9032476D01*
X6094524Y-9032476D02*
X6104048Y-9042000D01*
X6104048Y-9042000D02*
X6123095Y-9051524D01*
X6123095Y-9051524D02*
X6161191Y-9051524D01*
X6161191Y-9051524D02*
X6180238Y-9042000D01*
X6180238Y-9042000D02*
X6189762Y-9032476D01*
X6189762Y-9032476D02*
X6199286Y-9013429D01*
X6199286Y-9013429D02*
X6199286Y-8975333D01*
X6199286Y-8975333D02*
X6189762Y-8956286D01*
X6189762Y-8956286D02*
X6180238Y-8946762D01*
X6180238Y-8946762D02*
X6161191Y-8937238D01*
X6275476Y-8851524D02*
X6275476Y-8889619D01*
X6351667Y-8851524D02*
X6351667Y-8889619D01*
X6646905Y-9127714D02*
X6637381Y-9118190D01*
X6637381Y-9118190D02*
X6618334Y-9089619D01*
X6618334Y-9089619D02*
X6608810Y-9070571D01*
X6608810Y-9070571D02*
X6599286Y-9042000D01*
X6599286Y-9042000D02*
X6589762Y-8994381D01*
X6589762Y-8994381D02*
X6589762Y-8956286D01*
X6589762Y-8956286D02*
X6599286Y-8908667D01*
X6599286Y-8908667D02*
X6608810Y-8880095D01*
X6608810Y-8880095D02*
X6618334Y-8861048D01*
X6618334Y-8861048D02*
X6637381Y-8832476D01*
X6637381Y-8832476D02*
X6646905Y-8822952D01*
X6713572Y-8870571D02*
X6723095Y-8861048D01*
X6723095Y-8861048D02*
X6742143Y-8851524D01*
X6742143Y-8851524D02*
X6789762Y-8851524D01*
X6789762Y-8851524D02*
X6808810Y-8861048D01*
X6808810Y-8861048D02*
X6818334Y-8870571D01*
X6818334Y-8870571D02*
X6827857Y-8889619D01*
X6827857Y-8889619D02*
X6827857Y-8908667D01*
X6827857Y-8908667D02*
X6818334Y-8937238D01*
X6818334Y-8937238D02*
X6704048Y-9051524D01*
X6704048Y-9051524D02*
X6827857Y-9051524D01*
X7065953Y-9051524D02*
X7065953Y-8851524D01*
X7151667Y-9051524D02*
X7151667Y-8946762D01*
X7151667Y-8946762D02*
X7142143Y-8927714D01*
X7142143Y-8927714D02*
X7123096Y-8918190D01*
X7123096Y-8918190D02*
X7094524Y-8918190D01*
X7094524Y-8918190D02*
X7075476Y-8927714D01*
X7075476Y-8927714D02*
X7065953Y-8937238D01*
X7275476Y-9051524D02*
X7256429Y-9042000D01*
X7256429Y-9042000D02*
X7246905Y-9032476D01*
X7246905Y-9032476D02*
X7237381Y-9013429D01*
X7237381Y-9013429D02*
X7237381Y-8956286D01*
X7237381Y-8956286D02*
X7246905Y-8937238D01*
X7246905Y-8937238D02*
X7256429Y-8927714D01*
X7256429Y-8927714D02*
X7275476Y-8918190D01*
X7275476Y-8918190D02*
X7304048Y-8918190D01*
X7304048Y-8918190D02*
X7323096Y-8927714D01*
X7323096Y-8927714D02*
X7332619Y-8937238D01*
X7332619Y-8937238D02*
X7342143Y-8956286D01*
X7342143Y-8956286D02*
X7342143Y-9013429D01*
X7342143Y-9013429D02*
X7332619Y-9032476D01*
X7332619Y-9032476D02*
X7323096Y-9042000D01*
X7323096Y-9042000D02*
X7304048Y-9051524D01*
X7304048Y-9051524D02*
X7275476Y-9051524D01*
X7456429Y-9051524D02*
X7437381Y-9042000D01*
X7437381Y-9042000D02*
X7427857Y-9022952D01*
X7427857Y-9022952D02*
X7427857Y-8851524D01*
X7608810Y-9042000D02*
X7589762Y-9051524D01*
X7589762Y-9051524D02*
X7551667Y-9051524D01*
X7551667Y-9051524D02*
X7532619Y-9042000D01*
X7532619Y-9042000D02*
X7523096Y-9022952D01*
X7523096Y-9022952D02*
X7523096Y-8946762D01*
X7523096Y-8946762D02*
X7532619Y-8927714D01*
X7532619Y-8927714D02*
X7551667Y-8918190D01*
X7551667Y-8918190D02*
X7589762Y-8918190D01*
X7589762Y-8918190D02*
X7608810Y-8927714D01*
X7608810Y-8927714D02*
X7618334Y-8946762D01*
X7618334Y-8946762D02*
X7618334Y-8965810D01*
X7618334Y-8965810D02*
X7523096Y-8984857D01*
X7694524Y-9042000D02*
X7713572Y-9051524D01*
X7713572Y-9051524D02*
X7751667Y-9051524D01*
X7751667Y-9051524D02*
X7770715Y-9042000D01*
X7770715Y-9042000D02*
X7780238Y-9022952D01*
X7780238Y-9022952D02*
X7780238Y-9013429D01*
X7780238Y-9013429D02*
X7770715Y-8994381D01*
X7770715Y-8994381D02*
X7751667Y-8984857D01*
X7751667Y-8984857D02*
X7723096Y-8984857D01*
X7723096Y-8984857D02*
X7704048Y-8975333D01*
X7704048Y-8975333D02*
X7694524Y-8956286D01*
X7694524Y-8956286D02*
X7694524Y-8946762D01*
X7694524Y-8946762D02*
X7704048Y-8927714D01*
X7704048Y-8927714D02*
X7723096Y-8918190D01*
X7723096Y-8918190D02*
X7751667Y-8918190D01*
X7751667Y-8918190D02*
X7770715Y-8927714D01*
X7846905Y-9127714D02*
X7856429Y-9118190D01*
X7856429Y-9118190D02*
X7875477Y-9089619D01*
X7875477Y-9089619D02*
X7885000Y-9070571D01*
X7885000Y-9070571D02*
X7894524Y-9042000D01*
X7894524Y-9042000D02*
X7904048Y-8994381D01*
X7904048Y-8994381D02*
X7904048Y-8956286D01*
X7904048Y-8956286D02*
X7894524Y-8908667D01*
X7894524Y-8908667D02*
X7885000Y-8880095D01*
X7885000Y-8880095D02*
X7875477Y-8861048D01*
X7875477Y-8861048D02*
X7856429Y-8832476D01*
X7856429Y-8832476D02*
X7846905Y-8822952D01*
X8208810Y-9127714D02*
X8199286Y-9118190D01*
X8199286Y-9118190D02*
X8180238Y-9089619D01*
X8180238Y-9089619D02*
X8170715Y-9070571D01*
X8170715Y-9070571D02*
X8161191Y-9042000D01*
X8161191Y-9042000D02*
X8151667Y-8994381D01*
X8151667Y-8994381D02*
X8151667Y-8956286D01*
X8151667Y-8956286D02*
X8161191Y-8908667D01*
X8161191Y-8908667D02*
X8170715Y-8880095D01*
X8170715Y-8880095D02*
X8180238Y-8861048D01*
X8180238Y-8861048D02*
X8199286Y-8832476D01*
X8199286Y-8832476D02*
X8208810Y-8822952D01*
X8285000Y-8918190D02*
X8285000Y-9051524D01*
X8285000Y-8937238D02*
X8294524Y-8927714D01*
X8294524Y-8927714D02*
X8313572Y-8918190D01*
X8313572Y-8918190D02*
X8342143Y-8918190D01*
X8342143Y-8918190D02*
X8361191Y-8927714D01*
X8361191Y-8927714D02*
X8370715Y-8946762D01*
X8370715Y-8946762D02*
X8370715Y-9051524D01*
X8494524Y-9051524D02*
X8475477Y-9042000D01*
X8475477Y-9042000D02*
X8465953Y-9032476D01*
X8465953Y-9032476D02*
X8456429Y-9013429D01*
X8456429Y-9013429D02*
X8456429Y-8956286D01*
X8456429Y-8956286D02*
X8465953Y-8937238D01*
X8465953Y-8937238D02*
X8475477Y-8927714D01*
X8475477Y-8927714D02*
X8494524Y-8918190D01*
X8494524Y-8918190D02*
X8523096Y-8918190D01*
X8523096Y-8918190D02*
X8542143Y-8927714D01*
X8542143Y-8927714D02*
X8551667Y-8937238D01*
X8551667Y-8937238D02*
X8561191Y-8956286D01*
X8561191Y-8956286D02*
X8561191Y-9013429D01*
X8561191Y-9013429D02*
X8551667Y-9032476D01*
X8551667Y-9032476D02*
X8542143Y-9042000D01*
X8542143Y-9042000D02*
X8523096Y-9051524D01*
X8523096Y-9051524D02*
X8494524Y-9051524D01*
X8618334Y-8918190D02*
X8694524Y-8918190D01*
X8646905Y-8851524D02*
X8646905Y-9022952D01*
X8646905Y-9022952D02*
X8656429Y-9042000D01*
X8656429Y-9042000D02*
X8675477Y-9051524D01*
X8675477Y-9051524D02*
X8694524Y-9051524D01*
X8913572Y-8918190D02*
X8913572Y-9118190D01*
X8913572Y-8927714D02*
X8932620Y-8918190D01*
X8932620Y-8918190D02*
X8970715Y-8918190D01*
X8970715Y-8918190D02*
X8989762Y-8927714D01*
X8989762Y-8927714D02*
X8999286Y-8937238D01*
X8999286Y-8937238D02*
X9008810Y-8956286D01*
X9008810Y-8956286D02*
X9008810Y-9013429D01*
X9008810Y-9013429D02*
X8999286Y-9032476D01*
X8999286Y-9032476D02*
X8989762Y-9042000D01*
X8989762Y-9042000D02*
X8970715Y-9051524D01*
X8970715Y-9051524D02*
X8932620Y-9051524D01*
X8932620Y-9051524D02*
X8913572Y-9042000D01*
X9123096Y-9051524D02*
X9104048Y-9042000D01*
X9104048Y-9042000D02*
X9094524Y-9022952D01*
X9094524Y-9022952D02*
X9094524Y-8851524D01*
X9285001Y-9051524D02*
X9285001Y-8946762D01*
X9285001Y-8946762D02*
X9275477Y-8927714D01*
X9275477Y-8927714D02*
X9256429Y-8918190D01*
X9256429Y-8918190D02*
X9218334Y-8918190D01*
X9218334Y-8918190D02*
X9199286Y-8927714D01*
X9285001Y-9042000D02*
X9265953Y-9051524D01*
X9265953Y-9051524D02*
X9218334Y-9051524D01*
X9218334Y-9051524D02*
X9199286Y-9042000D01*
X9199286Y-9042000D02*
X9189762Y-9022952D01*
X9189762Y-9022952D02*
X9189762Y-9003905D01*
X9189762Y-9003905D02*
X9199286Y-8984857D01*
X9199286Y-8984857D02*
X9218334Y-8975333D01*
X9218334Y-8975333D02*
X9265953Y-8975333D01*
X9265953Y-8975333D02*
X9285001Y-8965810D01*
X9351667Y-8918190D02*
X9427858Y-8918190D01*
X9380239Y-8851524D02*
X9380239Y-9022952D01*
X9380239Y-9022952D02*
X9389762Y-9042000D01*
X9389762Y-9042000D02*
X9408810Y-9051524D01*
X9408810Y-9051524D02*
X9427858Y-9051524D01*
X9570715Y-9042000D02*
X9551667Y-9051524D01*
X9551667Y-9051524D02*
X9513572Y-9051524D01*
X9513572Y-9051524D02*
X9494524Y-9042000D01*
X9494524Y-9042000D02*
X9485001Y-9022952D01*
X9485001Y-9022952D02*
X9485001Y-8946762D01*
X9485001Y-8946762D02*
X9494524Y-8927714D01*
X9494524Y-8927714D02*
X9513572Y-8918190D01*
X9513572Y-8918190D02*
X9551667Y-8918190D01*
X9551667Y-8918190D02*
X9570715Y-8927714D01*
X9570715Y-8927714D02*
X9580239Y-8946762D01*
X9580239Y-8946762D02*
X9580239Y-8965810D01*
X9580239Y-8965810D02*
X9485001Y-8984857D01*
X9751667Y-9051524D02*
X9751667Y-8851524D01*
X9751667Y-9042000D02*
X9732620Y-9051524D01*
X9732620Y-9051524D02*
X9694524Y-9051524D01*
X9694524Y-9051524D02*
X9675477Y-9042000D01*
X9675477Y-9042000D02*
X9665953Y-9032476D01*
X9665953Y-9032476D02*
X9656429Y-9013429D01*
X9656429Y-9013429D02*
X9656429Y-8956286D01*
X9656429Y-8956286D02*
X9665953Y-8937238D01*
X9665953Y-8937238D02*
X9675477Y-8927714D01*
X9675477Y-8927714D02*
X9694524Y-8918190D01*
X9694524Y-8918190D02*
X9732620Y-8918190D01*
X9732620Y-8918190D02*
X9751667Y-8927714D01*
X9827858Y-9127714D02*
X9837382Y-9118190D01*
X9837382Y-9118190D02*
X9856429Y-9089619D01*
X9856429Y-9089619D02*
X9865953Y-9070571D01*
X9865953Y-9070571D02*
X9875477Y-9042000D01*
X9875477Y-9042000D02*
X9885001Y-8994381D01*
X9885001Y-8994381D02*
X9885001Y-8956286D01*
X9885001Y-8956286D02*
X9875477Y-8908667D01*
X9875477Y-8908667D02*
X9865953Y-8880095D01*
X9865953Y-8880095D02*
X9856429Y-8861048D01*
X9856429Y-8861048D02*
X9837382Y-8832476D01*
X9837382Y-8832476D02*
X9827858Y-8822952D01*
M02*
