%TF.GenerationSoftware,KiCad,Pcbnew,7.0.1-3b83917a11~172~ubuntu22.10.1*%
%TF.CreationDate,2023-04-03T16:10:19+02:00*%
%TF.ProjectId,Model-M-RP2040-USB,4d6f6465-6c2d-44d2-9d52-50323034302d,rev?*%
%TF.SameCoordinates,Original*%
%TF.FileFunction,Copper,L2,Bot*%
%TF.FilePolarity,Positive*%
%FSLAX46Y46*%
G04 Gerber Fmt 4.6, Leading zero omitted, Abs format (unit mm)*
G04 Created by KiCad (PCBNEW 7.0.1-3b83917a11~172~ubuntu22.10.1) date 2023-04-03 16:10:19*
%MOMM*%
%LPD*%
G01*
G04 APERTURE LIST*
G04 Aperture macros list*
%AMRoundRect*
0 Rectangle with rounded corners*
0 $1 Rounding radius*
0 $2 $3 $4 $5 $6 $7 $8 $9 X,Y pos of 4 corners*
0 Add a 4 corners polygon primitive as box body*
4,1,4,$2,$3,$4,$5,$6,$7,$8,$9,$2,$3,0*
0 Add four circle primitives for the rounded corners*
1,1,$1+$1,$2,$3*
1,1,$1+$1,$4,$5*
1,1,$1+$1,$6,$7*
1,1,$1+$1,$8,$9*
0 Add four rect primitives between the rounded corners*
20,1,$1+$1,$2,$3,$4,$5,0*
20,1,$1+$1,$4,$5,$6,$7,0*
20,1,$1+$1,$6,$7,$8,$9,0*
20,1,$1+$1,$8,$9,$2,$3,0*%
%AMFreePoly0*
4,1,58,0.281242,0.792533,0.314585,0.788777,0.324216,0.782725,0.335306,0.780194,0.361541,0.759271,0.389950,0.741421,0.741421,0.389950,0.759271,0.361541,0.780194,0.335306,0.782725,0.324216,0.788777,0.314585,0.792533,0.281242,0.800000,0.248529,0.800000,-0.248529,0.792533,-0.281242,0.788777,-0.314585,0.782725,-0.324216,0.780194,-0.335306,0.759271,-0.361541,0.741421,-0.389950,
0.389950,-0.741421,0.361541,-0.759271,0.335306,-0.780194,0.324216,-0.782725,0.314585,-0.788777,0.281242,-0.792533,0.248529,-0.800000,0.000000,-0.800000,-0.248529,-0.800000,-0.281242,-0.792533,-0.314585,-0.788777,-0.324216,-0.782725,-0.335306,-0.780194,-0.361541,-0.759271,-0.389950,-0.741421,-0.741421,-0.389950,-0.759271,-0.361541,-0.780194,-0.335306,-0.782725,-0.324216,-0.788777,-0.314585,
-0.792533,-0.281242,-0.800000,-0.248529,-0.800000,0.248529,-0.792533,0.281242,-0.788777,0.314585,-0.782725,0.324216,-0.780194,0.335306,-0.759271,0.361541,-0.741421,0.389950,-0.389950,0.741421,-0.361541,0.759271,-0.335306,0.780194,-0.324216,0.782725,-0.314585,0.788777,-0.281242,0.792533,-0.248529,0.800000,0.248529,0.800000,0.281242,0.792533,0.281242,0.792533,$1*%
G04 Aperture macros list end*
%TA.AperFunction,ComponentPad*%
%ADD10O,1.000000X2.100000*%
%TD*%
%TA.AperFunction,ComponentPad*%
%ADD11O,1.000000X1.600000*%
%TD*%
%TA.AperFunction,ComponentPad*%
%ADD12FreePoly0,90.000000*%
%TD*%
%TA.AperFunction,ComponentPad*%
%ADD13C,1.600000*%
%TD*%
%TA.AperFunction,ComponentPad*%
%ADD14RoundRect,0.200000X0.600000X-0.600000X0.600000X0.600000X-0.600000X0.600000X-0.600000X-0.600000X0*%
%TD*%
%TA.AperFunction,TestPad*%
%ADD15RoundRect,0.300000X0.450000X-0.450000X0.450000X0.450000X-0.450000X0.450000X-0.450000X-0.450000X0*%
%TD*%
%TA.AperFunction,ComponentPad*%
%ADD16C,1.500000*%
%TD*%
%TA.AperFunction,ComponentPad*%
%ADD17R,1.700000X1.700000*%
%TD*%
%TA.AperFunction,ComponentPad*%
%ADD18O,1.700000X1.700000*%
%TD*%
%TA.AperFunction,ViaPad*%
%ADD19C,0.500000*%
%TD*%
%TA.AperFunction,Conductor*%
%ADD20C,0.304800*%
%TD*%
%TA.AperFunction,Conductor*%
%ADD21C,0.203200*%
%TD*%
G04 APERTURE END LIST*
D10*
X63230101Y-35980000D03*
D11*
X63230101Y-31800000D03*
D10*
X54590101Y-35980000D03*
D11*
X54590101Y-31800000D03*
D12*
X119800000Y-62885000D03*
D13*
X122340000Y-62885000D03*
D14*
X124880000Y-62885000D03*
D13*
X127420000Y-62885000D03*
X129960000Y-62885000D03*
X132500000Y-62885000D03*
X135040000Y-62885000D03*
D14*
X137580000Y-62885000D03*
D13*
X140120000Y-62885000D03*
X142660000Y-62885000D03*
X145200000Y-62885000D03*
X147740000Y-62885000D03*
D14*
X150280000Y-62885000D03*
D13*
X152820000Y-62885000D03*
X155360000Y-62885000D03*
X157900000Y-62885000D03*
X160440000Y-62885000D03*
D14*
X162980000Y-62885000D03*
D13*
X165520000Y-62885000D03*
X168060000Y-62885000D03*
X168060000Y-45105000D03*
X165520000Y-45105000D03*
D14*
X162980000Y-45105000D03*
D13*
X160440000Y-45105000D03*
X157900000Y-45105000D03*
X155360000Y-45105000D03*
X152820000Y-45105000D03*
D14*
X150280000Y-45105000D03*
D13*
X147740000Y-45105000D03*
X145200000Y-45105000D03*
X142660000Y-45105000D03*
X140120000Y-45105000D03*
D14*
X137580000Y-45105000D03*
D13*
X135040000Y-45105000D03*
X132500000Y-45105000D03*
X129960000Y-45105000D03*
X127420000Y-45105000D03*
D14*
X124880000Y-45105000D03*
D13*
X122340000Y-45105000D03*
X119800000Y-45105000D03*
D12*
X167830000Y-56535000D03*
D14*
X167830000Y-53995000D03*
D13*
X167830000Y-51455000D03*
D15*
X122930000Y-53995000D03*
X119630000Y-52995000D03*
X119630000Y-54995000D03*
D16*
X50900000Y-33475000D03*
X47900000Y-33475000D03*
X49400000Y-31625000D03*
D17*
X83800000Y-34500000D03*
D18*
X86340000Y-34500000D03*
X88880000Y-34500000D03*
X91420000Y-34500000D03*
X93960000Y-34500000D03*
X96500000Y-34500000D03*
X99040000Y-34500000D03*
X101580000Y-34500000D03*
X104120000Y-34500000D03*
X106660000Y-34500000D03*
X109200000Y-34500000D03*
X111740000Y-34500000D03*
X114280000Y-34500000D03*
X116820000Y-34500000D03*
X119360000Y-34500000D03*
X121900000Y-34500000D03*
D17*
X140200000Y-37100000D03*
D18*
X142740000Y-37100000D03*
X145280000Y-37100000D03*
X147820000Y-37100000D03*
X150360000Y-37100000D03*
X152900000Y-37100000D03*
X155440000Y-37100000D03*
X157980000Y-37100000D03*
X160520000Y-37100000D03*
X163060000Y-37100000D03*
X165600000Y-37100000D03*
X168140000Y-37100000D03*
D17*
X174900000Y-37500000D03*
D18*
X174900000Y-40040000D03*
X174900000Y-42580000D03*
X174900000Y-45120000D03*
D19*
X97194000Y-47518000D03*
X122975000Y-52217000D03*
X122975000Y-55773000D03*
X124626000Y-53995000D03*
X124880000Y-66441000D03*
X124880000Y-60980000D03*
X137580000Y-66568000D03*
X137580000Y-60980000D03*
X150280000Y-66568000D03*
X150280000Y-60980000D03*
X162980000Y-66568000D03*
X162980000Y-60980000D03*
X162980000Y-41676000D03*
X162980000Y-47137000D03*
X150280000Y-41803000D03*
X150280000Y-47010000D03*
X124880000Y-41930000D03*
X124880000Y-46883000D03*
X82970000Y-47518000D03*
X91860000Y-47518000D03*
X54522000Y-42565000D03*
X63158000Y-42565000D03*
X80684000Y-41549000D03*
X91860000Y-42692000D03*
X100750000Y-40406000D03*
X100750000Y-45486000D03*
X99988000Y-44089000D03*
X58840000Y-40152000D03*
X58840000Y-44470000D03*
X82970000Y-42692000D03*
X84240000Y-42692000D03*
X85510000Y-42692000D03*
X86780000Y-42692000D03*
X88050000Y-42692000D03*
X89320000Y-42692000D03*
X90590000Y-42692000D03*
X60137801Y-39168000D03*
X63141101Y-39168000D03*
X57045101Y-39168000D03*
X54505101Y-39168000D03*
X103036000Y-38869000D03*
X81827000Y-38869000D03*
X96686000Y-45359000D03*
X105449001Y-37969326D03*
X104179000Y-42819000D03*
X105449000Y-42819000D03*
X106719000Y-42819000D03*
X93257000Y-40660000D03*
X93257000Y-42692000D03*
X117895000Y-46248000D03*
X119228500Y-47581500D03*
X108624000Y-40660000D03*
X107354000Y-41976300D03*
X107989000Y-42819000D03*
X109259000Y-42819000D03*
X110529000Y-42819000D03*
X111799000Y-42819000D03*
D20*
X174900000Y-42580000D02*
X168583000Y-42580000D01*
X168583000Y-42580000D02*
X162980000Y-36977000D01*
X116752000Y-45105000D02*
X115228499Y-46628501D01*
X60998501Y-46628501D02*
X58840000Y-44470000D01*
X119800000Y-45105000D02*
X116752000Y-45105000D01*
X115228499Y-46628501D02*
X60998501Y-46628501D01*
D21*
X86340000Y-34500000D02*
X86340000Y-39322000D01*
X86340000Y-39322000D02*
X82970000Y-42692000D01*
X88880000Y-34500000D02*
X88880000Y-38052000D01*
X88880000Y-38052000D02*
X84240000Y-42692000D01*
X91420000Y-36782000D02*
X85510000Y-42692000D01*
X91420000Y-34500000D02*
X91420000Y-36782000D01*
X93960000Y-35512000D02*
X86780000Y-42692000D01*
X93960000Y-34500000D02*
X93960000Y-35512000D01*
X96242000Y-34500000D02*
X88050000Y-42692000D01*
X99040000Y-34500000D02*
X93896000Y-39644000D01*
X92368000Y-39644000D02*
X89320000Y-42692000D01*
X93896000Y-39644000D02*
X92368000Y-39644000D01*
X90590000Y-42543101D02*
X90590000Y-42692000D01*
X93027401Y-40105700D02*
X90590000Y-42543101D01*
X101580000Y-34500000D02*
X95974300Y-40105700D01*
X95974300Y-40105700D02*
X93027401Y-40105700D01*
X63141101Y-39168000D02*
X60137801Y-39168000D01*
X57045101Y-39168000D02*
X54505101Y-39168000D01*
D20*
X81827000Y-45867000D02*
X81827000Y-38869000D01*
X82081000Y-46121000D02*
X81827000Y-45867000D01*
X96686000Y-46121000D02*
X82081000Y-46121000D01*
X96686000Y-46121000D02*
X96686000Y-45359000D01*
X103036000Y-46121000D02*
X103036000Y-38869000D01*
X117189886Y-43949400D02*
X115018286Y-46121000D01*
X128804400Y-43949400D02*
X117189886Y-43949400D01*
X129960000Y-45105000D02*
X128804400Y-43949400D01*
X115018286Y-46121000D02*
X103036000Y-46121000D01*
X103036000Y-46121000D02*
X96686000Y-46121000D01*
D21*
X104052000Y-34564000D02*
X105449001Y-35961001D01*
X105449001Y-35961001D02*
X105449001Y-37969326D01*
X106719000Y-40146940D02*
X104179000Y-42686940D01*
X104179000Y-42686940D02*
X104179000Y-42819000D01*
X106719000Y-34437000D02*
X106719000Y-40146940D01*
X105449000Y-41990970D02*
X109259000Y-38180970D01*
X109259000Y-38180970D02*
X109259000Y-34437000D01*
X105449000Y-42819000D02*
X105449000Y-41990970D01*
X111799000Y-36215000D02*
X111799000Y-34437000D01*
X106719000Y-42819000D02*
X106719000Y-41295000D01*
X106719000Y-41295000D02*
X111799000Y-36215000D01*
X93257000Y-42692000D02*
X93257000Y-40660000D01*
X117895000Y-46248000D02*
X119228500Y-47581500D01*
X51855000Y-48280000D02*
X47900000Y-44325000D01*
X47900000Y-44325000D02*
X47900000Y-33475000D01*
X145200000Y-45105000D02*
X142025000Y-48280000D01*
X142025000Y-48280000D02*
X51855000Y-48280000D01*
X108624000Y-40660000D02*
X107354000Y-41930000D01*
X107354000Y-41930000D02*
X107354000Y-41976300D01*
X114280000Y-36972500D02*
X108433500Y-42819000D01*
X114280000Y-34500000D02*
X114280000Y-36972500D01*
X108433500Y-42819000D02*
X107989000Y-42819000D01*
X116820000Y-35258000D02*
X109259000Y-42819000D01*
X116820000Y-34500000D02*
X116820000Y-35258000D01*
X118848000Y-34500000D02*
X110529000Y-42819000D01*
X120185000Y-36215000D02*
X118403000Y-36215000D01*
X121900000Y-34500000D02*
X120185000Y-36215000D01*
X118403000Y-36215000D02*
X111799000Y-42819000D01*
%TA.AperFunction,Conductor*%
G36*
X48842975Y-30517521D02*
G01*
X48888463Y-30563911D01*
X48904249Y-30626935D01*
X48886000Y-30689290D01*
X48838726Y-30733858D01*
X48813551Y-30747314D01*
X48653589Y-30878589D01*
X48522314Y-31038551D01*
X48424769Y-31221043D01*
X48364699Y-31419067D01*
X48344417Y-31625000D01*
X48364699Y-31830932D01*
X48364700Y-31830934D01*
X48424768Y-32028954D01*
X48522315Y-32211450D01*
X48545160Y-32239287D01*
X48653589Y-32371410D01*
X48674208Y-32388331D01*
X48813550Y-32502685D01*
X48996046Y-32600232D01*
X49194066Y-32660300D01*
X49400000Y-32680583D01*
X49605934Y-32660300D01*
X49692401Y-32634070D01*
X49753114Y-32631221D01*
X49807891Y-32657568D01*
X49843565Y-32706782D01*
X49851565Y-32767037D01*
X49829969Y-32823854D01*
X49813333Y-32847612D01*
X49720897Y-33045840D01*
X49664287Y-33257113D01*
X49645224Y-33474999D01*
X49664287Y-33692886D01*
X49720898Y-33904161D01*
X49813331Y-34102386D01*
X49856873Y-34164571D01*
X49856874Y-34164572D01*
X50546446Y-33475000D01*
X51253553Y-33475000D01*
X51943124Y-34164572D01*
X51986667Y-34102385D01*
X52079102Y-33904159D01*
X52135712Y-33692886D01*
X52154775Y-33474999D01*
X52135712Y-33257113D01*
X52079102Y-33045840D01*
X51986667Y-32847615D01*
X51943123Y-32785428D01*
X51253553Y-33475000D01*
X50546446Y-33475000D01*
X51589572Y-32431874D01*
X51589571Y-32431873D01*
X51527386Y-32388331D01*
X51329161Y-32295898D01*
X51117886Y-32239287D01*
X50900000Y-32220224D01*
X50682111Y-32239287D01*
X50468999Y-32296390D01*
X50411919Y-32298071D01*
X50360138Y-32273994D01*
X50324638Y-32229264D01*
X50312949Y-32173368D01*
X50327546Y-32118166D01*
X50363982Y-32050000D01*
X53590101Y-32050000D01*
X53590101Y-32150710D01*
X53605520Y-32302339D01*
X53666404Y-32496389D01*
X53765104Y-32674214D01*
X53897580Y-32828531D01*
X54058408Y-32953021D01*
X54241006Y-33042589D01*
X54340100Y-33068246D01*
X54340101Y-33068247D01*
X54340101Y-32050000D01*
X54840101Y-32050000D01*
X54840101Y-33073366D01*
X54842049Y-33073067D01*
X55032764Y-33002435D01*
X55205364Y-32894854D01*
X55352770Y-32754733D01*
X55468956Y-32587805D01*
X55549160Y-32400907D01*
X55590101Y-32201689D01*
X55590101Y-32050000D01*
X62230101Y-32050000D01*
X62230101Y-32150710D01*
X62245520Y-32302339D01*
X62306404Y-32496389D01*
X62405104Y-32674214D01*
X62537580Y-32828531D01*
X62698408Y-32953021D01*
X62881006Y-33042589D01*
X62980100Y-33068246D01*
X62980101Y-33068247D01*
X62980101Y-32050000D01*
X63480101Y-32050000D01*
X63480101Y-33073366D01*
X63482049Y-33073067D01*
X63672764Y-33002435D01*
X63845364Y-32894854D01*
X63992770Y-32754733D01*
X64108956Y-32587805D01*
X64189160Y-32400907D01*
X64230101Y-32201689D01*
X64230101Y-32050000D01*
X63480101Y-32050000D01*
X62980101Y-32050000D01*
X62230101Y-32050000D01*
X55590101Y-32050000D01*
X54840101Y-32050000D01*
X54340101Y-32050000D01*
X53590101Y-32050000D01*
X50363982Y-32050000D01*
X50375232Y-32028954D01*
X50435300Y-31830934D01*
X50455583Y-31625000D01*
X50435300Y-31419066D01*
X50375232Y-31221046D01*
X50277685Y-31038550D01*
X50185142Y-30925785D01*
X50146410Y-30878589D01*
X50048952Y-30798608D01*
X49986450Y-30747315D01*
X49961274Y-30733858D01*
X49914000Y-30689290D01*
X49895751Y-30626935D01*
X49911537Y-30563911D01*
X49957025Y-30517521D01*
X50019727Y-30500500D01*
X53879697Y-30500500D01*
X53936551Y-30514302D01*
X53980748Y-30552635D01*
X54002451Y-30606966D01*
X53996827Y-30665200D01*
X53965129Y-30714374D01*
X53827431Y-30845266D01*
X53711245Y-31012194D01*
X53631041Y-31199092D01*
X53590101Y-31398311D01*
X53590101Y-31550000D01*
X55590101Y-31550000D01*
X55590101Y-31449290D01*
X55574681Y-31297660D01*
X55513797Y-31103610D01*
X55415097Y-30925785D01*
X55282621Y-30771468D01*
X55219432Y-30722556D01*
X55181884Y-30674552D01*
X55171740Y-30614458D01*
X55191452Y-30556789D01*
X55236257Y-30515477D01*
X55295333Y-30500500D01*
X62519697Y-30500500D01*
X62576551Y-30514302D01*
X62620748Y-30552635D01*
X62642451Y-30606966D01*
X62636827Y-30665200D01*
X62605129Y-30714374D01*
X62467431Y-30845266D01*
X62351245Y-31012194D01*
X62271041Y-31199092D01*
X62230101Y-31398311D01*
X62230101Y-31550000D01*
X64230101Y-31550000D01*
X64230101Y-31449290D01*
X64214681Y-31297660D01*
X64153797Y-31103610D01*
X64055097Y-30925785D01*
X63922621Y-30771468D01*
X63859432Y-30722556D01*
X63821884Y-30674552D01*
X63811740Y-30614458D01*
X63831452Y-30556789D01*
X63876257Y-30515477D01*
X63935333Y-30500500D01*
X180636000Y-30500500D01*
X180698000Y-30517113D01*
X180743387Y-30562500D01*
X180760000Y-30624500D01*
X180760000Y-67841000D01*
X180743387Y-67903000D01*
X180698000Y-67948387D01*
X180636000Y-67965000D01*
X31024500Y-67965000D01*
X30962500Y-67948387D01*
X30917113Y-67903000D01*
X30900500Y-67841000D01*
X30900500Y-62919269D01*
X118691155Y-62919269D01*
X118692363Y-63144787D01*
X118696217Y-63178984D01*
X118696217Y-63178986D01*
X118702585Y-63235506D01*
X118717818Y-63302252D01*
X118739741Y-63355177D01*
X118776163Y-63413141D01*
X118776165Y-63413143D01*
X118833080Y-63484513D01*
X118881495Y-63532929D01*
X119152071Y-63803505D01*
X119200487Y-63851920D01*
X119254014Y-63894606D01*
X119271858Y-63908836D01*
X119329822Y-63945258D01*
X119382747Y-63967181D01*
X119449493Y-63982414D01*
X119463848Y-63984031D01*
X119506015Y-63988783D01*
X119540211Y-63992636D01*
X119545581Y-63992664D01*
X119765731Y-63993845D01*
X119765772Y-63993845D01*
X119834228Y-63993845D01*
X119834269Y-63993845D01*
X120049297Y-63992692D01*
X120059789Y-63992636D01*
X120093985Y-63988783D01*
X120143328Y-63983222D01*
X120150506Y-63982414D01*
X120217252Y-63967181D01*
X120217253Y-63967180D01*
X120217255Y-63967180D01*
X120270176Y-63945259D01*
X120328143Y-63908835D01*
X120399513Y-63851920D01*
X120447929Y-63803505D01*
X120718505Y-63532929D01*
X120766920Y-63484513D01*
X120823835Y-63413143D01*
X120860259Y-63355176D01*
X120882180Y-63302255D01*
X120885732Y-63286694D01*
X120897414Y-63235506D01*
X120903783Y-63178986D01*
X120903783Y-63178984D01*
X120907636Y-63144787D01*
X120908845Y-62919269D01*
X120908845Y-62884999D01*
X121234785Y-62884999D01*
X121253602Y-63088083D01*
X121309418Y-63284251D01*
X121400324Y-63466818D01*
X121523236Y-63629580D01*
X121673958Y-63766981D01*
X121811140Y-63851920D01*
X121847363Y-63874348D01*
X122037544Y-63948024D01*
X122238024Y-63985500D01*
X122441974Y-63985500D01*
X122441976Y-63985500D01*
X122642456Y-63948024D01*
X122832637Y-63874348D01*
X123006041Y-63766981D01*
X123156764Y-63629579D01*
X123279673Y-63466821D01*
X123345002Y-63335621D01*
X123388784Y-63286694D01*
X123451417Y-63266981D01*
X123515335Y-63282013D01*
X123562615Y-63327577D01*
X123580000Y-63390895D01*
X123580000Y-63541578D01*
X123586408Y-63612104D01*
X123636981Y-63774397D01*
X123724925Y-63919875D01*
X123845124Y-64040074D01*
X123990603Y-64128019D01*
X124152893Y-64178590D01*
X124223424Y-64185000D01*
X124630000Y-64185000D01*
X124630000Y-61585001D01*
X124223421Y-61585001D01*
X124152895Y-61591408D01*
X123990602Y-61641981D01*
X123845124Y-61729925D01*
X123724925Y-61850124D01*
X123636980Y-61995603D01*
X123586409Y-62157893D01*
X123580000Y-62228424D01*
X123580000Y-62379101D01*
X123562615Y-62442419D01*
X123515335Y-62487983D01*
X123451418Y-62503016D01*
X123388785Y-62483304D01*
X123345000Y-62434372D01*
X123279675Y-62303181D01*
X123156763Y-62140419D01*
X123006041Y-62003018D01*
X122832638Y-61895652D01*
X122642457Y-61821976D01*
X122564021Y-61807314D01*
X122441976Y-61784500D01*
X122238024Y-61784500D01*
X122140031Y-61802818D01*
X122037542Y-61821976D01*
X121847361Y-61895652D01*
X121673958Y-62003018D01*
X121523236Y-62140419D01*
X121400324Y-62303181D01*
X121309418Y-62485748D01*
X121253602Y-62681916D01*
X121234785Y-62884999D01*
X120908845Y-62884999D01*
X120908845Y-62850731D01*
X120907636Y-62625212D01*
X120903783Y-62591016D01*
X120903783Y-62591014D01*
X120897414Y-62534493D01*
X120882181Y-62467747D01*
X120860258Y-62414822D01*
X120823836Y-62356858D01*
X120781030Y-62303181D01*
X120766920Y-62285487D01*
X120718505Y-62237071D01*
X120447929Y-61966495D01*
X120399513Y-61918080D01*
X120363827Y-61889622D01*
X120328141Y-61861163D01*
X120270177Y-61824741D01*
X120217252Y-61802818D01*
X120150506Y-61787585D01*
X120093987Y-61781217D01*
X120093985Y-61781217D01*
X120089641Y-61780727D01*
X120059787Y-61777363D01*
X119834269Y-61776155D01*
X119834228Y-61776155D01*
X119765772Y-61776155D01*
X119765731Y-61776155D01*
X119540212Y-61777363D01*
X119509868Y-61780782D01*
X119506015Y-61781217D01*
X119506012Y-61781217D01*
X119449493Y-61787585D01*
X119382747Y-61802818D01*
X119329822Y-61824741D01*
X119271858Y-61861163D01*
X119200484Y-61918082D01*
X118833082Y-62285484D01*
X118776163Y-62356858D01*
X118739741Y-62414822D01*
X118717818Y-62467747D01*
X118702585Y-62534493D01*
X118696217Y-62591014D01*
X118696217Y-62591016D01*
X118692363Y-62625212D01*
X118691155Y-62850731D01*
X118691155Y-62919269D01*
X30900500Y-62919269D01*
X30900500Y-61585000D01*
X125130000Y-61585000D01*
X125130000Y-64184999D01*
X125536579Y-64184999D01*
X125607104Y-64178591D01*
X125769397Y-64128018D01*
X125914875Y-64040074D01*
X126035074Y-63919875D01*
X126123019Y-63774396D01*
X126173590Y-63612106D01*
X126179999Y-63541576D01*
X126179999Y-63390899D01*
X126197383Y-63327580D01*
X126244663Y-63282016D01*
X126308581Y-63266983D01*
X126371213Y-63286695D01*
X126414999Y-63335626D01*
X126480326Y-63466820D01*
X126603236Y-63629580D01*
X126753958Y-63766981D01*
X126891140Y-63851920D01*
X126927363Y-63874348D01*
X127117544Y-63948024D01*
X127318024Y-63985500D01*
X127521974Y-63985500D01*
X127521976Y-63985500D01*
X127722456Y-63948024D01*
X127912637Y-63874348D01*
X128086041Y-63766981D01*
X128236764Y-63629579D01*
X128359673Y-63466821D01*
X128359673Y-63466819D01*
X128359675Y-63466818D01*
X128429008Y-63327577D01*
X128450582Y-63284250D01*
X128506397Y-63088083D01*
X128525215Y-62885000D01*
X128525215Y-62884999D01*
X128854785Y-62884999D01*
X128873602Y-63088083D01*
X128929418Y-63284251D01*
X129020324Y-63466818D01*
X129143236Y-63629580D01*
X129293958Y-63766981D01*
X129431140Y-63851920D01*
X129467363Y-63874348D01*
X129657544Y-63948024D01*
X129858024Y-63985500D01*
X130061974Y-63985500D01*
X130061976Y-63985500D01*
X130262456Y-63948024D01*
X130452637Y-63874348D01*
X130626041Y-63766981D01*
X130776764Y-63629579D01*
X130899673Y-63466821D01*
X130899673Y-63466819D01*
X130899675Y-63466818D01*
X130969008Y-63327577D01*
X130990582Y-63284250D01*
X131046397Y-63088083D01*
X131065215Y-62885000D01*
X131065215Y-62884999D01*
X131394785Y-62884999D01*
X131413602Y-63088083D01*
X131469418Y-63284251D01*
X131560324Y-63466818D01*
X131683236Y-63629580D01*
X131833958Y-63766981D01*
X131971140Y-63851920D01*
X132007363Y-63874348D01*
X132197544Y-63948024D01*
X132398024Y-63985500D01*
X132601974Y-63985500D01*
X132601976Y-63985500D01*
X132802456Y-63948024D01*
X132992637Y-63874348D01*
X133166041Y-63766981D01*
X133316764Y-63629579D01*
X133439673Y-63466821D01*
X133439673Y-63466819D01*
X133439675Y-63466818D01*
X133509008Y-63327577D01*
X133530582Y-63284250D01*
X133586397Y-63088083D01*
X133605215Y-62885000D01*
X133605215Y-62884999D01*
X133934785Y-62884999D01*
X133953602Y-63088083D01*
X134009418Y-63284251D01*
X134100324Y-63466818D01*
X134223236Y-63629580D01*
X134373958Y-63766981D01*
X134511140Y-63851920D01*
X134547363Y-63874348D01*
X134737544Y-63948024D01*
X134938024Y-63985500D01*
X135141974Y-63985500D01*
X135141976Y-63985500D01*
X135342456Y-63948024D01*
X135532637Y-63874348D01*
X135706041Y-63766981D01*
X135856764Y-63629579D01*
X135979673Y-63466821D01*
X136045002Y-63335621D01*
X136088784Y-63286694D01*
X136151417Y-63266981D01*
X136215335Y-63282013D01*
X136262615Y-63327577D01*
X136280000Y-63390895D01*
X136280000Y-63541578D01*
X136286408Y-63612104D01*
X136336981Y-63774397D01*
X136424925Y-63919875D01*
X136545124Y-64040074D01*
X136690603Y-64128019D01*
X136852893Y-64178590D01*
X136923424Y-64185000D01*
X137330000Y-64185000D01*
X137330000Y-61585001D01*
X136923421Y-61585001D01*
X136852895Y-61591408D01*
X136690602Y-61641981D01*
X136545124Y-61729925D01*
X136424925Y-61850124D01*
X136336980Y-61995603D01*
X136286409Y-62157893D01*
X136280000Y-62228424D01*
X136280000Y-62379101D01*
X136262615Y-62442419D01*
X136215335Y-62487983D01*
X136151418Y-62503016D01*
X136088785Y-62483304D01*
X136045000Y-62434372D01*
X135979675Y-62303181D01*
X135856763Y-62140419D01*
X135706041Y-62003018D01*
X135532638Y-61895652D01*
X135342457Y-61821976D01*
X135264021Y-61807314D01*
X135141976Y-61784500D01*
X134938024Y-61784500D01*
X134840031Y-61802818D01*
X134737542Y-61821976D01*
X134547361Y-61895652D01*
X134373958Y-62003018D01*
X134223236Y-62140419D01*
X134100324Y-62303181D01*
X134009418Y-62485748D01*
X133953602Y-62681916D01*
X133934785Y-62884999D01*
X133605215Y-62884999D01*
X133586397Y-62681917D01*
X133530582Y-62485750D01*
X133504999Y-62434372D01*
X133439675Y-62303181D01*
X133316763Y-62140419D01*
X133166041Y-62003018D01*
X132992638Y-61895652D01*
X132802457Y-61821976D01*
X132724021Y-61807314D01*
X132601976Y-61784500D01*
X132398024Y-61784500D01*
X132300031Y-61802818D01*
X132197542Y-61821976D01*
X132007361Y-61895652D01*
X131833958Y-62003018D01*
X131683236Y-62140419D01*
X131560324Y-62303181D01*
X131469418Y-62485748D01*
X131413602Y-62681916D01*
X131394785Y-62884999D01*
X131065215Y-62884999D01*
X131046397Y-62681917D01*
X130990582Y-62485750D01*
X130964999Y-62434372D01*
X130899675Y-62303181D01*
X130776763Y-62140419D01*
X130626041Y-62003018D01*
X130452638Y-61895652D01*
X130262457Y-61821976D01*
X130184021Y-61807314D01*
X130061976Y-61784500D01*
X129858024Y-61784500D01*
X129760031Y-61802818D01*
X129657542Y-61821976D01*
X129467361Y-61895652D01*
X129293958Y-62003018D01*
X129143236Y-62140419D01*
X129020324Y-62303181D01*
X128929418Y-62485748D01*
X128873602Y-62681916D01*
X128854785Y-62884999D01*
X128525215Y-62884999D01*
X128506397Y-62681917D01*
X128450582Y-62485750D01*
X128424999Y-62434372D01*
X128359675Y-62303181D01*
X128236763Y-62140419D01*
X128086041Y-62003018D01*
X127912638Y-61895652D01*
X127722457Y-61821976D01*
X127644021Y-61807314D01*
X127521976Y-61784500D01*
X127318024Y-61784500D01*
X127220031Y-61802818D01*
X127117542Y-61821976D01*
X126927361Y-61895652D01*
X126753958Y-62003018D01*
X126603236Y-62140419D01*
X126480324Y-62303181D01*
X126414999Y-62434374D01*
X126371214Y-62483306D01*
X126308581Y-62503018D01*
X126244664Y-62487985D01*
X126197384Y-62442421D01*
X126179999Y-62379103D01*
X126179999Y-62228421D01*
X126173591Y-62157895D01*
X126123018Y-61995602D01*
X126035074Y-61850124D01*
X125914875Y-61729925D01*
X125769396Y-61641980D01*
X125607106Y-61591409D01*
X125536576Y-61585000D01*
X137830000Y-61585000D01*
X137830000Y-64184999D01*
X138236579Y-64184999D01*
X138307104Y-64178591D01*
X138469397Y-64128018D01*
X138614875Y-64040074D01*
X138735074Y-63919875D01*
X138823019Y-63774396D01*
X138873590Y-63612106D01*
X138879999Y-63541576D01*
X138879999Y-63390899D01*
X138897383Y-63327580D01*
X138944663Y-63282016D01*
X139008581Y-63266983D01*
X139071213Y-63286695D01*
X139114999Y-63335626D01*
X139180326Y-63466820D01*
X139303236Y-63629580D01*
X139453958Y-63766981D01*
X139591140Y-63851920D01*
X139627363Y-63874348D01*
X139817544Y-63948024D01*
X140018024Y-63985500D01*
X140221974Y-63985500D01*
X140221976Y-63985500D01*
X140422456Y-63948024D01*
X140612637Y-63874348D01*
X140786041Y-63766981D01*
X140936764Y-63629579D01*
X141059673Y-63466821D01*
X141059673Y-63466819D01*
X141059675Y-63466818D01*
X141129008Y-63327577D01*
X141150582Y-63284250D01*
X141206397Y-63088083D01*
X141225215Y-62885000D01*
X141554785Y-62885000D01*
X141573602Y-63088083D01*
X141629418Y-63284251D01*
X141720324Y-63466818D01*
X141843236Y-63629580D01*
X141993958Y-63766981D01*
X142131140Y-63851920D01*
X142167363Y-63874348D01*
X142357544Y-63948024D01*
X142558024Y-63985500D01*
X142761974Y-63985500D01*
X142761976Y-63985500D01*
X142962456Y-63948024D01*
X143152637Y-63874348D01*
X143326041Y-63766981D01*
X143476764Y-63629579D01*
X143599673Y-63466821D01*
X143599673Y-63466819D01*
X143599675Y-63466818D01*
X143669008Y-63327577D01*
X143690582Y-63284250D01*
X143746397Y-63088083D01*
X143765215Y-62885000D01*
X144094785Y-62885000D01*
X144113602Y-63088083D01*
X144169418Y-63284251D01*
X144260324Y-63466818D01*
X144383236Y-63629580D01*
X144533958Y-63766981D01*
X144671140Y-63851920D01*
X144707363Y-63874348D01*
X144897544Y-63948024D01*
X145098024Y-63985500D01*
X145301974Y-63985500D01*
X145301976Y-63985500D01*
X145502456Y-63948024D01*
X145692637Y-63874348D01*
X145866041Y-63766981D01*
X146016764Y-63629579D01*
X146139673Y-63466821D01*
X146139673Y-63466819D01*
X146139675Y-63466818D01*
X146209008Y-63327577D01*
X146230582Y-63284250D01*
X146286397Y-63088083D01*
X146305215Y-62885000D01*
X146634785Y-62885000D01*
X146653602Y-63088083D01*
X146709418Y-63284251D01*
X146800324Y-63466818D01*
X146923236Y-63629580D01*
X147073958Y-63766981D01*
X147211140Y-63851920D01*
X147247363Y-63874348D01*
X147437544Y-63948024D01*
X147638024Y-63985500D01*
X147841974Y-63985500D01*
X147841976Y-63985500D01*
X148042456Y-63948024D01*
X148232637Y-63874348D01*
X148406041Y-63766981D01*
X148556764Y-63629579D01*
X148679673Y-63466821D01*
X148745002Y-63335621D01*
X148788784Y-63286694D01*
X148851417Y-63266981D01*
X148915335Y-63282013D01*
X148962615Y-63327577D01*
X148980000Y-63390895D01*
X148980000Y-63541578D01*
X148986408Y-63612104D01*
X149036981Y-63774397D01*
X149124925Y-63919875D01*
X149245124Y-64040074D01*
X149390603Y-64128019D01*
X149552893Y-64178590D01*
X149623424Y-64185000D01*
X150030000Y-64185000D01*
X150030000Y-61585001D01*
X149623421Y-61585001D01*
X149552895Y-61591408D01*
X149390602Y-61641981D01*
X149245124Y-61729925D01*
X149124925Y-61850124D01*
X149036980Y-61995603D01*
X148986409Y-62157893D01*
X148980000Y-62228424D01*
X148980000Y-62379101D01*
X148962615Y-62442419D01*
X148915335Y-62487983D01*
X148851418Y-62503016D01*
X148788785Y-62483304D01*
X148745000Y-62434372D01*
X148679675Y-62303181D01*
X148556763Y-62140419D01*
X148406041Y-62003018D01*
X148232638Y-61895652D01*
X148042457Y-61821976D01*
X147964021Y-61807314D01*
X147841976Y-61784500D01*
X147638024Y-61784500D01*
X147540031Y-61802818D01*
X147437542Y-61821976D01*
X147247361Y-61895652D01*
X147073958Y-62003018D01*
X146923236Y-62140419D01*
X146800324Y-62303181D01*
X146709418Y-62485748D01*
X146653602Y-62681916D01*
X146634785Y-62885000D01*
X146305215Y-62885000D01*
X146286397Y-62681917D01*
X146230582Y-62485750D01*
X146204999Y-62434372D01*
X146139675Y-62303181D01*
X146016763Y-62140419D01*
X145866041Y-62003018D01*
X145692638Y-61895652D01*
X145502457Y-61821976D01*
X145424021Y-61807314D01*
X145301976Y-61784500D01*
X145098024Y-61784500D01*
X145000031Y-61802818D01*
X144897542Y-61821976D01*
X144707361Y-61895652D01*
X144533958Y-62003018D01*
X144383236Y-62140419D01*
X144260324Y-62303181D01*
X144169418Y-62485748D01*
X144113602Y-62681916D01*
X144094785Y-62885000D01*
X143765215Y-62885000D01*
X143746397Y-62681917D01*
X143690582Y-62485750D01*
X143664999Y-62434372D01*
X143599675Y-62303181D01*
X143476763Y-62140419D01*
X143326041Y-62003018D01*
X143152638Y-61895652D01*
X142962457Y-61821976D01*
X142884021Y-61807314D01*
X142761976Y-61784500D01*
X142558024Y-61784500D01*
X142460031Y-61802818D01*
X142357542Y-61821976D01*
X142167361Y-61895652D01*
X141993958Y-62003018D01*
X141843236Y-62140419D01*
X141720324Y-62303181D01*
X141629418Y-62485748D01*
X141573602Y-62681916D01*
X141554785Y-62885000D01*
X141225215Y-62885000D01*
X141206397Y-62681917D01*
X141150582Y-62485750D01*
X141124999Y-62434372D01*
X141059675Y-62303181D01*
X140936763Y-62140419D01*
X140786041Y-62003018D01*
X140612638Y-61895652D01*
X140422457Y-61821976D01*
X140344021Y-61807314D01*
X140221976Y-61784500D01*
X140018024Y-61784500D01*
X139920031Y-61802818D01*
X139817542Y-61821976D01*
X139627361Y-61895652D01*
X139453958Y-62003018D01*
X139303236Y-62140419D01*
X139180324Y-62303181D01*
X139114999Y-62434374D01*
X139071214Y-62483306D01*
X139008581Y-62503018D01*
X138944664Y-62487985D01*
X138897384Y-62442421D01*
X138879999Y-62379103D01*
X138879999Y-62228421D01*
X138873591Y-62157895D01*
X138823018Y-61995602D01*
X138735074Y-61850124D01*
X138614875Y-61729925D01*
X138469396Y-61641980D01*
X138307106Y-61591409D01*
X138236576Y-61585000D01*
X150530000Y-61585000D01*
X150530000Y-64184999D01*
X150936579Y-64184999D01*
X151007104Y-64178591D01*
X151169397Y-64128018D01*
X151314875Y-64040074D01*
X151435074Y-63919875D01*
X151523019Y-63774396D01*
X151573590Y-63612106D01*
X151579999Y-63541576D01*
X151579999Y-63390899D01*
X151597383Y-63327580D01*
X151644663Y-63282016D01*
X151708581Y-63266983D01*
X151771213Y-63286695D01*
X151814999Y-63335626D01*
X151880326Y-63466820D01*
X152003236Y-63629580D01*
X152153958Y-63766981D01*
X152291140Y-63851920D01*
X152327363Y-63874348D01*
X152517544Y-63948024D01*
X152718024Y-63985500D01*
X152921974Y-63985500D01*
X152921976Y-63985500D01*
X153122456Y-63948024D01*
X153312637Y-63874348D01*
X153486041Y-63766981D01*
X153636764Y-63629579D01*
X153759673Y-63466821D01*
X153759673Y-63466819D01*
X153759675Y-63466818D01*
X153829008Y-63327577D01*
X153850582Y-63284250D01*
X153906397Y-63088083D01*
X153925215Y-62885000D01*
X154254785Y-62885000D01*
X154273602Y-63088083D01*
X154329418Y-63284251D01*
X154420324Y-63466818D01*
X154543236Y-63629580D01*
X154693958Y-63766981D01*
X154831140Y-63851920D01*
X154867363Y-63874348D01*
X155057544Y-63948024D01*
X155258024Y-63985500D01*
X155461974Y-63985500D01*
X155461976Y-63985500D01*
X155662456Y-63948024D01*
X155852637Y-63874348D01*
X156026041Y-63766981D01*
X156176764Y-63629579D01*
X156299673Y-63466821D01*
X156299673Y-63466819D01*
X156299675Y-63466818D01*
X156369008Y-63327577D01*
X156390582Y-63284250D01*
X156446397Y-63088083D01*
X156465215Y-62885000D01*
X156794785Y-62885000D01*
X156813602Y-63088083D01*
X156869418Y-63284251D01*
X156960324Y-63466818D01*
X157083236Y-63629580D01*
X157233958Y-63766981D01*
X157371140Y-63851920D01*
X157407363Y-63874348D01*
X157597544Y-63948024D01*
X157798024Y-63985500D01*
X158001974Y-63985500D01*
X158001976Y-63985500D01*
X158202456Y-63948024D01*
X158392637Y-63874348D01*
X158566041Y-63766981D01*
X158716764Y-63629579D01*
X158839673Y-63466821D01*
X158839673Y-63466819D01*
X158839675Y-63466818D01*
X158909008Y-63327577D01*
X158930582Y-63284250D01*
X158986397Y-63088083D01*
X159005215Y-62885000D01*
X159334785Y-62885000D01*
X159353602Y-63088083D01*
X159409418Y-63284251D01*
X159500324Y-63466818D01*
X159623236Y-63629580D01*
X159773958Y-63766981D01*
X159911140Y-63851920D01*
X159947363Y-63874348D01*
X160137544Y-63948024D01*
X160338024Y-63985500D01*
X160541974Y-63985500D01*
X160541976Y-63985500D01*
X160742456Y-63948024D01*
X160932637Y-63874348D01*
X161106041Y-63766981D01*
X161256764Y-63629579D01*
X161379673Y-63466821D01*
X161445002Y-63335621D01*
X161488784Y-63286694D01*
X161551417Y-63266981D01*
X161615335Y-63282013D01*
X161662615Y-63327577D01*
X161680000Y-63390895D01*
X161680000Y-63541578D01*
X161686408Y-63612104D01*
X161736981Y-63774397D01*
X161824925Y-63919875D01*
X161945124Y-64040074D01*
X162090603Y-64128019D01*
X162252893Y-64178590D01*
X162323424Y-64185000D01*
X162730000Y-64185000D01*
X162730000Y-61585001D01*
X162323421Y-61585001D01*
X162252895Y-61591408D01*
X162090602Y-61641981D01*
X161945124Y-61729925D01*
X161824925Y-61850124D01*
X161736980Y-61995603D01*
X161686409Y-62157893D01*
X161680000Y-62228424D01*
X161680000Y-62379101D01*
X161662615Y-62442419D01*
X161615335Y-62487983D01*
X161551418Y-62503016D01*
X161488785Y-62483304D01*
X161445000Y-62434372D01*
X161379675Y-62303181D01*
X161256763Y-62140419D01*
X161106041Y-62003018D01*
X160932638Y-61895652D01*
X160742457Y-61821976D01*
X160664021Y-61807314D01*
X160541976Y-61784500D01*
X160338024Y-61784500D01*
X160240031Y-61802818D01*
X160137542Y-61821976D01*
X159947361Y-61895652D01*
X159773958Y-62003018D01*
X159623236Y-62140419D01*
X159500324Y-62303181D01*
X159409418Y-62485748D01*
X159353602Y-62681916D01*
X159334785Y-62885000D01*
X159005215Y-62885000D01*
X158986397Y-62681917D01*
X158930582Y-62485750D01*
X158904999Y-62434372D01*
X158839675Y-62303181D01*
X158716763Y-62140419D01*
X158566041Y-62003018D01*
X158392638Y-61895652D01*
X158202457Y-61821976D01*
X158124021Y-61807314D01*
X158001976Y-61784500D01*
X157798024Y-61784500D01*
X157700031Y-61802818D01*
X157597542Y-61821976D01*
X157407361Y-61895652D01*
X157233958Y-62003018D01*
X157083236Y-62140419D01*
X156960324Y-62303181D01*
X156869418Y-62485748D01*
X156813602Y-62681916D01*
X156794785Y-62885000D01*
X156465215Y-62885000D01*
X156446397Y-62681917D01*
X156390582Y-62485750D01*
X156364999Y-62434372D01*
X156299675Y-62303181D01*
X156176763Y-62140419D01*
X156026041Y-62003018D01*
X155852638Y-61895652D01*
X155662457Y-61821976D01*
X155584021Y-61807314D01*
X155461976Y-61784500D01*
X155258024Y-61784500D01*
X155160031Y-61802818D01*
X155057542Y-61821976D01*
X154867361Y-61895652D01*
X154693958Y-62003018D01*
X154543236Y-62140419D01*
X154420324Y-62303181D01*
X154329418Y-62485748D01*
X154273602Y-62681916D01*
X154254785Y-62885000D01*
X153925215Y-62885000D01*
X153906397Y-62681917D01*
X153850582Y-62485750D01*
X153824999Y-62434372D01*
X153759675Y-62303181D01*
X153636763Y-62140419D01*
X153486041Y-62003018D01*
X153312638Y-61895652D01*
X153122457Y-61821976D01*
X153044021Y-61807314D01*
X152921976Y-61784500D01*
X152718024Y-61784500D01*
X152620031Y-61802818D01*
X152517542Y-61821976D01*
X152327361Y-61895652D01*
X152153958Y-62003018D01*
X152003236Y-62140419D01*
X151880324Y-62303181D01*
X151814999Y-62434374D01*
X151771214Y-62483306D01*
X151708581Y-62503018D01*
X151644664Y-62487985D01*
X151597384Y-62442421D01*
X151579999Y-62379103D01*
X151579999Y-62228421D01*
X151573591Y-62157895D01*
X151523018Y-61995602D01*
X151435074Y-61850124D01*
X151314875Y-61729925D01*
X151169396Y-61641980D01*
X151007106Y-61591409D01*
X150936576Y-61585000D01*
X163230000Y-61585000D01*
X163230000Y-64184999D01*
X163636579Y-64184999D01*
X163707104Y-64178591D01*
X163869397Y-64128018D01*
X164014875Y-64040074D01*
X164135074Y-63919875D01*
X164223019Y-63774396D01*
X164273590Y-63612106D01*
X164279999Y-63541576D01*
X164279999Y-63390899D01*
X164297383Y-63327580D01*
X164344663Y-63282016D01*
X164408581Y-63266983D01*
X164471213Y-63286695D01*
X164514999Y-63335626D01*
X164580326Y-63466820D01*
X164703236Y-63629580D01*
X164853958Y-63766981D01*
X164991140Y-63851920D01*
X165027363Y-63874348D01*
X165217544Y-63948024D01*
X165418024Y-63985500D01*
X165621974Y-63985500D01*
X165621976Y-63985500D01*
X165822456Y-63948024D01*
X166012637Y-63874348D01*
X166186041Y-63766981D01*
X166336764Y-63629579D01*
X166459673Y-63466821D01*
X166459673Y-63466819D01*
X166459675Y-63466818D01*
X166529008Y-63327577D01*
X166550582Y-63284250D01*
X166606397Y-63088083D01*
X166625215Y-62885000D01*
X166954785Y-62885000D01*
X166973602Y-63088083D01*
X167029418Y-63284251D01*
X167120324Y-63466818D01*
X167243236Y-63629580D01*
X167393958Y-63766981D01*
X167531140Y-63851920D01*
X167567363Y-63874348D01*
X167757544Y-63948024D01*
X167958024Y-63985500D01*
X168161974Y-63985500D01*
X168161976Y-63985500D01*
X168362456Y-63948024D01*
X168552637Y-63874348D01*
X168726041Y-63766981D01*
X168876764Y-63629579D01*
X168999673Y-63466821D01*
X168999673Y-63466819D01*
X168999675Y-63466818D01*
X169069008Y-63327577D01*
X169090582Y-63284250D01*
X169146397Y-63088083D01*
X169165215Y-62885000D01*
X169146397Y-62681917D01*
X169090582Y-62485750D01*
X169064999Y-62434372D01*
X168999675Y-62303181D01*
X168876763Y-62140419D01*
X168726041Y-62003018D01*
X168552638Y-61895652D01*
X168362457Y-61821976D01*
X168284021Y-61807314D01*
X168161976Y-61784500D01*
X167958024Y-61784500D01*
X167860031Y-61802818D01*
X167757542Y-61821976D01*
X167567361Y-61895652D01*
X167393958Y-62003018D01*
X167243236Y-62140419D01*
X167120324Y-62303181D01*
X167029418Y-62485748D01*
X166973602Y-62681916D01*
X166954785Y-62885000D01*
X166625215Y-62885000D01*
X166606397Y-62681917D01*
X166550582Y-62485750D01*
X166524999Y-62434372D01*
X166459675Y-62303181D01*
X166336763Y-62140419D01*
X166186041Y-62003018D01*
X166012638Y-61895652D01*
X165822457Y-61821976D01*
X165744021Y-61807314D01*
X165621976Y-61784500D01*
X165418024Y-61784500D01*
X165320031Y-61802818D01*
X165217542Y-61821976D01*
X165027361Y-61895652D01*
X164853958Y-62003018D01*
X164703236Y-62140419D01*
X164580324Y-62303181D01*
X164514999Y-62434374D01*
X164471214Y-62483306D01*
X164408581Y-62503018D01*
X164344664Y-62487985D01*
X164297384Y-62442421D01*
X164279999Y-62379103D01*
X164279999Y-62228421D01*
X164273591Y-62157895D01*
X164223018Y-61995602D01*
X164135074Y-61850124D01*
X164014875Y-61729925D01*
X163869396Y-61641980D01*
X163707106Y-61591409D01*
X163636576Y-61585000D01*
X163230000Y-61585000D01*
X150936576Y-61585000D01*
X150530000Y-61585000D01*
X138236576Y-61585000D01*
X137830000Y-61585000D01*
X125536576Y-61585000D01*
X125130000Y-61585000D01*
X30900500Y-61585000D01*
X30900500Y-55484362D01*
X118579500Y-55484362D01*
X118594955Y-55601760D01*
X118655464Y-55747841D01*
X118751717Y-55873282D01*
X118832781Y-55935484D01*
X118877159Y-55969536D01*
X119023238Y-56030044D01*
X119140639Y-56045500D01*
X120119360Y-56045499D01*
X120119362Y-56045499D01*
X120178060Y-56037771D01*
X120236762Y-56030044D01*
X120382841Y-55969536D01*
X120508282Y-55873282D01*
X120604536Y-55747841D01*
X120665044Y-55601762D01*
X120680500Y-55484361D01*
X120680499Y-54505640D01*
X120665044Y-54388238D01*
X120605713Y-54245000D01*
X121680000Y-54245000D01*
X121680000Y-54489929D01*
X121695122Y-54624140D01*
X121754664Y-54794303D01*
X121850578Y-54946950D01*
X121978049Y-55074421D01*
X122130696Y-55170335D01*
X122300859Y-55229877D01*
X122435071Y-55245000D01*
X122680000Y-55245000D01*
X122680000Y-54245000D01*
X123180000Y-54245000D01*
X123180000Y-55245000D01*
X123424929Y-55245000D01*
X123559140Y-55229877D01*
X123729303Y-55170335D01*
X123881950Y-55074421D01*
X124009421Y-54946950D01*
X124105335Y-54794303D01*
X124164877Y-54624140D01*
X124180000Y-54489929D01*
X124180000Y-54245000D01*
X166530001Y-54245000D01*
X166530001Y-54651579D01*
X166536408Y-54722104D01*
X166586981Y-54884397D01*
X166674925Y-55029875D01*
X166795124Y-55150074D01*
X166940603Y-55238019D01*
X167102893Y-55288590D01*
X167173422Y-55294999D01*
X167218544Y-55294999D01*
X167277304Y-55309804D01*
X167322032Y-55350686D01*
X167342047Y-55407882D01*
X167332568Y-55467732D01*
X167295860Y-55515945D01*
X167230486Y-55568080D01*
X166863082Y-55935484D01*
X166806163Y-56006858D01*
X166769741Y-56064822D01*
X166747818Y-56117747D01*
X166732585Y-56184493D01*
X166726217Y-56241014D01*
X166726217Y-56241016D01*
X166722363Y-56275212D01*
X166721155Y-56500731D01*
X166721155Y-56569269D01*
X166722363Y-56794787D01*
X166726217Y-56828984D01*
X166726217Y-56828986D01*
X166732585Y-56885506D01*
X166747818Y-56952252D01*
X166769741Y-57005177D01*
X166806163Y-57063141D01*
X166806165Y-57063143D01*
X166863080Y-57134513D01*
X166911495Y-57182929D01*
X167182071Y-57453505D01*
X167230487Y-57501920D01*
X167284014Y-57544606D01*
X167301858Y-57558836D01*
X167359822Y-57595258D01*
X167412747Y-57617181D01*
X167479493Y-57632414D01*
X167493848Y-57634031D01*
X167536015Y-57638783D01*
X167570211Y-57642636D01*
X167575581Y-57642664D01*
X167795731Y-57643845D01*
X167795772Y-57643845D01*
X167864228Y-57643845D01*
X167864269Y-57643845D01*
X168079297Y-57642692D01*
X168089789Y-57642636D01*
X168123985Y-57638783D01*
X168173328Y-57633222D01*
X168180506Y-57632414D01*
X168247252Y-57617181D01*
X168247253Y-57617180D01*
X168247255Y-57617180D01*
X168300176Y-57595259D01*
X168358143Y-57558835D01*
X168429513Y-57501920D01*
X168477929Y-57453505D01*
X168748505Y-57182929D01*
X168796920Y-57134513D01*
X168853835Y-57063143D01*
X168890259Y-57005176D01*
X168912180Y-56952255D01*
X168927414Y-56885505D01*
X168933783Y-56828985D01*
X168937636Y-56794789D01*
X168938845Y-56569228D01*
X168938845Y-56500772D01*
X168937636Y-56275211D01*
X168933783Y-56241015D01*
X168927414Y-56184495D01*
X168927414Y-56184493D01*
X168912181Y-56117747D01*
X168890258Y-56064822D01*
X168853836Y-56006858D01*
X168824072Y-55969535D01*
X168796920Y-55935487D01*
X168748505Y-55887071D01*
X168477929Y-55616495D01*
X168429513Y-55568080D01*
X168429511Y-55568078D01*
X168364139Y-55515946D01*
X168327430Y-55467734D01*
X168317950Y-55407884D01*
X168337964Y-55350688D01*
X168382691Y-55309805D01*
X168441451Y-55294999D01*
X168486579Y-55294999D01*
X168557104Y-55288591D01*
X168719397Y-55238018D01*
X168864875Y-55150074D01*
X168985074Y-55029875D01*
X169073019Y-54884396D01*
X169123590Y-54722106D01*
X169130000Y-54651576D01*
X169130000Y-54245000D01*
X166530001Y-54245000D01*
X124180000Y-54245000D01*
X123180000Y-54245000D01*
X122680000Y-54245000D01*
X121680000Y-54245000D01*
X120605713Y-54245000D01*
X120604536Y-54242159D01*
X120508283Y-54116719D01*
X120508281Y-54116716D01*
X120477861Y-54093374D01*
X120442135Y-54049842D01*
X120429348Y-53994997D01*
X120442137Y-53940153D01*
X120477862Y-53896623D01*
X120508282Y-53873282D01*
X120604536Y-53747841D01*
X120605713Y-53745000D01*
X121680000Y-53745000D01*
X122680000Y-53745000D01*
X122680000Y-52745000D01*
X123180000Y-52745000D01*
X123180000Y-53745000D01*
X124180000Y-53745000D01*
X166530000Y-53745000D01*
X169129999Y-53745000D01*
X169129999Y-53338421D01*
X169123591Y-53267895D01*
X169073018Y-53105602D01*
X168985074Y-52960124D01*
X168864875Y-52839925D01*
X168719396Y-52751980D01*
X168557106Y-52701409D01*
X168486576Y-52695000D01*
X168338970Y-52695000D01*
X168273692Y-52676427D01*
X168227970Y-52626271D01*
X168215499Y-52559558D01*
X168240016Y-52496272D01*
X168294175Y-52455373D01*
X168322637Y-52444348D01*
X168496041Y-52336981D01*
X168646764Y-52199579D01*
X168769673Y-52036821D01*
X168769673Y-52036819D01*
X168769675Y-52036818D01*
X168815643Y-51944500D01*
X168860582Y-51854250D01*
X168916397Y-51658083D01*
X168935215Y-51455000D01*
X168916397Y-51251917D01*
X168860582Y-51055750D01*
X168832573Y-50999500D01*
X168769675Y-50873181D01*
X168646763Y-50710419D01*
X168496041Y-50573018D01*
X168322638Y-50465652D01*
X168132457Y-50391976D01*
X168065629Y-50379484D01*
X167931976Y-50354500D01*
X167728024Y-50354500D01*
X167627783Y-50373238D01*
X167527542Y-50391976D01*
X167337361Y-50465652D01*
X167163958Y-50573018D01*
X167013236Y-50710419D01*
X166890324Y-50873181D01*
X166799418Y-51055748D01*
X166743602Y-51251916D01*
X166724785Y-51454999D01*
X166743602Y-51658083D01*
X166799418Y-51854251D01*
X166890324Y-52036818D01*
X167013236Y-52199580D01*
X167163958Y-52336981D01*
X167271325Y-52403459D01*
X167337363Y-52444348D01*
X167365824Y-52455373D01*
X167419984Y-52496272D01*
X167444502Y-52559557D01*
X167432032Y-52626270D01*
X167386310Y-52676426D01*
X167321032Y-52695000D01*
X167173421Y-52695000D01*
X167102895Y-52701408D01*
X166940602Y-52751981D01*
X166795124Y-52839925D01*
X166674925Y-52960124D01*
X166586980Y-53105603D01*
X166536409Y-53267893D01*
X166530000Y-53338424D01*
X166530000Y-53745000D01*
X124180000Y-53745000D01*
X124180000Y-53500071D01*
X124164877Y-53365859D01*
X124105335Y-53195696D01*
X124009421Y-53043049D01*
X123881950Y-52915578D01*
X123729303Y-52819664D01*
X123559140Y-52760122D01*
X123424929Y-52745000D01*
X123180000Y-52745000D01*
X122680000Y-52745000D01*
X122435071Y-52745000D01*
X122300859Y-52760122D01*
X122130696Y-52819664D01*
X121978049Y-52915578D01*
X121850578Y-53043049D01*
X121754664Y-53195696D01*
X121695122Y-53365859D01*
X121680000Y-53500071D01*
X121680000Y-53745000D01*
X120605713Y-53745000D01*
X120665044Y-53601762D01*
X120680500Y-53484361D01*
X120680499Y-52505640D01*
X120672430Y-52444348D01*
X120665044Y-52388239D01*
X120665044Y-52388238D01*
X120604536Y-52242159D01*
X120571863Y-52199579D01*
X120508282Y-52116717D01*
X120382840Y-52020463D01*
X120236762Y-51959956D01*
X120119362Y-51944500D01*
X119140637Y-51944500D01*
X119023239Y-51959955D01*
X118877158Y-52020464D01*
X118751717Y-52116717D01*
X118655463Y-52242159D01*
X118594956Y-52388237D01*
X118579500Y-52505637D01*
X118579500Y-53484362D01*
X118594955Y-53601760D01*
X118594956Y-53601762D01*
X118655464Y-53747841D01*
X118751718Y-53873282D01*
X118782135Y-53896622D01*
X118782138Y-53896624D01*
X118817863Y-53940156D01*
X118830651Y-53995000D01*
X118817863Y-54049844D01*
X118782138Y-54093376D01*
X118751716Y-54116719D01*
X118655463Y-54242159D01*
X118594956Y-54388237D01*
X118579500Y-54505637D01*
X118579500Y-55484362D01*
X30900500Y-55484362D01*
X30900500Y-35499999D01*
X40894389Y-35499999D01*
X40914804Y-35785429D01*
X40975629Y-36065041D01*
X40975631Y-36065046D01*
X41071318Y-36321593D01*
X41075634Y-36333163D01*
X41212772Y-36584313D01*
X41286356Y-36682609D01*
X41384261Y-36813395D01*
X41586605Y-37015739D01*
X41751257Y-37138996D01*
X41815686Y-37187227D01*
X41920770Y-37244607D01*
X42066839Y-37324367D01*
X42334954Y-37424369D01*
X42334957Y-37424369D01*
X42334958Y-37424370D01*
X42372033Y-37432435D01*
X42614572Y-37485196D01*
X42809103Y-37499109D01*
X42828551Y-37500500D01*
X42828552Y-37500500D01*
X42971448Y-37500500D01*
X42971449Y-37500500D01*
X42990897Y-37499109D01*
X43185428Y-37485196D01*
X43465046Y-37424369D01*
X43733161Y-37324367D01*
X43984315Y-37187226D01*
X44213395Y-37015739D01*
X44415739Y-36813395D01*
X44587226Y-36584315D01*
X44724367Y-36333161D01*
X44824369Y-36065046D01*
X44885196Y-35785428D01*
X44905610Y-35500000D01*
X44885196Y-35214572D01*
X44824369Y-34934954D01*
X44724367Y-34666839D01*
X44609586Y-34456634D01*
X44587227Y-34415686D01*
X44491409Y-34287689D01*
X44415739Y-34186605D01*
X44213395Y-33984261D01*
X44072721Y-33878954D01*
X43984313Y-33812772D01*
X43733163Y-33675634D01*
X43733162Y-33675633D01*
X43733161Y-33675633D01*
X43544144Y-33605133D01*
X43465041Y-33575629D01*
X43185429Y-33514804D01*
X42971449Y-33499500D01*
X42971448Y-33499500D01*
X42828552Y-33499500D01*
X42828551Y-33499500D01*
X42614570Y-33514804D01*
X42334958Y-33575629D01*
X42066836Y-33675634D01*
X41815686Y-33812772D01*
X41586602Y-33984263D01*
X41384263Y-34186602D01*
X41212772Y-34415686D01*
X41075634Y-34666836D01*
X40975629Y-34934958D01*
X40914804Y-35214570D01*
X40894389Y-35499999D01*
X30900500Y-35499999D01*
X30900500Y-33474999D01*
X46844417Y-33474999D01*
X46864699Y-33680932D01*
X46924769Y-33878956D01*
X46973541Y-33970201D01*
X47022315Y-34061450D01*
X47055910Y-34102386D01*
X47153589Y-34221410D01*
X47233570Y-34287047D01*
X47313550Y-34352685D01*
X47428316Y-34414029D01*
X47432353Y-34416187D01*
X47480258Y-34461796D01*
X47497900Y-34525545D01*
X47497900Y-44388689D01*
X47504785Y-44409881D01*
X47509326Y-44428792D01*
X47512813Y-44450806D01*
X47522929Y-44470659D01*
X47530375Y-44488635D01*
X47537260Y-44509825D01*
X47550358Y-44527854D01*
X47560520Y-44544437D01*
X47562080Y-44547498D01*
X47570639Y-44564294D01*
X47593296Y-44586951D01*
X51525639Y-48519294D01*
X51615705Y-48609360D01*
X51615707Y-48609362D01*
X51635560Y-48619478D01*
X51652143Y-48629639D01*
X51670175Y-48642740D01*
X51691364Y-48649624D01*
X51709344Y-48657072D01*
X51729192Y-48667186D01*
X51729193Y-48667186D01*
X51729195Y-48667187D01*
X51751211Y-48670674D01*
X51770109Y-48675210D01*
X51791313Y-48682100D01*
X51823355Y-48682100D01*
X51918687Y-48682100D01*
X141961313Y-48682100D01*
X142056645Y-48682100D01*
X142088686Y-48682100D01*
X142088687Y-48682100D01*
X142109885Y-48675212D01*
X142128792Y-48670673D01*
X142150805Y-48667187D01*
X142170668Y-48657065D01*
X142188631Y-48649625D01*
X142209825Y-48642740D01*
X142227850Y-48629643D01*
X142244436Y-48619478D01*
X142264294Y-48609361D01*
X142354361Y-48519294D01*
X142354361Y-48519293D01*
X144702088Y-46171565D01*
X144741433Y-46145056D01*
X144787858Y-46135264D01*
X144834554Y-46143621D01*
X144897544Y-46168024D01*
X145098024Y-46205500D01*
X145301974Y-46205500D01*
X145301976Y-46205500D01*
X145502456Y-46168024D01*
X145692637Y-46094348D01*
X145866041Y-45986981D01*
X146016764Y-45849579D01*
X146139673Y-45686821D01*
X146139673Y-45686819D01*
X146139675Y-45686818D01*
X146196385Y-45572927D01*
X146230582Y-45504250D01*
X146286397Y-45308083D01*
X146305215Y-45105000D01*
X146634785Y-45105000D01*
X146653602Y-45308083D01*
X146709418Y-45504251D01*
X146800324Y-45686818D01*
X146923236Y-45849580D01*
X147073958Y-45986981D01*
X147247361Y-46094347D01*
X147247363Y-46094348D01*
X147437544Y-46168024D01*
X147638024Y-46205500D01*
X147841974Y-46205500D01*
X147841976Y-46205500D01*
X148042456Y-46168024D01*
X148232637Y-46094348D01*
X148406041Y-45986981D01*
X148556764Y-45849579D01*
X148679673Y-45686821D01*
X148745002Y-45555621D01*
X148788784Y-45506694D01*
X148851417Y-45486981D01*
X148915335Y-45502013D01*
X148962615Y-45547577D01*
X148980000Y-45610895D01*
X148980000Y-45761578D01*
X148986408Y-45832104D01*
X149036981Y-45994397D01*
X149124925Y-46139875D01*
X149245124Y-46260074D01*
X149390603Y-46348019D01*
X149552893Y-46398590D01*
X149623424Y-46405000D01*
X150030000Y-46405000D01*
X150030000Y-43805001D01*
X149623421Y-43805001D01*
X149552895Y-43811408D01*
X149390602Y-43861981D01*
X149245124Y-43949925D01*
X149124925Y-44070124D01*
X149036980Y-44215603D01*
X148986409Y-44377893D01*
X148980000Y-44448424D01*
X148980000Y-44599101D01*
X148962615Y-44662419D01*
X148915335Y-44707983D01*
X148851418Y-44723016D01*
X148788785Y-44703304D01*
X148745000Y-44654372D01*
X148679675Y-44523181D01*
X148556763Y-44360419D01*
X148406041Y-44223018D01*
X148232638Y-44115652D01*
X148042457Y-44041976D01*
X147975629Y-44029483D01*
X147841976Y-44004500D01*
X147638024Y-44004500D01*
X147563826Y-44018370D01*
X147437542Y-44041976D01*
X147247361Y-44115652D01*
X147073958Y-44223018D01*
X146923236Y-44360419D01*
X146800324Y-44523181D01*
X146709418Y-44705748D01*
X146653602Y-44901916D01*
X146634785Y-45105000D01*
X146305215Y-45105000D01*
X146286397Y-44901917D01*
X146286396Y-44901915D01*
X146252554Y-44782973D01*
X146230582Y-44705750D01*
X146197138Y-44638585D01*
X146139675Y-44523181D01*
X146016763Y-44360419D01*
X145866041Y-44223018D01*
X145692638Y-44115652D01*
X145502457Y-44041976D01*
X145435629Y-44029483D01*
X145301976Y-44004500D01*
X145098024Y-44004500D01*
X145023826Y-44018370D01*
X144897542Y-44041976D01*
X144707361Y-44115652D01*
X144533958Y-44223018D01*
X144383236Y-44360419D01*
X144260324Y-44523181D01*
X144169418Y-44705748D01*
X144113602Y-44901916D01*
X144094785Y-45105000D01*
X144113603Y-45308085D01*
X144163358Y-45482955D01*
X144164110Y-45548059D01*
X144131773Y-45604570D01*
X141894764Y-47841581D01*
X141854536Y-47868461D01*
X141807083Y-47877900D01*
X119886122Y-47877900D01*
X119819497Y-47858480D01*
X119773740Y-47806304D01*
X119763183Y-47737714D01*
X119764828Y-47725211D01*
X119764830Y-47725209D01*
X119783750Y-47581500D01*
X119764830Y-47437791D01*
X119709361Y-47303875D01*
X119621121Y-47188879D01*
X119506125Y-47100639D01*
X119506124Y-47100638D01*
X119506122Y-47100637D01*
X119372209Y-47045170D01*
X119285668Y-47033776D01*
X119247010Y-47022049D01*
X119214173Y-46998518D01*
X118477980Y-46262325D01*
X118454449Y-46229487D01*
X118442723Y-46190831D01*
X118431330Y-46104291D01*
X118375861Y-45970375D01*
X118287621Y-45855379D01*
X118189744Y-45780275D01*
X118151952Y-45732335D01*
X118141614Y-45672171D01*
X118161237Y-45614365D01*
X118206064Y-45572927D01*
X118265232Y-45557900D01*
X118719354Y-45557900D01*
X118784632Y-45576473D01*
X118830354Y-45626628D01*
X118860326Y-45686820D01*
X118983236Y-45849580D01*
X119133958Y-45986981D01*
X119307361Y-46094347D01*
X119307363Y-46094348D01*
X119497544Y-46168024D01*
X119698024Y-46205500D01*
X119901974Y-46205500D01*
X119901976Y-46205500D01*
X120102456Y-46168024D01*
X120292637Y-46094348D01*
X120466041Y-45986981D01*
X120616764Y-45849579D01*
X120739673Y-45686821D01*
X120739673Y-45686819D01*
X120739675Y-45686818D01*
X120796385Y-45572927D01*
X120830582Y-45504250D01*
X120886397Y-45308083D01*
X120905215Y-45105000D01*
X120886397Y-44901917D01*
X120886396Y-44901915D01*
X120852554Y-44782973D01*
X120830582Y-44705750D01*
X120797138Y-44638585D01*
X120768749Y-44581571D01*
X120755881Y-44520573D01*
X120774322Y-44461022D01*
X120819410Y-44417971D01*
X120879749Y-44402300D01*
X121260251Y-44402300D01*
X121320590Y-44417971D01*
X121365678Y-44461022D01*
X121384119Y-44520573D01*
X121371251Y-44581571D01*
X121309418Y-44705748D01*
X121253602Y-44901916D01*
X121234785Y-45105000D01*
X121253602Y-45308083D01*
X121309418Y-45504251D01*
X121400324Y-45686818D01*
X121523236Y-45849580D01*
X121673958Y-45986981D01*
X121847361Y-46094347D01*
X121847363Y-46094348D01*
X122037544Y-46168024D01*
X122238024Y-46205500D01*
X122441974Y-46205500D01*
X122441976Y-46205500D01*
X122642456Y-46168024D01*
X122832637Y-46094348D01*
X123006041Y-45986981D01*
X123156764Y-45849579D01*
X123279673Y-45686821D01*
X123345002Y-45555621D01*
X123388784Y-45506694D01*
X123451417Y-45486981D01*
X123515335Y-45502013D01*
X123562615Y-45547577D01*
X123580000Y-45610895D01*
X123580000Y-45761578D01*
X123586408Y-45832104D01*
X123636981Y-45994397D01*
X123724925Y-46139875D01*
X123845124Y-46260074D01*
X123990603Y-46348019D01*
X124152893Y-46398590D01*
X124223424Y-46405000D01*
X124630000Y-46405000D01*
X124630000Y-44979000D01*
X124646613Y-44917000D01*
X124692000Y-44871613D01*
X124754000Y-44855000D01*
X125006000Y-44855000D01*
X125068000Y-44871613D01*
X125113387Y-44917000D01*
X125130000Y-44979000D01*
X125130000Y-46404999D01*
X125536579Y-46404999D01*
X125607104Y-46398591D01*
X125769397Y-46348018D01*
X125914875Y-46260074D01*
X126035074Y-46139875D01*
X126123019Y-45994396D01*
X126173590Y-45832106D01*
X126179999Y-45761576D01*
X126179999Y-45610899D01*
X126197383Y-45547580D01*
X126244663Y-45502016D01*
X126308581Y-45486983D01*
X126371213Y-45506695D01*
X126414999Y-45555626D01*
X126480326Y-45686820D01*
X126603236Y-45849580D01*
X126753958Y-45986981D01*
X126927361Y-46094347D01*
X126927363Y-46094348D01*
X127117544Y-46168024D01*
X127318024Y-46205500D01*
X127521974Y-46205500D01*
X127521976Y-46205500D01*
X127722456Y-46168024D01*
X127912637Y-46094348D01*
X128086041Y-45986981D01*
X128236764Y-45849579D01*
X128359673Y-45686821D01*
X128359673Y-45686819D01*
X128359675Y-45686818D01*
X128416385Y-45572927D01*
X128450582Y-45504250D01*
X128506397Y-45308083D01*
X128525215Y-45105000D01*
X128506397Y-44901917D01*
X128506396Y-44901915D01*
X128472554Y-44782973D01*
X128450582Y-44705750D01*
X128417138Y-44638585D01*
X128388749Y-44581571D01*
X128375881Y-44520573D01*
X128394322Y-44461022D01*
X128439410Y-44417971D01*
X128499749Y-44402300D01*
X128565440Y-44402300D01*
X128612893Y-44411739D01*
X128653121Y-44438619D01*
X128875860Y-44661358D01*
X128908197Y-44717869D01*
X128907445Y-44782973D01*
X128873603Y-44901915D01*
X128854785Y-45105000D01*
X128873602Y-45308083D01*
X128929418Y-45504251D01*
X129020324Y-45686818D01*
X129143236Y-45849580D01*
X129293958Y-45986981D01*
X129467361Y-46094347D01*
X129467363Y-46094348D01*
X129657544Y-46168024D01*
X129858024Y-46205500D01*
X130061974Y-46205500D01*
X130061976Y-46205500D01*
X130262456Y-46168024D01*
X130452637Y-46094348D01*
X130626041Y-45986981D01*
X130776764Y-45849579D01*
X130899673Y-45686821D01*
X130899673Y-45686819D01*
X130899675Y-45686818D01*
X130956385Y-45572927D01*
X130990582Y-45504250D01*
X131046397Y-45308083D01*
X131065215Y-45105000D01*
X131394785Y-45105000D01*
X131413602Y-45308083D01*
X131469418Y-45504251D01*
X131560324Y-45686818D01*
X131683236Y-45849580D01*
X131833958Y-45986981D01*
X132007361Y-46094347D01*
X132007363Y-46094348D01*
X132197544Y-46168024D01*
X132398024Y-46205500D01*
X132601974Y-46205500D01*
X132601976Y-46205500D01*
X132802456Y-46168024D01*
X132992637Y-46094348D01*
X133166041Y-45986981D01*
X133316764Y-45849579D01*
X133439673Y-45686821D01*
X133439673Y-45686819D01*
X133439675Y-45686818D01*
X133496385Y-45572927D01*
X133530582Y-45504250D01*
X133586397Y-45308083D01*
X133605215Y-45105000D01*
X133934785Y-45105000D01*
X133953602Y-45308083D01*
X134009418Y-45504251D01*
X134100324Y-45686818D01*
X134223236Y-45849580D01*
X134373958Y-45986981D01*
X134547361Y-46094347D01*
X134547363Y-46094348D01*
X134737544Y-46168024D01*
X134938024Y-46205500D01*
X135141974Y-46205500D01*
X135141976Y-46205500D01*
X135342456Y-46168024D01*
X135532637Y-46094348D01*
X135706041Y-45986981D01*
X135856764Y-45849579D01*
X135929796Y-45752869D01*
X136479500Y-45752869D01*
X136485909Y-45812483D01*
X136536204Y-45947331D01*
X136622454Y-46062546D01*
X136737669Y-46148796D01*
X136872517Y-46199091D01*
X136932127Y-46205500D01*
X138227872Y-46205499D01*
X138287483Y-46199091D01*
X138422331Y-46148796D01*
X138537546Y-46062546D01*
X138623796Y-45947331D01*
X138674091Y-45812483D01*
X138680500Y-45752873D01*
X138680499Y-45105000D01*
X139014785Y-45105000D01*
X139033602Y-45308083D01*
X139089418Y-45504251D01*
X139180324Y-45686818D01*
X139303236Y-45849580D01*
X139453958Y-45986981D01*
X139627361Y-46094347D01*
X139627363Y-46094348D01*
X139817544Y-46168024D01*
X140018024Y-46205500D01*
X140221974Y-46205500D01*
X140221976Y-46205500D01*
X140422456Y-46168024D01*
X140612637Y-46094348D01*
X140786041Y-45986981D01*
X140936764Y-45849579D01*
X141059673Y-45686821D01*
X141059673Y-45686819D01*
X141059675Y-45686818D01*
X141116385Y-45572927D01*
X141150582Y-45504250D01*
X141206397Y-45308083D01*
X141225215Y-45105000D01*
X141554785Y-45105000D01*
X141573602Y-45308083D01*
X141629418Y-45504251D01*
X141720324Y-45686818D01*
X141843236Y-45849580D01*
X141993958Y-45986981D01*
X142167361Y-46094347D01*
X142167363Y-46094348D01*
X142357544Y-46168024D01*
X142558024Y-46205500D01*
X142761974Y-46205500D01*
X142761976Y-46205500D01*
X142962456Y-46168024D01*
X143152637Y-46094348D01*
X143326041Y-45986981D01*
X143476764Y-45849579D01*
X143599673Y-45686821D01*
X143599673Y-45686819D01*
X143599675Y-45686818D01*
X143656385Y-45572927D01*
X143690582Y-45504250D01*
X143746397Y-45308083D01*
X143765215Y-45105000D01*
X143746397Y-44901917D01*
X143746396Y-44901915D01*
X143712554Y-44782973D01*
X143690582Y-44705750D01*
X143657138Y-44638585D01*
X143599675Y-44523181D01*
X143476763Y-44360419D01*
X143326041Y-44223018D01*
X143152638Y-44115652D01*
X142962457Y-44041976D01*
X142895629Y-44029483D01*
X142761976Y-44004500D01*
X142558024Y-44004500D01*
X142483826Y-44018370D01*
X142357542Y-44041976D01*
X142167361Y-44115652D01*
X141993958Y-44223018D01*
X141843236Y-44360419D01*
X141720324Y-44523181D01*
X141629418Y-44705748D01*
X141573602Y-44901916D01*
X141554785Y-45105000D01*
X141225215Y-45105000D01*
X141206397Y-44901917D01*
X141206396Y-44901915D01*
X141172554Y-44782973D01*
X141150582Y-44705750D01*
X141117138Y-44638585D01*
X141059675Y-44523181D01*
X140936763Y-44360419D01*
X140786041Y-44223018D01*
X140612638Y-44115652D01*
X140422457Y-44041976D01*
X140355629Y-44029483D01*
X140221976Y-44004500D01*
X140018024Y-44004500D01*
X139943826Y-44018370D01*
X139817542Y-44041976D01*
X139627361Y-44115652D01*
X139453958Y-44223018D01*
X139303236Y-44360419D01*
X139180324Y-44523181D01*
X139089418Y-44705748D01*
X139033602Y-44901916D01*
X139014785Y-45105000D01*
X138680499Y-45105000D01*
X138680499Y-44457128D01*
X138674091Y-44397517D01*
X138623796Y-44262669D01*
X138537546Y-44147454D01*
X138422331Y-44061204D01*
X138287483Y-44010909D01*
X138227873Y-44004500D01*
X138227869Y-44004500D01*
X136932130Y-44004500D01*
X136872515Y-44010909D01*
X136737669Y-44061204D01*
X136622454Y-44147454D01*
X136536204Y-44262668D01*
X136485909Y-44397515D01*
X136485909Y-44397517D01*
X136481297Y-44440419D01*
X136479500Y-44457130D01*
X136479500Y-45752869D01*
X135929796Y-45752869D01*
X135979673Y-45686821D01*
X135979673Y-45686819D01*
X135979675Y-45686818D01*
X136036385Y-45572927D01*
X136070582Y-45504250D01*
X136126397Y-45308083D01*
X136145215Y-45105000D01*
X136126397Y-44901917D01*
X136126396Y-44901915D01*
X136092554Y-44782973D01*
X136070582Y-44705750D01*
X136037138Y-44638585D01*
X135979675Y-44523181D01*
X135856763Y-44360419D01*
X135706041Y-44223018D01*
X135532638Y-44115652D01*
X135342457Y-44041976D01*
X135275629Y-44029483D01*
X135141976Y-44004500D01*
X134938024Y-44004500D01*
X134863826Y-44018370D01*
X134737542Y-44041976D01*
X134547361Y-44115652D01*
X134373958Y-44223018D01*
X134223236Y-44360419D01*
X134100324Y-44523181D01*
X134009418Y-44705748D01*
X133953602Y-44901916D01*
X133934785Y-45105000D01*
X133605215Y-45105000D01*
X133586397Y-44901917D01*
X133586396Y-44901915D01*
X133552554Y-44782973D01*
X133530582Y-44705750D01*
X133497138Y-44638585D01*
X133439675Y-44523181D01*
X133316763Y-44360419D01*
X133166041Y-44223018D01*
X132992638Y-44115652D01*
X132802457Y-44041976D01*
X132735629Y-44029483D01*
X132601976Y-44004500D01*
X132398024Y-44004500D01*
X132323826Y-44018370D01*
X132197542Y-44041976D01*
X132007361Y-44115652D01*
X131833958Y-44223018D01*
X131683236Y-44360419D01*
X131560324Y-44523181D01*
X131469418Y-44705748D01*
X131413602Y-44901916D01*
X131394785Y-45105000D01*
X131065215Y-45105000D01*
X131046397Y-44901917D01*
X131046396Y-44901915D01*
X131012554Y-44782973D01*
X130990582Y-44705750D01*
X130957138Y-44638585D01*
X130899675Y-44523181D01*
X130776763Y-44360419D01*
X130626041Y-44223018D01*
X130452638Y-44115652D01*
X130262457Y-44041976D01*
X130195629Y-44029483D01*
X130061976Y-44004500D01*
X129858024Y-44004500D01*
X129657544Y-44041976D01*
X129646338Y-44046317D01*
X129599636Y-44054674D01*
X129553214Y-44044881D01*
X129513867Y-44018370D01*
X129300497Y-43805000D01*
X150530000Y-43805000D01*
X150530000Y-46404999D01*
X150936579Y-46404999D01*
X151007104Y-46398591D01*
X151169397Y-46348018D01*
X151314875Y-46260074D01*
X151435074Y-46139875D01*
X151523019Y-45994396D01*
X151573590Y-45832106D01*
X151579999Y-45761576D01*
X151579999Y-45610899D01*
X151597383Y-45547580D01*
X151644663Y-45502016D01*
X151708581Y-45486983D01*
X151771213Y-45506695D01*
X151814999Y-45555626D01*
X151880326Y-45686820D01*
X152003236Y-45849580D01*
X152153958Y-45986981D01*
X152327361Y-46094347D01*
X152327363Y-46094348D01*
X152517544Y-46168024D01*
X152718024Y-46205500D01*
X152921974Y-46205500D01*
X152921976Y-46205500D01*
X153122456Y-46168024D01*
X153312637Y-46094348D01*
X153486041Y-45986981D01*
X153636764Y-45849579D01*
X153759673Y-45686821D01*
X153759673Y-45686819D01*
X153759675Y-45686818D01*
X153816385Y-45572927D01*
X153850582Y-45504250D01*
X153906397Y-45308083D01*
X153925215Y-45105000D01*
X154254785Y-45105000D01*
X154273602Y-45308083D01*
X154329418Y-45504251D01*
X154420324Y-45686818D01*
X154543236Y-45849580D01*
X154693958Y-45986981D01*
X154867361Y-46094347D01*
X154867363Y-46094348D01*
X155057544Y-46168024D01*
X155258024Y-46205500D01*
X155461974Y-46205500D01*
X155461976Y-46205500D01*
X155662456Y-46168024D01*
X155852637Y-46094348D01*
X156026041Y-45986981D01*
X156176764Y-45849579D01*
X156299673Y-45686821D01*
X156299673Y-45686819D01*
X156299675Y-45686818D01*
X156356385Y-45572927D01*
X156390582Y-45504250D01*
X156446397Y-45308083D01*
X156465215Y-45105000D01*
X156794785Y-45105000D01*
X156813602Y-45308083D01*
X156869418Y-45504251D01*
X156960324Y-45686818D01*
X157083236Y-45849580D01*
X157233958Y-45986981D01*
X157407361Y-46094347D01*
X157407363Y-46094348D01*
X157597544Y-46168024D01*
X157798024Y-46205500D01*
X158001974Y-46205500D01*
X158001976Y-46205500D01*
X158202456Y-46168024D01*
X158392637Y-46094348D01*
X158566041Y-45986981D01*
X158716764Y-45849579D01*
X158839673Y-45686821D01*
X158839673Y-45686819D01*
X158839675Y-45686818D01*
X158896385Y-45572927D01*
X158930582Y-45504250D01*
X158986397Y-45308083D01*
X159005215Y-45105000D01*
X159334785Y-45105000D01*
X159353602Y-45308083D01*
X159409418Y-45504251D01*
X159500324Y-45686818D01*
X159623236Y-45849580D01*
X159773958Y-45986981D01*
X159947361Y-46094347D01*
X159947363Y-46094348D01*
X160137544Y-46168024D01*
X160338024Y-46205500D01*
X160541974Y-46205500D01*
X160541976Y-46205500D01*
X160742456Y-46168024D01*
X160932637Y-46094348D01*
X161106041Y-45986981D01*
X161256764Y-45849579D01*
X161379673Y-45686821D01*
X161445002Y-45555621D01*
X161488784Y-45506694D01*
X161551417Y-45486981D01*
X161615335Y-45502013D01*
X161662615Y-45547577D01*
X161680000Y-45610895D01*
X161680000Y-45761578D01*
X161686408Y-45832104D01*
X161736981Y-45994397D01*
X161824925Y-46139875D01*
X161945124Y-46260074D01*
X162090603Y-46348019D01*
X162252893Y-46398590D01*
X162323424Y-46405000D01*
X162730000Y-46405000D01*
X162730000Y-43805001D01*
X162323421Y-43805001D01*
X162252895Y-43811408D01*
X162090602Y-43861981D01*
X161945124Y-43949925D01*
X161824925Y-44070124D01*
X161736980Y-44215603D01*
X161686409Y-44377893D01*
X161680000Y-44448424D01*
X161680000Y-44599101D01*
X161662615Y-44662419D01*
X161615335Y-44707983D01*
X161551418Y-44723016D01*
X161488785Y-44703304D01*
X161445000Y-44654372D01*
X161379675Y-44523181D01*
X161256763Y-44360419D01*
X161106041Y-44223018D01*
X160932638Y-44115652D01*
X160742457Y-44041976D01*
X160675629Y-44029483D01*
X160541976Y-44004500D01*
X160338024Y-44004500D01*
X160263826Y-44018370D01*
X160137542Y-44041976D01*
X159947361Y-44115652D01*
X159773958Y-44223018D01*
X159623236Y-44360419D01*
X159500324Y-44523181D01*
X159409418Y-44705748D01*
X159353602Y-44901916D01*
X159334785Y-45105000D01*
X159005215Y-45105000D01*
X158986397Y-44901917D01*
X158986396Y-44901915D01*
X158952554Y-44782973D01*
X158930582Y-44705750D01*
X158897138Y-44638585D01*
X158839675Y-44523181D01*
X158716763Y-44360419D01*
X158566041Y-44223018D01*
X158392638Y-44115652D01*
X158202457Y-44041976D01*
X158135629Y-44029483D01*
X158001976Y-44004500D01*
X157798024Y-44004500D01*
X157723826Y-44018370D01*
X157597542Y-44041976D01*
X157407361Y-44115652D01*
X157233958Y-44223018D01*
X157083236Y-44360419D01*
X156960324Y-44523181D01*
X156869418Y-44705748D01*
X156813602Y-44901916D01*
X156794785Y-45105000D01*
X156465215Y-45105000D01*
X156446397Y-44901917D01*
X156446396Y-44901915D01*
X156412554Y-44782973D01*
X156390582Y-44705750D01*
X156357138Y-44638585D01*
X156299675Y-44523181D01*
X156176763Y-44360419D01*
X156026041Y-44223018D01*
X155852638Y-44115652D01*
X155662457Y-44041976D01*
X155595629Y-44029483D01*
X155461976Y-44004500D01*
X155258024Y-44004500D01*
X155183826Y-44018370D01*
X155057542Y-44041976D01*
X154867361Y-44115652D01*
X154693958Y-44223018D01*
X154543236Y-44360419D01*
X154420324Y-44523181D01*
X154329418Y-44705748D01*
X154273602Y-44901916D01*
X154254785Y-45105000D01*
X153925215Y-45105000D01*
X153906397Y-44901917D01*
X153906396Y-44901915D01*
X153872554Y-44782973D01*
X153850582Y-44705750D01*
X153817138Y-44638585D01*
X153759675Y-44523181D01*
X153636763Y-44360419D01*
X153486041Y-44223018D01*
X153312638Y-44115652D01*
X153122457Y-44041976D01*
X153055629Y-44029483D01*
X152921976Y-44004500D01*
X152718024Y-44004500D01*
X152643826Y-44018370D01*
X152517542Y-44041976D01*
X152327361Y-44115652D01*
X152153958Y-44223018D01*
X152003236Y-44360419D01*
X151880324Y-44523181D01*
X151814999Y-44654374D01*
X151771214Y-44703306D01*
X151708581Y-44723018D01*
X151644664Y-44707985D01*
X151597384Y-44662421D01*
X151579999Y-44599103D01*
X151579999Y-44448421D01*
X151573591Y-44377895D01*
X151523018Y-44215602D01*
X151435074Y-44070124D01*
X151314875Y-43949925D01*
X151169396Y-43861980D01*
X151007106Y-43811409D01*
X150936576Y-43805000D01*
X163230000Y-43805000D01*
X163230000Y-46404999D01*
X163636579Y-46404999D01*
X163707104Y-46398591D01*
X163869397Y-46348018D01*
X164014875Y-46260074D01*
X164135074Y-46139875D01*
X164223019Y-45994396D01*
X164273590Y-45832106D01*
X164279999Y-45761576D01*
X164279999Y-45610899D01*
X164297383Y-45547580D01*
X164344663Y-45502016D01*
X164408581Y-45486983D01*
X164471213Y-45506695D01*
X164514999Y-45555626D01*
X164580326Y-45686820D01*
X164703236Y-45849580D01*
X164853958Y-45986981D01*
X165027361Y-46094347D01*
X165027363Y-46094348D01*
X165217544Y-46168024D01*
X165418024Y-46205500D01*
X165621974Y-46205500D01*
X165621976Y-46205500D01*
X165822456Y-46168024D01*
X166012637Y-46094348D01*
X166186041Y-45986981D01*
X166336764Y-45849579D01*
X166459673Y-45686821D01*
X166459673Y-45686819D01*
X166459675Y-45686818D01*
X166516385Y-45572927D01*
X166550582Y-45504250D01*
X166606397Y-45308083D01*
X166625215Y-45105000D01*
X166954785Y-45105000D01*
X166973602Y-45308083D01*
X167029418Y-45504251D01*
X167120324Y-45686818D01*
X167243236Y-45849580D01*
X167393958Y-45986981D01*
X167567361Y-46094347D01*
X167567363Y-46094348D01*
X167757544Y-46168024D01*
X167958024Y-46205500D01*
X168161974Y-46205500D01*
X168161976Y-46205500D01*
X168362456Y-46168024D01*
X168552637Y-46094348D01*
X168726041Y-45986981D01*
X168876764Y-45849579D01*
X168999673Y-45686821D01*
X168999673Y-45686819D01*
X168999675Y-45686818D01*
X169056385Y-45572927D01*
X169090582Y-45504250D01*
X169146397Y-45308083D01*
X169165215Y-45105000D01*
X169146397Y-44901917D01*
X169146396Y-44901915D01*
X169112554Y-44782973D01*
X169090582Y-44705750D01*
X169057138Y-44638585D01*
X168999675Y-44523181D01*
X168876763Y-44360419D01*
X168726041Y-44223018D01*
X168552638Y-44115652D01*
X168362457Y-44041976D01*
X168295629Y-44029483D01*
X168161976Y-44004500D01*
X167958024Y-44004500D01*
X167883826Y-44018370D01*
X167757542Y-44041976D01*
X167567361Y-44115652D01*
X167393958Y-44223018D01*
X167243236Y-44360419D01*
X167120324Y-44523181D01*
X167029418Y-44705748D01*
X166973602Y-44901916D01*
X166954785Y-45105000D01*
X166625215Y-45105000D01*
X166606397Y-44901917D01*
X166606396Y-44901915D01*
X166572554Y-44782973D01*
X166550582Y-44705750D01*
X166517138Y-44638585D01*
X166459675Y-44523181D01*
X166336763Y-44360419D01*
X166186041Y-44223018D01*
X166012638Y-44115652D01*
X165822457Y-44041976D01*
X165755629Y-44029483D01*
X165621976Y-44004500D01*
X165418024Y-44004500D01*
X165343826Y-44018370D01*
X165217542Y-44041976D01*
X165027361Y-44115652D01*
X164853958Y-44223018D01*
X164703236Y-44360419D01*
X164580324Y-44523181D01*
X164514999Y-44654374D01*
X164471214Y-44703306D01*
X164408581Y-44723018D01*
X164344664Y-44707985D01*
X164297384Y-44662421D01*
X164279999Y-44599103D01*
X164279999Y-44448421D01*
X164273591Y-44377895D01*
X164223018Y-44215602D01*
X164135074Y-44070124D01*
X164014875Y-43949925D01*
X163869396Y-43861980D01*
X163707106Y-43811409D01*
X163636576Y-43805000D01*
X163230000Y-43805000D01*
X150936576Y-43805000D01*
X150530000Y-43805000D01*
X129300497Y-43805000D01*
X129147557Y-43652060D01*
X129138299Y-43641701D01*
X129115930Y-43613651D01*
X129068433Y-43581269D01*
X129064703Y-43578622D01*
X129018416Y-43544460D01*
X129018414Y-43544459D01*
X129013592Y-43540900D01*
X129008856Y-43538509D01*
X128948232Y-43519809D01*
X128943830Y-43518360D01*
X128883916Y-43497396D01*
X128878640Y-43496500D01*
X128872664Y-43496500D01*
X128815199Y-43496500D01*
X128810563Y-43496413D01*
X128747134Y-43494039D01*
X128728448Y-43496500D01*
X117222279Y-43496500D01*
X117208395Y-43495720D01*
X117172760Y-43491704D01*
X117116290Y-43502388D01*
X117111723Y-43503164D01*
X117048971Y-43512623D01*
X117043898Y-43514292D01*
X116987802Y-43543939D01*
X116983666Y-43546027D01*
X116926492Y-43573561D01*
X116922133Y-43576654D01*
X116877282Y-43621505D01*
X116873946Y-43624719D01*
X116827408Y-43667901D01*
X116815933Y-43682854D01*
X114867008Y-45631781D01*
X114826780Y-45658661D01*
X114779327Y-45668100D01*
X103612900Y-45668100D01*
X103550900Y-45651487D01*
X103505513Y-45606100D01*
X103488900Y-45544100D01*
X103488900Y-43189232D01*
X103503927Y-43130064D01*
X103545365Y-43085237D01*
X103603171Y-43065614D01*
X103663335Y-43075952D01*
X103711275Y-43113744D01*
X103786379Y-43211621D01*
X103901375Y-43299861D01*
X104035291Y-43355330D01*
X104179000Y-43374250D01*
X104322709Y-43355330D01*
X104456625Y-43299861D01*
X104571621Y-43211621D01*
X104659861Y-43096625D01*
X104699438Y-43001074D01*
X104733468Y-42954236D01*
X104785053Y-42927952D01*
X104842947Y-42927952D01*
X104894532Y-42954236D01*
X104928561Y-43001074D01*
X104968137Y-43096622D01*
X104968138Y-43096624D01*
X104968139Y-43096625D01*
X105056379Y-43211621D01*
X105171375Y-43299861D01*
X105305291Y-43355330D01*
X105449000Y-43374250D01*
X105592709Y-43355330D01*
X105726625Y-43299861D01*
X105841621Y-43211621D01*
X105929861Y-43096625D01*
X105969438Y-43001074D01*
X106003468Y-42954236D01*
X106055053Y-42927952D01*
X106112947Y-42927952D01*
X106164532Y-42954236D01*
X106198561Y-43001074D01*
X106238137Y-43096622D01*
X106238138Y-43096624D01*
X106238139Y-43096625D01*
X106326379Y-43211621D01*
X106441375Y-43299861D01*
X106575291Y-43355330D01*
X106719000Y-43374250D01*
X106862709Y-43355330D01*
X106996625Y-43299861D01*
X107111621Y-43211621D01*
X107199861Y-43096625D01*
X107239438Y-43001074D01*
X107273468Y-42954236D01*
X107325053Y-42927952D01*
X107382947Y-42927952D01*
X107434532Y-42954236D01*
X107468561Y-43001074D01*
X107508137Y-43096622D01*
X107508138Y-43096624D01*
X107508139Y-43096625D01*
X107596379Y-43211621D01*
X107711375Y-43299861D01*
X107845291Y-43355330D01*
X107989000Y-43374250D01*
X108132709Y-43355330D01*
X108266625Y-43299861D01*
X108335189Y-43247250D01*
X108335875Y-43246724D01*
X108371503Y-43227681D01*
X108411361Y-43221100D01*
X108497186Y-43221100D01*
X108497187Y-43221100D01*
X108518385Y-43214212D01*
X108537292Y-43209673D01*
X108559305Y-43206187D01*
X108579168Y-43196065D01*
X108597131Y-43188625D01*
X108618325Y-43181740D01*
X108636354Y-43168640D01*
X108652934Y-43158479D01*
X108672794Y-43148361D01*
X108672795Y-43148359D01*
X108685178Y-43142050D01*
X108740391Y-43128539D01*
X108795832Y-43141083D01*
X108839850Y-43177048D01*
X108864882Y-43209671D01*
X108866379Y-43211621D01*
X108981375Y-43299861D01*
X109115291Y-43355330D01*
X109259000Y-43374250D01*
X109402709Y-43355330D01*
X109536625Y-43299861D01*
X109651621Y-43211621D01*
X109739861Y-43096625D01*
X109779438Y-43001074D01*
X109813468Y-42954236D01*
X109865053Y-42927952D01*
X109922947Y-42927952D01*
X109974532Y-42954236D01*
X110008561Y-43001074D01*
X110048137Y-43096622D01*
X110048138Y-43096624D01*
X110048139Y-43096625D01*
X110136379Y-43211621D01*
X110251375Y-43299861D01*
X110385291Y-43355330D01*
X110529000Y-43374250D01*
X110672709Y-43355330D01*
X110806625Y-43299861D01*
X110921621Y-43211621D01*
X111009861Y-43096625D01*
X111049438Y-43001074D01*
X111083468Y-42954236D01*
X111135053Y-42927952D01*
X111192947Y-42927952D01*
X111244532Y-42954236D01*
X111278561Y-43001074D01*
X111318137Y-43096622D01*
X111318138Y-43096624D01*
X111318139Y-43096625D01*
X111406379Y-43211621D01*
X111521375Y-43299861D01*
X111655291Y-43355330D01*
X111799000Y-43374250D01*
X111942709Y-43355330D01*
X112076625Y-43299861D01*
X112191621Y-43211621D01*
X112279861Y-43096625D01*
X112335330Y-42962709D01*
X112346723Y-42876165D01*
X112358449Y-42837511D01*
X112381977Y-42804676D01*
X117191788Y-37994867D01*
X139049500Y-37994867D01*
X139052414Y-38019988D01*
X139052414Y-38019990D01*
X139052415Y-38019991D01*
X139066497Y-38051883D01*
X139097795Y-38122767D01*
X139177232Y-38202204D01*
X139177233Y-38202204D01*
X139177235Y-38202206D01*
X139280009Y-38247585D01*
X139305135Y-38250500D01*
X141094864Y-38250499D01*
X141094867Y-38250499D01*
X141107427Y-38249041D01*
X141119991Y-38247585D01*
X141222765Y-38202206D01*
X141302206Y-38122765D01*
X141347585Y-38019991D01*
X141350500Y-37994865D01*
X141350499Y-37256046D01*
X141366170Y-37195710D01*
X141409221Y-37150622D01*
X141468772Y-37132181D01*
X141529770Y-37145049D01*
X141576799Y-37185972D01*
X141597970Y-37244607D01*
X141604243Y-37312310D01*
X141662595Y-37517390D01*
X141757631Y-37708252D01*
X141867092Y-37853200D01*
X141886128Y-37878407D01*
X142043698Y-38022052D01*
X142224981Y-38134298D01*
X142423802Y-38211321D01*
X142633390Y-38250500D01*
X142846608Y-38250500D01*
X142846610Y-38250500D01*
X143056198Y-38211321D01*
X143255019Y-38134298D01*
X143436302Y-38022052D01*
X143593872Y-37878407D01*
X143722366Y-37708255D01*
X143722366Y-37708253D01*
X143722368Y-37708252D01*
X143789931Y-37572564D01*
X143817405Y-37517389D01*
X143875756Y-37312310D01*
X143886529Y-37196047D01*
X143906633Y-37138996D01*
X143949410Y-37099999D01*
X144070589Y-37099999D01*
X144113367Y-37138996D01*
X144133471Y-37196048D01*
X144144243Y-37312310D01*
X144202595Y-37517390D01*
X144297631Y-37708252D01*
X144407092Y-37853200D01*
X144426128Y-37878407D01*
X144583698Y-38022052D01*
X144764981Y-38134298D01*
X144963802Y-38211321D01*
X145173390Y-38250500D01*
X145386608Y-38250500D01*
X145386610Y-38250500D01*
X145596198Y-38211321D01*
X145795019Y-38134298D01*
X145976302Y-38022052D01*
X146133872Y-37878407D01*
X146262366Y-37708255D01*
X146262366Y-37708253D01*
X146262368Y-37708252D01*
X146329931Y-37572564D01*
X146357405Y-37517389D01*
X146415756Y-37312310D01*
X146426529Y-37196047D01*
X146446633Y-37138996D01*
X146489410Y-37099999D01*
X146610589Y-37099999D01*
X146653367Y-37138996D01*
X146673471Y-37196048D01*
X146684243Y-37312310D01*
X146742595Y-37517390D01*
X146837631Y-37708252D01*
X146947092Y-37853200D01*
X146966128Y-37878407D01*
X147123698Y-38022052D01*
X147304981Y-38134298D01*
X147503802Y-38211321D01*
X147713390Y-38250500D01*
X147926608Y-38250500D01*
X147926610Y-38250500D01*
X148136198Y-38211321D01*
X148335019Y-38134298D01*
X148516302Y-38022052D01*
X148673872Y-37878407D01*
X148802366Y-37708255D01*
X148802366Y-37708253D01*
X148802368Y-37708252D01*
X148869931Y-37572564D01*
X148897405Y-37517389D01*
X148955756Y-37312310D01*
X148966529Y-37196047D01*
X148986633Y-37138996D01*
X149029410Y-37099999D01*
X149150589Y-37099999D01*
X149193367Y-37138996D01*
X149213471Y-37196048D01*
X149224243Y-37312310D01*
X149282595Y-37517390D01*
X149377631Y-37708252D01*
X149487092Y-37853200D01*
X149506128Y-37878407D01*
X149663698Y-38022052D01*
X149844981Y-38134298D01*
X150043802Y-38211321D01*
X150253390Y-38250500D01*
X150466608Y-38250500D01*
X150466610Y-38250500D01*
X150676198Y-38211321D01*
X150875019Y-38134298D01*
X151056302Y-38022052D01*
X151213872Y-37878407D01*
X151342366Y-37708255D01*
X151342366Y-37708253D01*
X151342368Y-37708252D01*
X151409931Y-37572564D01*
X151437405Y-37517389D01*
X151495756Y-37312310D01*
X151506529Y-37196047D01*
X151526633Y-37138996D01*
X151569410Y-37099999D01*
X151690589Y-37099999D01*
X151733367Y-37138996D01*
X151753471Y-37196048D01*
X151764243Y-37312310D01*
X151822595Y-37517390D01*
X151917631Y-37708252D01*
X152027092Y-37853200D01*
X152046128Y-37878407D01*
X152203698Y-38022052D01*
X152384981Y-38134298D01*
X152583802Y-38211321D01*
X152793390Y-38250500D01*
X153006608Y-38250500D01*
X153006610Y-38250500D01*
X153216198Y-38211321D01*
X153415019Y-38134298D01*
X153596302Y-38022052D01*
X153753872Y-37878407D01*
X153882366Y-37708255D01*
X153882366Y-37708253D01*
X153882368Y-37708252D01*
X153949931Y-37572564D01*
X153977405Y-37517389D01*
X154035756Y-37312310D01*
X154046529Y-37196047D01*
X154066633Y-37138996D01*
X154109410Y-37099999D01*
X154230589Y-37099999D01*
X154273367Y-37138996D01*
X154293471Y-37196048D01*
X154304243Y-37312310D01*
X154362595Y-37517390D01*
X154457631Y-37708252D01*
X154567092Y-37853200D01*
X154586128Y-37878407D01*
X154743698Y-38022052D01*
X154924981Y-38134298D01*
X155123802Y-38211321D01*
X155333390Y-38250500D01*
X155546608Y-38250500D01*
X155546610Y-38250500D01*
X155756198Y-38211321D01*
X155955019Y-38134298D01*
X156136302Y-38022052D01*
X156293872Y-37878407D01*
X156422366Y-37708255D01*
X156422366Y-37708253D01*
X156422368Y-37708252D01*
X156489931Y-37572564D01*
X156517405Y-37517389D01*
X156575756Y-37312310D01*
X156586529Y-37196047D01*
X156606633Y-37138996D01*
X156649410Y-37099999D01*
X156770589Y-37099999D01*
X156813367Y-37138996D01*
X156833471Y-37196048D01*
X156844243Y-37312310D01*
X156902595Y-37517390D01*
X156997631Y-37708252D01*
X157107092Y-37853200D01*
X157126128Y-37878407D01*
X157283698Y-38022052D01*
X157464981Y-38134298D01*
X157663802Y-38211321D01*
X157873390Y-38250500D01*
X158086608Y-38250500D01*
X158086610Y-38250500D01*
X158296198Y-38211321D01*
X158495019Y-38134298D01*
X158676302Y-38022052D01*
X158833872Y-37878407D01*
X158962366Y-37708255D01*
X158962366Y-37708253D01*
X158962368Y-37708252D01*
X159029931Y-37572564D01*
X159057405Y-37517389D01*
X159115756Y-37312310D01*
X159126529Y-37196047D01*
X159146633Y-37138996D01*
X159189410Y-37099999D01*
X159310589Y-37099999D01*
X159353367Y-37138996D01*
X159373471Y-37196048D01*
X159384243Y-37312310D01*
X159442595Y-37517390D01*
X159537631Y-37708252D01*
X159647092Y-37853200D01*
X159666128Y-37878407D01*
X159823698Y-38022052D01*
X160004981Y-38134298D01*
X160203802Y-38211321D01*
X160413390Y-38250500D01*
X160626608Y-38250500D01*
X160626610Y-38250500D01*
X160836198Y-38211321D01*
X161035019Y-38134298D01*
X161216302Y-38022052D01*
X161373872Y-37878407D01*
X161502366Y-37708255D01*
X161502366Y-37708253D01*
X161502368Y-37708252D01*
X161569931Y-37572564D01*
X161597405Y-37517389D01*
X161655756Y-37312310D01*
X161666529Y-37196047D01*
X161686633Y-37138996D01*
X161729410Y-37099999D01*
X161850589Y-37099999D01*
X161893367Y-37138996D01*
X161913471Y-37196048D01*
X161924243Y-37312310D01*
X161982595Y-37517390D01*
X162077631Y-37708252D01*
X162187092Y-37853200D01*
X162206128Y-37878407D01*
X162363698Y-38022052D01*
X162544981Y-38134298D01*
X162743802Y-38211321D01*
X162953390Y-38250500D01*
X163166608Y-38250500D01*
X163166610Y-38250500D01*
X163376198Y-38211321D01*
X163443298Y-38185325D01*
X163490001Y-38176967D01*
X163536425Y-38186760D01*
X163575773Y-38213271D01*
X168239838Y-42877335D01*
X168249105Y-42887704D01*
X168271470Y-42915750D01*
X168305007Y-42938614D01*
X168318960Y-42948127D01*
X168322695Y-42950776D01*
X168348230Y-42969622D01*
X168373808Y-42988501D01*
X168378540Y-42990889D01*
X168384272Y-42992657D01*
X168384274Y-42992658D01*
X168439195Y-43009598D01*
X168443582Y-43011042D01*
X168470452Y-43020444D01*
X168503496Y-43032008D01*
X168508744Y-43032900D01*
X168514736Y-43032900D01*
X168572202Y-43032900D01*
X168576838Y-43032987D01*
X168640265Y-43035360D01*
X168658952Y-43032900D01*
X173763499Y-43032900D01*
X173828777Y-43051473D01*
X173874499Y-43101629D01*
X173917631Y-43188252D01*
X174043804Y-43355330D01*
X174046128Y-43358407D01*
X174203698Y-43502052D01*
X174384981Y-43614298D01*
X174583802Y-43691321D01*
X174780613Y-43728111D01*
X174841365Y-43758363D01*
X174877093Y-43816066D01*
X174877093Y-43883934D01*
X174841365Y-43941637D01*
X174780613Y-43971888D01*
X174650475Y-43996215D01*
X174583801Y-44008679D01*
X174384982Y-44085701D01*
X174203698Y-44197947D01*
X174046126Y-44341594D01*
X173917631Y-44511747D01*
X173822595Y-44702609D01*
X173764243Y-44907689D01*
X173744571Y-45120000D01*
X173764243Y-45332310D01*
X173822595Y-45537390D01*
X173917631Y-45728252D01*
X174046126Y-45898405D01*
X174046128Y-45898407D01*
X174203698Y-46042052D01*
X174384981Y-46154298D01*
X174583802Y-46231321D01*
X174793390Y-46270500D01*
X175006608Y-46270500D01*
X175006610Y-46270500D01*
X175216198Y-46231321D01*
X175415019Y-46154298D01*
X175596302Y-46042052D01*
X175753872Y-45898407D01*
X175882366Y-45728255D01*
X175882366Y-45728253D01*
X175882368Y-45728252D01*
X175949107Y-45594219D01*
X175977405Y-45537389D01*
X176035756Y-45332310D01*
X176055429Y-45120000D01*
X176035756Y-44907690D01*
X176034113Y-44901917D01*
X175983211Y-44723018D01*
X175977405Y-44702611D01*
X175952254Y-44652100D01*
X175882368Y-44511747D01*
X175753873Y-44341594D01*
X175737085Y-44326290D01*
X175623802Y-44223018D01*
X175596301Y-44197947D01*
X175415017Y-44085701D01*
X175334926Y-44054674D01*
X175216198Y-44008679D01*
X175067249Y-43980835D01*
X175019386Y-43971888D01*
X174958633Y-43941636D01*
X174922905Y-43883933D01*
X174922906Y-43816064D01*
X174958634Y-43758362D01*
X175019382Y-43728112D01*
X175216198Y-43691321D01*
X175415019Y-43614298D01*
X175596302Y-43502052D01*
X175753872Y-43358407D01*
X175882366Y-43188255D01*
X175882366Y-43188253D01*
X175882368Y-43188252D01*
X175945117Y-43062232D01*
X175977405Y-42997389D01*
X176035756Y-42792310D01*
X176055429Y-42580000D01*
X176035756Y-42367690D01*
X175977405Y-42162611D01*
X175976819Y-42161434D01*
X175882368Y-41971747D01*
X175753873Y-41801594D01*
X175596301Y-41657947D01*
X175415017Y-41545701D01*
X175361574Y-41524997D01*
X175216198Y-41468679D01*
X175062619Y-41439970D01*
X175019386Y-41431888D01*
X174958633Y-41401636D01*
X174922905Y-41343933D01*
X174922906Y-41276064D01*
X174958634Y-41218362D01*
X175019382Y-41188112D01*
X175216198Y-41151321D01*
X175415019Y-41074298D01*
X175596302Y-40962052D01*
X175753872Y-40818407D01*
X175882366Y-40648255D01*
X175882366Y-40648253D01*
X175882368Y-40648252D01*
X175942634Y-40527220D01*
X175977405Y-40457389D01*
X176035756Y-40252310D01*
X176055429Y-40040000D01*
X176035756Y-39827690D01*
X175977405Y-39622611D01*
X175958155Y-39583951D01*
X175882368Y-39431747D01*
X175753873Y-39261594D01*
X175596301Y-39117947D01*
X175484802Y-39048909D01*
X175415019Y-39005702D01*
X175415017Y-39005701D01*
X175216198Y-38928679D01*
X175043455Y-38896387D01*
X174988502Y-38871105D01*
X174952049Y-38822832D01*
X174942770Y-38763057D01*
X174962874Y-38706006D01*
X175007577Y-38665253D01*
X175066239Y-38650499D01*
X175794864Y-38650499D01*
X175794867Y-38650499D01*
X175807427Y-38649042D01*
X175819991Y-38647585D01*
X175922765Y-38602206D01*
X176002206Y-38522765D01*
X176047585Y-38419991D01*
X176050500Y-38394865D01*
X176050499Y-36605136D01*
X176047585Y-36580009D01*
X176002206Y-36477235D01*
X176002204Y-36477233D01*
X176002204Y-36477232D01*
X175922767Y-36397795D01*
X175879385Y-36378640D01*
X175819991Y-36352415D01*
X175794865Y-36349500D01*
X175794863Y-36349500D01*
X174005132Y-36349500D01*
X173980011Y-36352414D01*
X173877232Y-36397795D01*
X173797795Y-36477232D01*
X173752415Y-36580009D01*
X173749500Y-36605136D01*
X173749500Y-38394867D01*
X173752414Y-38419988D01*
X173797795Y-38522767D01*
X173877232Y-38602204D01*
X173877233Y-38602204D01*
X173877235Y-38602206D01*
X173980009Y-38647585D01*
X174005135Y-38650500D01*
X174733759Y-38650499D01*
X174792420Y-38665253D01*
X174837124Y-38706005D01*
X174857228Y-38763057D01*
X174847949Y-38822832D01*
X174811496Y-38871105D01*
X174756543Y-38896387D01*
X174583802Y-38928679D01*
X174530357Y-38949383D01*
X174384982Y-39005701D01*
X174203698Y-39117947D01*
X174046126Y-39261594D01*
X173917631Y-39431747D01*
X173822595Y-39622609D01*
X173764243Y-39827689D01*
X173744571Y-40040000D01*
X173764243Y-40252310D01*
X173822595Y-40457390D01*
X173917631Y-40648252D01*
X173926503Y-40660000D01*
X174046128Y-40818407D01*
X174203698Y-40962052D01*
X174384981Y-41074298D01*
X174583802Y-41151321D01*
X174780613Y-41188111D01*
X174841365Y-41218363D01*
X174877093Y-41276066D01*
X174877093Y-41343934D01*
X174841365Y-41401637D01*
X174780613Y-41431888D01*
X174650475Y-41456215D01*
X174583801Y-41468679D01*
X174384982Y-41545701D01*
X174203698Y-41657947D01*
X174046126Y-41801594D01*
X173917631Y-41971747D01*
X173874499Y-42058371D01*
X173828777Y-42108527D01*
X173763499Y-42127100D01*
X168821959Y-42127100D01*
X168774506Y-42117661D01*
X168734278Y-42090781D01*
X164999186Y-38355689D01*
X164966428Y-38297512D01*
X164968587Y-38230781D01*
X165005036Y-38174843D01*
X165065209Y-38145914D01*
X165131658Y-38152380D01*
X165283802Y-38211321D01*
X165493390Y-38250500D01*
X165706608Y-38250500D01*
X165706610Y-38250500D01*
X165916198Y-38211321D01*
X166115019Y-38134298D01*
X166296302Y-38022052D01*
X166453872Y-37878407D01*
X166582366Y-37708255D01*
X166582366Y-37708253D01*
X166582368Y-37708252D01*
X166649931Y-37572564D01*
X166677405Y-37517389D01*
X166735756Y-37312310D01*
X166746529Y-37196047D01*
X166766633Y-37138996D01*
X166809410Y-37099999D01*
X166930589Y-37099999D01*
X166973367Y-37138996D01*
X166993471Y-37196048D01*
X167004243Y-37312310D01*
X167062595Y-37517390D01*
X167157631Y-37708252D01*
X167267092Y-37853200D01*
X167286128Y-37878407D01*
X167443698Y-38022052D01*
X167624981Y-38134298D01*
X167823802Y-38211321D01*
X168033390Y-38250500D01*
X168246608Y-38250500D01*
X168246610Y-38250500D01*
X168456198Y-38211321D01*
X168655019Y-38134298D01*
X168836302Y-38022052D01*
X168993872Y-37878407D01*
X169122366Y-37708255D01*
X169122366Y-37708253D01*
X169122368Y-37708252D01*
X169189931Y-37572564D01*
X169217405Y-37517389D01*
X169275756Y-37312310D01*
X169295429Y-37100000D01*
X169275756Y-36887690D01*
X169217405Y-36682611D01*
X169201344Y-36650356D01*
X169122368Y-36491747D01*
X168993873Y-36321594D01*
X168836301Y-36177947D01*
X168673645Y-36077235D01*
X168655019Y-36065702D01*
X168655017Y-36065701D01*
X168456198Y-35988679D01*
X168456197Y-35988678D01*
X168246610Y-35949500D01*
X168033390Y-35949500D01*
X167893664Y-35975619D01*
X167823801Y-35988679D01*
X167624982Y-36065701D01*
X167443698Y-36177947D01*
X167286126Y-36321594D01*
X167157631Y-36491747D01*
X167062595Y-36682609D01*
X167004243Y-36887689D01*
X166993471Y-37003951D01*
X166973367Y-37061003D01*
X166930589Y-37099999D01*
X166809410Y-37099999D01*
X166766633Y-37061003D01*
X166746529Y-37003951D01*
X166735756Y-36887689D01*
X166677404Y-36682609D01*
X166582368Y-36491747D01*
X166453873Y-36321594D01*
X166296301Y-36177947D01*
X166133645Y-36077235D01*
X166115019Y-36065702D01*
X166115017Y-36065701D01*
X165916198Y-35988679D01*
X165916197Y-35988678D01*
X165706610Y-35949500D01*
X165493390Y-35949500D01*
X165353664Y-35975619D01*
X165283801Y-35988679D01*
X165084982Y-36065701D01*
X164903698Y-36177947D01*
X164746126Y-36321594D01*
X164617631Y-36491747D01*
X164522595Y-36682609D01*
X164464243Y-36887689D01*
X164453471Y-37003951D01*
X164433367Y-37061003D01*
X164390589Y-37099999D01*
X164433367Y-37138996D01*
X164453471Y-37196048D01*
X164464243Y-37312310D01*
X164522593Y-37517386D01*
X164542505Y-37557374D01*
X164554864Y-37625227D01*
X164529060Y-37689188D01*
X164473076Y-37729469D01*
X164404230Y-37733608D01*
X164343823Y-37700326D01*
X164194133Y-37550636D01*
X164161795Y-37494125D01*
X164162547Y-37429021D01*
X164195756Y-37312310D01*
X164206529Y-37196047D01*
X164226633Y-37138996D01*
X164269410Y-37099999D01*
X164226633Y-37061003D01*
X164206529Y-37003951D01*
X164195756Y-36887689D01*
X164137404Y-36682609D01*
X164042368Y-36491747D01*
X163913873Y-36321594D01*
X163756301Y-36177947D01*
X163593645Y-36077235D01*
X163575019Y-36065702D01*
X163575017Y-36065701D01*
X163376198Y-35988679D01*
X163376197Y-35988678D01*
X163166610Y-35949500D01*
X162953390Y-35949500D01*
X162813664Y-35975619D01*
X162743801Y-35988679D01*
X162544982Y-36065701D01*
X162363698Y-36177947D01*
X162206126Y-36321594D01*
X162077631Y-36491747D01*
X161982595Y-36682609D01*
X161924243Y-36887689D01*
X161913471Y-37003951D01*
X161893367Y-37061003D01*
X161850589Y-37099999D01*
X161729410Y-37099999D01*
X161686633Y-37061003D01*
X161666529Y-37003951D01*
X161655756Y-36887689D01*
X161597404Y-36682609D01*
X161502368Y-36491747D01*
X161373873Y-36321594D01*
X161216301Y-36177947D01*
X161053645Y-36077235D01*
X161035019Y-36065702D01*
X161035017Y-36065701D01*
X160836198Y-35988679D01*
X160836197Y-35988678D01*
X160626610Y-35949500D01*
X160413390Y-35949500D01*
X160273664Y-35975619D01*
X160203801Y-35988679D01*
X160004982Y-36065701D01*
X159823698Y-36177947D01*
X159666126Y-36321594D01*
X159537631Y-36491747D01*
X159442595Y-36682609D01*
X159384243Y-36887689D01*
X159373471Y-37003951D01*
X159353367Y-37061003D01*
X159310589Y-37099999D01*
X159189410Y-37099999D01*
X159146633Y-37061003D01*
X159126529Y-37003951D01*
X159115756Y-36887689D01*
X159057404Y-36682609D01*
X158962368Y-36491747D01*
X158833873Y-36321594D01*
X158676301Y-36177947D01*
X158513645Y-36077235D01*
X158495019Y-36065702D01*
X158495017Y-36065701D01*
X158296198Y-35988679D01*
X158296197Y-35988678D01*
X158086610Y-35949500D01*
X157873390Y-35949500D01*
X157733664Y-35975619D01*
X157663801Y-35988679D01*
X157464982Y-36065701D01*
X157283698Y-36177947D01*
X157126126Y-36321594D01*
X156997631Y-36491747D01*
X156902595Y-36682609D01*
X156844243Y-36887689D01*
X156833471Y-37003951D01*
X156813367Y-37061003D01*
X156770589Y-37099999D01*
X156649410Y-37099999D01*
X156606633Y-37061003D01*
X156586529Y-37003951D01*
X156575756Y-36887689D01*
X156517404Y-36682609D01*
X156422368Y-36491747D01*
X156293873Y-36321594D01*
X156136301Y-36177947D01*
X155973645Y-36077235D01*
X155955019Y-36065702D01*
X155955017Y-36065701D01*
X155756198Y-35988679D01*
X155756197Y-35988678D01*
X155546610Y-35949500D01*
X155333390Y-35949500D01*
X155193664Y-35975619D01*
X155123801Y-35988679D01*
X154924982Y-36065701D01*
X154743698Y-36177947D01*
X154586126Y-36321594D01*
X154457631Y-36491747D01*
X154362595Y-36682609D01*
X154304243Y-36887689D01*
X154293471Y-37003951D01*
X154273367Y-37061003D01*
X154230589Y-37099999D01*
X154109410Y-37099999D01*
X154066633Y-37061003D01*
X154046529Y-37003951D01*
X154035756Y-36887689D01*
X153977404Y-36682609D01*
X153882368Y-36491747D01*
X153753873Y-36321594D01*
X153596301Y-36177947D01*
X153433645Y-36077235D01*
X153415019Y-36065702D01*
X153415017Y-36065701D01*
X153216198Y-35988679D01*
X153216197Y-35988678D01*
X153006610Y-35949500D01*
X152793390Y-35949500D01*
X152653664Y-35975619D01*
X152583801Y-35988679D01*
X152384982Y-36065701D01*
X152203698Y-36177947D01*
X152046126Y-36321594D01*
X151917631Y-36491747D01*
X151822595Y-36682609D01*
X151764243Y-36887689D01*
X151753471Y-37003951D01*
X151733367Y-37061003D01*
X151690589Y-37099999D01*
X151569410Y-37099999D01*
X151526633Y-37061003D01*
X151506529Y-37003951D01*
X151495756Y-36887689D01*
X151437404Y-36682609D01*
X151342368Y-36491747D01*
X151213873Y-36321594D01*
X151056301Y-36177947D01*
X150893645Y-36077235D01*
X150875019Y-36065702D01*
X150875017Y-36065701D01*
X150676198Y-35988679D01*
X150676197Y-35988678D01*
X150466610Y-35949500D01*
X150253390Y-35949500D01*
X150113664Y-35975619D01*
X150043801Y-35988679D01*
X149844982Y-36065701D01*
X149663698Y-36177947D01*
X149506126Y-36321594D01*
X149377631Y-36491747D01*
X149282595Y-36682609D01*
X149224243Y-36887689D01*
X149213471Y-37003951D01*
X149193367Y-37061003D01*
X149150589Y-37099999D01*
X149029410Y-37099999D01*
X148986633Y-37061003D01*
X148966529Y-37003951D01*
X148955756Y-36887689D01*
X148897404Y-36682609D01*
X148802368Y-36491747D01*
X148673873Y-36321594D01*
X148516301Y-36177947D01*
X148353645Y-36077235D01*
X148335019Y-36065702D01*
X148335017Y-36065701D01*
X148136198Y-35988679D01*
X148136197Y-35988678D01*
X147926610Y-35949500D01*
X147713390Y-35949500D01*
X147573664Y-35975619D01*
X147503801Y-35988679D01*
X147304982Y-36065701D01*
X147123698Y-36177947D01*
X146966126Y-36321594D01*
X146837631Y-36491747D01*
X146742595Y-36682609D01*
X146684243Y-36887689D01*
X146673471Y-37003951D01*
X146653367Y-37061003D01*
X146610589Y-37099999D01*
X146489410Y-37099999D01*
X146446633Y-37061003D01*
X146426529Y-37003951D01*
X146415756Y-36887689D01*
X146357404Y-36682609D01*
X146262368Y-36491747D01*
X146133873Y-36321594D01*
X145976301Y-36177947D01*
X145813645Y-36077235D01*
X145795019Y-36065702D01*
X145795017Y-36065701D01*
X145596198Y-35988679D01*
X145596197Y-35988678D01*
X145386610Y-35949500D01*
X145173390Y-35949500D01*
X145033664Y-35975619D01*
X144963801Y-35988679D01*
X144764982Y-36065701D01*
X144583698Y-36177947D01*
X144426126Y-36321594D01*
X144297631Y-36491747D01*
X144202595Y-36682609D01*
X144144243Y-36887689D01*
X144133471Y-37003951D01*
X144113367Y-37061003D01*
X144070589Y-37099999D01*
X143949410Y-37099999D01*
X143906633Y-37061003D01*
X143886529Y-37003951D01*
X143875756Y-36887689D01*
X143817404Y-36682609D01*
X143722368Y-36491747D01*
X143593873Y-36321594D01*
X143436301Y-36177947D01*
X143273645Y-36077235D01*
X143255019Y-36065702D01*
X143255017Y-36065701D01*
X143056198Y-35988679D01*
X143056197Y-35988678D01*
X142846610Y-35949500D01*
X142633390Y-35949500D01*
X142493664Y-35975619D01*
X142423801Y-35988679D01*
X142224982Y-36065701D01*
X142043698Y-36177947D01*
X141886126Y-36321594D01*
X141757631Y-36491747D01*
X141662595Y-36682609D01*
X141604243Y-36887689D01*
X141597970Y-36955393D01*
X141576799Y-37014029D01*
X141529770Y-37054952D01*
X141468772Y-37067820D01*
X141409221Y-37049379D01*
X141366170Y-37004291D01*
X141350499Y-36943952D01*
X141350499Y-36205133D01*
X141347585Y-36180011D01*
X141347585Y-36180009D01*
X141302206Y-36077235D01*
X141302204Y-36077233D01*
X141302204Y-36077232D01*
X141222767Y-35997795D01*
X141222765Y-35997794D01*
X141119991Y-35952415D01*
X141094865Y-35949500D01*
X141094863Y-35949500D01*
X139305132Y-35949500D01*
X139280011Y-35952414D01*
X139177232Y-35997795D01*
X139097795Y-36077232D01*
X139052415Y-36180009D01*
X139049500Y-36205136D01*
X139049500Y-37994867D01*
X117191788Y-37994867D01*
X118533236Y-36653419D01*
X118573465Y-36626539D01*
X118620918Y-36617100D01*
X120248686Y-36617100D01*
X120248687Y-36617100D01*
X120269885Y-36610212D01*
X120288792Y-36605673D01*
X120310805Y-36602187D01*
X120330668Y-36592065D01*
X120348631Y-36584625D01*
X120369825Y-36577740D01*
X120387850Y-36564643D01*
X120404436Y-36554478D01*
X120424294Y-36544361D01*
X120514361Y-36454294D01*
X120514361Y-36454293D01*
X121363439Y-35605214D01*
X121402783Y-35578706D01*
X121449207Y-35568913D01*
X121495904Y-35577269D01*
X121583802Y-35611321D01*
X121793390Y-35650500D01*
X122006608Y-35650500D01*
X122006610Y-35650500D01*
X122216198Y-35611321D01*
X122415019Y-35534298D01*
X122596302Y-35422052D01*
X122753872Y-35278407D01*
X122882366Y-35108255D01*
X122882366Y-35108253D01*
X122882368Y-35108252D01*
X122936494Y-34999551D01*
X122977405Y-34917389D01*
X123035756Y-34712310D01*
X123055429Y-34500000D01*
X123035756Y-34287690D01*
X122977405Y-34082611D01*
X122966867Y-34061448D01*
X122882368Y-33891747D01*
X122753873Y-33721594D01*
X122709271Y-33680934D01*
X122596302Y-33577948D01*
X122596301Y-33577947D01*
X122433645Y-33477235D01*
X122415019Y-33465702D01*
X122415017Y-33465701D01*
X122216198Y-33388679D01*
X122006610Y-33349500D01*
X121793390Y-33349500D01*
X121653664Y-33375619D01*
X121583801Y-33388679D01*
X121384982Y-33465701D01*
X121203698Y-33577947D01*
X121046126Y-33721594D01*
X120917631Y-33891747D01*
X120822595Y-34082609D01*
X120764243Y-34287689D01*
X120753471Y-34403951D01*
X120733367Y-34461003D01*
X120690589Y-34499999D01*
X120733367Y-34538996D01*
X120753471Y-34596048D01*
X120764243Y-34712310D01*
X120822889Y-34918423D01*
X120823641Y-34983528D01*
X120791304Y-35040039D01*
X120431283Y-35400061D01*
X120378454Y-35431382D01*
X120317074Y-35433509D01*
X120262202Y-35405922D01*
X120227299Y-35355388D01*
X120220927Y-35294303D01*
X120244648Y-35237653D01*
X120244651Y-35237650D01*
X120342366Y-35108255D01*
X120342366Y-35108253D01*
X120342368Y-35108252D01*
X120396494Y-34999551D01*
X120437405Y-34917389D01*
X120495756Y-34712310D01*
X120506529Y-34596047D01*
X120526633Y-34538996D01*
X120569410Y-34499999D01*
X120526633Y-34461003D01*
X120506529Y-34403951D01*
X120495756Y-34287689D01*
X120460725Y-34164571D01*
X120437405Y-34082611D01*
X120426867Y-34061448D01*
X120342368Y-33891747D01*
X120213873Y-33721594D01*
X120169271Y-33680934D01*
X120056302Y-33577948D01*
X120056301Y-33577947D01*
X119893645Y-33477235D01*
X119875019Y-33465702D01*
X119875017Y-33465701D01*
X119676198Y-33388679D01*
X119466610Y-33349500D01*
X119253390Y-33349500D01*
X119113664Y-33375619D01*
X119043801Y-33388679D01*
X118844982Y-33465701D01*
X118663698Y-33577947D01*
X118506126Y-33721594D01*
X118377631Y-33891747D01*
X118282595Y-34082609D01*
X118224243Y-34287689D01*
X118213471Y-34403951D01*
X118193367Y-34461003D01*
X118148664Y-34501755D01*
X118090000Y-34516510D01*
X118031336Y-34501755D01*
X117986633Y-34461003D01*
X117966529Y-34403951D01*
X117955756Y-34287689D01*
X117920725Y-34164571D01*
X117897405Y-34082611D01*
X117886867Y-34061448D01*
X117802368Y-33891747D01*
X117673873Y-33721594D01*
X117629271Y-33680934D01*
X117516302Y-33577948D01*
X117516301Y-33577947D01*
X117353645Y-33477235D01*
X117335019Y-33465702D01*
X117335017Y-33465701D01*
X117136198Y-33388679D01*
X116926610Y-33349500D01*
X116713390Y-33349500D01*
X116573664Y-33375619D01*
X116503801Y-33388679D01*
X116304982Y-33465701D01*
X116123698Y-33577947D01*
X115966126Y-33721594D01*
X115837631Y-33891747D01*
X115742595Y-34082609D01*
X115684243Y-34287689D01*
X115673471Y-34403951D01*
X115653367Y-34461003D01*
X115610589Y-34499999D01*
X115653367Y-34538996D01*
X115673471Y-34596048D01*
X115684243Y-34712310D01*
X115742595Y-34917390D01*
X115837631Y-35108252D01*
X115853744Y-35129588D01*
X115966128Y-35278407D01*
X116008684Y-35317202D01*
X116043874Y-35373070D01*
X116045399Y-35439082D01*
X116012825Y-35496518D01*
X114893781Y-36615564D01*
X114844418Y-36645814D01*
X114786702Y-36650356D01*
X114733215Y-36628201D01*
X114695615Y-36584178D01*
X114682100Y-36527883D01*
X114682100Y-35662985D01*
X114691908Y-35614651D01*
X114719780Y-35573964D01*
X114761304Y-35547359D01*
X114795019Y-35534298D01*
X114976302Y-35422052D01*
X115133872Y-35278407D01*
X115262366Y-35108255D01*
X115262366Y-35108253D01*
X115262368Y-35108252D01*
X115316494Y-34999551D01*
X115357405Y-34917389D01*
X115415756Y-34712310D01*
X115426529Y-34596047D01*
X115446633Y-34538996D01*
X115489410Y-34499999D01*
X115446633Y-34461003D01*
X115426529Y-34403951D01*
X115415756Y-34287689D01*
X115380725Y-34164571D01*
X115357405Y-34082611D01*
X115346867Y-34061448D01*
X115262368Y-33891747D01*
X115133873Y-33721594D01*
X115089271Y-33680934D01*
X114976302Y-33577948D01*
X114976301Y-33577947D01*
X114813645Y-33477235D01*
X114795019Y-33465702D01*
X114795017Y-33465701D01*
X114596198Y-33388679D01*
X114386610Y-33349500D01*
X114173390Y-33349500D01*
X114033664Y-33375619D01*
X113963801Y-33388679D01*
X113764982Y-33465701D01*
X113583698Y-33577947D01*
X113426126Y-33721594D01*
X113297631Y-33891747D01*
X113202595Y-34082609D01*
X113144243Y-34287689D01*
X113133471Y-34403951D01*
X113113367Y-34461003D01*
X113070589Y-34499999D01*
X113113367Y-34538996D01*
X113133471Y-34596048D01*
X113144243Y-34712310D01*
X113202595Y-34917390D01*
X113297631Y-35108252D01*
X113426126Y-35278405D01*
X113426128Y-35278407D01*
X113583698Y-35422052D01*
X113764981Y-35534298D01*
X113798695Y-35547359D01*
X113840220Y-35573964D01*
X113868092Y-35614651D01*
X113877900Y-35662985D01*
X113877900Y-36754583D01*
X113868461Y-36802036D01*
X113841581Y-36842264D01*
X108381129Y-42302714D01*
X108340901Y-42329594D01*
X108293449Y-42339033D01*
X108245996Y-42329594D01*
X108132709Y-42282670D01*
X107996347Y-42264717D01*
X107937046Y-42240153D01*
X107897972Y-42189230D01*
X107889594Y-42125592D01*
X107890328Y-42120012D01*
X107890330Y-42120009D01*
X107908743Y-41980143D01*
X107920470Y-41941489D01*
X107943998Y-41908655D01*
X108609676Y-41242977D01*
X108642511Y-41219449D01*
X108681165Y-41207723D01*
X108767709Y-41196330D01*
X108901625Y-41140861D01*
X109016621Y-41052621D01*
X109104861Y-40937625D01*
X109160330Y-40803709D01*
X109179250Y-40660000D01*
X109160330Y-40516291D01*
X109104861Y-40382375D01*
X109016621Y-40267379D01*
X108901625Y-40179139D01*
X108901624Y-40179138D01*
X108901622Y-40179137D01*
X108767709Y-40123670D01*
X108744193Y-40120574D01*
X108681714Y-40093488D01*
X108642960Y-40037493D01*
X108639619Y-39969477D01*
X108672697Y-39909956D01*
X112105704Y-36476951D01*
X112128361Y-36454294D01*
X112138478Y-36434436D01*
X112148645Y-36417848D01*
X112161740Y-36399825D01*
X112168625Y-36378631D01*
X112176065Y-36360668D01*
X112186187Y-36340805D01*
X112189673Y-36318792D01*
X112194212Y-36299885D01*
X112201100Y-36278687D01*
X112201100Y-36151313D01*
X112201100Y-35636751D01*
X112216771Y-35576412D01*
X112259822Y-35531324D01*
X112273645Y-35522765D01*
X112436302Y-35422052D01*
X112593872Y-35278407D01*
X112722366Y-35108255D01*
X112722366Y-35108253D01*
X112722368Y-35108252D01*
X112776494Y-34999551D01*
X112817405Y-34917389D01*
X112875756Y-34712310D01*
X112886529Y-34596047D01*
X112906633Y-34538996D01*
X112949410Y-34499999D01*
X112906633Y-34461003D01*
X112886529Y-34403951D01*
X112875756Y-34287689D01*
X112840725Y-34164571D01*
X112817405Y-34082611D01*
X112806867Y-34061448D01*
X112722368Y-33891747D01*
X112593873Y-33721594D01*
X112549271Y-33680934D01*
X112436302Y-33577948D01*
X112436301Y-33577947D01*
X112273645Y-33477235D01*
X112255019Y-33465702D01*
X112255017Y-33465701D01*
X112056198Y-33388679D01*
X111846610Y-33349500D01*
X111633390Y-33349500D01*
X111493664Y-33375619D01*
X111423801Y-33388679D01*
X111224982Y-33465701D01*
X111043698Y-33577947D01*
X110886126Y-33721594D01*
X110757631Y-33891747D01*
X110662595Y-34082609D01*
X110604243Y-34287689D01*
X110593471Y-34403951D01*
X110573367Y-34461003D01*
X110530589Y-34499999D01*
X110573367Y-34538996D01*
X110593471Y-34596048D01*
X110604243Y-34712310D01*
X110662595Y-34917390D01*
X110757631Y-35108252D01*
X110886126Y-35278405D01*
X110886128Y-35278407D01*
X111043698Y-35422052D01*
X111224981Y-35534298D01*
X111224983Y-35534298D01*
X111224985Y-35534300D01*
X111317694Y-35570216D01*
X111359221Y-35596821D01*
X111387092Y-35637509D01*
X111396900Y-35685842D01*
X111396900Y-35997083D01*
X111387461Y-36044536D01*
X111360581Y-36084764D01*
X109872781Y-37572564D01*
X109823418Y-37602814D01*
X109765702Y-37607356D01*
X109712215Y-37585201D01*
X109674615Y-37541178D01*
X109661100Y-37484883D01*
X109661100Y-35636751D01*
X109676771Y-35576412D01*
X109719822Y-35531324D01*
X109733645Y-35522765D01*
X109896302Y-35422052D01*
X110053872Y-35278407D01*
X110182366Y-35108255D01*
X110182366Y-35108253D01*
X110182368Y-35108252D01*
X110236494Y-34999551D01*
X110277405Y-34917389D01*
X110335756Y-34712310D01*
X110346529Y-34596047D01*
X110366633Y-34538996D01*
X110409410Y-34499999D01*
X110366633Y-34461003D01*
X110346529Y-34403951D01*
X110335756Y-34287689D01*
X110300725Y-34164571D01*
X110277405Y-34082611D01*
X110266867Y-34061448D01*
X110182368Y-33891747D01*
X110053873Y-33721594D01*
X110009271Y-33680934D01*
X109896302Y-33577948D01*
X109896301Y-33577947D01*
X109733645Y-33477235D01*
X109715019Y-33465702D01*
X109715017Y-33465701D01*
X109516198Y-33388679D01*
X109306610Y-33349500D01*
X109093390Y-33349500D01*
X108953664Y-33375619D01*
X108883801Y-33388679D01*
X108684982Y-33465701D01*
X108503698Y-33577947D01*
X108346126Y-33721594D01*
X108217631Y-33891747D01*
X108122595Y-34082609D01*
X108064243Y-34287689D01*
X108053471Y-34403951D01*
X108033367Y-34461003D01*
X107990589Y-34499999D01*
X108033367Y-34538996D01*
X108053471Y-34596048D01*
X108064243Y-34712310D01*
X108122595Y-34917390D01*
X108217631Y-35108252D01*
X108346126Y-35278405D01*
X108346128Y-35278407D01*
X108503698Y-35422052D01*
X108684981Y-35534298D01*
X108684983Y-35534298D01*
X108684985Y-35534300D01*
X108777694Y-35570216D01*
X108819221Y-35596821D01*
X108847092Y-35637509D01*
X108856900Y-35685842D01*
X108856900Y-37963053D01*
X108847461Y-38010506D01*
X108820581Y-38050734D01*
X107332781Y-39538534D01*
X107283418Y-39568784D01*
X107225702Y-39573326D01*
X107172215Y-39551171D01*
X107134615Y-39507148D01*
X107121100Y-39450853D01*
X107121100Y-35636751D01*
X107136771Y-35576412D01*
X107179822Y-35531324D01*
X107193645Y-35522765D01*
X107356302Y-35422052D01*
X107513872Y-35278407D01*
X107642366Y-35108255D01*
X107642366Y-35108253D01*
X107642368Y-35108252D01*
X107696494Y-34999551D01*
X107737405Y-34917389D01*
X107795756Y-34712310D01*
X107806529Y-34596047D01*
X107826633Y-34538996D01*
X107869410Y-34499999D01*
X107826633Y-34461003D01*
X107806529Y-34403951D01*
X107795756Y-34287689D01*
X107760725Y-34164571D01*
X107737405Y-34082611D01*
X107726867Y-34061448D01*
X107642368Y-33891747D01*
X107513873Y-33721594D01*
X107469271Y-33680934D01*
X107356302Y-33577948D01*
X107356301Y-33577947D01*
X107193645Y-33477235D01*
X107175019Y-33465702D01*
X107175017Y-33465701D01*
X106976198Y-33388679D01*
X106766610Y-33349500D01*
X106553390Y-33349500D01*
X106413664Y-33375619D01*
X106343801Y-33388679D01*
X106144982Y-33465701D01*
X105963698Y-33577947D01*
X105806126Y-33721594D01*
X105677631Y-33891747D01*
X105582595Y-34082609D01*
X105524243Y-34287689D01*
X105513471Y-34403951D01*
X105493367Y-34461003D01*
X105450589Y-34499999D01*
X105493367Y-34538996D01*
X105513471Y-34596048D01*
X105524243Y-34712310D01*
X105582595Y-34917390D01*
X105677631Y-35108252D01*
X105806126Y-35278405D01*
X105806128Y-35278407D01*
X105963698Y-35422052D01*
X106144981Y-35534298D01*
X106144983Y-35534298D01*
X106144985Y-35534300D01*
X106237694Y-35570216D01*
X106279221Y-35596821D01*
X106307092Y-35637509D01*
X106316900Y-35685842D01*
X106316900Y-39929022D01*
X106307461Y-39976475D01*
X106280581Y-40016703D01*
X104017436Y-42279847D01*
X103977209Y-42306727D01*
X103901375Y-42338138D01*
X103824334Y-42397255D01*
X103786379Y-42426379D01*
X103735333Y-42492904D01*
X103711276Y-42524255D01*
X103663335Y-42562048D01*
X103603171Y-42572386D01*
X103545365Y-42552763D01*
X103503927Y-42507936D01*
X103488900Y-42448768D01*
X103488900Y-39225157D01*
X103495481Y-39185298D01*
X103514524Y-39149670D01*
X103516861Y-39146625D01*
X103572330Y-39012709D01*
X103591250Y-38869000D01*
X103572330Y-38725291D01*
X103521347Y-38602206D01*
X103516862Y-38591377D01*
X103516861Y-38591376D01*
X103516861Y-38591375D01*
X103428621Y-38476379D01*
X103313625Y-38388139D01*
X103313624Y-38388138D01*
X103313622Y-38388137D01*
X103179709Y-38332670D01*
X103036000Y-38313749D01*
X102892290Y-38332670D01*
X102758377Y-38388137D01*
X102643379Y-38476379D01*
X102555137Y-38591377D01*
X102499670Y-38725290D01*
X102480749Y-38869000D01*
X102499670Y-39012709D01*
X102555137Y-39146622D01*
X102555138Y-39146624D01*
X102555139Y-39146625D01*
X102555273Y-39146800D01*
X102557476Y-39149670D01*
X102576519Y-39185298D01*
X102583100Y-39225157D01*
X102583100Y-45544100D01*
X102566487Y-45606100D01*
X102521100Y-45651487D01*
X102459100Y-45668100D01*
X97339401Y-45668100D01*
X97280947Y-45653458D01*
X97236298Y-45612989D01*
X97215998Y-45556251D01*
X97221515Y-45519066D01*
X97220199Y-45518893D01*
X97222422Y-45502013D01*
X97241250Y-45359000D01*
X97222330Y-45215291D01*
X97166861Y-45081375D01*
X97078621Y-44966379D01*
X96963625Y-44878139D01*
X96963624Y-44878138D01*
X96963622Y-44878137D01*
X96829709Y-44822670D01*
X96686000Y-44803749D01*
X96542290Y-44822670D01*
X96408377Y-44878137D01*
X96293379Y-44966379D01*
X96205137Y-45081377D01*
X96149670Y-45215290D01*
X96130749Y-45359000D01*
X96146987Y-45482333D01*
X96149578Y-45502013D01*
X96151801Y-45518893D01*
X96150484Y-45519066D01*
X96156002Y-45556251D01*
X96135702Y-45612989D01*
X96091053Y-45653458D01*
X96032599Y-45668100D01*
X82403900Y-45668100D01*
X82341900Y-45651487D01*
X82296513Y-45606100D01*
X82279900Y-45544100D01*
X82279900Y-43062232D01*
X82294927Y-43003064D01*
X82336365Y-42958237D01*
X82394171Y-42938614D01*
X82454335Y-42948952D01*
X82502275Y-42986744D01*
X82577379Y-43084621D01*
X82692375Y-43172861D01*
X82826291Y-43228330D01*
X82970000Y-43247250D01*
X83113709Y-43228330D01*
X83247625Y-43172861D01*
X83362621Y-43084621D01*
X83450861Y-42969625D01*
X83490438Y-42874074D01*
X83524468Y-42827236D01*
X83576053Y-42800952D01*
X83633947Y-42800952D01*
X83685532Y-42827236D01*
X83719561Y-42874074D01*
X83759137Y-42969622D01*
X83759138Y-42969624D01*
X83759139Y-42969625D01*
X83847379Y-43084621D01*
X83962375Y-43172861D01*
X84096291Y-43228330D01*
X84240000Y-43247250D01*
X84383709Y-43228330D01*
X84517625Y-43172861D01*
X84632621Y-43084621D01*
X84720861Y-42969625D01*
X84760438Y-42874074D01*
X84794468Y-42827236D01*
X84846053Y-42800952D01*
X84903947Y-42800952D01*
X84955532Y-42827236D01*
X84989561Y-42874074D01*
X85029137Y-42969622D01*
X85029138Y-42969624D01*
X85029139Y-42969625D01*
X85117379Y-43084621D01*
X85232375Y-43172861D01*
X85366291Y-43228330D01*
X85510000Y-43247250D01*
X85653709Y-43228330D01*
X85787625Y-43172861D01*
X85902621Y-43084621D01*
X85990861Y-42969625D01*
X86030438Y-42874074D01*
X86064468Y-42827236D01*
X86116053Y-42800952D01*
X86173947Y-42800952D01*
X86225532Y-42827236D01*
X86259561Y-42874074D01*
X86299137Y-42969622D01*
X86299138Y-42969624D01*
X86299139Y-42969625D01*
X86387379Y-43084621D01*
X86502375Y-43172861D01*
X86636291Y-43228330D01*
X86780000Y-43247250D01*
X86923709Y-43228330D01*
X87057625Y-43172861D01*
X87172621Y-43084621D01*
X87260861Y-42969625D01*
X87300438Y-42874074D01*
X87334468Y-42827236D01*
X87386053Y-42800952D01*
X87443947Y-42800952D01*
X87495532Y-42827236D01*
X87529561Y-42874074D01*
X87569137Y-42969622D01*
X87569138Y-42969624D01*
X87569139Y-42969625D01*
X87657379Y-43084621D01*
X87772375Y-43172861D01*
X87906291Y-43228330D01*
X88050000Y-43247250D01*
X88193709Y-43228330D01*
X88327625Y-43172861D01*
X88442621Y-43084621D01*
X88530861Y-42969625D01*
X88570438Y-42874074D01*
X88604468Y-42827236D01*
X88656053Y-42800952D01*
X88713947Y-42800952D01*
X88765532Y-42827236D01*
X88799561Y-42874074D01*
X88839137Y-42969622D01*
X88839138Y-42969624D01*
X88839139Y-42969625D01*
X88927379Y-43084621D01*
X89042375Y-43172861D01*
X89176291Y-43228330D01*
X89320000Y-43247250D01*
X89463709Y-43228330D01*
X89597625Y-43172861D01*
X89712621Y-43084621D01*
X89800861Y-42969625D01*
X89840438Y-42874074D01*
X89874468Y-42827236D01*
X89926053Y-42800952D01*
X89983947Y-42800952D01*
X90035532Y-42827236D01*
X90069561Y-42874074D01*
X90109137Y-42969622D01*
X90109138Y-42969624D01*
X90109139Y-42969625D01*
X90197379Y-43084621D01*
X90312375Y-43172861D01*
X90446291Y-43228330D01*
X90590000Y-43247250D01*
X90733709Y-43228330D01*
X90867625Y-43172861D01*
X90982621Y-43084621D01*
X91070861Y-42969625D01*
X91126330Y-42835709D01*
X91145250Y-42692000D01*
X91137468Y-42632894D01*
X91142987Y-42576851D01*
X91172724Y-42529030D01*
X92643219Y-41058535D01*
X92692582Y-41028286D01*
X92750298Y-41023744D01*
X92803785Y-41045899D01*
X92841385Y-41089922D01*
X92854900Y-41146217D01*
X92854900Y-42269639D01*
X92848319Y-42309497D01*
X92829276Y-42345125D01*
X92776138Y-42414375D01*
X92720670Y-42548290D01*
X92701749Y-42691999D01*
X92720670Y-42835709D01*
X92776137Y-42969622D01*
X92776138Y-42969624D01*
X92776139Y-42969625D01*
X92864379Y-43084621D01*
X92979375Y-43172861D01*
X93113291Y-43228330D01*
X93257000Y-43247250D01*
X93400709Y-43228330D01*
X93534625Y-43172861D01*
X93649621Y-43084621D01*
X93737861Y-42969625D01*
X93793330Y-42835709D01*
X93812250Y-42692000D01*
X93793330Y-42548291D01*
X93737861Y-42414375D01*
X93717389Y-42387695D01*
X93684724Y-42345125D01*
X93665681Y-42309497D01*
X93659100Y-42269639D01*
X93659100Y-41082361D01*
X93665681Y-41042503D01*
X93684724Y-41006875D01*
X93719117Y-40962052D01*
X93737861Y-40937625D01*
X93793330Y-40803709D01*
X93812250Y-40660000D01*
X93810668Y-40647985D01*
X93821224Y-40579396D01*
X93866981Y-40527220D01*
X93933607Y-40507800D01*
X96037986Y-40507800D01*
X96037987Y-40507800D01*
X96059185Y-40500912D01*
X96078092Y-40496373D01*
X96100105Y-40492887D01*
X96119968Y-40482765D01*
X96137931Y-40475325D01*
X96159125Y-40468440D01*
X96177150Y-40455343D01*
X96193736Y-40445178D01*
X96213594Y-40435061D01*
X96303661Y-40344994D01*
X96303661Y-40344993D01*
X101043439Y-35605214D01*
X101082783Y-35578706D01*
X101129207Y-35568913D01*
X101175904Y-35577269D01*
X101263802Y-35611321D01*
X101473390Y-35650500D01*
X101686608Y-35650500D01*
X101686610Y-35650500D01*
X101896198Y-35611321D01*
X102095019Y-35534298D01*
X102276302Y-35422052D01*
X102433872Y-35278407D01*
X102562366Y-35108255D01*
X102562366Y-35108253D01*
X102562368Y-35108252D01*
X102616494Y-34999551D01*
X102657405Y-34917389D01*
X102715756Y-34712310D01*
X102726529Y-34596047D01*
X102746633Y-34538996D01*
X102789410Y-34499999D01*
X102910589Y-34499999D01*
X102953367Y-34538996D01*
X102973471Y-34596048D01*
X102984243Y-34712310D01*
X103042595Y-34917390D01*
X103137631Y-35108252D01*
X103266126Y-35278405D01*
X103266128Y-35278407D01*
X103423698Y-35422052D01*
X103604981Y-35534298D01*
X103803802Y-35611321D01*
X104013390Y-35650500D01*
X104226608Y-35650500D01*
X104226610Y-35650500D01*
X104436198Y-35611321D01*
X104436201Y-35611319D01*
X104447492Y-35609209D01*
X104447781Y-35610759D01*
X104475632Y-35605770D01*
X104522065Y-35615560D01*
X104561420Y-35642075D01*
X105010582Y-36091237D01*
X105037462Y-36131465D01*
X105046901Y-36178918D01*
X105046901Y-37546965D01*
X105040320Y-37586823D01*
X105021277Y-37622451D01*
X104968139Y-37691701D01*
X104912671Y-37825616D01*
X104893750Y-37969326D01*
X104912671Y-38113035D01*
X104968138Y-38246948D01*
X104968139Y-38246950D01*
X104968140Y-38246951D01*
X105056380Y-38361947D01*
X105171376Y-38450187D01*
X105305292Y-38505656D01*
X105449001Y-38524576D01*
X105592710Y-38505656D01*
X105726626Y-38450187D01*
X105841622Y-38361947D01*
X105929862Y-38246951D01*
X105985331Y-38113035D01*
X106004251Y-37969326D01*
X105985331Y-37825617D01*
X105929862Y-37691701D01*
X105878855Y-37625227D01*
X105876725Y-37622451D01*
X105857682Y-37586823D01*
X105851101Y-37546965D01*
X105851101Y-35897316D01*
X105851101Y-35897314D01*
X105844211Y-35876110D01*
X105839675Y-35857212D01*
X105836188Y-35835196D01*
X105836187Y-35835194D01*
X105836187Y-35835193D01*
X105826073Y-35815345D01*
X105818624Y-35797362D01*
X105814747Y-35785428D01*
X105811741Y-35776176D01*
X105798640Y-35758144D01*
X105788479Y-35741561D01*
X105778363Y-35721708D01*
X105742497Y-35685842D01*
X105705733Y-35649078D01*
X105705731Y-35649075D01*
X105448764Y-35392108D01*
X105186242Y-35129587D01*
X105158297Y-35086701D01*
X105150056Y-35036180D01*
X105162923Y-34986637D01*
X105197405Y-34917389D01*
X105255756Y-34712310D01*
X105266529Y-34596047D01*
X105286633Y-34538996D01*
X105329410Y-34499999D01*
X105286633Y-34461003D01*
X105266529Y-34403951D01*
X105255756Y-34287689D01*
X105220725Y-34164571D01*
X105197405Y-34082611D01*
X105186867Y-34061448D01*
X105102368Y-33891747D01*
X104973873Y-33721594D01*
X104929271Y-33680934D01*
X104816302Y-33577948D01*
X104816301Y-33577947D01*
X104653645Y-33477235D01*
X104635019Y-33465702D01*
X104635017Y-33465701D01*
X104436198Y-33388679D01*
X104226610Y-33349500D01*
X104013390Y-33349500D01*
X103873664Y-33375619D01*
X103803801Y-33388679D01*
X103604982Y-33465701D01*
X103423698Y-33577947D01*
X103266126Y-33721594D01*
X103137631Y-33891747D01*
X103042595Y-34082609D01*
X102984243Y-34287689D01*
X102973471Y-34403951D01*
X102953367Y-34461003D01*
X102910589Y-34499999D01*
X102789410Y-34499999D01*
X102746633Y-34461003D01*
X102726529Y-34403951D01*
X102715756Y-34287689D01*
X102680725Y-34164571D01*
X102657405Y-34082611D01*
X102646867Y-34061448D01*
X102562368Y-33891747D01*
X102433873Y-33721594D01*
X102389271Y-33680934D01*
X102276302Y-33577948D01*
X102276301Y-33577947D01*
X102113645Y-33477235D01*
X102095019Y-33465702D01*
X102095017Y-33465701D01*
X101896198Y-33388679D01*
X101686610Y-33349500D01*
X101473390Y-33349500D01*
X101333664Y-33375619D01*
X101263801Y-33388679D01*
X101064982Y-33465701D01*
X100883698Y-33577947D01*
X100726126Y-33721594D01*
X100597631Y-33891747D01*
X100502595Y-34082609D01*
X100444243Y-34287689D01*
X100433471Y-34403951D01*
X100413367Y-34461003D01*
X100370589Y-34499999D01*
X100413367Y-34538996D01*
X100433471Y-34596048D01*
X100444243Y-34712310D01*
X100502889Y-34918423D01*
X100503641Y-34983528D01*
X100471304Y-35040039D01*
X100111284Y-35400059D01*
X100058454Y-35431380D01*
X99997075Y-35433507D01*
X99942203Y-35405920D01*
X99907300Y-35355385D01*
X99900928Y-35294301D01*
X99924648Y-35237653D01*
X100022366Y-35108255D01*
X100117405Y-34917389D01*
X100175756Y-34712310D01*
X100186529Y-34596047D01*
X100206633Y-34538996D01*
X100249410Y-34499999D01*
X100206633Y-34461003D01*
X100186529Y-34403951D01*
X100175756Y-34287689D01*
X100140725Y-34164571D01*
X100117405Y-34082611D01*
X100106867Y-34061448D01*
X100022368Y-33891747D01*
X99893873Y-33721594D01*
X99849271Y-33680934D01*
X99736302Y-33577948D01*
X99736301Y-33577947D01*
X99573645Y-33477235D01*
X99555019Y-33465702D01*
X99555017Y-33465701D01*
X99356198Y-33388679D01*
X99146610Y-33349500D01*
X98933390Y-33349500D01*
X98793664Y-33375619D01*
X98723801Y-33388679D01*
X98524982Y-33465701D01*
X98343698Y-33577947D01*
X98186126Y-33721594D01*
X98057631Y-33891747D01*
X97962595Y-34082609D01*
X97904243Y-34287689D01*
X97893471Y-34403951D01*
X97873367Y-34461003D01*
X97830589Y-34499999D01*
X97873367Y-34538996D01*
X97893471Y-34596048D01*
X97904243Y-34712310D01*
X97962889Y-34918423D01*
X97963641Y-34983528D01*
X97931304Y-35040039D01*
X97571284Y-35400059D01*
X97518454Y-35431380D01*
X97457075Y-35433507D01*
X97402203Y-35405920D01*
X97367300Y-35355385D01*
X97360928Y-35294301D01*
X97384648Y-35237653D01*
X97482366Y-35108255D01*
X97577405Y-34917389D01*
X97635756Y-34712310D01*
X97646529Y-34596047D01*
X97666633Y-34538996D01*
X97709410Y-34499999D01*
X97666633Y-34461003D01*
X97646529Y-34403951D01*
X97635756Y-34287689D01*
X97600725Y-34164571D01*
X97577405Y-34082611D01*
X97566867Y-34061448D01*
X97482368Y-33891747D01*
X97353873Y-33721594D01*
X97309271Y-33680934D01*
X97196302Y-33577948D01*
X97196301Y-33577947D01*
X97033645Y-33477235D01*
X97015019Y-33465702D01*
X97015017Y-33465701D01*
X96816198Y-33388679D01*
X96606610Y-33349500D01*
X96393390Y-33349500D01*
X96253664Y-33375619D01*
X96183801Y-33388679D01*
X95984982Y-33465701D01*
X95803698Y-33577947D01*
X95646126Y-33721594D01*
X95517631Y-33891747D01*
X95422595Y-34082609D01*
X95364243Y-34287689D01*
X95353471Y-34403951D01*
X95333367Y-34461003D01*
X95290589Y-34499999D01*
X95333367Y-34538996D01*
X95353471Y-34596048D01*
X95364243Y-34712307D01*
X95365741Y-34717570D01*
X95366494Y-34782675D01*
X95334156Y-34839187D01*
X95288102Y-34885241D01*
X95232145Y-34917433D01*
X95167589Y-34917135D01*
X95111933Y-34884427D01*
X95080260Y-34828174D01*
X95081154Y-34763626D01*
X95095756Y-34712310D01*
X95106529Y-34596047D01*
X95126633Y-34538996D01*
X95169410Y-34499999D01*
X95126633Y-34461003D01*
X95106529Y-34403951D01*
X95095756Y-34287689D01*
X95060725Y-34164571D01*
X95037405Y-34082611D01*
X95026867Y-34061448D01*
X94942368Y-33891747D01*
X94813873Y-33721594D01*
X94769271Y-33680934D01*
X94656302Y-33577948D01*
X94656301Y-33577947D01*
X94493645Y-33477235D01*
X94475019Y-33465702D01*
X94475017Y-33465701D01*
X94276198Y-33388679D01*
X94066610Y-33349500D01*
X93853390Y-33349500D01*
X93713664Y-33375619D01*
X93643801Y-33388679D01*
X93444982Y-33465701D01*
X93263698Y-33577947D01*
X93106126Y-33721594D01*
X92977631Y-33891747D01*
X92882595Y-34082609D01*
X92824243Y-34287689D01*
X92813471Y-34403951D01*
X92793367Y-34461003D01*
X92750589Y-34499999D01*
X92793367Y-34538996D01*
X92813471Y-34596048D01*
X92824243Y-34712310D01*
X92882595Y-34917390D01*
X92977631Y-35108252D01*
X93106126Y-35278405D01*
X93106128Y-35278407D01*
X93233878Y-35394867D01*
X93263698Y-35422052D01*
X93264984Y-35422848D01*
X93269871Y-35427679D01*
X93272190Y-35429793D01*
X93272104Y-35429886D01*
X93304372Y-35461784D01*
X93322880Y-35513985D01*
X93316815Y-35569036D01*
X93287387Y-35615956D01*
X92033781Y-36869562D01*
X91984418Y-36899812D01*
X91926702Y-36904354D01*
X91873215Y-36882199D01*
X91835615Y-36838176D01*
X91822100Y-36781881D01*
X91822100Y-35662985D01*
X91831908Y-35614651D01*
X91859780Y-35573964D01*
X91901304Y-35547359D01*
X91935019Y-35534298D01*
X92116302Y-35422052D01*
X92273872Y-35278407D01*
X92402366Y-35108255D01*
X92402366Y-35108253D01*
X92402368Y-35108252D01*
X92456494Y-34999551D01*
X92497405Y-34917389D01*
X92555756Y-34712310D01*
X92566529Y-34596047D01*
X92586633Y-34538996D01*
X92629410Y-34499999D01*
X92586633Y-34461003D01*
X92566529Y-34403951D01*
X92555756Y-34287689D01*
X92520725Y-34164571D01*
X92497405Y-34082611D01*
X92486867Y-34061448D01*
X92402368Y-33891747D01*
X92273873Y-33721594D01*
X92229271Y-33680934D01*
X92116302Y-33577948D01*
X92116301Y-33577947D01*
X91953645Y-33477235D01*
X91935019Y-33465702D01*
X91935017Y-33465701D01*
X91736198Y-33388679D01*
X91526610Y-33349500D01*
X91313390Y-33349500D01*
X91173664Y-33375619D01*
X91103801Y-33388679D01*
X90904982Y-33465701D01*
X90723698Y-33577947D01*
X90566126Y-33721594D01*
X90437631Y-33891747D01*
X90342595Y-34082609D01*
X90284243Y-34287689D01*
X90273471Y-34403951D01*
X90253367Y-34461003D01*
X90210589Y-34499999D01*
X90253367Y-34538996D01*
X90273471Y-34596048D01*
X90284243Y-34712310D01*
X90342595Y-34917390D01*
X90437631Y-35108252D01*
X90566126Y-35278405D01*
X90566128Y-35278407D01*
X90723698Y-35422052D01*
X90904981Y-35534298D01*
X90938695Y-35547359D01*
X90980220Y-35573964D01*
X91008092Y-35614651D01*
X91017900Y-35662985D01*
X91017900Y-36564083D01*
X91008461Y-36611536D01*
X90981581Y-36651764D01*
X89493781Y-38139564D01*
X89444418Y-38169814D01*
X89386702Y-38174356D01*
X89333215Y-38152201D01*
X89295615Y-38108178D01*
X89282100Y-38051883D01*
X89282100Y-35662985D01*
X89291908Y-35614651D01*
X89319780Y-35573964D01*
X89361304Y-35547359D01*
X89395019Y-35534298D01*
X89576302Y-35422052D01*
X89733872Y-35278407D01*
X89862366Y-35108255D01*
X89862366Y-35108253D01*
X89862368Y-35108252D01*
X89916494Y-34999551D01*
X89957405Y-34917389D01*
X90015756Y-34712310D01*
X90026529Y-34596047D01*
X90046633Y-34538996D01*
X90089410Y-34499999D01*
X90046633Y-34461003D01*
X90026529Y-34403951D01*
X90015756Y-34287689D01*
X89980725Y-34164571D01*
X89957405Y-34082611D01*
X89946867Y-34061448D01*
X89862368Y-33891747D01*
X89733873Y-33721594D01*
X89689271Y-33680934D01*
X89576302Y-33577948D01*
X89576301Y-33577947D01*
X89413645Y-33477235D01*
X89395019Y-33465702D01*
X89395017Y-33465701D01*
X89196198Y-33388679D01*
X88986610Y-33349500D01*
X88773390Y-33349500D01*
X88633664Y-33375619D01*
X88563801Y-33388679D01*
X88364982Y-33465701D01*
X88183698Y-33577947D01*
X88026126Y-33721594D01*
X87897631Y-33891747D01*
X87802595Y-34082609D01*
X87744243Y-34287689D01*
X87733471Y-34403951D01*
X87713367Y-34461003D01*
X87670589Y-34499999D01*
X87713367Y-34538996D01*
X87733471Y-34596048D01*
X87744243Y-34712310D01*
X87802595Y-34917390D01*
X87897631Y-35108252D01*
X88026126Y-35278405D01*
X88026128Y-35278407D01*
X88183698Y-35422052D01*
X88364981Y-35534298D01*
X88398695Y-35547359D01*
X88440220Y-35573964D01*
X88468092Y-35614651D01*
X88477900Y-35662985D01*
X88477900Y-37834083D01*
X88468461Y-37881536D01*
X88441581Y-37921764D01*
X86953781Y-39409564D01*
X86904418Y-39439814D01*
X86846702Y-39444356D01*
X86793215Y-39422201D01*
X86755615Y-39378178D01*
X86742100Y-39321883D01*
X86742100Y-35662985D01*
X86751908Y-35614651D01*
X86779780Y-35573964D01*
X86821304Y-35547359D01*
X86855019Y-35534298D01*
X87036302Y-35422052D01*
X87193872Y-35278407D01*
X87322366Y-35108255D01*
X87322366Y-35108253D01*
X87322368Y-35108252D01*
X87376494Y-34999551D01*
X87417405Y-34917389D01*
X87475756Y-34712310D01*
X87486529Y-34596047D01*
X87506633Y-34538996D01*
X87549410Y-34499999D01*
X87506633Y-34461003D01*
X87486529Y-34403951D01*
X87475756Y-34287689D01*
X87440725Y-34164571D01*
X87417405Y-34082611D01*
X87406867Y-34061448D01*
X87322368Y-33891747D01*
X87193873Y-33721594D01*
X87149271Y-33680934D01*
X87036302Y-33577948D01*
X87036301Y-33577947D01*
X86873645Y-33477235D01*
X86855019Y-33465702D01*
X86855017Y-33465701D01*
X86656198Y-33388679D01*
X86446610Y-33349500D01*
X86233390Y-33349500D01*
X86093664Y-33375619D01*
X86023801Y-33388679D01*
X85824982Y-33465701D01*
X85643698Y-33577947D01*
X85486126Y-33721594D01*
X85357631Y-33891747D01*
X85262595Y-34082609D01*
X85204243Y-34287689D01*
X85197970Y-34355393D01*
X85176799Y-34414029D01*
X85129770Y-34454952D01*
X85068772Y-34467820D01*
X85009221Y-34449379D01*
X84966170Y-34404291D01*
X84950499Y-34343952D01*
X84950499Y-33605133D01*
X84947585Y-33580011D01*
X84947585Y-33580009D01*
X84902206Y-33477235D01*
X84902204Y-33477233D01*
X84902204Y-33477232D01*
X84822767Y-33397795D01*
X84802121Y-33388679D01*
X84719991Y-33352415D01*
X84694865Y-33349500D01*
X84694863Y-33349500D01*
X82905132Y-33349500D01*
X82880011Y-33352414D01*
X82777232Y-33397795D01*
X82697795Y-33477232D01*
X82652415Y-33580009D01*
X82649500Y-33605136D01*
X82649500Y-35394867D01*
X82652414Y-35419988D01*
X82652414Y-35419990D01*
X82652415Y-35419991D01*
X82682608Y-35488371D01*
X82697795Y-35522767D01*
X82777232Y-35602204D01*
X82777233Y-35602204D01*
X82777235Y-35602206D01*
X82880009Y-35647585D01*
X82905135Y-35650500D01*
X84694864Y-35650499D01*
X84694867Y-35650499D01*
X84707427Y-35649041D01*
X84719991Y-35647585D01*
X84822765Y-35602206D01*
X84902206Y-35522765D01*
X84947585Y-35419991D01*
X84950500Y-35394865D01*
X84950499Y-34656046D01*
X84966170Y-34595710D01*
X85009221Y-34550622D01*
X85068772Y-34532181D01*
X85129770Y-34545049D01*
X85176799Y-34585972D01*
X85197970Y-34644607D01*
X85204243Y-34712310D01*
X85262595Y-34917390D01*
X85357631Y-35108252D01*
X85486126Y-35278405D01*
X85486128Y-35278407D01*
X85643698Y-35422052D01*
X85824981Y-35534298D01*
X85858695Y-35547359D01*
X85900220Y-35573964D01*
X85928092Y-35614651D01*
X85937900Y-35662985D01*
X85937900Y-39104083D01*
X85928461Y-39151536D01*
X85901581Y-39191764D01*
X82984325Y-42109018D01*
X82951488Y-42132549D01*
X82912831Y-42144276D01*
X82826289Y-42155670D01*
X82692377Y-42211137D01*
X82654563Y-42240153D01*
X82577379Y-42299379D01*
X82502749Y-42396639D01*
X82502276Y-42397255D01*
X82454335Y-42435048D01*
X82394171Y-42445386D01*
X82336365Y-42425763D01*
X82294927Y-42380936D01*
X82279900Y-42321768D01*
X82279900Y-39225157D01*
X82286481Y-39185298D01*
X82305524Y-39149670D01*
X82307861Y-39146625D01*
X82363330Y-39012709D01*
X82382250Y-38869000D01*
X82363330Y-38725291D01*
X82312347Y-38602206D01*
X82307862Y-38591377D01*
X82307861Y-38591376D01*
X82307861Y-38591375D01*
X82219621Y-38476379D01*
X82104625Y-38388139D01*
X82104624Y-38388138D01*
X82104622Y-38388137D01*
X81970709Y-38332670D01*
X81827000Y-38313749D01*
X81683290Y-38332670D01*
X81549377Y-38388137D01*
X81434379Y-38476379D01*
X81346137Y-38591377D01*
X81290670Y-38725290D01*
X81271749Y-38869000D01*
X81290670Y-39012709D01*
X81346137Y-39146622D01*
X81346138Y-39146624D01*
X81346139Y-39146625D01*
X81346273Y-39146800D01*
X81348476Y-39149670D01*
X81367519Y-39185298D01*
X81374100Y-39225157D01*
X81374100Y-45834606D01*
X81373320Y-45848490D01*
X81369304Y-45884124D01*
X81379985Y-45940572D01*
X81380762Y-45945145D01*
X81390223Y-46007922D01*
X81396114Y-46025820D01*
X81396629Y-46028541D01*
X81394863Y-46082568D01*
X81370279Y-46130710D01*
X81327548Y-46163819D01*
X81274792Y-46175601D01*
X61237460Y-46175601D01*
X61190007Y-46166162D01*
X61149779Y-46139282D01*
X59412088Y-44401591D01*
X59388556Y-44368752D01*
X59376831Y-44330100D01*
X59376330Y-44326291D01*
X59330482Y-44215602D01*
X59320862Y-44192377D01*
X59320861Y-44192376D01*
X59320861Y-44192375D01*
X59232621Y-44077379D01*
X59117625Y-43989139D01*
X59117624Y-43989138D01*
X59117622Y-43989137D01*
X58983709Y-43933670D01*
X58840000Y-43914749D01*
X58696290Y-43933670D01*
X58562377Y-43989137D01*
X58447379Y-44077379D01*
X58359137Y-44192377D01*
X58303670Y-44326290D01*
X58284749Y-44469999D01*
X58303670Y-44613709D01*
X58359137Y-44747622D01*
X58359138Y-44747624D01*
X58359139Y-44747625D01*
X58447379Y-44862621D01*
X58562375Y-44950861D01*
X58562376Y-44950861D01*
X58562377Y-44950862D01*
X58696286Y-45006328D01*
X58696291Y-45006330D01*
X58700098Y-45006831D01*
X58738752Y-45018556D01*
X58771590Y-45042088D01*
X60655342Y-46925840D01*
X60664608Y-46936209D01*
X60686969Y-46964249D01*
X60708388Y-46978852D01*
X60734443Y-46996615D01*
X60738212Y-46999289D01*
X60789305Y-47036998D01*
X60794045Y-47039390D01*
X60799770Y-47041156D01*
X60799775Y-47041159D01*
X60854744Y-47058114D01*
X60859049Y-47059530D01*
X60913350Y-47078532D01*
X60913353Y-47078532D01*
X60919017Y-47080514D01*
X60924234Y-47081401D01*
X60930237Y-47081401D01*
X60987729Y-47081401D01*
X60992365Y-47081488D01*
X61055769Y-47083860D01*
X61074449Y-47081401D01*
X115196105Y-47081401D01*
X115209989Y-47082181D01*
X115245623Y-47086196D01*
X115245623Y-47086195D01*
X115245624Y-47086196D01*
X115302092Y-47075511D01*
X115306663Y-47074735D01*
X115369435Y-47065275D01*
X115374463Y-47063620D01*
X115379769Y-47060815D01*
X115379772Y-47060815D01*
X115430601Y-47033949D01*
X115434695Y-47031882D01*
X115486509Y-47006932D01*
X115486509Y-47006931D01*
X115491916Y-47004328D01*
X115496230Y-47001267D01*
X115500475Y-46997021D01*
X115500478Y-46997020D01*
X115541163Y-46956333D01*
X115544421Y-46953195D01*
X115586590Y-46914069D01*
X115586591Y-46914066D01*
X115590983Y-46909992D01*
X115602451Y-46895045D01*
X116903277Y-45594219D01*
X116943506Y-45567339D01*
X116990959Y-45557900D01*
X117524768Y-45557900D01*
X117583936Y-45572927D01*
X117628763Y-45614365D01*
X117648386Y-45672171D01*
X117638048Y-45732335D01*
X117600255Y-45780275D01*
X117532709Y-45832106D01*
X117502379Y-45855379D01*
X117414137Y-45970377D01*
X117358670Y-46104290D01*
X117339749Y-46248000D01*
X117358670Y-46391709D01*
X117414137Y-46525622D01*
X117414138Y-46525624D01*
X117414139Y-46525625D01*
X117502379Y-46640621D01*
X117617375Y-46728861D01*
X117751291Y-46784330D01*
X117837831Y-46795723D01*
X117876487Y-46807449D01*
X117909325Y-46830980D01*
X118645518Y-47567173D01*
X118669049Y-47600009D01*
X118680776Y-47638667D01*
X118692170Y-47725209D01*
X118692170Y-47725211D01*
X118693817Y-47737713D01*
X118683261Y-47806304D01*
X118637504Y-47858480D01*
X118570878Y-47877900D01*
X52072917Y-47877900D01*
X52025464Y-47868461D01*
X51985236Y-47841581D01*
X48338419Y-44194764D01*
X48311539Y-44154536D01*
X48302100Y-44107083D01*
X48302100Y-39168000D01*
X53949850Y-39168000D01*
X53968771Y-39311709D01*
X54024238Y-39445622D01*
X54024239Y-39445624D01*
X54024240Y-39445625D01*
X54112480Y-39560621D01*
X54227476Y-39648861D01*
X54361392Y-39704330D01*
X54505101Y-39723250D01*
X54648810Y-39704330D01*
X54782726Y-39648861D01*
X54847709Y-39598998D01*
X54851976Y-39595724D01*
X54887604Y-39576681D01*
X54927462Y-39570100D01*
X56622740Y-39570100D01*
X56662598Y-39576681D01*
X56698226Y-39595724D01*
X56733266Y-39622611D01*
X56767476Y-39648861D01*
X56901392Y-39704330D01*
X57045101Y-39723250D01*
X57188810Y-39704330D01*
X57322726Y-39648861D01*
X57437722Y-39560621D01*
X57525962Y-39445625D01*
X57581431Y-39311709D01*
X57600351Y-39168000D01*
X59582550Y-39168000D01*
X59601471Y-39311709D01*
X59656938Y-39445622D01*
X59656939Y-39445624D01*
X59656940Y-39445625D01*
X59745180Y-39560621D01*
X59860176Y-39648861D01*
X59994092Y-39704330D01*
X60137801Y-39723250D01*
X60281510Y-39704330D01*
X60415426Y-39648861D01*
X60480409Y-39598998D01*
X60484676Y-39595724D01*
X60520304Y-39576681D01*
X60560162Y-39570100D01*
X62718740Y-39570100D01*
X62758598Y-39576681D01*
X62794226Y-39595724D01*
X62829266Y-39622611D01*
X62863476Y-39648861D01*
X62997392Y-39704330D01*
X63141101Y-39723250D01*
X63284810Y-39704330D01*
X63418726Y-39648861D01*
X63533722Y-39560621D01*
X63621962Y-39445625D01*
X63677431Y-39311709D01*
X63696351Y-39168000D01*
X63677431Y-39024291D01*
X63621962Y-38890375D01*
X63533722Y-38775379D01*
X63418726Y-38687139D01*
X63418725Y-38687138D01*
X63418723Y-38687137D01*
X63284810Y-38631670D01*
X63141101Y-38612749D01*
X62997391Y-38631670D01*
X62863476Y-38687138D01*
X62794226Y-38740276D01*
X62758598Y-38759319D01*
X62718740Y-38765900D01*
X60560162Y-38765900D01*
X60520304Y-38759319D01*
X60484676Y-38740276D01*
X60415425Y-38687138D01*
X60281510Y-38631670D01*
X60137801Y-38612749D01*
X59994091Y-38631670D01*
X59860178Y-38687137D01*
X59745180Y-38775379D01*
X59656938Y-38890377D01*
X59601471Y-39024290D01*
X59582550Y-39168000D01*
X57600351Y-39168000D01*
X57581431Y-39024291D01*
X57525962Y-38890375D01*
X57437722Y-38775379D01*
X57322726Y-38687139D01*
X57322725Y-38687138D01*
X57322723Y-38687137D01*
X57188810Y-38631670D01*
X57045101Y-38612749D01*
X56901391Y-38631670D01*
X56767476Y-38687138D01*
X56698226Y-38740276D01*
X56662598Y-38759319D01*
X56622740Y-38765900D01*
X54927462Y-38765900D01*
X54887604Y-38759319D01*
X54851976Y-38740276D01*
X54782725Y-38687138D01*
X54648810Y-38631670D01*
X54505101Y-38612749D01*
X54361391Y-38631670D01*
X54227478Y-38687137D01*
X54112480Y-38775379D01*
X54024238Y-38890377D01*
X53968771Y-39024290D01*
X53949850Y-39168000D01*
X48302100Y-39168000D01*
X48302100Y-36230000D01*
X53590101Y-36230000D01*
X53590101Y-36580710D01*
X53605520Y-36732339D01*
X53666404Y-36926389D01*
X53765104Y-37104214D01*
X53897580Y-37258531D01*
X54058408Y-37383021D01*
X54241006Y-37472589D01*
X54340100Y-37498246D01*
X54340101Y-37498247D01*
X54340101Y-36230000D01*
X53590101Y-36230000D01*
X48302100Y-36230000D01*
X48302100Y-35730000D01*
X53590101Y-35730000D01*
X54340101Y-35730000D01*
X54340101Y-34461753D01*
X54840101Y-34461753D01*
X54840101Y-37503366D01*
X54842049Y-37503067D01*
X55032764Y-37432435D01*
X55205364Y-37324854D01*
X55352770Y-37184733D01*
X55468956Y-37017805D01*
X55549160Y-36830907D01*
X55590101Y-36631689D01*
X55590101Y-36080384D01*
X55604743Y-36021931D01*
X55645210Y-35977282D01*
X55701947Y-35956981D01*
X55761554Y-35965823D01*
X55869865Y-36010687D01*
X55982380Y-36025500D01*
X55982381Y-36025500D01*
X56057821Y-36025500D01*
X56057822Y-36025500D01*
X56114079Y-36018093D01*
X56170337Y-36010687D01*
X56310334Y-35952698D01*
X56430552Y-35860451D01*
X56522799Y-35740233D01*
X56580788Y-35600236D01*
X56600567Y-35450000D01*
X56600567Y-35449999D01*
X61219634Y-35449999D01*
X61239413Y-35600235D01*
X61290160Y-35722747D01*
X61297403Y-35740233D01*
X61389650Y-35860451D01*
X61509868Y-35952698D01*
X61617022Y-35997083D01*
X61649865Y-36010687D01*
X61762380Y-36025500D01*
X61762381Y-36025500D01*
X61837821Y-36025500D01*
X61837822Y-36025500D01*
X61894079Y-36018093D01*
X61950337Y-36010687D01*
X62058647Y-35965823D01*
X62118255Y-35956981D01*
X62174992Y-35977282D01*
X62215459Y-36021931D01*
X62230101Y-36080384D01*
X62230101Y-36580710D01*
X62245520Y-36732339D01*
X62306404Y-36926389D01*
X62405104Y-37104214D01*
X62537580Y-37258531D01*
X62698408Y-37383021D01*
X62881006Y-37472589D01*
X62980100Y-37498246D01*
X62980101Y-37498247D01*
X62980101Y-36230000D01*
X63480101Y-36230000D01*
X63480101Y-37503366D01*
X63482049Y-37503067D01*
X63672764Y-37432435D01*
X63845364Y-37324854D01*
X63992770Y-37184733D01*
X64108956Y-37017805D01*
X64189160Y-36830907D01*
X64230101Y-36631689D01*
X64230101Y-36230000D01*
X63480101Y-36230000D01*
X62980101Y-36230000D01*
X62980101Y-34461753D01*
X63480101Y-34461753D01*
X63480101Y-35730000D01*
X64230101Y-35730000D01*
X64230101Y-35499999D01*
X64894389Y-35499999D01*
X64914804Y-35785429D01*
X64975629Y-36065041D01*
X64975631Y-36065046D01*
X65071318Y-36321593D01*
X65075634Y-36333163D01*
X65212772Y-36584313D01*
X65286356Y-36682609D01*
X65384261Y-36813395D01*
X65586605Y-37015739D01*
X65751257Y-37138996D01*
X65815686Y-37187227D01*
X65920770Y-37244607D01*
X66066839Y-37324367D01*
X66334954Y-37424369D01*
X66334957Y-37424369D01*
X66334958Y-37424370D01*
X66372033Y-37432435D01*
X66614572Y-37485196D01*
X66809103Y-37499109D01*
X66828551Y-37500500D01*
X66828552Y-37500500D01*
X66971448Y-37500500D01*
X66971449Y-37500500D01*
X66990897Y-37499109D01*
X67185428Y-37485196D01*
X67465046Y-37424369D01*
X67733161Y-37324367D01*
X67984315Y-37187226D01*
X68213395Y-37015739D01*
X68415739Y-36813395D01*
X68587226Y-36584315D01*
X68724367Y-36333161D01*
X68824369Y-36065046D01*
X68885196Y-35785428D01*
X68905610Y-35500000D01*
X68885196Y-35214572D01*
X68824369Y-34934954D01*
X68724367Y-34666839D01*
X68609586Y-34456634D01*
X68587227Y-34415686D01*
X68491409Y-34287689D01*
X68415739Y-34186605D01*
X68213395Y-33984261D01*
X68072721Y-33878954D01*
X67984313Y-33812772D01*
X67733163Y-33675634D01*
X67733162Y-33675633D01*
X67733161Y-33675633D01*
X67544144Y-33605133D01*
X67465041Y-33575629D01*
X67185429Y-33514804D01*
X66971449Y-33499500D01*
X66971448Y-33499500D01*
X66828552Y-33499500D01*
X66828551Y-33499500D01*
X66614570Y-33514804D01*
X66334958Y-33575629D01*
X66066836Y-33675634D01*
X65815686Y-33812772D01*
X65586602Y-33984263D01*
X65384263Y-34186602D01*
X65212772Y-34415686D01*
X65075634Y-34666836D01*
X64975629Y-34934958D01*
X64914804Y-35214570D01*
X64894389Y-35499999D01*
X64230101Y-35499999D01*
X64230101Y-35379290D01*
X64214681Y-35227660D01*
X64153797Y-35033610D01*
X64055097Y-34855785D01*
X63922621Y-34701468D01*
X63761793Y-34576978D01*
X63579195Y-34487410D01*
X63480101Y-34461753D01*
X62980101Y-34461753D01*
X62980101Y-34456634D01*
X62978152Y-34456932D01*
X62787437Y-34527564D01*
X62614837Y-34635145D01*
X62467431Y-34775266D01*
X62351242Y-34942198D01*
X62347861Y-34950078D01*
X62314779Y-34995177D01*
X62265244Y-35021151D01*
X62209335Y-35022715D01*
X62158427Y-34999551D01*
X62090334Y-34947302D01*
X62078012Y-34942198D01*
X61950336Y-34889312D01*
X61837822Y-34874500D01*
X61837821Y-34874500D01*
X61762381Y-34874500D01*
X61762380Y-34874500D01*
X61649865Y-34889312D01*
X61509869Y-34947301D01*
X61389650Y-35039549D01*
X61297402Y-35159768D01*
X61239413Y-35299764D01*
X61219634Y-35449999D01*
X56600567Y-35449999D01*
X56596560Y-35419567D01*
X56580788Y-35299764D01*
X56571941Y-35278405D01*
X56522799Y-35159767D01*
X56430552Y-35039549D01*
X56310334Y-34947302D01*
X56298012Y-34942198D01*
X56170336Y-34889312D01*
X56057822Y-34874500D01*
X56057821Y-34874500D01*
X55982381Y-34874500D01*
X55982380Y-34874500D01*
X55869865Y-34889312D01*
X55729867Y-34947302D01*
X55658845Y-35001799D01*
X55611006Y-35024302D01*
X55558142Y-35024832D01*
X55509861Y-35003293D01*
X55474940Y-34963601D01*
X55415096Y-34855783D01*
X55282621Y-34701468D01*
X55121793Y-34576978D01*
X54939195Y-34487410D01*
X54840101Y-34461753D01*
X54340101Y-34461753D01*
X54340101Y-34456634D01*
X54338152Y-34456932D01*
X54147437Y-34527564D01*
X53974837Y-34635145D01*
X53827431Y-34775266D01*
X53711245Y-34942194D01*
X53631041Y-35129092D01*
X53590101Y-35328311D01*
X53590101Y-35730000D01*
X48302100Y-35730000D01*
X48302100Y-34525545D01*
X48304154Y-34518124D01*
X50210426Y-34518124D01*
X50210427Y-34518125D01*
X50272610Y-34561666D01*
X50470840Y-34654102D01*
X50682113Y-34710712D01*
X50899999Y-34729775D01*
X51117886Y-34710712D01*
X51329159Y-34654102D01*
X51527385Y-34561667D01*
X51589572Y-34518124D01*
X50900001Y-33828553D01*
X50900000Y-33828553D01*
X50210426Y-34518124D01*
X48304154Y-34518124D01*
X48319742Y-34461796D01*
X48367647Y-34416187D01*
X48371684Y-34414029D01*
X48486450Y-34352685D01*
X48646410Y-34221410D01*
X48777685Y-34061450D01*
X48875232Y-33878954D01*
X48935300Y-33680934D01*
X48955583Y-33475000D01*
X48935300Y-33269066D01*
X48875232Y-33071046D01*
X48777685Y-32888550D01*
X48712047Y-32808570D01*
X48646410Y-32728589D01*
X48548952Y-32648609D01*
X48486450Y-32597315D01*
X48303954Y-32499768D01*
X48204944Y-32469734D01*
X48105932Y-32439699D01*
X47900000Y-32419417D01*
X47694067Y-32439699D01*
X47496043Y-32499769D01*
X47313551Y-32597314D01*
X47153589Y-32728589D01*
X47022314Y-32888551D01*
X46924769Y-33071043D01*
X46864699Y-33269067D01*
X46844417Y-33474999D01*
X30900500Y-33474999D01*
X30900500Y-30624500D01*
X30917113Y-30562500D01*
X30962500Y-30517113D01*
X31024500Y-30500500D01*
X48780273Y-30500500D01*
X48842975Y-30517521D01*
G37*
%TD.AperFunction*%
M02*
