%TF.GenerationSoftware,KiCad,Pcbnew,7.0.1-3b83917a11~172~ubuntu22.10.1*%
%TF.CreationDate,2023-04-03T16:10:19+02:00*%
%TF.ProjectId,Model-M-RP2040-USB,4d6f6465-6c2d-44d2-9d52-50323034302d,rev?*%
%TF.SameCoordinates,Original*%
%TF.FileFunction,Profile,NP*%
%FSLAX46Y46*%
G04 Gerber Fmt 4.6, Leading zero omitted, Abs format (unit mm)*
G04 Created by KiCad (PCBNEW 7.0.1-3b83917a11~172~ubuntu22.10.1) date 2023-04-03 16:10:19*
%MOMM*%
%LPD*%
G01*
G04 APERTURE LIST*
%TA.AperFunction,Profile*%
%ADD10C,0.100000*%
%TD*%
G04 APERTURE END LIST*
D10*
X138400000Y-69000000D02*
G75*
G03*
X138400000Y-68000000I0J500000D01*
G01*
X44400000Y-69000000D02*
X54400000Y-69000000D01*
X44400000Y-68000000D02*
G75*
G03*
X44400000Y-69000000I0J-500000D01*
G01*
X56400000Y-68000000D02*
G75*
G03*
X56400000Y-69000000I0J-500000D01*
G01*
X78400000Y-69000000D02*
G75*
G03*
X78400000Y-68000000I0J500000D01*
G01*
X176400000Y-69000000D02*
X181900000Y-69000000D01*
X140400000Y-68000000D02*
G75*
G03*
X140400000Y-69000000I0J-500000D01*
G01*
X68400000Y-68000000D02*
G75*
G03*
X68400000Y-69000000I0J-500000D01*
G01*
X138400000Y-68000000D02*
X128400000Y-68000000D01*
X181900000Y-69000000D02*
X181900000Y-63500000D01*
X128400000Y-68000000D02*
G75*
G03*
X128400000Y-69000000I0J-500000D01*
G01*
X164400000Y-68000000D02*
G75*
G03*
X164400000Y-69000000I0J-500000D01*
G01*
X102400000Y-68000000D02*
X92400000Y-68000000D01*
X181900000Y-49500000D02*
X181900000Y-39500000D01*
X152400000Y-68000000D02*
G75*
G03*
X152400000Y-69000000I0J-500000D01*
G01*
X92400000Y-69000000D02*
X102400000Y-69000000D01*
X150400000Y-69000000D02*
G75*
G03*
X150400000Y-68000000I0J500000D01*
G01*
X126400000Y-68000000D02*
X116400000Y-68000000D01*
X128400000Y-69000000D02*
X138400000Y-69000000D01*
X140400000Y-69000000D02*
X150400000Y-69000000D01*
X181900000Y-63500000D02*
G75*
G03*
X180900000Y-63500000I-500000J0D01*
G01*
X180900000Y-61500000D02*
G75*
G03*
X181900000Y-61500000I500000J0D01*
G01*
X180900000Y-39500000D02*
X180900000Y-49500000D01*
X174400000Y-68000000D02*
X164400000Y-68000000D01*
X54400000Y-68000000D02*
X44400000Y-68000000D01*
X104400000Y-68000000D02*
G75*
G03*
X104400000Y-69000000I0J-500000D01*
G01*
X92400000Y-68000000D02*
G75*
G03*
X92400000Y-69000000I0J-500000D01*
G01*
X180900000Y-30500000D02*
X30900000Y-30500000D01*
X114400000Y-69000000D02*
G75*
G03*
X114400000Y-68000000I0J500000D01*
G01*
X180900000Y-51500000D02*
X180900000Y-61500000D01*
X162400000Y-68000000D02*
X152400000Y-68000000D01*
X162400000Y-69000000D02*
G75*
G03*
X162400000Y-68000000I0J500000D01*
G01*
X180900000Y-49500000D02*
G75*
G03*
X181900000Y-49500000I500000J0D01*
G01*
X66400000Y-68000000D02*
X56400000Y-68000000D01*
X116400000Y-69000000D02*
X126400000Y-69000000D01*
X200900000Y-80500000D02*
X200900000Y-30500000D01*
X30900000Y-69000000D02*
X42400000Y-69000000D01*
X200900000Y-30500000D02*
X181900000Y-30500000D01*
X114400000Y-68000000D02*
X104400000Y-68000000D01*
X30900000Y-69000000D02*
X30900000Y-80500000D01*
X180900000Y-37500000D02*
G75*
G03*
X181900000Y-37500000I500000J0D01*
G01*
X54400000Y-69000000D02*
G75*
G03*
X54400000Y-68000000I0J500000D01*
G01*
X42400000Y-68000000D02*
X30900000Y-68000000D01*
X181900000Y-61500000D02*
X181900000Y-51500000D01*
X116400000Y-68000000D02*
G75*
G03*
X116400000Y-69000000I0J-500000D01*
G01*
X102400000Y-69000000D02*
G75*
G03*
X102400000Y-68000000I0J500000D01*
G01*
X42400000Y-69000000D02*
G75*
G03*
X42400000Y-68000000I0J500000D01*
G01*
X104400000Y-69000000D02*
X114400000Y-69000000D01*
X30900000Y-30500000D02*
X30900000Y-68000000D01*
X90400000Y-69000000D02*
G75*
G03*
X90400000Y-68000000I0J500000D01*
G01*
X152400000Y-69000000D02*
X162400000Y-69000000D01*
X126400000Y-69000000D02*
G75*
G03*
X126400000Y-68000000I0J500000D01*
G01*
X180900000Y-68000000D02*
X176400000Y-68000000D01*
X78400000Y-68000000D02*
X68400000Y-68000000D01*
X56400000Y-69000000D02*
X66400000Y-69000000D01*
X176400000Y-68000000D02*
G75*
G03*
X176400000Y-69000000I0J-500000D01*
G01*
X174400000Y-69000000D02*
G75*
G03*
X174400000Y-68000000I0J500000D01*
G01*
X30900000Y-80500000D02*
X200900000Y-80500000D01*
X80400000Y-68000000D02*
G75*
G03*
X80400000Y-69000000I0J-500000D01*
G01*
X66400000Y-69000000D02*
G75*
G03*
X66400000Y-68000000I0J500000D01*
G01*
X181900000Y-51500000D02*
G75*
G03*
X180900000Y-51500000I-500000J0D01*
G01*
X80400000Y-69000000D02*
X90400000Y-69000000D01*
X90400000Y-68000000D02*
X80400000Y-68000000D01*
X150400000Y-68000000D02*
X140400000Y-68000000D01*
X164400000Y-69000000D02*
X174400000Y-69000000D01*
X180900000Y-63500000D02*
X180900000Y-68000000D01*
X181900000Y-39500000D02*
G75*
G03*
X180900000Y-39500000I-500000J0D01*
G01*
X68400000Y-69000000D02*
X78400000Y-69000000D01*
X181900000Y-37500000D02*
X181900000Y-30500000D01*
X180900000Y-30500000D02*
X180900000Y-37500000D01*
M02*
