M48
; DRILL file {KiCad 7.0.1-3b83917a11~172~ubuntu22.10.1} date Mo 03 Apr 2023 16:10:47 CEST
; FORMAT={-:-/ absolute / metric / decimal}
; #@! TF.CreationDate,2023-04-03T16:10:47+02:00
; #@! TF.GenerationSoftware,Kicad,Pcbnew,7.0.1-3b83917a11~172~ubuntu22.10.1
; #@! TF.FileFunction,Plated,1,2,PTH
FMAT,2
METRIC
; #@! TA.AperFunction,Plated,PTH,ViaDrill
T1C0.300
; #@! TA.AperFunction,Plated,PTH,ComponentDrill
T2C0.600
; #@! TA.AperFunction,Plated,PTH,ComponentDrill
T3C0.800
; #@! TA.AperFunction,Plated,PTH,ComponentDrill
T4C1.000
%
G90
G05
T1
X54.505Y-39.168
X54.522Y-42.565
X57.045Y-39.168
X58.84Y-40.152
X58.84Y-44.47
X60.138Y-39.168
X63.141Y-39.168
X63.158Y-42.565
X80.684Y-41.549
X81.827Y-38.869
X82.97Y-42.692
X82.97Y-47.518
X84.24Y-42.692
X85.51Y-42.692
X86.78Y-42.692
X88.05Y-42.692
X89.32Y-42.692
X90.59Y-42.692
X91.86Y-42.692
X91.86Y-47.518
X93.257Y-40.66
X93.257Y-42.692
X96.686Y-45.359
X97.194Y-47.518
X99.988Y-44.089
X100.75Y-40.406
X100.75Y-45.486
X103.036Y-38.869
X104.179Y-42.819
X105.449Y-42.819
X105.449Y-37.969
X106.719Y-42.819
X107.354Y-41.976
X107.989Y-42.819
X108.624Y-40.66
X109.259Y-42.819
X110.529Y-42.819
X111.799Y-42.819
X117.895Y-46.248
X119.228Y-47.581
X122.975Y-52.217
X122.975Y-55.773
X124.626Y-53.995
X124.88Y-41.93
X124.88Y-46.883
X124.88Y-60.98
X124.88Y-66.441
X137.58Y-60.98
X137.58Y-66.568
X150.28Y-41.803
X150.28Y-47.01
X150.28Y-60.98
X150.28Y-66.568
X162.98Y-41.676
X162.98Y-47.137
X162.98Y-60.98
X162.98Y-66.568
T3
X47.9Y-33.475
X49.4Y-31.625
X50.9Y-33.475
T4
X83.8Y-34.5
X86.34Y-34.5
X88.88Y-34.5
X91.42Y-34.5
X93.96Y-34.5
X96.5Y-34.5
X99.04Y-34.5
X101.58Y-34.5
X104.12Y-34.5
X106.66Y-34.5
X109.2Y-34.5
X111.74Y-34.5
X114.28Y-34.5
X116.82Y-34.5
X119.36Y-34.5
X119.63Y-52.995
X119.63Y-54.995
X119.8Y-45.105
X119.8Y-62.885
X121.9Y-34.5
X122.34Y-45.105
X122.34Y-62.885
X122.93Y-53.995
X124.88Y-45.105
X124.88Y-62.885
X127.42Y-45.105
X127.42Y-62.885
X129.96Y-45.105
X129.96Y-62.885
X132.5Y-45.105
X132.5Y-62.885
X135.04Y-45.105
X135.04Y-62.885
X137.58Y-45.105
X137.58Y-62.885
X140.12Y-45.105
X140.12Y-62.885
X140.2Y-37.1
X142.66Y-45.105
X142.66Y-62.885
X142.74Y-37.1
X145.2Y-45.105
X145.2Y-62.885
X145.28Y-37.1
X147.74Y-45.105
X147.74Y-62.885
X147.82Y-37.1
X150.28Y-45.105
X150.28Y-62.885
X150.36Y-37.1
X152.82Y-45.105
X152.82Y-62.885
X152.9Y-37.1
X155.36Y-45.105
X155.36Y-62.885
X155.44Y-37.1
X157.9Y-45.105
X157.9Y-62.885
X157.98Y-37.1
X160.44Y-45.105
X160.44Y-62.885
X160.52Y-37.1
X162.98Y-45.105
X162.98Y-62.885
X163.06Y-37.1
X165.52Y-45.105
X165.52Y-62.885
X165.6Y-37.1
X167.83Y-51.455
X167.83Y-53.995
X167.83Y-56.535
X168.06Y-45.105
X168.06Y-62.885
X168.14Y-37.1
X174.9Y-37.5
X174.9Y-40.04
X174.9Y-42.58
X174.9Y-45.12
T2
X54.59Y-32.1G85X54.59Y-31.5
G05
X54.59Y-36.53G85X54.59Y-35.43
G05
X63.23Y-32.1G85X63.23Y-31.5
G05
X63.23Y-36.53G85X63.23Y-35.43
G05
T0
M30
